<!-- Generated by IcoMoon.io -->
<svg version="1.1" xmlns="http://www.w3.org/2000/svg" width="32" height="32" viewBox="0 0 32 32">
<title>refresh</title>
<path d="M16 28.153c-6.702 0-12.153-5.452-12.153-12.153h1.703l-2.756-4.772-2.755 4.772h1.703c0 7.862 6.396 14.258 14.258 14.258 4.536 0 8.697-2.084 11.417-5.718l-1.683-1.262c-2.321 3.098-5.869 4.875-9.734 4.875z"></path>
<path d="M30.258 16c0-7.862-6.397-14.258-14.258-14.258-4.397 0-8.482 1.984-11.207 5.443l1.654 1.303c2.323-2.95 5.805-4.641 9.553-4.641 6.702 0 12.153 5.452 12.153 12.153h-1.704l2.757 4.772 2.755-4.772h-1.703z"></path>
</svg>
