<!-- Generated by IcoMoon.io -->
<svg version="1.1" xmlns="http://www.w3.org/2000/svg" width="32" height="32" viewBox="0 0 32 32">
<title>protection-group</title>
<path d="M2.5 19.8h26.9v1.9h-26.9v-1.9z"></path>
<path d="M15.8 29.4c-4.7-1.6-7.4-3.4-8.9-6.6h-2.1c1.8 4.2 4.9 6.6 10.8 8.6l0.2 0.1 0.2-0.1c5.8-2 9.1-4.4 10.8-8.6h-2.1c-1.5 3-4.2 5-8.9 6.6z"></path>
<path d="M5.4 18.4c-0.5-2.7-0.6-6.1-0.7-10.6h0.2c3.3-0.5 7.2-2.2 10.8-4.7 3.5 2.5 7.5 4.2 10.8 4.7h0.1c0 4.5-0.1 7.9-0.7 10.7h1.9c0.5-3.1 0.7-6.8 0.7-11.6v-0.9l-1.9-0.2c-3.3-0.5-7.3-2.2-10.5-4.7l-0.6-0.6-0.6 0.5c-3.2 2.6-7.2 4.4-10.6 4.8l-1.6 0.2v0.7c0 4.8 0.1 8.6 0.7 11.6h2z"></path>
<path d="M8.7 10h2.4v2h-2.4v-2z"></path>
<path d="M13.1 10h10.2v2h-10.2v-2z"></path>
<path d="M8.7 14.8h2.4v2h-2.4v-2z"></path>
<path d="M13.1 14.8h10.2v2h-10.2v-2z"></path>
</svg>
