<!-- Generated by IcoMoon.io -->
<svg version="1.1" xmlns="http://www.w3.org/2000/svg" width="32" height="32" viewBox="0 0 32 32">
<title>resoure-restore</title>
<path d="M16.3 12.3l-4-2.4-0.1 1.3c-0.1 0-0.2 0-0.3 0-2.9 0-5.2 2.3-5.2 5.2s2.3 5.2 5.2 5.2 4.9-4.3 5.1-4.8v0c0.5-1.2 2-3.6 3.3-3.6 1.7 0 3.1 1.4 3.1 3.1s-1.4 3.1-3.1 3.1c-0.7 0-1.3-0.2-2.1-0.7l-1.2 1.7c1 0.8 2.1 1.2 3.3 1.2 2.9 0 5.2-2.3 5.2-5.2s-2.3-5.2-5.2-5.2-4.9 4.3-5.1 4.8v0c-0.6 1.4-2.1 3.6-3.3 3.6-1.7 0-3.1-1.4-3.1-3.1s1.4-3.1 3.1-3.1c0.1 0 0.2 0 0.3 0l-0.1 1.3 4.2-2.4z"></path>
<path d="M2.2 3v10.9h4c0.3-0.8 0.9-1.5 1.6-2.1h-3.5v-6.7h23.6v6.9h-3.3c0.7 0.6 1.3 1.3 1.6 2.1h3.6v-11h-27.6z"></path>
<path d="M25.4 20.2h2.3v6.9h-23.5v-6.9h2.7c-0.5-0.6-0.9-1.3-1-2.1h-3.7v10.9h27.6v-10.9h-3.4c-0.2 0.8-0.5 1.4-1 2.1z"></path>
</svg>
