<!-- Generated by IcoMoon.io -->
<svg version="1.1" xmlns="http://www.w3.org/2000/svg" width="768" height="768" viewBox="0 0 768 768">
<title></title>
<g id="icomoon-ignore">
</g>
<path d="M383.986 217.68c-75.937 0-164.058 19.931-164.058 77.428v208.792c0 56.336 88.121 77.467 164.058 77.467 75.976 0 164.097-20.003 164.097-77.467v-208.756c0-57.499-88.121-77.467-164.133-77.467h0.036zM383.73 248.23c70.991 0 134.964 17.566 134.964 46.917 0 29.312-70.919 44.951-134.711 44.951s-135.181-15.639-135.181-44.987c0-29.312 64.008-46.917 134.928-46.917v0.036zM383.986 543.58c-80.012 0-135.62-23.457-135.62-52.807v-39.934c30.404 25.822 82.994 35.207 135.656 35.207 52.626 0 103.65-9.42 134.018-35.207v39.934c0 29.351-54.043 52.807-134.054 52.807zM383.404 448.187c-80.011 0-135.402-27.932-135.402-48.661v-53.899c30.368 25.822 105.905 30.44 135.402 30.44 29.459 0 105.034-4.656 135.402-30.44v53.899c0 20.731-55.391 48.662-135.402 48.662z"></path>
<path d="M260.581 155.128c-42.819 0-94.156 0-135.303 0 12.093-23.488 47.846-87.63 67.484-124.963 9.649 18.032 9.355 15.774 27.164 46.471 91.916-47.642 180.625-56.974 278.403-23.629 74.321 25.345 133.518 71.334 177.393 136.471 88.207 130.957 78.050 304.5-24.504 424.937-101.685 119.415-271.432 157-414.497 91.461-152.548-69.883-209.708-221.52-203.92-319.362h36.308c3.257 92.78 30.766 175.393 102.034 235.558 48.657 41.079 124.107 79.649 187.62 83.804 139.156 9.101 278.067-81.121 325.407-207.759 46.524-124.458-5.072-287.847-107.837-366.48s-251.11-82.345-339.616-28.766c12.079 26.377 13.802 28.975 23.857 52.257z"></path>
</svg>
