<!-- Generated by IcoMoon.io -->
<svg version="1.1" xmlns="http://www.w3.org/2000/svg" width="32" height="32" viewBox="0 0 32 32">
<title>file-user</title>
<path d="M20.884 14.441c0-2.598-2.078-4.676-4.676-4.676s-4.676 2.078-4.676 4.676c0 1.559 0.727 2.805 1.87 3.741-1.559 0.727-2.909 1.974-3.637 3.533-0.208 0.52 0 1.039 0.416 1.247 0.104 0.104 0.208 0.104 0.416 0.104 0.312 0 0.727-0.208 0.831-0.52 0.831-1.87 2.702-3.013 4.78-3.013 1.143 0 2.286 0.416 3.117 1.039 0.416 0.312 1.039 0.208 1.351-0.208s0.208-1.039-0.208-1.351c-0.416-0.312-0.935-0.623-1.455-0.831 1.143-0.935 1.87-2.286 1.87-3.741zM16.208 11.636c1.559 0 2.805 1.247 2.805 2.805s-1.247 2.805-2.805 2.805c-1.559 0-2.805-1.247-2.805-2.805s1.247-2.805 2.805-2.805z"></path>
<path d="M25.559 9.038v18.391h-19.119v-22.859h14.547v-1.87h-16.417v26.6h22.859v-20.262z"></path>
<path d="M22.234 2.908v4.884h4.988z"></path>
</svg>
