<!-- Generated by IcoMoon.io -->
<svg version="1.1" xmlns="http://www.w3.org/2000/svg" width="32" height="32" viewBox="0 0 32 32">
<title>fs-access-group</title>
<path d="M27.1 20.639v-12.838h-23.371v16.43h23.371v-3.592zM25.248 18.787v3.592h-19.667v-12.727h19.668v9.135z"></path>
<path d="M7.679 3.667v2.817h1.852v-0.965h19.667v12.726h-0.85v1.852h2.702v-16.43z"></path>
<path d="M0.95 26.481h28.991v1.852h-28.991v-1.852z"></path>
<path d="M14.867 20.132c0.016 0 0.032 0 0.047 0 1.012-0.010 1.958-0.368 2.738-0.987l1.98 1.951 1.004-1.018-2.004-1.975c0.491-0.743 0.751-1.613 0.742-2.523-0.012-1.204-0.492-2.33-1.351-3.173-0.86-0.842-1.988-1.325-3.2-1.287-1.204 0.012-2.33 0.492-3.172 1.352s-1.3 1.996-1.287 3.199c0.012 1.204 0.492 2.33 1.351 3.173 0.849 0.831 1.967 1.288 3.152 1.288zM12.671 13.473c0.575-0.587 1.344-0.914 2.165-0.923 0.011 0 0.022 0 0.032 0 0.811 0 1.573 0.312 2.152 0.879 0.587 0.575 0.914 1.344 0.923 2.165v0c0.008 0.821-0.304 1.597-0.879 2.184s-1.344 0.914-2.166 0.923c-0.011 0-0.022 0-0.032 0-0.811 0-1.573-0.311-2.152-0.879-0.587-0.575-0.914-1.344-0.923-2.166-0.007-0.82 0.305-1.596 0.88-2.183z"></path>
<path d="M14.857 14.699l-0.013-1.199c-1.172 0.012-2.116 0.976-2.104 2.148l1.199-0.012c-0.005-0.511 0.406-0.931 0.918-0.937z"></path>
</svg>
