<!-- Generated by IcoMoon.io -->
<svg version="1.1" xmlns="http://www.w3.org/2000/svg" width="32" height="32" viewBox="0 0 32 32">
<title>check-circle</title>
<path d="M16.016 32.008c-8.84 0-16.008-7.167-16.008-16.008s7.168-16.008 16.008-16.008c8.841 0 16.009 7.168 16.009 16.008s-7.167 16.008-16.009 16.008zM24.953 10.389l-1.593-1.593c-0.293-0.293-0.768-0.293-1.061 0l-9.551 9.551-4.543-4.576c-0.294-0.293-0.769-0.293-1.062 0l-1.593 1.593c-0.293 0.293-0.293 0.768 0 1.061l5.053 5.089c0.007 0.008 0.009 0.018 0.015 0.025l1.094 1.093 0.263 0.265 0.001-0.001 0.235 0.236c0.294 0.293 0.769 0.293 1.062 0l11.68-11.68c0.293-0.294 0.293-0.77 0-1.063z"></path>
</svg>
