<!-- Generated by IcoMoon.io -->
<svg version="1.1" xmlns="http://www.w3.org/2000/svg" width="32" height="32" viewBox="0 0 32 32">
<title>check-circle</title>
<path d="M16 30.4c-7.952 0-14.4-6.447-14.4-14.4s6.448-14.4 14.4-14.4c7.953 0 14.4 6.448 14.4 14.4s-6.447 14.4-14.4 14.4zM23.81 12.384l-1.285-1.285c-0.113-0.114-0.267-0.177-0.428-0.177s-0.314 0.064-0.428 0.177l-7.701 7.702-3.663-3.69c-0.236-0.236-0.62-0.236-0.856 0l-1.285 1.285c-0.114 0.113-0.177 0.267-0.177 0.428s0.064 0.314 0.177 0.428l4.074 4.104c0.006 0.006 0.007 0.015 0.012 0.020l0.882 0.881 0.212 0.214 0.001-0.001 0.19 0.19c0.236 0.236 0.62 0.236 0.856 0l9.418-9.418c0.236-0.237 0.236-0.62 0-0.857v0z"></path>
</svg>
