<!-- Generated by IcoMoon.io -->
<svg version="1.1" xmlns="http://www.w3.org/2000/svg" width="32" height="32" viewBox="0 0 32 32">
<title>delete</title>
<path d="M10.578 6.969v-1.928c0-1.134 0.95-1.841 2.085-1.841h7.082c1.134 0 2.053 0.707 2.053 1.841v1.928h4.655c0.619 0 1.12 0.501 1.12 1.12s-0.501 1.12-1.12 1.12h-20.533c-0.619 0-1.12-0.501-1.12-1.12s0.501-1.12 1.12-1.12h4.658zM12.849 6.969h6.709v-1.928h-6.709v1.928zM23.346 10.699h2.24v14.159c0 1.601-1.108 2.987-2.613 2.987h-13.486c-1.505 0-2.613-1.385-2.613-2.987v-14.159h2.24v14.159c0 0.46 0.229 0.747 0.373 0.747h13.486c0.144 0 0.373-0.286 0.373-0.747v-14.159zM12.009 13.499c0-0.515 0.418-0.933 0.933-0.933s0.933 0.418 0.933 0.933v8.433c0 0.515-0.418 0.933-0.933 0.933s-0.933-0.418-0.933-0.933v-8.433zM18.619 13.499c0-0.515 0.418-0.933 0.933-0.933s0.933 0.418 0.933 0.933v8.433c0 0.515-0.418 0.933-0.933 0.933s-0.933-0.418-0.933-0.933v-8.433z"></path>
</svg>
