<!-- Generated by IcoMoon.io -->
<svg version="1.1" xmlns="http://www.w3.org/2000/svg" width="32" height="32" viewBox="0 0 32 32">
<title>edit-square</title>
<path d="M19.628 10.217l-10.082 10.082 3.337 3.337 10.082-10.082-3.337-3.337zM20.867 8.978l3.337 3.337 1.74-1.74c0.263-0.263 0.263-0.69 0-0.953l-2.383-2.383c-0.263-0.263-0.69-0.263-0.953 0l-1.74 1.74zM11.345 24.576l-2.741-2.741-0.757 3.491 3.498-0.75zM7.478 19.507l13.699-13.699c1.053-1.053 2.76-1.053 3.813 0l2.383 2.383c1.053 1.053 1.053 2.76 0 3.813l-13.698 13.698c-0.367 0.367-0.833 0.621-1.341 0.73l-5.596 1.2c-0.718 0.154-1.356-0.485-1.2-1.203l1.211-5.587c0.11-0.506 0.363-0.969 0.729-1.335z"></path>
</svg>
