<!-- Generated by IcoMoon.io -->
<svg version="1.1" xmlns="http://www.w3.org/2000/svg" width="32" height="32" viewBox="0 0 32 32">
<title>filter</title>
<path d="M29.48 24.917h-7.258c-0.622 0-1.037 0.415-1.037 1.037s0.415 1.037 1.037 1.037h7.258c0.622 0 1.037-0.415 1.037-1.037 0-0.414-0.415-1.037-1.037-1.037v0zM29.48 19.111h-7.258c-0.622 0-1.037 0.415-1.037 1.037s0.415 1.037 1.037 1.037h7.258c0.622 0 1.037-0.415 1.037-1.037 0-0.415-0.415-1.037-1.037-1.037v0zM29.48 13.511h-7.258c-0.622 0-1.037 0.415-1.037 1.037s0.415 1.037 1.037 1.037h7.258c0.622 0 1.037-0.415 1.037-1.037s-0.415-1.037-1.037-1.037v0zM17.659 30.102c-0.622 0-1.037-0.415-1.037-1.037v-16.176c0-0.207 0-0.622 0.207-0.83l7.051-7.88h-18.871l7.051 7.88c0.207 0.207 0.207 0.415 0.207 0.83v9.747l1.659 1.452c0.415 0.415 0.622 1.037 0.207 1.452s-1.037 0.622-1.452 0.207l-2.074-1.659c-0.207-0.207-0.415-0.415-0.415-0.83v-9.954l-8.295-9.54c-0.414-0.414-0.414-0.829-0.414-1.244 0.208-0.415 0.622-0.622 1.037-0.622h23.849c0.415 0 0.83 0.207 1.037 0.622s0 0.83-0.207 1.244l-8.295 9.54v15.761c-0.001 0.622-0.623 1.037-1.245 1.037v0z"></path>
</svg>
