<!-- Generated by IcoMoon.io -->
<svg version="1.1" xmlns="http://www.w3.org/2000/svg" width="32" height="32" viewBox="0 0 32 32">
<title>host-validator-self-login</title>
<path d="M22.77 16.14h-13.54c-0.58 0-1.050-0.47-1.050-1.050s0.47-1.050 1.050-1.050h13.54c0.58 0 1.050 0.47 1.050 1.050s-0.47 1.050-1.050 1.050v0z"></path>
<path d="M16.22 26.77h-0.44c-4.195-0.006-7.594-3.405-7.6-7.599v-4.081c0-0.58 0.47-1.050 1.050-1.050s1.050 0.47 1.050 1.050v0 4.080c0.006 3.035 2.465 5.494 5.499 5.5h0.441c3.035-0.006 5.494-2.465 5.5-5.499v-4.081c0-0.58 0.47-1.050 1.050-1.050s1.050 0.47 1.050 1.050v0 4.080c-0.006 4.195-3.405 7.594-7.599 7.6h-0.001z"></path>
<path d="M12 15.24c-0.552 0-1-0.448-1-1v0-4.44c0-3.44 2.47-6.25 5.5-6.25s5.5 2.81 5.5 6.25c0 0.58-0.47 1.050-1.050 1.050s-1.050-0.47-1.050-1.050v0c0-2.29-1.53-4.15-3.4-4.15s-3.5 1.86-3.5 4.15v4.4c0.001 0.012 0.001 0.026 0.001 0.040 0 0.552-0.448 1-1 1-0 0-0.001 0-0.001 0h0z"></path>
<path d="M17.48 19.7c0 0.817-0.663 1.48-1.48 1.48s-1.48-0.663-1.48-1.48c0-0.817 0.663-1.48 1.48-1.48s1.48 0.663 1.48 1.48z"></path>
</svg>
