<!-- Generated by IcoMoon.io -->
<svg version="1.1" xmlns="http://www.w3.org/2000/svg" width="32" height="32" viewBox="0 0 32 32">
<title>light-dark-disable</title>
<path d="M10.953 22.248h9.145v0.75h-9.145v-0.75z"></path>
<path d="M10.953 23.727h9.145v0.75h-9.145v-0.75z"></path>
<path d="M10.953 25.18v1.078c0 0 1.453 2.172 3.75 2.516h1.359c0 0 2.452-0.125 3.952-2.516v-1.078z"></path>
<path d="M24.389 12.259c0-2.132-0.742-4.088-1.979-5.633l-12.702 12.703c0.337 0.347 1.199 1.32 1.182 2.21h9.417c0 0-0.107-1.43 0.844-2.352h-0.004c1.98-1.656 3.242-4.144 3.242-6.928z"></path>
<path d="M8.982 18.641l12.764-12.765c-1.633-1.636-3.893-2.648-6.387-2.648-4.988 0-9.031 4.044-9.031 9.031 0 2.495 1.018 4.748 2.654 6.382z"></path>
</svg>
