<!-- Generated by IcoMoon.io -->
<svg version="1.1" xmlns="http://www.w3.org/2000/svg" width="32" height="32" viewBox="0 0 32 32">
<title>light-dark</title>
<path d="M11.594 21.903h9.146v0.75h-9.146v-0.75z"></path>
<path d="M11.594 23.382h9.146v0.75h-9.146v-0.75z"></path>
<path d="M11.594 24.835v1.078c0 0 1.453 2.172 3.75 2.516h1.359c0 0 2.453-0.125 3.953-2.516v-1.078z"></path>
<path d="M25.031 11.915c0-4.988-4.043-9.031-9.031-9.031s-9.031 4.043-9.031 9.031c0 2.784 1.262 5.273 3.243 6.929h-0.003c0 0 1.344 1.248 1.323 2.352h9.417c0 0-0.107-1.43 0.844-2.352h-0.004c1.981-1.656 3.242-4.145 3.242-6.929zM16.593 6.048c-3.643 0-6.606 2.963-6.606 6.606 0 0.276-0.224 0.5-0.5 0.5s-0.5-0.224-0.5-0.5c0-4.194 3.412-7.606 7.606-7.606 0.276 0 0.5 0.224 0.5 0.5s-0.224 0.5-0.5 0.5z"></path>
</svg>
