<!-- Generated by IcoMoon.io -->
<svg version="1.1" xmlns="http://www.w3.org/2000/svg" width="32" height="32" viewBox="0 0 32 32">
<title>link</title>
<path d="M14.368 11.127c-0.444 0.444-1.166 0.442-1.613-0.005s-0.449-1.169-0.005-1.613l3.528-3.528c2.664-2.664 6.997-2.65 9.678 0.032s2.696 7.014 0.032 9.678l-3.528 3.528c-0.444 0.444-1.166 0.442-1.613-0.005s-0.449-1.169-0.005-1.613l3.528-3.528c1.776-1.776 1.766-4.665-0.021-6.452s-4.676-1.797-6.452-0.021l-3.528 3.528zM17.156 21.286c0.444-0.444 1.166-0.442 1.613 0.005s0.449 1.169 0.005 1.613l-3.505 3.505c-2.664 2.664-6.997 2.65-9.678-0.032s-2.696-7.014-0.032-9.678l3.505-3.505c0.444-0.444 1.166-0.442 1.613 0.005s0.449 1.169 0.005 1.613l-3.505 3.505c-1.776 1.776-1.766 4.665 0.021 6.452s4.676 1.797 6.452 0.021l3.505-3.505zM13.098 20.218c-0.37 0.37-0.972 0.368-1.344-0.004s-0.374-0.974-0.004-1.344l6.699-6.699c0.37-0.37 0.972-0.368 1.344 0.004s0.374 0.974 0.004 1.344l-6.699 6.699z"></path>
</svg>
