<!-- Generated by IcoMoon.io -->
<svg version="1.1" xmlns="http://www.w3.org/2000/svg" width="32" height="32" viewBox="0 0 32 32">
<title>link</title>
<path d="M20.825 15.975c-0.229-3.461-3.179-6.648-7.475-6.648-0.019 0-0.037 0-0.057 0l-6.34 0.029c-1.789 0.008-3.464 0.714-4.717 1.988-1.251 1.273-1.929 2.961-1.907 4.75 0.022 1.778 0.737 3.449 2.013 4.705 1.269 1.246 2.939 1.932 4.707 1.932 0.010 0 0.021 0 0.032 0l1.722-0.008-0.006-2-1.724 0.007c-0.007 0-0.015 0-0.022 0-1.241 0-2.415-0.481-3.306-1.357-0.897-0.883-1.4-2.057-1.416-3.305-0.015-1.252 0.458-2.432 1.333-3.322 0.876-0.892 2.048-1.385 3.3-1.391l6.341-0.029c0.017 0 0.033 0 0.051 0 3.19 0 5.244 2.297 5.469 4.648l2.002 0.001z"></path>
<path d="M25.373 9.27c-0.010 0-0.021 0-0.030 0l-1.755 0.010 0.008 2 1.756-0.010c0.008 0 0.014 0 0.021 0 2.498 0 4.265 1.914 4.299 4.664 0.017 1.253-0.459 2.435-1.333 3.324-0.876 0.891-2.048 1.385-3.3 1.391l-6.765 0.031c-1.784 0.025-3.195-0.44-4.070-1.303-0.62-0.609-1.799-2.256-2.008-3.402h-2.009c0.179 1.641 1.616 3.85 2.614 4.83 1.248 1.228 3.122 1.875 5.423 1.875 0.020 0 0.039 0 0.061 0l6.764-0.031c1.789-0.010 3.465-0.715 4.717-1.987 1.25-1.272 1.928-2.96 1.906-4.752-0.050-3.853-2.695-6.64-6.299-6.64z"></path>
</svg>
