<!-- Generated by IcoMoon.io -->
<svg version="1.1" xmlns="http://www.w3.org/2000/svg" width="32" height="32" viewBox="0 0 32 32">
<title>more</title>
<path d="M26.244 2.701h-20.488c-1.687 0-3.055 1.368-3.055 3.055v20.488c0 1.687 1.368 3.055 3.055 3.055h20.488c1.687 0 3.055-1.368 3.055-3.055v-20.488c0-1.687-1.368-3.055-3.055-3.055zM9.889 17.523c-0.841 0-1.523-0.682-1.523-1.523s0.682-1.523 1.523-1.523 1.523 0.682 1.523 1.523-0.682 1.523-1.523 1.523zM16 17.523c-0.841 0-1.523-0.682-1.523-1.523s0.682-1.523 1.523-1.523 1.523 0.682 1.523 1.523-0.682 1.523-1.523 1.523zM22.111 17.523c-0.841 0-1.523-0.682-1.523-1.523s0.682-1.523 1.523-1.523 1.523 0.682 1.523 1.523-0.682 1.523-1.523 1.523z"></path>
</svg>
