<!-- Generated by IcoMoon.io -->
<svg version="1.1" xmlns="http://www.w3.org/2000/svg" width="32" height="32" viewBox="0 0 32 32">
<title>pencil</title>
<path d="M19.657 10.442l-9.203 9.203 3.046 3.046 9.203-9.203-3.046-3.046zM20.788 9.311l3.046 3.046 1.588-1.588c0.24-0.24 0.24-0.63 0-0.87l-2.176-2.176c-0.24-0.24-0.63-0.24-0.87 0l-1.588 1.588zM12.095 23.55l-2.502-2.502-0.691 3.186 3.193-0.684zM8.566 18.922l12.505-12.505c0.961-0.961 2.52-0.961 3.481 0l2.176 2.176c0.961 0.961 0.961 2.52 0 3.481l-12.504 12.504c-0.335 0.335-0.761 0.567-1.225 0.666l-5.109 1.095c-0.656 0.141-1.238-0.443-1.096-1.098l1.106-5.1c0.1-0.462 0.331-0.885 0.665-1.219z"></path>
</svg>
