<!-- Generated by IcoMoon.io -->
<svg version="1.1" xmlns="http://www.w3.org/2000/svg" width="32" height="32" viewBox="0 0 32 32">
<title>refresh</title>
<path d="M16.64 24.936v-4.073l5.091 5.202-5.091 5.202v-4.295c-6.186 0-11.2-5.014-11.2-11.2 0-1.528 0.307-3.015 0.894-4.392 0.221-0.517 0.819-0.758 1.336-0.537s0.758 0.819 0.537 1.336c-0.48 1.125-0.731 2.341-0.731 3.593 0 5.061 4.103 9.164 9.164 9.164zM16.64 6.609v4.295l-5.091-5.202 5.091-5.202v4.073c6.186 0 11.2 5.014 11.2 11.2 0 1.412-0.262 2.79-0.766 4.078-0.205 0.524-0.795 0.782-1.319 0.577s-0.782-0.795-0.577-1.319c0.412-1.053 0.626-2.179 0.626-3.336 0-5.061-4.103-9.164-9.164-9.164z"></path>
</svg>
