<!-- Generated by IcoMoon.io -->
<svg version="1.1" xmlns="http://www.w3.org/2000/svg" width="32" height="32" viewBox="0 0 32 32">
<title>remove</title>
<path d="M17.98 16l8.81-8.81c0.547-0.547 0.547-1.432 0-1.98s-1.432-0.547-1.98 0l-8.81 8.81-8.81-8.81c-0.547-0.547-1.432-0.547-1.98 0s-0.547 1.432 0 1.98l8.81 8.81-8.81 8.81c-0.547 0.547-0.547 1.432 0 1.98 0.273 0.273 0.631 0.41 0.99 0.41s0.717-0.137 0.99-0.41l8.81-8.81 8.81 8.81c0.273 0.273 0.631 0.41 0.99 0.41s0.717-0.137 0.99-0.41c0.547-0.547 0.547-1.432 0-1.98l-8.81-8.81z"></path>
</svg>
