<!-- Generated by IcoMoon.io -->
<svg version="1.1" xmlns="http://www.w3.org/2000/svg" width="32" height="32" viewBox="0 0 32 32">
<title>times-circle</title>
<path d="M16.016 0.075c-8.794 0-15.925 7.131-15.925 15.925 0 8.795 7.13 15.925 15.925 15.925s15.926-7.129 15.926-15.925c0-8.794-7.13-15.925-15.926-15.925zM23.717 20.921c0.773 0.773 0.773 2.039 0 2.812s-2.039 0.773-2.812 0l-4.921-4.921-4.921 4.921c-0.773 0.773-2.039 0.773-2.812 0s-0.773-2.039 0-2.812l4.92-4.921-4.921-4.922c-0.773-0.773-0.773-2.039 0-2.812s2.039-0.773 2.812 0l4.921 4.921 4.921-4.921c0.773-0.773 2.039-0.773 2.812 0s0.773 2.039 0 2.812l-4.92 4.922 4.921 4.921z"></path>
</svg>
