<!-- Generated by IcoMoon.io -->
<svg version="1.1" xmlns="http://www.w3.org/2000/svg" width="32" height="32" viewBox="0 0 32 32">
<title>unseen</title>
<path d="M1.224 29.729v-1.447l4.633-4.633-0.147-0.106c-2.322-1.672-4.233-3.91-5.533-6.479 1.458-2.883 3.655-5.314 6.355-7.037 2.796-1.784 6.026-2.727 9.341-2.727 1.831 0 3.636 0.286 5.366 0.848l0.090 0.030 5.732-5.732h1.447v1.447l-25.837 25.836h-1.447zM8.336 12.047c-0.137 0.081-0.258 0.156-0.372 0.229-1.866 1.19-3.484 2.818-4.679 4.706l-0.052 0.082 0.052 0.082c1.145 1.809 2.62 3.328 4.385 4.513l0.106 0.070 1.999-1.999-0.082-0.108c-1.048-1.367-1.601-3.001-1.601-4.728 0-0.914 0.157-1.809 0.469-2.662l0.148-0.408-0.373 0.223zM12.897 10.773c-1.726 0-3.13 1.404-3.13 3.13 0 0.752 0.272 1.48 0.763 2.048 0.487 0.562 1.158 0.934 1.889 1.046l0.077 0.012 3.505-3.505-0.012-0.077c-0.112-0.731-0.483-1.403-1.046-1.889-0.567-0.494-1.294-0.765-2.046-0.765v0zM15.872 26.828c-1.797 0-3.568-0.274-5.267-0.816l2.179-2.179c1.013 0.218 2.051 0.328 3.088 0.328 2.806 0 5.54-0.798 7.908-2.308 1.866-1.191 3.484-2.818 4.679-4.706l0.052-0.082-0.051-0.082c-1.136-1.795-2.596-3.302-4.341-4.482l1.916-1.916c2.323 1.672 4.233 3.909 5.534 6.48-1.458 2.883-3.655 5.314-6.355 7.037-2.797 1.783-6.027 2.726-9.342 2.726v0zM15.872 22.675c-0.585 0-1.168-0.066-1.734-0.195l9.32-9.32c0.13 0.568 0.195 1.149 0.195 1.734 0 4.29-3.491 7.781-7.781 7.781v0z"></path>
</svg>
