<!-- Generated by IcoMoon.io -->
<svg version="1.1" xmlns="http://www.w3.org/2000/svg" width="32" height="32" viewBox="0 0 32 32">
<title>warning-triangle</title>
<path d="M17.491 2.453l14.271 24.259c0.315 0.535 0.319 1.197 0.011 1.735s-0.881 0.871-1.501 0.871h-28.541c-0.62 0-1.193-0.332-1.501-0.871s-0.304-1.201 0.011-1.735l14.271-24.259c0.311-0.528 0.878-0.853 1.491-0.853s1.18 0.324 1.491 0.853zM16 8.566c-0.955 0-1.729 0.774-1.729 1.729v8.647c0 0.955 0.774 1.729 1.729 1.729s1.729-0.774 1.729-1.729v-8.647c0-0.955-0.774-1.729-1.729-1.729zM16 25.859c0.618 0 1.189-0.33 1.498-0.865s0.309-1.194 0-1.729c-0.309-0.535-0.88-0.865-1.498-0.865-0.955 0-1.729 0.774-1.729 1.729s0.774 1.729 1.729 1.729z"></path>
</svg>
