<!-- Generated by IcoMoon.io -->
<svg version="1.1" xmlns="http://www.w3.org/2000/svg" width="32" height="32" viewBox="0 0 32 32">
<title>warning</title>
<path d="M16 1.6c-7.952 0-14.4 6.448-14.4 14.4s6.447 14.4 14.4 14.4 14.4-6.446 14.4-14.4c0-7.952-6.447-14.4-14.4-14.4zM14.177 8.849c0-0.987 0.821-1.789 1.808-1.789s1.808 0.801 1.808 1.788v8.938c0 0.987-0.821 1.788-1.808 1.788s-1.808-0.801-1.808-1.788v-8.938zM15.983 24.938c-0.987 0-1.788-0.8-1.788-1.788s0.8-1.788 1.788-1.788c0.987 0 1.788 0.8 1.788 1.788s-0.8 1.788-1.788 1.788v0z"></path>
</svg>
