<!-- Generated by IcoMoon.io -->
<svg version="1.1" xmlns="http://www.w3.org/2000/svg" width="32" height="32" viewBox="0 0 32 32">
<title>bind-dn</title>
<path d="M29.365 17.355v-2.783c0-2.186-1.778-3.964-3.964-3.964s-3.964 1.778-3.964 3.964v2.783h-2.332v8.216l-16.472 0.012v-19.168h24.252v2.966c0.701 0.225 1.334 0.591 1.859 1.083v-5.907h-27.97v22.885l30.452-0.001v-10.086h-1.861zM23.088 14.572c0-1.275 1.038-2.313 2.313-2.313s2.313 1.038 2.313 2.313v2.783h-4.626v-2.783zM29.367 25.583h-8.404v-6.37h8.404v6.37z"></path>
<path d="M25.059 22.941v1.277c0 0.22 0.224 0.399 0.499 0.399 0.276 0 0.499-0.179 0.499-0.399v-1.277c0.41-0.19 0.698-0.599 0.698-1.081 0-0.661-0.536-1.198-1.198-1.198s-1.198 0.536-1.198 1.198c0.002 0.482 0.29 0.891 0.7 1.081z"></path>
<path d="M6.128 11.413h13.278v1.859h-13.278v-1.859z"></path>
<path d="M6.128 18.244h7.011v1.859h-7.011v-1.859z"></path>
</svg>
