<!-- Generated by IcoMoon.io -->
<svg version="1.1" xmlns="http://www.w3.org/2000/svg" width="32" height="32" viewBox="0 0 32 32">
<title>capacity</title>
<path d="M16 3.459c-6.655 0-13.392 1.863-13.392 5.425v15.024h0.065c0.658 3.203 7.024 4.877 13.327 4.877s12.669-1.674 13.327-4.876h0.065v-15.025c0-3.562-6.737-5.425-13.392-5.425zM16 5.218c6.953 0 11.389 2.027 11.389 3.423s-4.436 3.422-11.389 3.422-11.389-2.028-11.389-3.423c0-1.395 4.436-3.422 11.389-3.422zM16 19.954c-7.369 0-11.389-2.015-11.389-3.050v-5.28c2.489 1.608 6.952 2.441 11.389 2.441s8.9-0.833 11.389-2.441v5.28c0 1.035-4.020 3.050-11.389 3.050z"></path>
</svg>
