<!-- Generated by IcoMoon.io -->
<svg version="1.1" xmlns="http://www.w3.org/2000/svg" width="32" height="32" viewBox="0 0 32 32">
<title>catalog</title>
<path d="M26.124 7.661h-5.002v-4.879z"></path>
<path d="M8.774 9.178h12.349v1.865h-12.349v-1.865z"></path>
<path d="M8.774 14.746h12.349v1.865h-12.349v-1.865z"></path>
<path d="M8.774 20.316h7.935v1.865h-7.935v-1.865z"></path>
<path d="M28.46 21.653c-0.85-1.417-0.837-1.444-0.837-1.444s-2.935 0.823-3.481-1.99h-1.7c0 0-0.469 2.818-3.467 1.983-0.866 1.446-0.896 1.491-0.896 1.492 0 0 2.347 1.64 0 3.867l0.91 1.498c0 0 2.592-1.117 3.441 1.936h1.72c0 0 0.539-2.806 3.455-1.977 0.829-1.417 0.844-1.43 0.844-1.43s-2.204-1.898 0.010-3.934zM23.256 26.090c-1.372 0-2.484-1.112-2.484-2.484s1.112-2.484 2.484-2.484c1.372 0 2.484 1.112 2.484 2.484-0.001 1.372-1.112 2.484-2.484 2.484z"></path>
<path d="M17.508 27.133h-12.108v-22.658h14.505v-1.862h-16.365v26.381h15.303c-0.546-0.536-0.995-1.167-1.335-1.862z"></path>
<path d="M26.357 17.941v-9.049h-1.86v8.53c0.653 0.085 1.277 0.262 1.86 0.519z"></path>
</svg>
