<!-- Generated by IcoMoon.io -->
<svg version="1.1" xmlns="http://www.w3.org/2000/svg" width="32" height="32" viewBox="0 0 32 32">
<title>close</title>
<path d="M17.697 16l7.552-7.552c0.469-0.469 0.469-1.228 0-1.697s-1.228-0.469-1.697 0l-7.552 7.552-7.552-7.552c-0.469-0.469-1.228-0.469-1.697 0s-0.469 1.228 0 1.697l7.552 7.552-7.552 7.552c-0.469 0.469-0.469 1.228 0 1.697 0.234 0.234 0.541 0.352 0.848 0.352s0.614-0.118 0.848-0.352l7.552-7.552 7.552 7.552c0.234 0.234 0.541 0.352 0.848 0.352s0.614-0.118 0.848-0.352c0.469-0.469 0.469-1.228 0-1.697l-7.552-7.552z"></path>
</svg>
