<!-- Generated by IcoMoon.io -->
<svg version="1.1" xmlns="http://www.w3.org/2000/svg" width="32" height="32" viewBox="0 0 32 32">
<title>delete</title>
<path d="M25.004 32.162h-18.010c-2.174 0-3.942-1.769-3.942-3.942v-18.582h2.738v18.582c0 0.664 0.539 1.205 1.204 1.205h18.010c0.664 0 1.203-0.541 1.203-1.205v-18.408h2.736v18.408c0 2.174-1.767 3.942-3.939 3.942z"></path>
<path d="M32 5.692h-9.895l-3.143-3.144h-5.924l-3.143 3.144h-9.895v-2.737h8.762l2.499-2.5c0.417-0.416 0.971-0.645 1.563-0.645 0.004 0 0.010 0 0.015 0h6.304c0.605 0 1.182 0.227 1.598 0.645l2.5 2.5h8.759v2.737z"></path>
<path d="M10.756 9.681h2.738v16.588h-2.738v-16.588z"></path>
<path d="M18.494 9.681h2.738v16.588h-2.738v-16.588z"></path>
</svg>
