<!-- Generated by IcoMoon.io -->
<svg version="1.1" xmlns="http://www.w3.org/2000/svg" width="32" height="32" viewBox="0 0 32 32">
<title>dialog</title>
<path d="M25.637 3.196h-20.13c-1.903 0-3.451 1.667-3.451 3.718l0.057 13.654c0 2.042 1.547 3.71 3.45 3.71l2.84 0.001v2.075c0 1.736 1.198 2.645 2.383 2.645 0.489 0 1.221-0.153 1.934-0.883l3.749-3.838h9.224c1.903 0 3.451-1.669 3.451-3.718l-0.057-13.655c0-2.042-1.548-3.709-3.45-3.709zM25.637 5.24c0.777 0 1.407 0.749 1.407 1.674l0.056 13.646c0 0.924-0.63 1.673-1.407 1.673h-9.547c-0.332 0-0.666 0.133-0.925 0.396l-3.963 4.059c-0.176 0.18-0.339 0.267-0.471 0.267-0.206 0-0.339-0.21-0.339-0.601v-4.118l-4.885-0.004c-0.777 0-1.405-0.749-1.405-1.673l-0.057-13.645c0-0.925 0.629-1.674 1.405-1.674h20.131z"></path>
<path d="M8.165 10.031c0-0.529 0.428-0.958 0.963-0.958h13.486c0.533 0 0.963 0.425 0.963 0.958 0 0.529-0.428 0.958-0.963 0.958h-13.485c-0.533 0.001-0.964-0.425-0.964-0.958z"></path>
<path d="M8.165 13.865c0-0.529 0.428-0.958 0.963-0.958h13.486c0.533 0 0.963 0.425 0.963 0.958 0 0.529-0.428 0.958-0.963 0.958h-13.485c-0.533 0-0.964-0.426-0.964-0.958z"></path>
<path d="M8.165 17.698c0-0.529 0.428-0.958 0.963-0.958h13.486c0.533 0 0.963 0.425 0.963 0.958 0 0.529-0.428 0.958-0.963 0.958h-13.485c-0.533 0-0.964-0.425-0.964-0.958z"></path>
</svg>
