<!-- Generated by IcoMoon.io -->
<svg version="1.1" xmlns="http://www.w3.org/2000/svg" width="32" height="32" viewBox="0 0 32 32">
<title>edit-square</title>
<path d="M22.714 11.598l-1.964-2.049c-0.109-0.115-0.338-0.093-0.479 0.050l-10.035 9.887-2.687 4.83c-0.081 0.14-0.074 0.297 0.021 0.388 0.055 0.053 0.136 0.078 0.226 0.067 0.057-0.006 0.116-0.028 0.169-0.062l4.762-2.786 0.064-0.052 9.864-9.803c0.147-0.144 0.173-0.349 0.059-0.47zM12.4 21.417l-2.364 1.483c-0.49-0.115-0.643-0.502-0.684-0.773l1.366-2.279-0.005 0.010 1.631 1.613 0.056-0.054z"></path>
<path d="M29.443 29.443h-26.693v-2h24.693v-22.887h-22.886v18.88h-2v-20.88h26.886z"></path>
</svg>
