<!-- Generated by IcoMoon.io -->
<svg version="1.1" xmlns="http://www.w3.org/2000/svg" width="32" height="32" viewBox="0 0 32 32">
<title>history</title>
<path d="M16.2 8.847v7.651l5.053 4.861 1.457-1.486-4.51-4.387v-6.639z"></path>
<path d="M17.93 2.025c-7.708 0-13.978 6.268-13.978 13.975 0 0.352 0.031 0.7 0.057 1.047h-3.719l4.664 4.66 4.66-4.66h-3.605c-0.030-0.346-0.057-0.694-0.057-1.047 0-6.603 5.372-11.975 11.978-11.975 6.603 0 11.975 5.372 11.975 11.975s-5.372 11.975-11.975 11.975c-3.533 0-6.867-1.549-9.151-4.248l-1.527 1.291c2.665 3.15 6.556 4.957 10.678 4.957 7.706 0 13.975-6.27 13.975-13.975-0.003-7.707-6.27-13.975-13.975-13.975z"></path>
</svg>
