<!-- Generated by IcoMoon.io -->
<svg version="1.1" xmlns="http://www.w3.org/2000/svg" width="32" height="32" viewBox="0 0 32 32">
<title>host-validator-clock-diff</title>
<path d="M16.6 8.64h-1.87v8.47h6.72v-1.87h-4.85v-6.6z"></path>
<path d="M16 27.55c-6.401-0-11.59-5.189-11.59-11.59s5.189-11.59 11.59-11.59c6.401 0 11.59 5.189 11.59 11.59 0 0.014-0 0.028-0 0.042v-0.002c-0.028 6.381-5.205 11.544-11.589 11.55h-0.001zM16 6.47c-0.003 0-0.006 0-0.010 0-5.247 0-9.5 4.253-9.5 9.5s4.253 9.5 9.5 9.5c5.236 0 9.483-4.236 9.5-9.468v-0.002c0-0.009 0-0.019 0-0.030 0-5.243-4.248-9.494-9.489-9.5h-0.001z"></path>
</svg>
