<!-- Generated by IcoMoon.io -->
<svg version="1.1" xmlns="http://www.w3.org/2000/svg" width="32" height="32" viewBox="0 0 32 32">
<title>host-validator-selinux</title>
<path d="M2.81 24.23h26.47v1.81h-26.47v-1.81z"></path>
<path d="M27.45 20v-14.3h-22.78v16.060h22.78v-1.76zM25.64 20h-19.16v-12.5h19.16z"></path>
<path d="M15.91 18.81c-2.801-0.006-5.070-2.278-5.070-5.080 0-2.806 2.274-5.080 5.080-5.080s5.080 2.274 5.080 5.080v0c-0.006 2.807-2.282 5.080-5.090 5.080 0 0 0 0 0 0v0zM15.91 10.25c-1.918 0.006-3.47 1.562-3.47 3.48 0 1.922 1.558 3.48 3.48 3.48s3.48-1.558 3.48-3.48v0c0 0 0 0 0 0 0-1.922-1.558-3.48-3.48-3.48-0.004 0-0.007 0-0.011 0h0.001z"></path>
<path d="M19.178 16.494l0.892-1.328 3.138 2.108-0.892 1.328-3.138-2.108z"></path>
<path d="M14 14.48c-0.412-0.006-0.744-0.338-0.75-0.749v-0.001c0-1.453 1.178-2.63 2.63-2.63v0c0.414 0 0.75 0.336 0.75 0.75s-0.336 0.75-0.75 0.75v0c-0.622 0.006-1.124 0.508-1.13 1.129v0.001c0 0.414-0.336 0.75-0.75 0.75v0z"></path>
</svg>
