<!-- Generated by IcoMoon.io -->
<svg version="1.1" xmlns="http://www.w3.org/2000/svg" width="32" height="32" viewBox="0 0 32 32">
<title>host-validator-network</title>
<path d="M16 27.050c-6.103 0-11.050-4.947-11.050-11.050s4.947-11.050 11.050-11.050c6.103 0 11.050 4.947 11.050 11.050v0c-0.011 6.098-4.952 11.039-11.049 11.050h-0.001zM16 6.85c-5.053 0-9.15 4.097-9.15 9.15s4.097 9.15 9.15 9.15c5.053 0 9.15-4.097 9.15-9.15v0c-0.011-5.049-4.101-9.139-9.149-9.15h-0.001z"></path>
<path d="M5.25 15.33h21.72v1.9h-21.72v-1.9z"></path>
<path d="M15.44 12.53c-0.113 0.002-0.247 0.003-0.381 0.003-3.084 0-6.048-0.517-8.809-1.47l0.19 0.057 0.65-1.78c2.377 0.819 5.117 1.292 7.967 1.292 0.124 0 0.248-0.001 0.372-0.003l-0.019 0c0.128 0.002 0.278 0.004 0.429 0.004 3.127 0 6.114-0.6 8.852-1.691l-0.162 0.057 0.75 1.74c-2.785 1.135-6.016 1.794-9.401 1.794-0.154 0-0.309-0.001-0.462-0.004l0.023 0z"></path>
<path d="M19.75 25.51c-1.187-2.81-1.877-6.076-1.877-9.504 0-0.209 0.003-0.418 0.008-0.627l-0.001 0.031c-0.002-0.115-0.003-0.25-0.003-0.386 0-3.238 0.584-6.34 1.652-9.206l-0.059 0.182 1.77 0.71c-0.927 2.468-1.464 5.321-1.464 8.298 0 0.155 0.001 0.31 0.004 0.465l-0-0.023c-0.004 0.154-0.006 0.335-0.006 0.516 0 3.168 0.623 6.19 1.753 8.951l-0.057-0.158z"></path>
<path d="M12 26.060l-1.69-0.87c1.219-2.678 1.93-5.807 1.93-9.103 0-0.238-0.004-0.475-0.011-0.712l0.001 0.035c0.003-0.131 0.004-0.286 0.004-0.441 0-2.947-0.522-5.772-1.478-8.388l0.054 0.17 1.77-0.69c0.984 2.656 1.553 5.725 1.553 8.926 0 0.149-0.001 0.298-0.004 0.447l0-0.022c0.006 0.196 0.009 0.426 0.009 0.658 0 3.62-0.788 7.055-2.201 10.145l0.062-0.152z"></path>
<path d="M23.48 23.51c-2.301-0.762-4.949-1.202-7.7-1.202-0.105 0-0.211 0.001-0.316 0.002l0.016-0c-0.052-0-0.114-0.001-0.176-0.001-2.544 0-5.003 0.365-7.327 1.047l0.184-0.046-0.53-1.83c2.237-0.637 4.805-1.003 7.46-1.003 0.137 0 0.274 0.001 0.411 0.003l-0.021-0c0.093-0.001 0.202-0.002 0.312-0.002 2.983 0 5.854 0.476 8.542 1.357l-0.194-0.055z"></path>
</svg>
