<!-- Generated by IcoMoon.io -->
<svg version="1.1" xmlns="http://www.w3.org/2000/svg" width="32" height="32" viewBox="0 0 32 32">
<title>installer</title>
<path d="M31.366 17.497l-0.016-0.087c-0.016-0.188-0.047-0.363-0.097-0.506l-0.006-0.025-0.344-0.675-6.216-11.134c-0.216-0.406-0.494-0.594-0.962-0.594h-2.922v1.906h2.438l5.363 9.619h-25.178l5.347-9.616h6.269v4.684l-4.247-3.55-1.231 1.475 6.441 5.378 6.378-5.381-1.238-1.466-4.181 3.528v-6.575h-8.675c-0.469 0-0.747 0.188-0.963 0.594l-6.428 11.503-0.037 0.113c-0.084 0.144-0.144 0.313-0.178 0.506l-0.044 0.125 0.022 0.009c-0.012 0.113-0.022 0.225-0.022 0.353l0.009 8.403c-0.009 0.991 0.472 1.441 1.431 1.441h27.85c0.975 0 1.441-0.481 1.441-1.409v-8.434c0-0.066-0.006-0.119-0.012-0.178l0.009-0.006zM29.441 25.603h-26.884v-7.684h26.887l-0.003 7.684z"></path>
<path d="M13.119 20.8h5.763v1.922h-5.762v-1.922z"></path>
</svg>
