<!-- Generated by IcoMoon.io -->
<svg version="1.1" xmlns="http://www.w3.org/2000/svg" width="32" height="32" viewBox="0 0 32 32">
<title>key-chain</title>
<path d="M8.267 19.738l-1.792 1.498 0.876 1.048c0.342 0.409 0.705 0.453 1.088 0.133l0.623-0.521c0.224-0.187 0.332-0.372 0.325-0.556s-0.067-0.343-0.179-0.477l-0.941-1.125z"></path>
<path d="M17.697 16.431c0.232 0.020 0.462 0.031 0.692 0.031 1.783-0.001 3.496-0.619 4.884-1.778 1.564-1.308 2.526-3.147 2.708-5.178 0.181-2.031-0.438-4.011-1.747-5.575-1.307-1.565-3.146-2.527-5.178-2.709-2.029-0.181-4.014 0.44-5.577 1.747-1.562 1.306-2.523 3.145-2.704 5.178-0.147 1.635 0.233 3.232 1.064 4.608l-8.822 7.386c-0.5 0.417-0.566 1.161-0.148 1.661 0.209 0.25 0.499 0.391 0.799 0.418s0.611-0.061 0.861-0.27l8.822-7.386c1.208 1.064 2.713 1.721 4.346 1.867zM14.967 4.749c0.964-0.807 2.157-1.238 3.401-1.238 0.16 0 0.321 0.007 0.482 0.022 1.414 0.126 2.694 0.796 3.605 1.886 0.91 1.089 1.342 2.467 1.216 3.881s-0.795 2.694-1.884 3.604c-1.092 0.911-2.479 1.345-3.882 1.216-1.415-0.126-2.695-0.795-3.606-1.885-0.909-1.087-1.339-2.465-1.213-3.881 0.125-1.416 0.793-2.697 1.881-3.605z"></path>
<path d="M19.154 27.404l-1.326-0.626-0.998 2.112 1.236 0.584c0.482 0.228 0.83 0.116 1.043-0.336l0.347-0.734c0.125-0.264 0.145-0.477 0.061-0.641s-0.204-0.284-0.363-0.359z"></path>
<path d="M19.842 8.826c0 0.809-0.656 1.465-1.465 1.465s-1.465-0.656-1.465-1.465c0-0.809 0.656-1.465 1.465-1.465s1.465 0.656 1.465 1.465z"></path>
<path d="M27.524 7.183c-0.386-0.462-0.823-0.864-1.293-1.217 0.569 1.261 0.813 2.652 0.687 4.068-0.024 0.265-0.061 0.526-0.109 0.783 0.137 0.561 0.204 1.142 0.151 1.735-0.126 1.414-0.796 2.694-1.885 3.604-1.089 0.911-2.47 1.344-3.881 1.216h-0.001l-1.382-0.226v0.015c-0.479-0.044-0.955 0.2-1.172 0.66l-5.265 11.375c-0.279 0.588-0.027 1.291 0.562 1.569 0.294 0.139 0.617 0.146 0.901 0.044s0.529-0.312 0.668-0.606l4.906-10.6c0.19 0.031 0.38 0.062 0.574 0.080 0.232 0.020 0.463 0.031 0.693 0.031 1.784 0 3.497-0.619 4.883-1.778 1.565-1.307 2.527-3.147 2.709-5.178s-0.439-4.012-1.746-5.575zM20.771 18.829c0.064-0.135 0.093-0.277 0.103-0.418-0.008 0.14-0.039 0.281-0.103 0.418zM20.83 18.024c0.014 0.046 0.014 0.094 0.022 0.142-0.007-0.047-0.010-0.095-0.022-0.142z"></path>
</svg>
