<!-- Generated by IcoMoon.io -->
<svg version="1.1" xmlns="http://www.w3.org/2000/svg" width="34" height="32" viewBox="0 0 34 32">
<title>os-search-gateway</title>
<path d="M28.476 15.326c-0.853-0.308-1.772-0.476-2.73-0.476-4.436 0-8.003 3.587-8.003 8.003 0 3.688 2.489 6.767 5.901 7.678h-20.376c-0.876 0-1.586-0.71-1.586-1.586v-25.829c0-0.876 0.71-1.586 1.586-1.586h23.621c0.876 0 1.586 0.71 1.586 1.586v12.21zM25.746 16.595c3.437 0 6.259 2.77 6.259 6.207 0 3.488-2.822 6.259-6.259 6.259-3.488 0-6.259-2.77-6.259-6.207s2.77-6.259 6.259-6.259zM6.274 23.829c-0.626 0-1.134 0.508-1.134 1.134s0.508 1.134 1.134 1.134h6.454c0.626 0 1.134-0.508 1.134-1.134s-0.508-1.134-1.134-1.134h-6.454zM6.274 18.014c-0.626 0-1.134 0.508-1.134 1.134s0.508 1.134 1.134 1.134h9.942c0.626 0 1.134-0.508 1.134-1.134s-0.508-1.134-1.134-1.134h-9.942zM6.274 12.2c-0.626 0-1.134 0.508-1.134 1.134s0.508 1.134 1.134 1.134h13.431c0.626 0 1.134-0.508 1.134-1.134s-0.508-1.134-1.134-1.134h-13.431zM6.274 6.386c-0.626 0-1.134 0.508-1.134 1.134s0.508 1.134 1.134 1.134h15.175c0.626 0 1.134-0.508 1.134-1.134s-0.508-1.134-1.134-1.134h-15.175zM28.773 26.496c0.359 0 0.667-0.308 0.667-0.667 0-0.205-0.103-0.41-0.205-0.513l-2.052-2.001c0.256-0.41 0.41-0.872 0.41-1.385 0-1.539-1.231-2.77-2.77-2.77s-2.77 1.231-2.77 2.77c0 1.539 1.231 2.77 2.77 2.77 0.513 0 0.975-0.154 1.385-0.41l2.052 2.001c0.154 0.103 0.308 0.205 0.513 0.205zM24.823 20.493c0.77 0 1.385 0.616 1.385 1.385s-0.616 1.385-1.385 1.385c-0.77 0-1.385-0.616-1.385-1.385s0.616-1.385 1.385-1.385z"></path>
</svg>
