<!-- Generated by IcoMoon.io -->
<svg version="1.1" xmlns="http://www.w3.org/2000/svg" width="32" height="32" viewBox="0 0 32 32">
<title>protection-domain</title>
<path d="M7.599 26.573c-3.994 0-7.24-3.247-7.24-7.237 0-1.574 0.496-3.072 1.435-4.329 0.614-0.823 1.403-1.51 2.299-2.006 0.293-0.738 0.719-1.433 1.245-2.027 1.175-1.328 2.724-2.059 4.36-2.059 0.399 0 0.795 0.038 1.184 0.115 0.521-0.645 1.123-1.225 1.793-1.729 1.64-1.226 3.524-1.874 5.452-1.874 2.463 0 4.777 0.96 6.521 2.703 1.479 1.479 2.403 3.399 2.641 5.463 2.596 0.972 4.354 3.466 4.354 6.289 0 3.688-3.002 6.688-6.688 6.688l-4.828-0.010 0.004-1.938 4.826 0.010c2.617 0 4.746-2.131 4.746-4.75 0-2.178-1.469-4.079-3.572-4.625l-0.695-0.181-0.028-0.719c-0.072-1.833-0.828-3.558-2.13-4.855-1.377-1.377-3.204-2.136-5.149-2.136-1.506 0-2.989 0.515-4.289 1.487-0.678 0.51-1.293 1.144-1.777 1.833l-0.41 0.583-0.679-0.218c-1.421-0.455-3.057-0.066-4.183 1.208-0.442 0.5-0.787 1.099-0.995 1.732l-0.129 0.391-0.371 0.179c-0.765 0.368-1.438 0.923-1.947 1.606-0.687 0.919-1.050 2.015-1.050 3.169 0 2.922 2.378 5.299 5.299 5.299l4.856-0.014 0.007 1.938-4.862 0.014z"></path>
<path d="M16.337 25.342l-0.172-0.035c-0.152-0.033-0.34-0.082-0.508-0.139l-0.291-0.115c-1.577-0.642-2.877-2.113-3.666-4.146-0.021-0.054-0.113-0.302-0.143-0.392-0.289-0.851-0.486-1.771-0.579-2.729-0.010-0.104-0.042-0.588-0.067-0.955l-0.050-0.752 0.744-0.147c0.335-0.033 0.674-0.103 0.954-0.196 0.096-0.032 0.187-0.062 0.233-0.082 0.254-0.086 0.54-0.191 1.012-0.46l0.248-0.147c0.115-0.067 0.214-0.132 0.342-0.218l0.583-0.423c0.272-0.217 0.541-0.458 0.795-0.712l0.551-0.552 0.549 0.553c0.254 0.256 0.521 0.495 0.799 0.71l0.283 0.216c0.114 0.085 0.187 0.134 0.328 0.23 0.11 0.074 0.2 0.131 0.299 0.191l0.26 0.154c0.533 0.303 0.808 0.385 0.81 0.386 0.215 0.078 0.315 0.114 0.406 0.144 0.313 0.105 0.647 0.176 0.979 0.206l0.75 0.068-0.050 0.752c-0.021 0.332-0.075 1.075-0.094 1.234-0.104 0.904-0.293 1.763-0.563 2.556l-0.060 0.174c-0.817 2.224-2.258 3.827-3.957 4.417-0.043 0.016-0.389 0.126-0.557 0.168l-0.168 0.041zM12.501 17.357c0.011 0.137 0.019 0.238 0.022 0.278 0.081 0.839 0.25 1.642 0.505 2.386 0.025 0.080 0.099 0.275 0.115 0.32 0.634 1.633 1.63 2.794 2.803 3.273l0.246 0.098c0.031 0.010 0.070 0.021 0.113 0.032 0.119-0.035 0.24-0.075 0.259-0.081 1.248-0.434 2.345-1.699 2.994-3.471l0.056-0.156c0.231-0.686 0.397-1.434 0.487-2.223 0.008-0.065 0.021-0.25 0.037-0.461-0.193-0.043-0.385-0.096-0.568-0.158-0.098-0.030-0.217-0.071-0.411-0.145-0.084-0.023-0.459-0.154-1.099-0.518l-0.283-0.168c-0.12-0.074-0.223-0.139-0.358-0.23-0.172-0.115-0.25-0.17-0.396-0.276l-0.299-0.228c-0.137-0.107-0.271-0.218-0.404-0.332-0.131 0.114-0.266 0.227-0.406 0.339l-0.633 0.458c-0.178 0.12-0.301 0.2-0.44 0.282l-0.259 0.153c-0.586 0.335-0.969 0.478-1.211 0.558-0.077 0.029-0.195 0.072-0.32 0.113-0.173 0.064-0.358 0.114-0.55 0.157z"></path>
<path d="M15.908 21.859c-0.069 0-0.137-0.023-0.184-0.072l-0.191-0.187c-0.003-0.002-0.003-0.002-0.006-0.008l-0.003-0.002-2.052-2.025c-0.049-0.049-0.077-0.111-0.077-0.18s0.028-0.131 0.077-0.181l0.189-0.185c0.048-0.052 0.112-0.078 0.186-0.078 0.067 0 0.137 0.029 0.184 0.078l1.878 1.854 3.188-3.146c0.051-0.053 0.113-0.078 0.187-0.078 0.069 0 0.135 0.027 0.184 0.078l0.189 0.184c0.049 0.049 0.073 0.113 0.073 0.179 0 0.069-0.024 0.132-0.073 0.183l-3.561 3.518c-0.052 0.044-0.117 0.068-0.188 0.068z"></path>
</svg>
