<!-- Generated by IcoMoon.io -->
<svg version="1.1" xmlns="http://www.w3.org/2000/svg" width="32" height="32" viewBox="0 0 32 32">
<title>remote-cluster</title>
<path d="M4 7.47h2c0.498 1.901 2.2 3.28 4.224 3.28 0.013 0 0.025-0 0.038-0h-0.002c2.029-0.018 3.735-1.386 4.262-3.248l0.008-0.032h13.47c0.602 0 1.090-0.488 1.090-1.090v0c-0.035-0.589-0.502-1.059-1.086-1.1l-0.004-0h-13.53c-0.502-1.901-2.206-3.28-4.232-3.28-0.013 0-0.027 0-0.040 0h0.002c-2.029 0.012-3.734 1.383-4.253 3.249l-0.007 0.031h-1.94c-0.588 0.041-1.055 0.511-1.090 1.097l-0 0.003c0 0.602 0.488 1.090 1.090 1.090v0zM10.2 4.080c1.205 0.006 2.18 0.984 2.18 2.19 0 1.21-0.98 2.19-2.19 2.19s-2.19-0.98-2.19-2.19v0c0 0 0 0 0-0 0-1.21 0.98-2.19 2.19-2.19 0.004 0 0.007 0 0.011 0h-0.001zM28 24.53h-13.53c-0.502-1.901-2.206-3.28-4.232-3.28-0.013 0-0.027 0-0.040 0h0.002c-2.029 0.012-3.734 1.383-4.253 3.249l-0.007 0.031h-1.94c-0.588 0.041-1.055 0.511-1.090 1.097l-0 0.003c0 0.602 0.488 1.090 1.090 1.090v0h2c0.496 1.893 2.186 3.268 4.199 3.28h0.001c2.029-0.018 3.735-1.386 4.262-3.248l0.008-0.032h13.53c0.561-0.055 0.995-0.524 0.995-1.095s-0.434-1.040-0.991-1.095l-0.005-0zM10.2 27.7c-1.21 0-2.19-0.98-2.19-2.19s0.98-2.19 2.19-2.19c1.21 0 2.19 0.98 2.19 2.19 0 0.003 0 0.007-0 0.011v-0.001c-0.006 1.205-0.984 2.18-2.19 2.18 0 0-0 0-0 0v0zM4 17.2h12.9c0.502 1.901 2.206 3.28 4.232 3.28 0.013 0 0.027-0 0.040-0h-0.002c2.029-0.018 3.735-1.386 4.262-3.248l0.008-0.032h2.56c0.602 0 1.090-0.488 1.090-1.090v0c-0.025-0.596-0.496-1.074-1.087-1.11l-0.003-0h-2.59c-0.502-1.907-2.21-3.29-4.242-3.29-0.010 0-0.020 0-0.029 0h0.002c-2.032 0.019-3.738 1.392-4.262 3.259l-0.008 0.031h-12.87c-0.587 0.036-1.054 0.503-1.090 1.087l-0 0.003c-0 0.006-0 0.013-0 0.020 0 0.602 0.488 1.090 1.090 1.090 0 0 0 0 0 0v0zM21.17 13.81c0.006-0 0.013-0 0.020-0 1.209 0 2.19 0.98 2.19 2.19s-0.98 2.19-2.19 2.19c-1.209 0-2.19-0.98-2.19-2.19v0c0.006-1.207 0.983-2.184 2.189-2.19h0.001z"></path>
</svg>
