<!-- Generated by IcoMoon.io -->
<svg version="1.1" xmlns="http://www.w3.org/2000/svg" width="32" height="32" viewBox="0 0 32 32">
<title>s3-console</title>
<path d="M19.303 31.25c2.57 0 4.773-2.091 4.773-4.531s-2.203-4.531-4.773-4.531c-2.020 0-3.672 1.22-4.406 2.789h-12.117c-0.918 0-1.836 0.697-1.836 1.743 0 0.871 0.734 1.743 1.836 1.743h12.117c0.734 1.569 2.387 2.789 4.406 2.789v0zM20.955 26.719c0 0.871-0.734 1.743-1.836 1.743-0.918 0-1.836-0.697-1.836-1.743s0.734-1.743 1.836-1.743c1.102 0 1.836 0.697 1.836 1.743h-0zM28.849 24.453c-0.855-0.003-1.647 0.428-2.075 1.13s-0.428 1.569 0 2.271c0.428 0.702 1.22 1.133 2.075 1.13 0.856 0.005 1.649-0.426 2.078-1.129s0.429-1.57 0-2.273c-0.429-0.703-1.223-1.134-2.078-1.129v-0zM19.303 9.813c2.57 0 4.773-2.091 4.773-4.531 0-2.614-2.203-4.531-4.773-4.531-2.020 0-3.672 1.22-4.406 2.789h-12.117c-0.918 0-1.836 0.697-1.836 1.743s0.734 1.743 1.836 1.743h12.117c0.734 1.569 2.387 2.789 4.406 2.789zM20.955 5.281c0 0.871-0.734 1.743-1.836 1.743-0.918 0-1.836-0.697-1.836-1.743 0-0.871 0.734-1.743 1.836-1.743s1.836 0.871 1.836 1.743h-0zM28.849 3.016c-0.855-0.003-1.647 0.428-2.075 1.13s-0.428 1.569 0 2.271c0.428 0.702 1.22 1.133 2.075 1.13 0.855 0.003 1.647-0.428 2.075-1.13s0.428-1.569 0-2.271c-0.428-0.702-1.22-1.133-2.075-1.13v0zM17.1 17.656h12.301c0.918 0 1.836-0.697 1.836-1.743 0-0.871-0.734-1.743-1.836-1.743h-12.117c-0.734-1.743-2.387-2.789-4.406-2.789-2.57 0-4.773 2.091-4.773 4.531s2.203 4.531 4.773 4.531c1.836 0 3.488-1.046 4.223-2.789v0zM11.041 15.913c0-0.871 0.734-1.743 1.836-1.743 0.918 0 1.836 0.697 1.836 1.743 0 0.871-0.734 1.743-1.836 1.743s-1.836-0.697-1.836-1.743zM3.146 13.647c-0.855-0.003-1.647 0.428-2.075 1.13s-0.428 1.569 0 2.271c0.429 0.702 1.22 1.133 2.075 1.13 0.856 0.005 1.649-0.426 2.078-1.129s0.429-1.57 0-2.273c-0.429-0.703-1.223-1.134-2.078-1.129v-0z"></path>
</svg>
