<!-- Generated by IcoMoon.io -->
<svg version="1.1" xmlns="http://www.w3.org/2000/svg" width="32" height="32" viewBox="0 0 32 32">
<title>user-group</title>
<path d="M20.3 22.7c-0.4-0.4-1.1-0.4-1.5 0s-0.4 1.1 0 1.5c1 1 1.7 2.2 2.1 3.6 0.1 0.5 0.5 0.8 1 0.8 0.1 0 0.2 0 0.3 0 0.6-0.2 0.9-0.7 0.7-1.3-0.5-1.8-1.4-3.3-2.6-4.6z"></path>
<path d="M19.8 19.8c4.4 0 7.9-3.5 7.9-7.9s-3.5-7.9-7.9-7.9c-1 0-1.9 0.2-2.7 0.5-0.2-0.1-0.5-0.3-0.7-0.4-1.1-0.4-2.2-0.7-3.4-0.7-5 0-9.2 4.1-9.2 9.2 0 3.5 2 6.6 4.9 8.1-2.7 1.3-4.7 3.6-5.5 6.5-0.2 0.6 0.2 1.1 0.7 1.3 0.1 0 0.2 0 0.3 0 0.5 0 0.9-0.3 1-0.8 1-3.5 4.2-6 7.9-6 0 0 0.1 0 0.1 0 1.1 0 2.1-0.3 3.1-0.7 0.9-0.3 1.6-0.8 2.3-1.4 0.4 0.2 0.8 0.2 1.2 0.2zM25.8 11.9c0 3.2-2.4 5.7-5.5 6 1.1-1.5 1.7-3.3 1.7-5.3 0-2.7-1.2-5.1-3-6.7 0.2 0 0.5-0.1 0.7-0.1 3.4 0 6.1 2.8 6.1 6.1zM13.8 19.6c-0.3 0-0.6 0.1-0.9 0.1-3.9 0-7-3.2-7-7s3.2-7 7-7c0.3 0 0.6 0 0.9 0.1 0.9 0.1 1.8 0.4 2.5 0.8 2.1 1.2 3.6 3.5 3.6 6.1s-1.5 4.9-3.6 6.1c-0.8 0.4-1.6 0.7-2.5 0.8z"></path>
<path d="M28.8 24.5c-0.4-1.5-1.2-2.8-2.3-3.9-0.3-0.3-0.9-0.3-1.3 0-0.3 0.3-0.3 0.9 0 1.3 0.9 0.9 1.5 1.9 1.8 3.1 0.1 0.4 0.5 0.7 0.9 0.7 0.1 0 0.2 0 0.2 0 0.6-0.2 0.8-0.7 0.7-1.2z"></path>
</svg>
