<!-- Generated by IcoMoon.io -->
<svg version="1.1" xmlns="http://www.w3.org/2000/svg" width="32" height="32" viewBox="0 0 32 32">
<title>user</title>
<path d="M25.587 12.398c0-5.397-4.391-9.789-9.787-9.789-5.397 0-9.789 4.391-9.789 9.789 0 3.766 2.142 7.037 5.269 8.673-2.777 1.335-4.953 3.807-5.819 6.901-0.164 0.589 0.179 1.199 0.767 1.364 0.1 0.027 0.2 0.041 0.299 0.041 0.484 0 0.929-0.32 1.066-0.808 1.050-3.753 4.508-6.373 8.409-6.373 0.051 0 0.095-0.022 0.145-0.029 5.235-0.184 9.44-4.49 9.44-9.769zM8.289 12.398c0-4.142 3.37-7.511 7.511-7.511s7.51 3.37 7.51 7.511-3.369 7.51-7.51 7.51-7.511-3.369-7.511-7.51z"></path>
<path d="M26.539 27.991c-0.5-1.815-1.473-3.482-2.813-4.823-0.432-0.432-1.134-0.432-1.566 0s-0.431 1.134 0 1.566c1.071 1.069 1.846 2.399 2.245 3.845 0.136 0.49 0.58 0.813 1.066 0.813 0.098 0 0.196-0.012 0.295-0.040 0.589-0.164 0.935-0.772 0.773-1.361z"></path>
</svg>
