<!-- Generated by IcoMoon.io -->
<svg version="1.1" xmlns="http://www.w3.org/2000/svg" width="32" height="32" viewBox="0 0 32 32">
<title>warning</title>
<path d="M16.016 0.075c-8.794 0-15.925 7.131-15.925 15.925 0 8.795 7.13 15.925 15.925 15.925s15.926-7.129 15.926-15.925c0-8.794-7.13-15.925-15.926-15.925zM14 8.092c0-1.092 0.908-1.978 2-1.978s2 0.886 2 1.977v9.885c0 1.092-0.908 1.977-2 1.977s-2-0.886-2-1.977v-9.884zM15.998 25.885c-1.092 0-1.977-0.885-1.977-1.977s0.885-1.977 1.977-1.977c1.092 0 1.977 0.885 1.977 1.977s-0.885 1.977-1.977 1.977z"></path>
</svg>
