<!-- Generated by IcoMoon.io -->
<svg version="1.1" xmlns="http://www.w3.org/2000/svg" width="32" height="32" viewBox="0 0 32 32">
<title>access-target</title>
<path d="M32 17.1v-2.3h-3.4c-0.5-6-5.3-10.8-11.2-11.4v-3.4h-2.3v3.3c-6.2 0.5-11.1 5.3-11.7 11.5h-3.3v2.3h3.3c0.6 6.1 5.5 11 11.7 11.5v3.4h2.3v-3.4c0 0 0 0 0 0v0c4.3-0.5 8-3.1 9.9-7l-2.1-1c-1.6 3.1-4.6 5.2-8.1 5.6v0c-0.4 0-0.8 0.1-1.2 0.1-5.7 0-10.4-4.6-10.4-10.4 0-5.7 4.6-10.4 10.4-10.4 5.4 0 9.9 4.2 10.3 9.5v2.1h5.8z"></path>
<path d="M16 21c-2.8 0-5.1-2.3-5.1-5.1s2.3-5.1 5.1-5.1c2.8 0 5.1 2.3 5.1 5.1s-2.3 5.1-5.1 5.1zM16 13.1c-1.5 0-2.7 1.2-2.7 2.7s1.2 2.7 2.7 2.7c1.5 0 2.7-1.2 2.7-2.7s-1.2-2.7-2.7-2.7z"></path>
</svg>
