<!-- Generated by IcoMoon.io -->
<svg version="1.1" xmlns="http://www.w3.org/2000/svg" width="32" height="32" viewBox="0 0 32 32">
<title>consistency-group-snapshot</title>
<path d="M12.767 27.747c-3.913 0-7.095-3.185-7.095-7.096 0-3.914 3.182-7.096 7.095-7.096 3.914 0 7.096 3.182 7.096 7.096 0 3.912-3.182 7.096-7.096 7.096zM12.767 15.306c-2.947 0-5.344 2.397-5.344 5.345s2.397 5.345 5.344 5.345c2.948 0 5.345-2.397 5.345-5.345s-2.397-5.345-5.345-5.345z"></path>
<path d="M25.774 27.816h-6.847v-1.753h5.096v-14.101h-6.512l-0.322-0.816-1.282-2.659h-6.278l-1.386 2.918-0.218 0.557h-6.254v14.101h4.707v1.753h-6.459v-17.605h6.837l1.673-3.475h8.478l1.674 3.475h7.093z"></path>
<path d="M10.769 20.878h-1.752c0-2.192 1.784-3.978 3.978-3.978v1.753c-1.227 0-2.226 0.997-2.226 2.225z"></path>
<path d="M20.335 13.487h2.397v1.29h-2.397v-1.29z"></path>
<path d="M24.934 7.067l-1.674-3.475h-8.477l-0.844 1.752 8.221-0.001 1.283 2.659 0.322 0.816h6.511v14.101h-1.494v1.753h3.245v-17.605z"></path>
</svg>
