<!-- Generated by IcoMoon.io -->
<svg version="1.1" xmlns="http://www.w3.org/2000/svg" width="32" height="32" viewBox="0 0 32 32">
<title>migration</title>
<path d="M8.799 0c-3.341 0-7.218 0.877-7.218 3.406v9.186c0 2.478 3.877 3.408 7.218 3.408 3.342 0 7.219-0.88 7.219-3.408v-9.184c0-2.53-3.877-3.408-7.221-3.408zM8.788 1.344c3.123 0 5.938 0.773 5.938 2.064 0 1.29-3.12 1.978-5.926 1.978s-5.947-0.688-5.947-1.979c0-1.29 2.816-2.064 5.936-2.064zM8.799 14.338c-3.52 0-5.966-1.032-5.966-2.323v-1.757c1.338 1.136 3.651 1.549 5.968 1.549 2.315 0 4.56-0.414 5.896-1.549v1.757c0 1.291-2.378 2.323-5.898 2.323zM8.774 10.141c-3.52 0-5.957-1.229-5.957-2.141v-2.371c1.336 1.136 4.659 1.339 5.957 1.339 1.296 0 4.621-0.205 5.957-1.339v2.371c0 0.912-2.437 2.141-5.957 2.141zM23.199 16c-3.341 0-7.218 0.877-7.218 3.406v9.187c0 2.477 3.877 3.406 7.218 3.406 3.342 0 7.219-0.878 7.219-3.408v-9.184c0-2.528-3.877-3.406-7.219-3.406zM23.188 17.344c3.123 0 5.938 0.771 5.938 2.064 0 1.29-3.12 1.978-5.926 1.978s-5.947-0.688-5.947-1.979c0-1.29 2.816-2.064 5.936-2.064zM23.199 30.338c-3.52 0-5.966-1.032-5.966-2.323v-1.757c1.338 1.136 3.651 1.549 5.968 1.549 2.315 0 4.56-0.414 5.896-1.549v1.757c0 1.291-2.378 2.323-5.898 2.323zM23.174 26.141c-3.52 0-5.957-1.227-5.957-2.141v-2.371c1.336 1.136 4.502 1.376 5.957 1.376 1.453 0 4.621-0.24 5.957-1.376v2.371c0 0.912-2.437 2.141-5.957 2.141zM5.967 18.816l1.541-0.432c0.844 2.918 3.077 5.176 5.917 6.041l0.063 0.016-0.451 1.536c-3.431-1.041-6.070-3.711-7.049-7.086l-0.018-0.074zM26.084 13.52l-1.555 0.379c-0.812-3.21-3.306-5.683-6.466-6.453l-0.060-0.012 0.368-1.558c3.807 0.925 6.753 3.849 7.697 7.571l0.015 0.072z"></path>
</svg>
