<!-- Generated by IcoMoon.io -->
<svg version="1.1" xmlns="http://www.w3.org/2000/svg" width="32" height="32" viewBox="0 0 32 32">
<title>snapshot</title>
<path d="M16 16v0 0z"></path>
<path d="M15.9 28.1c-4.5 0-8.2-3.7-8.2-8.2s3.7-8.2 8.2-8.2 8.2 3.7 8.2 8.2c-0.1 4.5-3.7 8.2-8.2 8.2zM15.9 13.7c-3.4 0-6.2 2.8-6.2 6.2s2.8 6.2 6.2 6.2c3.4 0 6.2-2.8 6.2-6.2-0.1-3.4-2.8-6.2-6.2-6.2z"></path>
<path d="M32 28.2h-9v-2.1h7v-16.2h-8.7l-0.3-1-1.5-3h-7.3l-1.6 3.3-0.2 0.7h-8.4v16.2h6.6v2.1h-8.6v-20.4h9l2-4h9.7l2 4h9.3z"></path>
<path d="M13.5 20.2h-2c0-2.5 2.1-4.6 4.6-4.6v2c-1.4 0-2.6 1.1-2.6 2.6z"></path>
<path d="M25.7 11.6h2.8v1.5h-2.8v-1.5z"></path>
</svg>
