<!-- Generated by IcoMoon.io -->
<svg version="1.1" xmlns="http://www.w3.org/2000/svg" width="32" height="32" viewBox="0 0 32 32">
<title>access-token</title>
<path d="M15.4 28.7l-0.3 0.1h-0.2c-9-3-10.4-7.4-10.4-19.8v-0.8l1.7-0.2c2.7-0.4 5.9-1.8 8.2-3.6l0.7-0.5 0.7 0.6c2.3 1.8 5.4 3.2 8.1 3.5l1.7 0.2v0.8c0 2 0 3.4-0.1 5h2c0.1-1.6 0.1-3 0.1-5v-2.6l-3.5-0.5c-2.3-0.3-5.1-1.5-7-3l-1.9-1.8-2.1 1.6c-2.1 1.7-4.9 2.9-7.2 3.2l-3.4 0.5v2.6c0 13.1 1.8 18.4 11.9 21.8l0.8 0.2 0.8-0.3c7-2.3 9.9-5.7 11-12.1h-2c-1 5.4-3.6 8.1-9.6 10.1z"></path>
<path d="M29.5 14.3h-1.9v1.2h-2.3v-1.2h-1.9v1.2h-2.8c-0.5-2.5-2.6-4.3-5.2-4.3-2.9 0-5.3 2.4-5.3 5.3s2.4 5.3 5.3 5.3c2.6 0 4.8-1.9 5.2-4.3h8.9v-1h0.1v-2.2zM15.4 19.7c-1.9 0-3.4-1.5-3.4-3.4s1.5-3.4 3.4-3.4 3.4 1.5 3.4 3.4c0 1.9-1.6 3.4-3.4 3.4z"></path>
<path d="M16.6 16.4c0 0.663-0.537 1.2-1.2 1.2s-1.2-0.537-1.2-1.2c0-0.663 0.537-1.2 1.2-1.2s1.2 0.537 1.2 1.2z"></path>
</svg>
