<?xml version="1.0" encoding="UTF-8"?>
<svg width="15px" height="13px" viewBox="0 0 15 13" version="1.1" xmlns="http://www.w3.org/2000/svg" xmlns:xlink="http://www.w3.org/1999/xlink">
    <!-- Generator: Sketch 56 (81588) - https://sketch.com -->
    <title>访问密钥</title>
    <desc>Created with Sketch.</desc>
    <g id="1-登录" stroke="none" stroke-width="1" fill="none" fill-rule="evenodd">
        <g id="画板" transform="translate(-246.000000, -439.000000)">
            <g id="访问密钥" transform="translate(243.000000, 435.000000)">
                <rect id="Rectangle" fill="#000000" opacity="0" x="0" y="0" width="20" height="20"></rect>
                <g id="蒙版" transform="translate(3.000000, 4.000000)" fill="#000" fill-rule="nonzero">
                    <g id="密钥-(1)">
                        <path d="M4.40788172,12.9953571 C1.98289726,12.9953571 0.0170589399,11.07258 0.0170589399,8.70071429 C0.0170589399,6.32884853 1.98289726,4.40607143 4.40788172,4.40607143 C6.83286619,4.40607143 8.79870451,6.32884853 8.79870451,8.70071429 C8.79608832,11.0715193 6.8317817,12.9927983 4.40788172,12.9953571 L4.40788172,12.9953571 Z M4.40788172,5.56678571 C3.11193861,5.56678571 1.94360241,6.3303429 1.44766645,7.50141174 C0.951730493,8.67248059 1.22586088,10.0204391 2.14223104,10.9167364 C3.0586012,11.8130337 4.43674772,12.0811593 5.63404304,11.5960867 C6.83133835,11.1110142 7.61199565,9.96827007 7.61199565,8.70071429 C7.60938145,6.97095355 6.17638102,5.56934264 4.40788172,5.56678571 Z" id="形状"></path>
                        <path d="M7.31294502,6.49536059 C7.07262593,6.4957777 6.8557791,6.35437345 6.76375477,6.13723417 C6.67173045,5.92009489 6.72270351,5.67010576 6.89285008,5.50410714 L12.3398438,0.181071429 C12.4513359,0.0722963093 12.6024638,0.0113320578 12.7599387,0.011606216 C12.9174136,0.0113320578 13.0685415,0.0722963093 13.1800336,0.181071429 L14.812945,1.77821429 C14.9630305,1.92501216 15.0216455,2.13897473 14.9667104,2.33950437 C14.9117753,2.540034 14.7516361,2.69666547 14.5466155,2.75039722 C14.3415949,2.80412898 14.1228406,2.74679788 13.9727551,2.6 L12.7599387,1.41375 L7.73303995,6.32589286 C7.62169616,6.43488563 7.47047157,6.49588891 7.31294502,6.49536059 Z" id="路径"></path>
                        <path d="M12.477502,4.87036059 C12.3199754,4.87088891 12.1687508,4.80988563 12.057407,4.70089286 L10.3960146,3.07589286 C10.1640026,2.848963 10.1640026,2.48103701 10.3960147,2.25410716 C10.6280267,2.02717731 11.0041925,2.0271773 11.2362045,2.25410714 L12.8975969,3.87910714 C13.0677435,4.04510576 13.1187165,4.29509489 13.0266922,4.51223417 C12.9346679,4.72937345 12.7178211,4.8707777 12.477502,4.87036059 L12.477502,4.87036059 Z" id="路径"></path>
                    </g>
                </g>
            </g>
        </g>
    </g>
</svg>