<?xml version="1.0" encoding="UTF-8"?>
<svg width="20px" height="21px" viewBox="0 0 20 21" version="1.1" xmlns="http://www.w3.org/2000/svg" xmlns:xlink="http://www.w3.org/1999/xlink">
    <title>管理角色</title>
    <defs>
        <path d="M18.9650623,12.0394397 L18.9650623,19.049503 C18.9650623,19.5247515 18.5081202,20 18.0511782,20 L18.0511782,20 L1.82888409,20 C1.37194205,20 0.915,19.5247515 0.915,19.049503 L0.915,19.049503 L0.915,12.0394397 L18.9650623,12.0394397 Z M15.5835707,15.4396529 C15.2407223,15.4396529 15.0125351,15.671449 15.0125351,16.0197198 C15.0125351,16.3679906 15.2407223,16.5997868 15.5835707,16.5997868 C15.9264192,16.5997868 16.2687,16.251516 16.1546064,16.0197198 C16.1546064,15.671449 15.9264192,15.4396529 15.5835707,15.4396529 Z M13.6417089,15.4396529 L3.70307752,15.4396529 L3.70307752,16.4838887 L13.6417089,16.4838887 L13.6417089,15.4396529 Z M6.74115299,3 C6.74115299,3.23179613 6.39887218,4.97257354 4.34234916,4.39250661 L4.34234916,4.39250661 L3.65665228,5.43674241 C3.65665228,5.43674241 5.37032686,6.59687628 3.65665228,8.22175562 L3.65665228,8.22175562 L4.34234916,9.26656803 C4.34234916,9.26656803 4.34906272,9.26358387 4.36180321,9.2584939 L4.41741877,9.23778494 C4.76698009,9.11564836 6.23933379,8.73544283 6.74115299,10.7749727 L6.74115299,10.7749727 L0.915,10.7749727 L0.915,3.92833774 C0.915,3.46416887 1.37194205,3 1.82888409,3 L1.82888409,3 Z M18.0570223,3 C18.628058,3 18.9709064,3.46416887 19.085,3.92833774 L19.085,3.92833774 L19.085,10.7749727 L14.7437667,10.7749727 C14.8578604,10.4267019 15.3148024,9.96310964 16.2286865,10.1949058 L16.2286865,10.1949058 L16.6856285,9.49836417 C16.6856285,9.49836417 15.6576508,8.57002643 16.6856285,7.52579062 L16.6856285,7.52579062 L16.2286865,6.82924902 C16.2286865,6.82924902 14.7431991,7.29341789 14.5150119,5.90091128 L14.5150119,5.90091128 L13.829315,5.90091128 C13.829315,5.90091128 13.6005602,7.29341789 12.1156404,6.82924902 L12.1156404,6.82924902 L11.6586984,7.52579062 C11.6586984,7.52579062 12.8013373,8.3382303 11.6586984,9.3824661 L11.6586984,9.3824661 L12.1156404,10.0790077 L12.1156404,10.0790077 L12.1399261,10.0716808 C12.2978262,10.0271941 13.1851583,9.82566743 13.6005602,10.7749727 L13.6005602,10.7749727 L8.11725564,10.7749727 C8.11725564,10.7749727 8.45953645,8.6865011 10.5160595,9.26656803 L10.5160595,9.26656803 L11.0870951,8.22233223 C11.0870951,8.22233223 9.48751415,6.94572369 11.0870951,5.43731902 L11.0870951,5.43731902 L10.5160595,4.39308321 C10.5160595,4.39308321 8.45953645,4.97315015 8.0025944,3.00057661 L8.0025944,3.00057661 Z M14.1784663,7.56873598 C14.6831906,7.56873598 15.0923504,7.98436694 15.0923504,8.49707372 C15.0923504,9.00978049 14.6831906,9.42541145 14.1784663,9.42541145 C13.6737421,9.42541145 13.2645822,9.00978049 13.2645822,8.49707372 C13.2645822,7.98436694 13.6737421,7.56873598 14.1784663,7.56873598 Z M7.40747417,5.49497975 C8.16456054,5.49497975 8.77830031,6.11842619 8.77830031,6.88748635 C8.77830031,7.65654652 8.16456054,8.27999296 7.40747417,8.27999296 C6.6503878,8.27999296 6.03664803,7.65654652 6.03664803,6.88748635 C6.03664803,6.11842619 6.6503878,5.49497975 7.40747417,5.49497975 Z" id="path-1"></path>
    </defs>
    <g id="页面-1" stroke="none" stroke-width="1" fill="none" fill-rule="evenodd">
        <g id="画板" transform="translate(-574.000000, -229.000000)">
            <g id="编组" transform="translate(574.000000, 229.327640)">
                <g id="管理角色" transform="translate(0.000000, 0.000000)">
                    <rect id="Rectangle" fill="#000000" opacity="0" x="0" y="0" width="20" height="20"></rect>
                    <mask id="mask-2" fill="white">
                        <use xlink:href="#path-1"></use>
                    </mask>
                    <use id="Mask" fill="#000000" fill-rule="nonzero" xlink:href="#path-1"></use>
                </g>
            </g>
        </g>
    </g>
</svg>