<!-- Generated by IcoMoon.io -->
<svg version="1.1" xmlns="http://www.w3.org/2000/svg" width="32" height="32" viewBox="0 0 32 32">
<title>alert</title>
<path d="M31.244 22.592l-0.125-0.148c-0.434-0.517-4.234-5.197-4.445-10.373-0.004-0.149-0.008-0.441-0.008-0.462 0-0.129 0-0.546-0.010-0.722-0.277-4.859-3.85-8.879-8.686-9.775l-0.365 1.967c3.93 0.729 6.828 3.986 7.053 7.92 0.008 0.145 0.008 0.487 0.008 0.602 0 0.020 0.004 0.367 0.010 0.548 0.232 5.72 4.131 10.649 4.912 11.583l0.109 0.127c0.104 0.135 0.174 0.35 0.174 0.549 0 0.54-0.447 0.979-0.998 0.979h-7.262l-0.291 0.485c-1.152 1.918-3.092 3.019-5.321 3.019-2.598 0-5.212-1.255-6.236-3.019l-0.291-0.485h-6.347c-0.55 0-0.997-0.438-0.997-0.979 0-0.145 0.033-0.291 0.091-0.409 0.025-0.050 0.053-0.097 0.083-0.14l0.204-0.25c0.768-0.938 4.607-5.898 4.811-11.527l0.009-0.48c0.001-0.173 0.003-0.338 0.007-0.429 0.142-3.967 2.986-7.285 6.917-8.068l-0.391-1.961c-4.845 0.965-8.351 5.060-8.522 9.922-0.005 0.061-0.008 0.283-0.012 0.595l-0.006 0.359c-0.171 4.707-3.292 8.979-4.222 10.152l-0.307 0.374c-0.139 0.171-0.261 0.358-0.364 0.565-0.194 0.396-0.297 0.845-0.297 1.295 0 1.643 1.344 2.979 2.997 2.979h5.236c1.504 2.086 4.549 3.504 7.638 3.504 2.711 0 5.184-1.3 6.721-3.504h6.152c1.654 0 2.998-1.337 2.998-2.979 0-0.65-0.221-1.302-0.627-1.814z"></path>
</svg>
