<!-- Generated by IcoMoon.io -->
<svg version="1.1" xmlns="http://www.w3.org/2000/svg" width="32" height="32" viewBox="0 0 32 32">
<title>alua</title>
<path d="M9.442 16.866c-1.767 0-3.2 1.433-3.2 3.2 0 1.687 1.305 3.069 2.961 3.191l0.239 0.009 11.53-0c0.34-1.401 1.604-2.442 3.11-2.442 1.767 0 3.2 1.433 3.2 3.2s-1.433 3.2-3.2 3.2c-1.475 0-2.718-0.999-3.088-2.357l-11.552-0.001c-2.651 0-4.8-2.149-4.8-4.8 0-2.556 1.998-4.646 4.518-4.792l0.282-0.008h13.6c1.767 0 3.2-1.433 3.2-3.2 0-1.687-1.305-3.069-2.961-3.191l-0.239-0.009-12.611 0.001c-0.386 1.334-1.616 2.309-3.074 2.309-1.767 0-3.2-1.433-3.2-3.2s1.433-3.2 3.2-3.2c1.523 0 2.798 1.065 3.121 2.49l12.564-0.001c2.651 0 4.8 2.149 4.8 4.8 0 2.556-1.998 4.646-4.518 4.792l-0.282 0.008h-13.6zM24.082 22.424c-0.884 0-1.6 0.716-1.6 1.6s0.716 1.6 1.6 1.6c0.884 0 1.6-0.716 1.6-1.6s-0.716-1.6-1.6-1.6zM7.357 6.376c-0.884 0-1.6 0.716-1.6 1.6s0.716 1.6 1.6 1.6c0.884 0 1.6-0.716 1.6-1.6s-0.716-1.6-1.6-1.6z"></path>
</svg>
