<?xml version="1.0" encoding="UTF-8"?>
<svg width="20px" height="21px" viewBox="0 0 20 21" version="1.1" xmlns="http://www.w3.org/2000/svg" xmlns:xlink="http://www.w3.org/1999/xlink">
    <title>块存储网关角色</title>
    <defs>
        <path d="M16.7487431,12.8156324 L16.7486351,15.549 L7.89667571,15.5494637 L7.8966934,19.9996054 C3.63283868,19.8996554 0.243760027,18.8326961 0.243760027,17.5725025 L0.243760027,17.5725025 L0.243760027,12.8150074 C0.243760027,13.8831313 2.76750743,14.8537553 6.06875404,15.145005 C6.08342542,15.146836 6.09809702,15.1486323 6.11276949,15.1503947 L5.97125414,15.145005 C6.49652704,15.145005 7.0660873,15.2021518 7.61985315,15.2391673 C7.9024375,15.2418799 8.19323025,15.2418799 8.49562655,15.2418799 L8.92483039,15.2414314 C9.03702142,15.2410737 9.14777854,15.2404307 9.25733224,15.2392748 L9.2553653,15.2404258 L10.325068,15.1645368 C10.5282807,15.1528177 10.7284368,15.145005 10.9224991,15.145005 L11.4911715,15.0824079 C12.2479036,14.9873753 12.9982926,14.8461237 13.7381212,14.6593805 C14.1268708,14.5625056 14.5149954,14.4650057 14.8068701,14.3687558 C15.9718689,13.8837563 16.6518682,13.3981318 16.7487431,12.8156324 L16.7487431,12.8156324 Z M19.8543649,16.6981284 L19.8543649,19.999375 L9.33033465,19.999375 L9.33033465,16.6981284 L19.8543649,16.6981284 Z M12.3031324,17.7662523 L11.6237581,17.7662523 L11.6237581,18.057502 L11.3325084,18.057502 L11.3325084,18.9312511 L12.5943821,18.9312511 L12.5943821,18.057502 L12.3031324,18.057502 L12.3031324,17.7662523 Z M14.2450054,17.7662523 L13.5656311,17.7662523 L13.5656311,18.057502 L13.2743814,18.057502 L13.2743814,18.9312511 L14.5362551,18.9312511 L14.5362551,18.057502 L14.2450054,18.057502 L14.2450054,17.7662523 Z M17.6431269,17.8631272 C17.3518772,17.8631272 17.1575024,18.057502 17.1575024,18.3487517 C17.1575024,18.6400014 17.3518772,18.8343762 17.6431269,18.8343762 C17.9343766,18.8343762 18.1287514,18.5431265 18.1287514,18.3487517 C18.1287514,18.057502 17.9343766,17.8631272 17.6431269,17.8631272 Z M16.6506182,7.86376245 L16.6506182,11.7475085 C16.6506182,13.1068821 12.961247,14.175006 8.39812665,14.175006 C3.83500634,14.175006 0.145635128,13.1068821 0.145635128,11.7475085 L0.145635128,7.86376245 C0.145635128,9.22251108 3.83500634,10.290635 8.39812665,10.290635 L8.39812665,10.29126 C12.961247,10.29126 16.6506182,9.12563616 16.6506182,7.86376245 Z M8.39812665,4.36876605 C12.955622,4.36876605 16.6506182,5.45563993 16.6506182,6.79563855 C16.6506182,8.13626217 12.955622,9.22251106 8.39812665,9.22251106 C3.84063133,9.22251106 0.145635128,8.13563717 0.145635128,6.79563855 C0.145635128,5.45501493 3.84063133,4.36876605 8.39812665,4.36876605 Z M8.59250145,2.03814344 C9.75750025,2.03814344 10.9224991,2.42689304 11.7962482,3.10626734 L10.9224991,3.78564165 C10.2431248,3.39751704 9.46625055,3.10626734 8.59250145,3.10626734 C7.81562725,3.10626734 6.84500324,3.30001714 6.26250384,3.78564165 L5.38875474,3.10626734 C6.26250384,2.52376794 7.42750264,2.03814344 8.59250145,2.03814344 Z M8.78625125,6.80475057e-06 C10.5128942,-0.00229500185 12.1895667,0.579430158 13.5437464,1.65064384 L13.6406213,1.74751874 L12.7668722,2.42689304 L12.6699973,2.42689304 C11.6018734,1.55314394 10.1456249,1.06751944 8.68937635,1.06751944 C7.13625294,1.06751944 5.77687934,1.45564404 4.70875544,2.32939314 L4.70875544,2.33001814 C4.70875544,2.35769668 4.70084728,2.37746707 4.69180939,2.39158878 L4.68063513,2.404 L3.83500634,1.74751874 C3.83500634,1.65001884 3.83500634,1.55314394 3.93188124,1.55314394 C5.29125484,0.582519937 6.94187814,6.80475057e-06 8.78625125,6.80475057e-06 Z" id="path-1"></path>
    </defs>
    <g id="页面-1" stroke="none" stroke-width="1" fill="none" fill-rule="evenodd">
        <g id="画板" transform="translate(-630.000000, -229.000000)">
            <g id="编组" transform="translate(574.000000, 229.327640)">
                <g id="块存储网关角色" transform="translate(56.000000, 0.000000)">
                    <rect id="Rectangle" fill="#000000" opacity="0" x="0" y="0" width="20" height="20"></rect>
                    <mask id="mask-2" fill="white">
                        <use xlink:href="#path-1"></use>
                    </mask>
                    <use id="Mask" fill="#000000" xlink:href="#path-1"></use>
                </g>
            </g>
        </g>
    </g>
</svg>