<svg xmlns="http://www.w3.org/2000/svg" viewBox="0 0 512 512"><g fill="#7cb777"><path d="M362.391 318.466l-26.12-80.253-.411.137c.355-.124 36.014-12.876 81.861-56.004 16.975-15.969 43.681-15.154 59.649 1.823 15.968 16.975 15.152 43.681-1.823 59.649-59.745 56.203-107.865 72.926-113.156 74.648zM149.609 318.466l26.12-80.253.411.137c-.355-.124-36.014-12.876-81.861-56.004-16.975-15.969-43.681-15.154-59.649 1.823-15.968 16.975-15.152 43.681 1.823 59.649 59.745 56.203 107.865 72.926 113.156 74.648z"/></g><g fill="#35925d"><path d="M85.138 175.804c.125 2.37.279 4.739.501 7.106l10.108 107.882c29.888 19.439 50.504 26.58 53.862 27.674l26.12-80.253.411.137c-.355-.124-36.014-12.876-81.861-56.004a42.226 42.226 0 0 0-9.141-6.542zM426.362 182.91c.222-2.367.376-4.736.501-7.106a42.143 42.143 0 0 0-9.14 6.543c-45.848 43.129-81.506 55.881-81.861 56.004l.411-.137 26.12 80.253c3.358-1.093 23.974-8.235 53.862-27.674l10.107-107.883z"/></g><path d="M342.357 54.599C318.475 36.137 288.52 25.152 256 25.152s-62.476 10.985-86.357 29.446c-38.316 29.62-58.208 77.253-53.69 125.471l14.612 155.965L256 364.609l125.435-28.575 14.612-155.965c4.519-48.218-15.374-95.85-53.69-125.47z" fill="#7cb777"/><g fill="#3a484a"><path d="M182.4 206.214a7.61 7.61 0 0 1-7.611-7.612v-13.32a7.61 7.61 0 0 1 7.611-7.611 7.61 7.61 0 0 1 7.611 7.611v13.32a7.611 7.611 0 0 1-7.611 7.612zM329.6 206.214a7.611 7.611 0 0 1-7.612-7.612v-13.32c0-4.204 3.407-7.611 7.612-7.611s7.611 3.408 7.611 7.611v13.32a7.61 7.61 0 0 1-7.611 7.612zM256 213.323c-9.276 0-17.985-3.878-23.896-10.639a7.61 7.61 0 0 1 .721-10.74 7.61 7.61 0 0 1 10.74.721c3.02 3.455 7.552 5.436 12.435 5.436 4.885 0 9.416-1.981 12.434-5.435a7.612 7.612 0 0 1 11.463 10.018c-5.911 6.761-14.621 10.639-23.897 10.639z"/></g><g fill="#efedee"><path d="M256 50.305a7.61 7.61 0 0 1-7.611-7.611V7.611A7.61 7.61 0 0 1 256 0a7.61 7.61 0 0 1 7.611 7.611v35.082A7.611 7.611 0 0 1 256 50.305zM189.509 68.401a7.607 7.607 0 0 1-6.515-3.666l-18.192-29.996a7.612 7.612 0 0 1 13.017-7.893l18.192 29.996a7.612 7.612 0 0 1-6.502 11.559zM142.462 122.272a7.583 7.583 0 0 1-2.917-.585l-32.399-13.456a7.613 7.613 0 0 1 5.84-14.059l32.399 13.456a7.613 7.613 0 0 1-2.923 14.644zM369.538 122.272a7.613 7.613 0 0 1-2.923-14.643l32.4-13.456a7.613 7.613 0 0 1 5.84 14.059l-32.4 13.456a7.6 7.6 0 0 1-2.917.584z"/></g><path d="M365.784 49.252a17.06 17.06 0 0 1-1.789-11.295c2.2-11.788-8.121-22.109-19.909-19.909a17.065 17.065 0 0 1-11.295-1.789c-10.53-5.735-23.537.891-25.086 12.782a17.064 17.064 0 0 1-5.192 10.189c-8.709 8.243-6.425 22.66 4.405 27.808a17.073 17.073 0 0 1 8.086 8.086c5.148 10.83 19.566 13.113 27.808 4.405a17.067 17.067 0 0 1 10.189-5.192c11.891-1.548 18.518-14.554 12.783-25.085z" fill="#ff98c5"/><circle cx="332.531" cy="49.516" r="12.502" fill="#fadc60"/><path d="M256 364.609l-138.027 28.575 16.875 86.491C138.512 498.45 154.961 512 174.09 512h163.82c19.129 0 35.578-13.549 39.242-32.326l16.875-86.491L256 364.609z" fill="#fd6f71"/><path d="M175.443 479.676l-16.875-86.491 117.73-24.373L256 364.609l-138.027 28.575 16.875 86.491C138.512 498.45 154.961 512 174.09 512h40.595c-19.129 0-35.578-13.549-39.242-32.324z" fill="#e34b4c"/><path d="M394.027 336.034H117.973c-8.817 0-15.965 7.148-15.965 15.965v25.22c0 8.817 7.148 15.965 15.965 15.965h276.054c8.817 0 15.965-7.148 15.965-15.965v-25.22c-.001-8.817-7.148-15.965-15.965-15.965z" fill="#efedee"/><path d="M142.604 377.22V352c0-8.817 7.148-15.964 15.965-15.964h-40.595c-8.817 0-15.965 7.147-15.965 15.964v25.22c0 8.817 7.148 15.964 15.965 15.964h40.595c-8.818 0-15.965-7.148-15.965-15.964z" fill="#d2d2d2"/></svg>