<?xml version="1.0" encoding="iso-8859-1"?>
<!-- Generator: Adobe Illustrator 19.0.0, SVG Export Plug-In . SVG Version: 6.00 Build 0)  -->
<svg version="1.1" id="Capa_1" xmlns="http://www.w3.org/2000/svg" xmlns:xlink="http://www.w3.org/1999/xlink" x="0px" y="0px"
	 viewBox="0 0 512 512" style="enable-background:new 0 0 512 512;" xml:space="preserve">
<g>
	<path style="fill:#7CB777;" d="M362.391,318.466l-26.12-80.253l-0.411,0.137c0.355-0.124,36.014-12.876,81.861-56.004
		c16.975-15.969,43.681-15.154,59.649,1.823c15.968,16.975,15.152,43.681-1.823,59.649
		C415.802,300.021,367.682,316.744,362.391,318.466z"/>
	<path style="fill:#7CB777;" d="M149.609,318.466l26.12-80.253l0.411,0.137c-0.355-0.124-36.014-12.876-81.861-56.004
		c-16.975-15.969-43.681-15.154-59.649,1.823c-15.968,16.975-15.152,43.681,1.823,59.649
		C96.198,300.021,144.318,316.744,149.609,318.466z"/>
</g>
<g>
	<path style="fill:#35925D;" d="M85.138,175.804c0.125,2.37,0.279,4.739,0.501,7.106l10.108,107.882
		c29.888,19.439,50.504,26.58,53.862,27.674l26.12-80.253l0.411,0.137c-0.355-0.124-36.014-12.876-81.861-56.004
		C91.469,179.703,88.388,177.53,85.138,175.804z"/>
	<path style="fill:#35925D;" d="M426.362,182.91c0.222-2.367,0.376-4.736,0.501-7.106c-3.251,1.726-6.331,3.899-9.14,6.543
		c-45.848,43.129-81.506,55.881-81.861,56.004l0.411-0.137l26.12,80.253c3.358-1.093,23.974-8.235,53.862-27.674L426.362,182.91z"/>
</g>
<path style="fill:#7CB777;" d="M342.357,54.599C318.475,36.137,288.52,25.152,256,25.152s-62.476,10.985-86.357,29.446
	c-38.316,29.62-58.208,77.253-53.69,125.471l14.612,155.965L256,364.609l125.435-28.575l14.612-155.965
	C400.566,131.851,380.673,84.219,342.357,54.599z"/>
<g>
	<path style="fill:#3A484A;" d="M182.4,206.214c-4.205,0-7.611-3.408-7.611-7.612v-13.32c0-4.204,3.407-7.611,7.611-7.611
		c4.205,0,7.611,3.408,7.611,7.611v13.32C190.011,202.806,186.604,206.214,182.4,206.214z"/>
	<path style="fill:#3A484A;" d="M329.6,206.214c-4.205,0-7.612-3.408-7.612-7.612v-13.32c0-4.204,3.407-7.611,7.612-7.611
		s7.611,3.408,7.611,7.611v13.32C337.212,202.806,333.805,206.214,329.6,206.214z"/>
	<path style="fill:#3A484A;" d="M256,213.323c-9.276,0-17.985-3.878-23.896-10.639c-2.768-3.165-2.444-7.974,0.721-10.74
		c3.166-2.767,7.974-2.444,10.74,0.721c3.02,3.455,7.552,5.436,12.435,5.436c4.885,0,9.416-1.981,12.434-5.435
		c2.769-3.165,7.576-3.488,10.74-0.722c3.165,2.767,3.489,7.575,0.723,10.74C273.986,209.445,265.276,213.323,256,213.323z"/>
</g>
<g>
	<path style="fill:#EFEDEE;" d="M256,50.305c-4.205,0-7.611-3.408-7.611-7.611V7.611C248.389,3.408,251.795,0,256,0
		c4.205,0,7.611,3.408,7.611,7.611v35.082C263.611,46.897,260.204,50.305,256,50.305z"/>
	<path style="fill:#EFEDEE;" d="M189.509,68.401c-2.573,0-5.083-1.305-6.515-3.666l-18.192-29.996
		c-2.179-3.595-1.033-8.275,2.561-10.455c3.595-2.179,8.275-1.034,10.456,2.562l18.192,29.996c2.179,3.595,1.033,8.275-2.561,10.455
		C192.216,68.044,190.854,68.401,189.509,68.401z"/>
	<path style="fill:#EFEDEE;" d="M142.462,122.272c-0.973,0-1.962-0.188-2.917-0.585l-32.399-13.456
		c-3.882-1.613-5.722-6.067-4.11-9.949c1.613-3.882,6.064-5.722,9.95-4.11l32.399,13.456c3.882,1.613,5.722,6.067,4.11,9.949
		C148.278,120.505,145.446,122.272,142.462,122.272z"/>
	<path style="fill:#EFEDEE;" d="M369.538,122.272c-2.984,0-5.816-1.766-7.033-4.694c-1.612-3.882,0.228-8.336,4.11-9.949
		l32.4-13.456c3.881-1.612,8.337,0.227,9.95,4.11c1.612,3.882-0.228,8.336-4.11,9.949l-32.4,13.456
		C371.5,122.084,370.511,122.272,369.538,122.272z"/>
</g>
<path style="fill:#FF98C5;" d="M365.784,49.252L365.784,49.252c-1.878-3.448-2.51-7.436-1.789-11.295
	c2.2-11.788-8.121-22.109-19.909-19.909c-3.859,0.721-7.848,0.088-11.295-1.789c-10.53-5.735-23.537,0.891-25.086,12.782l0,0
	c-0.507,3.892-2.341,7.491-5.192,10.189l0,0c-8.709,8.243-6.425,22.66,4.405,27.808c3.545,1.686,6.401,4.542,8.086,8.086l0,0
	c5.148,10.83,19.566,13.113,27.808,4.405l0,0c2.699-2.851,6.297-4.685,10.189-5.192l0,0
	C364.892,72.789,371.519,59.783,365.784,49.252z"/>
<circle style="fill:#FADC60;" cx="332.531" cy="49.516" r="12.502"/>
<path style="fill:#FD6F71;" d="M256,364.609l-138.027,28.575l16.875,86.491C138.512,498.45,154.961,512,174.09,512h163.82
	c19.129,0,35.578-13.549,39.242-32.326l16.875-86.491L256,364.609z"/>
<path style="fill:#E34B4C;" d="M175.443,479.676l-16.875-86.491l117.73-24.373L256,364.609l-138.027,28.575l16.875,86.491
	C138.512,498.45,154.961,512,174.09,512h40.595C195.556,512,179.107,498.451,175.443,479.676z"/>
<path style="fill:#EFEDEE;" d="M394.027,336.034H117.973c-8.817,0-15.965,7.148-15.965,15.965v25.22
	c0,8.817,7.148,15.965,15.965,15.965h276.054c8.817,0,15.965-7.148,15.965-15.965v-25.22
	C409.991,343.182,402.844,336.034,394.027,336.034z"/>
<path style="fill:#D2D2D2;" d="M142.604,377.22v-25.22c0-8.817,7.148-15.964,15.965-15.964h-40.595
	c-8.817,0-15.965,7.147-15.965,15.964v25.22c0,8.817,7.148,15.964,15.965,15.964h40.595
	C149.751,393.184,142.604,386.036,142.604,377.22z"/>
<g>
</g>
<g>
</g>
<g>
</g>
<g>
</g>
<g>
</g>
<g>
</g>
<g>
</g>
<g>
</g>
<g>
</g>
<g>
</g>
<g>
</g>
<g>
</g>
<g>
</g>
<g>
</g>
<g>
</g>
</svg>
