<?xml version="1.0" encoding="UTF-8"?>
<svg width="20px" height="21px" viewBox="0 0 20 21" version="1.1" xmlns="http://www.w3.org/2000/svg" xmlns:xlink="http://www.w3.org/1999/xlink">
    <title>集群监控角色</title>
    <defs>
        <path d="M11.8945385,12.0769518 C11.0090282,13.0089883 10.4512074,14.2545834 10.3960735,15.6246435 L3.01478852,15.6243585 L3.01478852,16.6886135 L10.4556741,16.6890293 C10.6601399,18.0142396 11.341536,19.1781037 12.3241831,20 L0.927627237,19.9993046 C0.463813619,19.9993046 0,19.5264322 0,19.0535597 L0,19.0535597 L0,12.0778149 Z M15.8270227,11.6533579 C18.1185237,11.6533579 19.9999974,13.5078633 19.9999974,15.808923 C20.001235,16.920662 19.5619822,17.987225 18.7791291,18.7733437 C17.996276,19.5594623 16.9341435,20.0005475 15.8270227,19.9993046 C13.5015192,19.9993046 11.6540506,18.1447965 11.6540506,15.8437368 C11.6540506,13.5426772 13.5008524,11.6533579 15.8270227,11.6533579 Z M15.9298918,12.9441343 C15.867867,12.9081881 15.7913471,12.9081881 15.7293223,12.9441343 L15.7293223,12.9441343 L15.0200853,13.3551694 C14.9583656,13.3909388 14.92037,13.4568742 14.92037,13.5282098 L14.92037,13.5282098 L14.92037,14.3515965 C14.92037,14.4229321 14.9583656,14.4888675 15.0200853,14.5246369 L15.0200853,14.5246369 L15.3002909,14.6870147 L14.2402909,16.2220147 L13.9836712,16.0747855 C13.9217104,16.0390792 13.8453997,16.0391729 13.7835267,16.0750311 L13.7835267,16.0750311 L13.0740062,16.4862305 C13.0122865,16.5219999 12.9742909,16.5879353 12.9742909,16.6592709 L12.9742909,16.6592709 L12.9742909,17.4826576 C12.9742909,17.5539932 13.0122865,17.6199286 13.0740062,17.655698 L13.0740062,17.655698 L13.7835267,18.0668974 C13.8453997,18.1027556 13.9217104,18.1028492 13.9836712,18.067143 L13.9836712,18.067143 L14.6977909,17.6556164 C14.7597501,17.6199111 14.7979312,17.5538414 14.7979312,17.4823304 L14.7979312,17.4823304 L14.7972909,17.3910147 L16.8602909,17.3910147 L16.861283,17.4826576 C16.861283,17.5539932 16.8992785,17.6199286 16.9609982,17.655698 L16.9609982,17.655698 L17.6702353,18.0667331 C17.7322601,18.1026793 17.80878,18.1026793 17.8708048,18.0667331 L17.8708048,18.0667331 L18.5800418,17.655698 C18.6417615,17.6199286 18.6797571,17.5539932 18.6797571,17.4826576 L18.6797571,17.4826576 L18.6797571,16.6592709 C18.6797571,16.5879353 18.6417615,16.5219999 18.5800418,16.4862305 L18.5800418,16.4862305 L17.8708048,16.0751954 C17.80878,16.0392492 17.7322601,16.0392492 17.6702353,16.0751954 L17.6702353,16.0751954 L17.4112909,16.2250147 L16.3432909,14.6950147 L16.6391289,14.5246369 C16.7008486,14.4888675 16.7388441,14.4229321 16.7388441,14.3515965 L16.7388441,14.3515965 L16.7388441,13.5282098 C16.7388441,13.4568742 16.7008486,13.3909388 16.6391289,13.3551694 L16.6391289,13.3551694 Z M15.7707576,14.9537826 C15.8050036,14.9643257 15.8414262,14.9654477 15.8761354,14.9571485 L15.8761354,14.9571485 L16.9489035,16.4938277 C16.8943525,16.5308692 16.861283,16.59272 16.861283,16.6592709 L16.861283,16.6592709 L16.8602909,16.8700147 L14.7972909,16.8700147 L14.7979312,16.6595981 C14.7979312,16.6059648 14.7764543,16.5553923 14.7395769,16.518395 L14.7395769,16.518395 L14.7072909,16.4930147 Z M18.3229284,7.11207012 L18.3229284,10.7771237 L17.842015,10.7768171 C17.2178564,10.5277689 16.5375729,10.3908739 15.8270223,10.3908739 C15.112139,10.3908739 14.4320147,10.5278681 13.8100434,10.776578 L9.97313802,10.7771237 L11.9446322,7.11207012 L18.3229284,7.11207012 Z M7.88597674,5.45643265 L9.3936573,10.7771237 L0,10.7771237 L0,8.88505001 L6.14638936,8.88505001 L7.88597674,5.45643265 Z M17.279634,2.85505022 C17.7103181,2.85505022 18.1410022,3.2627821 18.2003311,3.69963769 L18.2072613,3.80079518 L18.2072613,5.92930513 L11.2489118,5.92930513 L11.2489118,5.92872133 L9.85747092,8.29366752 L8.34979036,2.85505022 L17.279634,2.85505022 Z M8.00221645,2.85505022 L5.45066893,7.70286882 L0,7.70286882 L0,3.80079518 C0,3.36169931 0.399920926,2.92260343 0.828407633,2.86211574 L0.927627237,2.85505022 L8.00221645,2.85505022 Z" id="path-1"></path>
    </defs>
    <g id="页面-1" stroke="none" stroke-width="1" fill="none" fill-rule="evenodd">
        <g id="画板" transform="translate(-798.000000, -229.000000)">
            <g id="编组" transform="translate(574.000000, 229.327640)">
                <g id="集群监控角色" transform="translate(223.999988, 0.000000)">
                    <rect id="Rectangle" fill="#000000" opacity="0" x="0" y="0" width="20" height="20"></rect>
                    <mask id="mask-2" fill="white">
                        <use xlink:href="#path-1"></use>
                    </mask>
                    <use id="Mask" fill="#000000" fill-rule="nonzero" xlink:href="#path-1"></use>
                </g>
            </g>
        </g>
    </g>
</svg>