<!-- Generated by IcoMoon.io -->
<svg version="1.1" xmlns="http://www.w3.org/2000/svg" width="32" height="32" viewBox="0 0 32 32">
<title>controller</title>
<path d="M26 4h-20c-1.1 0-2 0.9-2 2v20c0 1.1 0.9 2 2 2h20c1.1 0 2-0.9 2-2v-20c0-1.1-0.9-2-2-2zM26 25c0 0.6-0.4 1-1 1h-18c-0.6 0-1-0.4-1-1v-18c0-0.6 0.4-1 1-1h18c0.6 0 1 0.4 1 1v18z"></path>
<path d="M13 16.2v-8.2h-2v8.2c-1.2 0.4-2 1.5-2 2.8s0.8 2.4 2 2.8v2.2h2v-2.2c1.2-0.4 2-1.5 2-2.8s-0.8-2.4-2-2.8zM12 21c-1.1 0-2-0.9-2-2s0.9-2 2-2 2 0.9 2 2-0.9 2-2 2z"></path>
<path d="M21 10.2v-2.2h-2v2.2c-1.2 0.4-2 1.5-2 2.8s0.8 2.4 2 2.8v8.2h2v-8.2c1.2-0.4 2-1.5 2-2.8s-0.8-2.4-2-2.8zM20 15c-1.1 0-2-0.9-2-2s0.9-2 2-2 2 0.9 2 2-0.9 2-2 2z"></path>
</svg>
