<!-- Generated by IcoMoon.io -->
<svg version="1.1" xmlns="http://www.w3.org/2000/svg" width="32" height="32" viewBox="0 0 32 32">
<title>delete-policy</title>
<path d="M10.1 5.1h4.7l2.4 2.4h7.5v-2.1h-6.8l-1.9-1.9c-0.2-0.4-0.7-0.5-1.2-0.5h-4.9c-0.5 0-0.8 0.1-1.2 0.5l-1.9 1.9h-6.8v2.1h7.8l2.3-2.4z"></path>
<path d="M13.6 23.3v2h-2.1v-12.2h2.1v3.6c1.1-3.3 3.9-6.1 7.4-6.9h-0.6l-18-0.1v16.2c0 1.7 1.4 3.1 3.1 3.1h12.8c-2.2-1.3-3.9-3.3-4.7-5.7zM8.1 25.3h-2.1v-12.2h2.1v12.2z"></path>
<path d="M23.6 11.7c-4.7 0-8.4 3.7-8.4 8.4s3.7 8.4 8.4 8.4c4.7 0 8.4-3.7 8.4-8.4s-3.7-8.4-8.4-8.4zM28.5 21h-5.9v-6.2h2.1v4.1h3.8v2.1z"></path>
</svg>
