<?xml version="1.0" encoding="UTF-8"?>
<svg width="20px" height="21px" viewBox="0 0 20 21" version="1.1" xmlns="http://www.w3.org/2000/svg" xmlns:xlink="http://www.w3.org/1999/xlink">
    <title>分布式文件存储网关角色</title>
    <g id="页面-1" stroke="none" stroke-width="1" fill="none" fill-rule="evenodd">
        <g id="画板" transform="translate(-714.000000, -229.000000)">
            <g id="编组" transform="translate(574.000000, 229.327640)">
                <g id="分布式文件存储网关角色" transform="translate(139.999993, 0.000007)">
                    <rect id="矩形" fill="#D8D8D8" opacity="0" x="0" y="0" width="19.9999928" height="19.9999928"></rect>
                    <path d="M7.89287039,4.30323986 L9.90418352,6.31643859 L16.3837545,6.31643859 C17.1656524,6.31643859 17.7237918,6.87583505 17.7237918,7.65773303 L17.7237918,10.5562492 C16.997205,10.2300393 16.1926797,10.0483926 15.3479282,10.0483926 C12.116628,10.0483926 9.55094665,12.6718991 9.55094665,15.8667443 C9.55094665,17.4902512 10.2134229,18.9534815 11.2888469,19.9999928 L1.6346117,19.9999928 C0.852713718,19.9999928 0.294574326,19.4405964 0.294574326,18.6586984 L0.294574326,5.6445343 C0.294574326,4.86200778 0.853342254,4.30323986 1.6346117,4.30323986 L7.89287039,4.30323986 Z M15.3138369,11.2206059 C17.725527,11.2199774 19.7054159,13.1709511 19.7054159,15.5914408 C19.7066705,16.7611451 19.244697,17.8830807 18.4206871,18.7102332 C17.5966773,19.5373857 16.4791414,20.0012448 15.3138369,19.9999903 C12.8663202,19.9999903 10.9222604,18.049014 10.9222604,15.6285244 C10.9222604,13.2080347 12.8656917,11.2206059 15.3138369,11.2206059 Z M16.3704048,13.0056463 C15.8625482,13.0056463 15.4514861,13.417337 15.4514861,13.924565 C15.4514861,13.9534776 15.4527432,13.9817617 15.4552573,14.0106744 L14.3213796,14.9289645 C14.1717881,14.8239991 13.9901414,14.7630312 13.7940384,14.7630312 C13.2861818,14.7630312 12.8751197,15.1747218 12.8751197,15.6819499 C12.8751197,16.1891779 13.2868104,16.6008685 13.7940384,16.6008685 C13.9781993,16.6008685 14.1504179,16.5468145 14.2943525,16.4531627 L15.4514861,17.4242499 L15.4514861,17.4387062 L15.4514861,17.4387062 C15.4514861,17.9465627 15.8631768,18.3576249 16.3704048,18.3576249 C16.8776328,18.3576249 17.2893235,17.9459342 17.2893235,17.4387062 C17.2893235,16.9308496 16.8776328,16.5197875 16.3704048,16.5197875 C16.1321899,16.5197875 15.9147167,16.6102966 15.7512975,16.7592595 L14.6934725,15.871139 C14.7066717,15.8101711 14.7129571,15.746689 14.7129571,15.6813213 C14.7129571,15.6285244 14.7085573,15.5763559 14.6997578,15.5254446 L15.7934094,14.6398382 C15.9511717,14.7674309 16.1516745,14.8434837 16.3704048,14.8434837 C16.8782614,14.8434837 17.2893235,14.431793 17.2893235,13.924565 C17.2893235,13.417337 16.8776328,13.0056463 16.3704048,13.0056463 Z M13.6166536,2.40254895 C14.956691,2.40254895 16.0742268,2.85006612 17.0792548,3.52071334 L16.0735983,4.30323986 C15.4029511,3.85635122 14.6210531,3.52071334 13.6153965,3.52071334 C12.8028717,3.52071334 11.9903469,3.79758057 11.3454631,4.18414634 L11.1584518,4.30323986 L10.1540523,3.52071334 C11.1590804,2.85006612 12.3884955,2.40254895 13.6166536,2.40254895 Z M13.7285329,0.390607292 C15.6273382,0.390607292 17.4142642,0.950003755 18.8668094,2.06816815 L18.9780601,2.18004744 L18.0842829,2.85069466 L17.9730321,2.85069466 C16.8561248,1.84440956 15.2917003,1.39689239 13.7279044,1.39689239 C12.1641084,1.39689239 10.5996839,1.84378103 9.48277658,2.73818683 L9.48403366,2.73881537 C9.44277664,2.80535216 9.39731433,2.82885218 9.34884761,2.94010294 L8.45862141,2.2770111 C8.45862141,2.2297544 8.51777001,2.15429611 8.59025638,2.06816815 C9.93029375,0.950003755 11.7178483,0.390607292 13.7285329,0.390607292 Z" id="形状结合" fill="#000000" fill-rule="nonzero"></path>
                </g>
            </g>
        </g>
    </g>
</svg>