<!-- Generated by IcoMoon.io -->
<svg version="1.1" xmlns="http://www.w3.org/2000/svg" width="32" height="32" viewBox="0 0 32 32">
<title>protocol-access-fill-16</title>
<path d="M3.017 5.227c0-1.105 0.895-2 2-2h16.987c1.105 0 2 0.895 2 2v10.773c-6.403 0-11.593 5.109-11.593 11.412 0 0.46 0.028 0.915 0.082 1.361h-7.475c-1.105 0-2-0.895-2-2v-21.545zM6.883 8.313h10v2h-10v-2zM13.452 13.131h-6.569v2h6.569v-2zM28.983 23.096l-6.793 5.677v-3.548h-1.358c-2.349 0-4.388 1.384-5.413 3.413-0.015-0.19-0.022-0.381-0.022-0.575 0-3.919 3.041-7.096 6.793-7.096v-3.548l6.793 5.676z"></path>
</svg>
