<!-- Generated by IcoMoon.io -->
<svg version="1.1" xmlns="http://www.w3.org/2000/svg" width="768" height="768" viewBox="0 0 768 768">
<title></title>
<g id="icomoon-ignore">
</g>
<path d="M199.68 76.8h254.908c20.369 0 39.903 8.092 54.306 22.494l118.852 118.852c14.403 14.403 22.494 33.938 22.494 54.306v336.829c0 45.056-36.864 81.92-81.92 81.92h-368.64c-45.056 0-81.92-36.864-81.92-81.92v-450.56c0-45.056 36.864-81.92 81.92-81.92zM252.16 268.8c-10.603 0-19.2 8.596-19.2 19.2s8.596 19.2 19.2 19.2h115.2c10.603 0 19.2-8.596 19.2-19.2s-8.596-19.2-19.2-19.2h-115.2zM252.16 384c-10.603 0-19.2 8.596-19.2 19.2s8.596 19.2 19.2 19.2h268.8c10.604 0 19.2-8.596 19.2-19.2s-8.596-19.2-19.2-19.2h-268.8zM252.16 499.2c-10.603 0-19.2 8.596-19.2 19.2s8.596 19.2 19.2 19.2h268.8c10.604 0 19.2-8.596 19.2-19.2s-8.596-19.2-19.2-19.2h-268.8z"></path>
</svg>
