<!-- Generated by IcoMoon.io -->
<svg version="1.1" xmlns="http://www.w3.org/2000/svg" width="32" height="32" viewBox="0 0 32 32">
<title>dfs-storage-gateway</title>
<path d="M18.466 31.47h-16.244c-1.244 0-2.132-0.89-2.132-2.134v-20.993c0-1.245 0.889-2.134 2.132-2.134h10.841l3.2 3.203h10.309c1.244 0 2.132 0.89 2.132 2.134v4.899c-1.156-0.519-2.436-0.808-3.78-0.808-5.141 0-9.223 4.174-9.223 9.257 0 2.583 1.054 4.911 2.765 6.576zM18.218 6.385l-1.598-1.245c1.599-1.067 3.555-1.779 5.509-1.779 2.132 0 3.91 0.712 5.509 1.779l-1.6 1.245c-1.067-0.711-2.311-1.245-3.911-1.245-1.422 0-2.844 0.533-3.911 1.245zM15.552 3.895l0.002 0.001c-0.177 0-0.177 0-0.177 0.355l-1.422-1.067c0-0.178 0-0.355 0.177-0.355 2.132-1.779 4.976-2.669 8.175-2.669 3.021 0 5.864 0.89 8.175 2.669l0.177 0.178-1.422 1.067h-0.177c-1.777-1.601-4.266-2.313-6.754-2.313s-4.977 0.711-6.754 2.134z"></path>
<path d="M24.923 17.871c3.837 0 6.987 3.104 6.987 6.955 0.002 1.861-0.733 3.646-2.044 4.962s-3.089 2.054-4.943 2.052c-3.894 0-6.987-3.104-6.987-6.955s3.092-7.013 6.987-7.013zM25.142 27.741c-0 0.008-0 0.016-0 0.024 0 0.808 0.655 1.462 1.462 1.462s1.462-0.655 1.462-1.462c0-0.808-0.655-1.462-1.462-1.462-0.379 0-0.725 0.144-0.985 0.381l-1.683-1.413c0.021-0.097 0.031-0.198 0.031-0.302 0-0.084-0.007-0.167-0.021-0.248l1.74-1.409c0.251 0.203 0.57 0.324 0.918 0.324 0.808 0 1.462-0.655 1.462-1.462s-0.655-1.462-1.462-1.462c-0.808 0-1.462 0.655-1.462 1.462 0 0.046 0.002 0.091 0.006 0.137l-1.804 1.461c-0.238-0.167-0.527-0.264-0.839-0.264-0.808 0-1.462 0.655-1.462 1.462s0.655 1.462 1.462 1.462c0.293 0 0.567-0.086 0.796-0.235l1.841 1.545z"></path>
</svg>
