<!-- Generated by IcoMoon.io -->
<svg version="1.1" xmlns="http://www.w3.org/2000/svg" width="32" height="32" viewBox="0 0 32 32">
<title>dfs-file</title>
<path d="M8.32 3.2h10.621c0.849 0 1.663 0.337 2.263 0.937l4.952 4.952c0.6 0.6 0.937 1.414 0.937 2.263v14.035c0 1.877-1.536 3.413-3.413 3.413h-15.36c-1.877 0-3.413-1.536-3.413-3.413v-18.773c0-1.877 1.536-3.413 3.413-3.413zM10.507 11.2c-0.442 0-0.8 0.358-0.8 0.8s0.358 0.8 0.8 0.8h4.8c0.442 0 0.8-0.358 0.8-0.8s-0.358-0.8-0.8-0.8h-4.8zM10.507 16c-0.442 0-0.8 0.358-0.8 0.8s0.358 0.8 0.8 0.8h11.2c0.442 0 0.8-0.358 0.8-0.8s-0.358-0.8-0.8-0.8h-11.2zM10.507 20.8c-0.442 0-0.8 0.358-0.8 0.8s0.358 0.8 0.8 0.8h11.2c0.442 0 0.8-0.358 0.8-0.8s-0.358-0.8-0.8-0.8h-11.2z"></path>
</svg>
