<!-- Generated by IcoMoon.io -->
<svg version="1.1" xmlns="http://www.w3.org/2000/svg" width="32" height="32" viewBox="0 0 32 32">
<title>dashboard-fill-16</title>
<path d="M28.311 27.786c1.695-2.43 2.689-5.385 2.689-8.572 0-8.284-6.716-15-15-15s-15 6.716-15 15c0 3.187 0.994 6.142 2.689 8.572h24.623zM14.715 6.357h2.571v4.286h-2.571v-4.286zM26.714 12.461l-1.818-1.818-3.030 3.030 1.818 1.818 3.030-3.030zM7.103 10.643l-1.818 1.818 3.030 3.030 1.818-1.818-3.030-3.030zM3.143 21.796v-2.572h4.286v2.572h-4.286zM24.571 19.225v2.572h4.286v-2.572h-4.286zM17.096 23.422c1.013-0.585 1.372-1.857 0.803-2.843-0.178-0.183-0.451-0.468-0.782-0.814-1.584-1.655-4.513-4.715-4.917-4.823-0.147 0.55 1.174 4.915 1.797 6.971 0.099 0.328 0.181 0.597 0.236 0.783 0.569 0.985 1.851 1.31 2.863 0.726z"></path>
</svg>
