<!-- Generated by IcoMoon.io -->
<svg version="1.1" xmlns="http://www.w3.org/2000/svg" width="32" height="32" viewBox="0 0 32 32">
<title>dont-have</title>
<path d="M12.4 26.4h-6c-0.1 0-0.2-0.1-0.2-0.2v-22.5c0-0.1 0.1-0.2 0.2-0.2h16.7c0.1 0 0.2 0.1 0.2 0.2v10.5l1.9 1.9v-12.4c0-1.1-0.9-2.1-2.1-2.1h-16.7c-1.1 0-2.1 0.9-2.1 2.1v22.5c0 1.1 0.9 2.1 2.1 2.1h8.2l-1.9-1.9h-0.3z"></path>
<path d="M29.3 30l-4.2-4.2c0.7-1 1.2-2.3 1.2-3.7 0-3.5-2.9-6.4-6.4-6.4s-6.4 2.9-6.4 6.4c0 3.5 2.9 6.4 6.4 6.4 1.5 0 2.8-0.5 3.9-1.4l3.7 3.7c0.2 0.1 0.4 0.2 0.6 0.2 0.3 0 0.5-0.1 0.7-0.3 0 0 0 0 0 0v0c0 0 0 0 0 0l0.6-0.6-0.1-0.1zM20 26.7c-2.5 0-4.5-2-4.5-4.5s2-4.5 4.5-4.5c2.5 0 4.5 2 4.5 4.5 0 2.4-2 4.5-4.5 4.5z"></path>
</svg>
