<!-- Generated by IcoMoon.io -->
<svg version="1.1" xmlns="http://www.w3.org/2000/svg" width="32" height="32" viewBox="0 0 32 32">
<title>dp-gateway</title>
<path d="M11.5 12.8l1.2 1.2c0.8-0.7 1.9-1.2 3-1.2 1.2 0 2.1 0.5 3 1.2l1.2-1.2c-1.2-1.1-2.6-1.7-4.2-1.7s-3 0.6-4.2 1.7z"></path>
<path d="M21 11.6l1.1-1.1c0-0.1-0.1-0.1-0.1-0.2-1.7-1.7-3.9-2.6-6.2-2.6-2.4-0.1-4.5 0.8-6.2 2.5-0.1 0.1-0.1 0.1-0.1 0.4l1.1 1.1c0.1-0.1 0.1-0.1 0.2-0.2 1.3-1.3 3.2-2 5.1-2s3.7 0.7 5.1 2.1c-0.1 0-0.1 0 0 0z"></path>
<path d="M10.9 17.2h1.5v1.5h-1.5v-1.5z"></path>
<path d="M23.7 19.7v-5.3h-15.9v5.3h-5.5v1.9h27.2v-1.9h-5.8zM9.5 16h12.6v3.7h-12.6v-3.7z"></path>
<path d="M15.8 29.5c-4.8-1.7-7.5-3.4-9-6.7h-2.1c1.8 4.3 5 6.7 10.9 8.7l0.2 0.1 0.2-0.1c5.8-2 9.2-4.4 10.9-8.7h-2.1c-1.5 3.1-4.3 5.1-9 6.7z"></path>
<path d="M5.3 18.5c-0.5-2.9-0.6-6.3-0.7-10.8h0.2c3.3-0.5 7.2-2.3 10.9-4.8 3.6 2.5 7.6 4.3 10.9 4.8h0.1c0 4.5-0.1 8-0.7 10.8h1.9c0.5-3.1 0.7-6.9 0.7-11.8v-0.8l-1.9-0.2c-3.3-0.5-7.4-2.3-10.6-4.8l-0.6-0.6-0.6 0.5c-3.2 2.6-7.2 4.4-10.7 4.9l-1.7 0.2v0.7c0 4.9 0.1 8.7 0.7 11.8h1.9v0.1z"></path>
</svg>
