<?xml version="1.0" encoding="UTF-8"?>
<svg width="20px" height="20px" viewBox="0 0 20 20" version="1.1" xmlns="http://www.w3.org/2000/svg" xmlns:xlink="http://www.w3.org/1999/xlink">
    <!-- Generator: Sketch 56 (81588) - https://sketch.com -->
    <title>未同步</title>
    <desc>Created with Sketch.</desc>
    <g id="未同步" stroke="none" stroke-width="1" fill="none" fill-rule="evenodd">
        <g>
            <g>
                <rect id="Rectangle" fill="#FFB6B6" fill-rule="nonzero" opacity="0" x="0" y="0" width="20" height="20"></rect>
                <circle id="Oval" fill="#D8D8D8" cx="10" cy="10" r="9"></circle>
                <path d="M6.20158448,7.43004702 L7.38736601,8.56286822 L4,8.56286822 L4,5.32679147 L5.24859659,6.51962223 C6.28194881,4.99892937 8.02577936,4 10.0029224,4 C13.175266,4 15.7469586,6.57169262 15.7469586,9.74403623 C15.7469586,9.74943143 15.7469512,9.7548249 15.7469363,9.76021662 L14.4525008,9.76021662 C14.4525183,9.75482541 14.4525279,9.74943194 14.4525279,9.74403623 C14.4525279,7.28658695 12.4603717,5.2944307 10.0029224,5.2944307 C8.39303004,5.2944307 6.9828253,6.14939492 6.20158448,7.43004702 Z M14.7415643,12.9914113 C13.706306,14.4991904 11.9700971,15.4880725 10.0029224,15.4880725 C6.83057876,15.4880725 4.25888614,12.9163798 4.25888614,9.74403623 C4.25888614,9.73864103 4.25889358,9.73324757 4.25890845,9.72785585 L5.55334422,9.72785585 C5.55332644,9.73324706 5.55331684,9.73864052 5.55331684,9.74403623 C5.55331684,12.2014855 7.54547309,14.1936418 10.0029224,14.1936418 C11.6027746,14.1936418 13.0054222,13.3493083 13.7895703,12.0819361 L12.612634,10.957565 L16,10.957565 L16,14.1936418 L14.7415643,12.9914113 Z M9.66945283,10.0378113 L9.56349257,8.61488562 C9.54362492,8.33762662 9.53369124,8.13859725 9.53369124,8.01779154 C9.53369124,7.85341656 9.58170401,7.72518619 9.67773098,7.6330966 C9.77375795,7.541007 9.90013638,7.49496289 10.0568701,7.49496289 C10.2467165,7.49496289 10.3736468,7.55387955 10.4376648,7.67171462 C10.5016827,7.7895497 10.5336912,7.95936829 10.5336912,8.18117549 C10.5336912,8.31188331 10.5259651,8.44456956 10.5105124,8.57923822 L10.3681283,10.0437526 C10.3526757,10.2180296 10.3195635,10.3517061 10.2687906,10.4447859 C10.2180177,10.5378657 10.1341333,10.5844049 10.017135,10.5844049 C9.89792906,10.5844049 9.81514843,10.539351 9.76879058,10.4492418 C9.72243273,10.3591326 9.68932048,10.2219905 9.66945283,10.0378113 Z M10.0370025,11.9924775 C9.90234399,11.9924775 9.7847955,11.9533648 9.6843535,11.8751381 C9.58391149,11.7969115 9.53369124,11.6874949 9.53369124,11.5468849 C9.53369124,11.4240988 9.58170401,11.3196331 9.67773098,11.2334848 C9.77375795,11.1473365 9.89130644,11.1042629 10.03038,11.1042629 C10.1694535,11.1042629 10.2881058,11.1473365 10.3863403,11.2334848 C10.4845747,11.3196331 10.5336912,11.4240988 10.5336912,11.5468849 C10.5336912,11.6855144 10.4840229,11.794436 10.3846846,11.8736528 C10.2853464,11.9528697 10.1694535,11.9924775 10.0370025,11.9924775 Z" id="Combined-Shape" fill="#FFFFFF" fill-rule="nonzero"></path>
            </g>
        </g>
    </g>
</svg>