<!-- Generated by IcoMoon.io -->
<svg version="1.1" xmlns="http://www.w3.org/2000/svg" width="768" height="768" viewBox="0 0 768 768">
<title></title>
<g id="icomoon-ignore">
</g>
<path d="M383.988 0c-212.043 0-383.988 171.95-383.988 384 0 212.075 171.921 384 383.988 384s384.012-171.901 384.012-384c0-212.050-171.921-384-384.012-384zM288 224c17.673 0 32 14.326 32 32v256c0 17.673-14.327 32-32 32s-32-14.327-32-32v-256c0-17.673 14.326-32 32-32zM480 224c17.673 0 32 14.326 32 32v256c0 17.673-14.327 32-32 32s-32-14.327-32-32v-256c0-17.673 14.327-32 32-32z"></path>
</svg>
