<!-- Generated by IcoMoon.io -->
<svg version="1.1" xmlns="http://www.w3.org/2000/svg" width="768" height="768" viewBox="0 0 768 768">
<title></title>
<g id="icomoon-ignore">
</g>
<path d="M384 768c-212.077 0-384-171.923-384-384s171.922-384 384-384c212.077 0 384 171.922 384 384s-171.923 384-384 384zM221.934 274.349c33.333-54.64 93.502-91.12 162.19-91.12 104.851 0 189.85 84.998 189.85 189.85 0 0.23 0 0.46-0.001 0.69h55.229c0.001-0.23 0.001-0.46 0.001-0.69 0-135.353-109.726-245.079-245.079-245.079-84.358 0-158.762 42.621-202.851 107.504l-53.273-50.894v138.073h144.527l-50.593-48.333zM586.306 511.634l53.693 51.295v-138.073h-144.527l50.216 47.973c-33.457 54.074-93.303 90.099-161.564 90.099-104.851 0-189.85-84.998-189.85-189.85 0-0.23 0-0.46 0.001-0.69h-55.229c-0.001 0.23-0.001 0.46-0.001 0.69 0 135.353 109.726 245.079 245.079 245.079 83.932 0 158.011-42.193 202.182-106.524zM369.897 385.613c0.847 7.858 2.26 13.71 4.238 17.554s5.51 5.767 10.596 5.767c4.992 0 8.571-1.986 10.738-5.957s3.579-9.675 4.238-17.11l6.075-62.486c0.659-5.746 0.989-11.407 0.989-16.985 0-9.464-1.366-16.709-4.097-21.736s-8.147-7.542-16.247-7.542c-6.688 0-12.080 1.964-16.177 5.894s-6.146 9.4-6.146 16.413c0 5.154 0.424 13.647 1.272 25.476l4.521 60.712zM385.579 469.013c5.651 0 10.596-1.69 14.834-5.070s6.358-8.027 6.358-13.942c0-5.24-2.095-9.696-6.286-13.372s-9.254-5.513-15.188-5.513c-5.934 0-10.949 1.838-15.047 5.513s-6.145 8.132-6.145 13.372c0 5.999 2.143 10.667 6.428 14.005s9.301 5.007 15.046 5.007z"></path>
</svg>
