<?xml version="1.0" encoding="UTF-8"?>
<svg width="20px" height="20px" viewBox="0 0 20 20" version="1.1" xmlns="http://www.w3.org/2000/svg" xmlns:xlink="http://www.w3.org/1999/xlink">
    <!-- Generator: Sketch 56 (81588) - https://sketch.com -->
    <title>已暂停</title>
    <desc>Created with Sketch.</desc>
    <g id="已暂停" stroke="none" stroke-width="1" fill="none" fill-rule="evenodd">
        <g>
            <g>
                <rect id="Rectangle" fill="#FFB6B6" fill-rule="nonzero" opacity="0" x="0" y="0" width="20" height="20"></rect>
                <path d="M9.99971743,1 C5.02995196,1 1,5.03007849 1,10 C1,14.9704867 5.02938683,19 9.99971743,19 C14.970048,19 19,14.9710518 19,10 C19,5.03007849 14.9706132,1 9.99971743,1 Z M7.75,6.25 C8.16421356,6.25 8.5,6.58578644 8.5,7 L8.5,13 C8.5,13.4142136 8.16421356,13.75 7.75,13.75 C7.33578644,13.75 7,13.4142136 7,13 L7,7 C7,6.58578644 7.33578644,6.25 7.75,6.25 Z M12.25,6.25 C12.6642136,6.25 13,6.58578644 13,7 L13,13 C13,13.4142136 12.6642136,13.75 12.25,13.75 C11.8357864,13.75 11.5,13.4142136 11.5,13 L11.5,7 C11.5,6.58578644 11.8357864,6.25 12.25,6.25 Z" id="Mask" fill="#D8D8D8"></path>
            </g>
        </g>
    </g>
</svg>