<!-- Generated by IcoMoon.io -->
<svg version="1.1" xmlns="http://www.w3.org/2000/svg" width="768" height="768" viewBox="0 0 768 768">
<title></title>
<g id="icomoon-ignore">
</g>
<path d="M384 0c-212.077 0-384 171.922-384 384s171.922 384 384 384c212.077 0 384-171.923 384-384s-171.923-384-384-384zM590.365 245.086l-21.261 114.268c-1.418 7.609-8.73 12.632-16.34 11.214l-114.377-21.277c-7.609-1.418-12.632-8.73-11.214-16.348l3.15-16.935c1.418-7.609 8.73-12.632 16.34-11.214l48.533 9.029c-36.089-62.74-115.154-88.375-181.749-56.973-70.108 33.055-100.247 116.986-67.192 187.094s116.986 100.247 187.094 67.193c13.847-6.528 30.375-0.596 36.903 13.252s0.596 30.368-13.252 36.903c-38.572 18.189-80.154 22.656-119.189 15.392-59.888-11.144-113.798-49.904-141.704-109.087-46.096-97.763-4.067-214.797 93.696-260.901 90.272-42.569 196.977-9.984 249.091 72.224l7.805-41.965c1.418-7.609 8.73-12.632 16.34-11.214l16.097 2.993c7.625 1.427 12.64 8.746 11.23 16.355v0z"></path>
</svg>
