<?xml version="1.0" encoding="UTF-8"?>
<svg width="20px" height="20px" viewBox="0 0 20 20" version="1.1" xmlns="http://www.w3.org/2000/svg" xmlns:xlink="http://www.w3.org/1999/xlink">
    <!-- Generator: Sketch 56 (81588) - https://sketch.com -->
    <title>进行中</title>
    <desc>Created with Sketch.</desc>
    <g id="进行中" stroke="none" stroke-width="1" fill="none" fill-rule="evenodd">
        <g>
            <g>
                <rect id="Rectangle" fill="#FFB6B6" fill-rule="nonzero" opacity="0" x="0" y="0" width="20" height="20"></rect>
                <g transform="translate(1.000000, 1.000000)" fill-rule="nonzero">
                    <rect id="矩形" fill="#000000" opacity="0" x="0" y="0" width="18" height="18"></rect>
                    <circle id="椭圆形" fill="#FFFFFF" cx="8.4375" cy="8.4375" r="6.1875"></circle>
                    <path d="M9,0 C4.02942858,0 0,4.02942858 0,9 C0,13.9705714 4.02942858,18 9,18 C13.9705714,18 18,13.9705714 18,9 C18,4.02942858 13.9705714,0 9,0 Z M13.8366735,5.74420408 L13.4122041,8.02542858 L13.3383673,8.42234694 C13.3051224,8.60069387 13.1337551,8.71842858 12.9554082,8.68518368 L12.5781428,8.61502041 L10.2746939,8.18651021 C10.0963469,8.15326531 9.97861224,7.98189796 10.0118571,7.80336735 L10.0856939,7.40644898 C10.1189388,7.22810204 10.2903061,7.11036735 10.4686531,7.14361224 L11.6061428,7.35520408 C10.7603265,5.88471428 8.9072449,5.28391837 7.34638776,6.01989796 C5.7032449,6.79463265 4.99683673,8.76177551 5.77157142,10.4049184 C6.54630613,12.0480613 8.51344897,12.7544694 10.1565918,11.9797347 C10.4811429,11.8267347 10.8685102,11.9657755 11.0215102,12.2903265 C11.1745102,12.6148776 11.0354694,13.0020613 10.7109184,13.1552449 C9.80687755,13.581551 8.83230613,13.6862449 7.91742858,13.5159796 C6.51379592,13.2547959 5.25030613,12.3463469 4.5962449,10.9592449 C3.51587755,8.66791837 4.50091837,5.92493877 6.7922449,4.84438776 C8.90797959,3.84667347 11.4088776,4.61038776 12.6303061,6.53712245 L12.8132449,5.55355103 C12.8464897,5.37520408 13.0178572,5.25746939 13.1962041,5.29071428 L13.5734694,5.36087755 C13.7521837,5.39430613 13.8697347,5.56585714 13.8366735,5.74420408 L13.8366735,5.74420408 Z" id="形状" fill="#448AFF"></path>
                </g>
            </g>
        </g>
    </g>
</svg>