<!-- Generated by IcoMoon.io -->
<svg version="1.1" xmlns="http://www.w3.org/2000/svg" width="32" height="32" viewBox="0 0 32 32">
<title>dp-site</title>
<path d="M12.2 7.8h2.1v-3.2c0-0.8-0.6-1.3-1.3-1.3h-8.4c-0.8 0-1.3 0.6-1.3 1.3v8.5c0 0.8 0.6 1.3 1.3 1.3h8.5c0.8 0 1.3-0.6 1.3-1.3v-3.3h-2.1v2.5h-6.9v-6.9h6.8v0.2c0 0 0 2.2 0 2.2z"></path>
<path d="M13.1 17.6h-8.5c-0.8 0-1.3 0.6-1.3 1.3v8.5c0 0.8 0.6 1.3 1.3 1.3h8.5c0.8 0 1.3-0.6 1.3-1.3v-8.4c0-0.8-0.6-1.4-1.3-1.4zM12.2 20v6.6h-6.8v-6.8h6.8c0 0 0 0.2 0 0.2z"></path>
<path d="M22.2 19.8v-2.1h-3.2c-0.8 0-1.3 0.6-1.3 1.3v8.5c0 0.8 0.6 1.3 1.3 1.3h8.5c0.8 0 1.3-0.6 1.3-1.3v-8.5c0-0.8-0.6-1.3-1.3-1.3h-3.3v2.1h2.5v6.8h-6.8v-6.8h0.2c0 0 2.1 0 2.1 0z"></path>
<path d="M27.7 5.6l-1.6 1.6c0.2 0.4 0.4 1 0.4 1.6 0 1.9-1.6 3.3-3.3 3.3-1.9 0-3.3-1.6-3.3-3.3s1.6-3.3 3.3-3.3c0.6 0 1.1 0.2 1.7 0.4l1.6-1.6c-0.9-0.7-2-1-3.2-1-3 0-5.5 2.5-5.5 5.5s2.5 5.5 5.5 5.5 5.5-2.5 5.5-5.5c-0.1-1.2-0.4-2.3-1.1-3.2z"></path>
</svg>
