<!-- Generated by IcoMoon.io -->
<svg version="1.1" xmlns="http://www.w3.org/2000/svg" width="32" height="32" viewBox="0 0 32 32">
<title>es-service</title>
<path d="M23.024 13.687c-0.929 0.424-1.746 1.049-2.396 1.82-0.128 0.117-0.252 0.242-0.369 0.375h-7.243v-2.195h10.008zM19.229 21.6h-15.644v-18.289h25.396v10.514c-0.637-0.327-1.333-0.558-2.067-0.671v-8.151h-21.282v14.897h13.387c0 0.005 0 0.009 0 0.014 0 0.582 0.073 1.147 0.209 1.687zM17.066 24.593l-1.515 2.037h-14.265v-2.037h15.78zM8.835 9.507h2.243v2.195h-2.243v-2.195zM8.835 13.687h2.243v2.195h-2.243v-2.195zM13.016 9.507h10.451v2.195h-10.451v-2.195zM22.285 16.626c0.824-1.017 1.984-1.604 3.191-1.731 1.092-0.115 2.22 0.145 3.18 0.807-0.569 0.703-1.138 1.406-1.708 2.109-0.053 0.065-0.043 0.161 0.022 0.214l0.345 0.279c0.065 0.053 0.161 0.043 0.214-0.022 0.569-0.703 1.138-1.406 1.708-2.109 1.781 1.685 1.989 4.487 0.421 6.423-0.826 1.017-1.984 1.604-3.191 1.731-0.543 0.057-1.099 0.020-1.636-0.111l-3.394 4.192c-0.264 0.326-0.743 0.377-1.069 0.112l-1.946-1.576c-0.326-0.264-0.376-0.743-0.113-1.069l3.394-4.194c-0.778-1.603-0.613-3.58 0.581-5.055zM26.577 16.215c-0.318-0.056-0.643-0.068-0.966-0.034-0.918 0.096-1.741 0.541-2.321 1.258-0.419 0.521-0.68 1.144-0.75 1.804-0.068 0.646 0.046 1.293 0.327 1.876l0.316 0.653c0.026 0.053 0.018 0.116-0.019 0.162l-3.515 4.338 1.118 0.905 3.515-4.341c0.037-0.046 0.097-0.066 0.154-0.052l0.704 0.173c0.389 0.095 0.79 0.122 1.19 0.080 0.915-0.096 1.738-0.541 2.318-1.258 0.55-0.679 0.822-1.531 0.762-2.403-0.024-0.37-0.108-0.728-0.245-1.064l-1.351 1.668c-0.106 0.131-0.297 0.151-0.428 0.045l-2.118-1.715c-0.131-0.106-0.151-0.297-0.045-0.428l1.351-1.668z"></path>
</svg>
