<!-- Generated by IcoMoon.io -->
<svg version="1.1" xmlns="http://www.w3.org/2000/svg" width="54" height="32" viewBox="0 0 54 32">
<title>fc-port</title>
<path d="M3.022 3.2v25.6h48.356v-25.6h-48.356zM1.133 0h52.133c0.626 0 1.133 0.551 1.133 1.231v29.538c0 0.68-0.507 1.231-1.133 1.231h-52.133c-0.626 0-1.133-0.551-1.133-1.231v-29.538c0-0.68 0.507-1.231 1.133-1.231zM16.796 23.992c-3.974 0-7.196-3.222-7.196-7.196s3.222-7.196 7.196-7.196c3.974 0 7.196 3.222 7.196 7.196s-3.222 7.196-7.196 7.196zM16.796 21.058c2.354 0 4.262-1.908 4.262-4.262s-1.908-4.262-4.262-4.262c-2.354 0-4.262 1.908-4.262 4.262s1.908 4.262 4.262 4.262zM38.904 23.992c-3.974 0-7.196-3.222-7.196-7.196s3.222-7.196 7.196-7.196c3.974 0 7.196 3.222 7.196 7.196s-3.222 7.196-7.196 7.196zM38.904 21.058c2.354 0 4.263-1.908 4.263-4.262s-1.908-4.262-4.263-4.262c-2.354 0-4.263 1.908-4.263 4.262s1.908 4.262 4.263 4.262z"></path>
</svg>
