<?xml version="1.0" encoding="UTF-8"?>
<svg width="17px" height="10px" viewBox="0 0 17 10" version="1.1" xmlns="http://www.w3.org/2000/svg" xmlns:xlink="http://www.w3.org/1999/xlink">
    <!-- Generator: Sketch 56.2 (81672) - https://sketch.com -->
    <title>SVG/FC端口_资源列表</title>
    <desc>Created with Sketch.</desc>
    <g id="Page-1" stroke="none" stroke-width="1" fill="none" fill-rule="evenodd">
        <g id="0_0端口、FC端口icon" transform="translate(-380.000000, -105.000000)" fill="#979797" fill-rule="nonzero">
            <g id="FC-端口" transform="translate(380.000000, 68.000000)">
                <path d="M0.944444444,38 L0.944444444,46 L16.0555556,46 L16.0555556,38 L0.944444444,38 Z M0.354166667,37 L16.6458333,37 C16.8414342,37 17,37.1721982 17,37.3846154 L17,46.6153846 C17,46.8278018 16.8414342,47 16.6458333,47 L0.354166667,47 C0.158565818,47 0,46.8278018 0,46.6153846 L0,37.3846154 C0,37.1721982 0.158565818,37 0.354166667,37 Z M5.24869792,44.4973958 C4.00677635,44.4973958 3,43.4906195 3,42.2486979 C3,41.0067764 4.00677635,40 5.24869792,40 C6.49061948,40 7.49739583,41.0067764 7.49739583,42.2486979 C7.49739583,43.4906195 6.49061948,44.4973958 5.24869792,44.4973958 Z M5.24869792,43.5807292 C5.98435846,43.5807292 6.58072917,42.9843585 6.58072917,42.2486979 C6.58072917,41.5130374 5.98435846,40.9166667 5.24869792,40.9166667 C4.51303737,40.9166667 3.91666667,41.5130374 3.91666667,42.2486979 C3.91666667,42.9843585 4.51303737,43.5807292 5.24869792,43.5807292 Z M12.1575521,44.4973958 C10.9156305,44.4973958 9.90885417,43.4906195 9.90885417,42.2486979 C9.90885417,41.0067764 10.9156305,40 12.1575521,40 C13.3994736,40 14.40625,41.0067764 14.40625,42.2486979 C14.40625,43.4906195 13.3994736,44.4973958 12.1575521,44.4973958 Z M12.1575521,43.5807292 C12.8932126,43.5807292 13.4895833,42.9843585 13.4895833,42.2486979 C13.4895833,41.5130374 12.8932126,40.9166667 12.1575521,40.9166667 C11.4218915,40.9166667 10.8255208,41.5130374 10.8255208,42.2486979 C10.8255208,42.9843585 11.4218915,43.5807292 12.1575521,43.5807292 Z" id="FC端口_资源列表"></path>
            </g>
        </g>
    </g>
</svg>