<!-- Generated by IcoMoon.io -->
<svg version="1.1" xmlns="http://www.w3.org/2000/svg" width="32" height="32" viewBox="0 0 32 32">
<title>file-gateway</title>
<path d="M16.288 23.354v3.948h12.519v-3.948h-12.519zM18.961 26.155v-1.019h0.254v-0.382h0.89v0.382h0.254v1.019h-1.399zM21.379 26.155v-1.019h0.254v-0.382h0.89v0.382h0.254v1.019h-1.399z"></path>
<path d="M15.825 7.958l1.145 0.891c0.763-0.51 1.781-0.891 2.8-0.891 1.145 0 2.036 0.382 2.8 0.891l1.145-0.891c-1.145-0.764-2.418-1.274-3.944-1.274-1.399 0-2.8 0.51-3.944 1.274h-0.002z"></path>
<path d="M15.062 7.066c1.272-1.019 3.054-1.528 4.835-1.528s3.563 0.51 4.835 1.656h0.127l1.018-0.764-0.127-0.127c-1.654-1.274-3.69-1.91-5.853-1.91-2.291 0-4.326 0.637-5.853 1.91-0.127 0-0.127 0.127-0.127 0.254l1.018 0.764c0-0.254 0-0.254 0.127-0.254l-0.002-0.001z"></path>
<path d="M15.353 22.386h9.925v-9.842c0-1.333-0.994-2.328-2.326-2.328h-7.048l-2.291-2.293h-8.093c-1.332 0-2.326 0.995-2.326 2.328v15.029c0 1.333 0.994 2.328 2.326 2.328h9.834v-5.222zM5.519 26.007c-0.448 0-0.726-0.278-0.726-0.728v-15.029c0-0.45 0.278-0.728 0.726-0.728h7.43l2.291 2.293h7.712c0.448 0 0.727 0.278 0.727 0.728v8.242h-9.925v5.222h-8.234z"></path>
</svg>
