<!-- Generated by IcoMoon.io -->
<svg version="1.1" xmlns="http://www.w3.org/2000/svg" width="768" height="768" viewBox="0 0 768 768">
<title>untitled</title>
<g id="icomoon-ignore">
</g>
<path d="M390.92 560.489v94.752h300.458v-94.752h-300.458zM455.063 627.727v-24.46h6.1v-9.178h21.368v9.178h6.1v24.46h-33.567zM513.086 627.727v-24.46h6.1v-9.178h21.368v9.178h6.1v24.46h-33.567z"></path>
<path d="M379.8 190.982l27.487 21.388c18.318-12.23 42.755-21.388 67.192-21.388 27.487 0 48.855 9.178 67.192 21.388l27.487-21.388c-27.487-18.336-58.023-30.566-94.66-30.566-33.587 0-67.192 12.23-94.66 30.566h-0.038z"></path>
<path d="M361.482 169.594c30.536-24.46 73.292-36.672 116.047-36.672s85.51 12.23 116.047 39.744h3.050l24.437-18.336-3.049-3.053c-39.705-30.566-88.56-45.85-140.465-45.85-54.974 0-103.829 15.284-140.464 45.85-3.049 0-3.049 3.053-3.049 6.106l24.437 18.336c0-6.106 0-6.106 3.049-6.106l-0.038-0.020z"></path>
<path d="M368.463 537.254h238.193v-236.218c0-31.988-23.861-55.872-55.836-55.872h-169.162l-54.973-55.028h-194.228c-31.976 0-55.836 23.884-55.836 55.872v360.692c0 31.988 23.861 55.872 55.836 55.872h236.006v-125.318zM132.458 624.173c-10.76 0-17.436-6.683-17.436-17.472v-360.691c0-10.79 6.676-17.472 17.436-17.472h178.311l54.974 55.027h185.078c10.76 0 17.436 6.683 17.436 17.472v197.818h-238.193v125.318h-197.606z"></path>
</svg>
