<!-- Generated by IcoMoon.io -->
<svg version="1.1" xmlns="http://www.w3.org/2000/svg" width="32" height="32" viewBox="0 0 32 32">
<title>file-storage-gateway</title>
<path d="M18.466 31.47h-16.244c-1.244 0-2.132-0.89-2.132-2.134v-20.993c0-1.245 0.889-2.134 2.132-2.134h10.841l3.2 3.203h10.309c1.244 0 2.132 0.89 2.132 2.134v4.899c-1.156-0.519-2.436-0.808-3.78-0.808-5.141 0-9.223 4.174-9.223 9.257 0 2.583 1.054 4.911 2.765 6.576zM18.218 6.385l-1.598-1.245c1.599-1.067 3.555-1.779 5.509-1.779 2.132 0 3.91 0.712 5.509 1.779l-1.6 1.245c-1.067-0.711-2.311-1.245-3.911-1.245-1.422 0-2.844 0.533-3.911 1.245zM15.552 3.895l0.002 0.001c-0.177 0-0.177 0-0.177 0.355l-1.422-1.067c0-0.178 0-0.355 0.177-0.355 2.132-1.779 4.976-2.669 8.175-2.669 3.021 0 5.864 0.89 8.175 2.669l0.177 0.178-1.422 1.067h-0.177c-1.777-1.601-4.266-2.313-6.754-2.313s-4.977 0.711-6.754 2.134z"></path>
<path d="M24.923 17.871c3.837 0 6.987 3.104 6.987 6.955 0.002 1.861-0.733 3.646-2.044 4.962s-3.089 2.054-4.943 2.052c-3.894 0-6.987-3.104-6.987-6.955s3.092-7.013 6.987-7.013zM22.564 20.738c-0.073-0.024-0.122-0.024-0.194-0.024-0.462 0-0.851 0.389-0.851 0.851v6.784c0 0.462 0.389 0.851 0.851 0.851h5.106c0.462 0 0.851-0.389 0.851-0.851v-5.593c0-0.389-0.267-0.73-0.656-0.827l-5.106-1.192zM22.833 23.732h4.179c0.309 0 0.559 0.25 0.559 0.559s-0.25 0.559-0.559 0.559h-4.179c-0.309 0-0.559-0.25-0.559-0.559s0.25-0.559 0.559-0.559zM22.833 25.904h4.179c0.309 0 0.559 0.25 0.559 0.559s-0.25 0.559-0.559 0.559h-4.179c-0.309 0-0.559-0.25-0.559-0.559s0.25-0.559 0.559-0.559z"></path>
</svg>
