<!-- Generated by IcoMoon.io -->
<svg version="1.1" xmlns="http://www.w3.org/2000/svg" width="32" height="32" viewBox="0 0 32 32">
<title>file-folder</title>
<path d="M21.196 2.906v4.884h4.988z"></path>
<path d="M8.726 9.349h12.367v1.871h-12.367v-1.871z"></path>
<path d="M8.726 14.961h12.367v1.871h-12.367v-1.871z"></path>
<path d="M8.726 20.573h8.002v1.871h-8.002v-1.871z"></path>
<path d="M28.575 21.924c-0.831-1.455-0.831-1.455-0.831-1.455s-2.91 0.831-3.533-1.974h-1.663c0 0-0.52 2.806-3.533 1.974-0.831 1.455-0.935 1.455-0.935 1.455s2.39 1.663 0 3.845l0.935 1.455c0 0 2.598-1.143 3.429 1.974h1.767c0 0 0.52-2.806 3.429-1.974 0.831-1.455 0.831-1.455 0.831-1.455s-2.182-1.871 0.104-3.845zM23.274 26.392c-1.351 0-2.494-1.143-2.494-2.494s1.143-2.494 2.494-2.494 2.494 1.143 2.494 2.494c0 1.351-1.143 2.494-2.494 2.494z"></path>
<path d="M5.296 27.431v-22.863h14.549v-1.871h-16.42v26.5h15.38c-0.52-0.52-1.039-1.143-1.351-1.871h-12.159z"></path>
<path d="M24.522 17.663c0.624 0.104 1.247 0.312 1.871 0.52v-9.145h-1.871v8.625z"></path>
</svg>
