<?xml version="1.0" encoding="UTF-8"?>
<svg width="20px" height="21px" viewBox="0 0 20 21" version="1.1" xmlns="http://www.w3.org/2000/svg" xmlns:xlink="http://www.w3.org/1999/xlink">
    <title>企业级文件存储网关角色</title>
    <g id="页面-1" stroke="none" stroke-width="1" fill="none" fill-rule="evenodd">
        <g id="画板" transform="translate(-686.000000, -229.000000)">
            <g id="编组" transform="translate(574.000000, 229.327640)">
                <g id="企业级文件存储网关角色" transform="translate(112.000000, 0.000014)">
                    <rect id="矩形" fill="#D8D8D8" opacity="0" x="0" y="0" width="19.9999928" height="19.9999928"></rect>
                    <path d="M7.9367506,4.26233766 L9.92569365,6.30832935 L16.333198,6.30832935 C17.1063996,6.30832935 17.6583313,6.87683782 17.6583313,7.67147212 L17.6583313,10.3480094 C16.9398256,10.0164859 16.1442484,9.83188038 15.3088923,9.83188038 C12.113531,9.83188038 9.57638553,12.4981212 9.57638553,15.7450072 C9.57638553,17.3949593 10.2314936,18.8820241 11.2949566,19.9455821 L1.45167233,19.9999928 C0.678470725,19.9999928 0.12653903,19.4314843 0.12653903,18.63685 L0.12653903,5.67989117 C0.12653903,4.88461809 0.67909227,4.3167484 1.45167233,4.3167484 L7.9367506,4.26233766 Z M15.3734512,10.9462264 C17.8446794,10.9455821 19.8734512,12.9454377 19.8734512,15.4265731 C19.8747341,16.6255845 19.4013552,17.7756304 18.5570019,18.6235073 C17.7126486,19.4713843 16.5675226,19.9468654 15.3734512,19.9455821 C12.8655067,19.9455821 10.8734512,17.9457212 10.8734512,15.4645858 C10.8734512,12.9834505 12.8648626,10.9462264 15.3734512,10.9462264 Z M13.7291816,12.7772798 C13.4316292,12.7772798 13.1810926,13.027906 13.1810926,13.3255649 L13.1810926,17.6963835 C13.1810926,17.9940424 13.4316292,18.2446687 13.7291816,18.2446687 L17.0177155,18.2446687 C17.315268,18.2446687 17.5658045,17.9940424 17.5658045,17.6963835 L17.5658045,14.0929065 C17.5658045,13.8422802 17.3938424,13.6225796 17.1433058,13.5600841 L13.8547719,12.7920983 L13.8541279,12.7927426 C13.807112,12.7772798 13.7755534,12.7772798 13.7291816,12.7772798 Z M16.718875,16.1211106 C16.9178873,16.1211106 17.0789006,16.2821815 17.0789006,16.481265 C17.0789006,16.6803486 16.9178873,16.8414194 16.718875,16.8414194 L14.0273781,16.8414194 C13.8283657,16.8414194 13.6673525,16.6803486 13.6673525,16.481265 C13.6673525,16.2821815 13.8283657,16.1211106 14.0273781,16.1211106 L16.718875,16.1211106 Z M16.718875,14.7217271 C16.9178873,14.7217271 17.0789006,14.8827979 17.0789006,15.0818815 C17.0789006,15.2809651 16.9178873,15.4420359 16.718875,15.4420359 L14.0273781,15.4420359 C13.8283657,15.4420359 13.6673525,15.2809651 13.6673525,15.0818815 C13.6673525,14.8827979 13.8283657,14.7217271 14.0273781,14.7217271 L16.718875,14.7217271 Z M13.5722964,2.24913546 C14.8974297,2.24913546 16.0025362,2.70394223 16.9963862,3.38551361 L16.0019147,4.18078668 C15.3387265,3.72661869 14.5655249,3.38551361 13.5710533,3.38551361 C12.6872168,3.38551361 11.8033802,3.72597991 11.140192,4.18078668 L10.1482067,3.38551361 C11.1420566,2.70394223 12.3577981,2.24913546 13.5722964,2.24913546 Z M13.6829314,0.204421306 C15.5606179,0.204421306 17.3276695,0.77292977 18.7640593,1.90930792 L18.8740727,2.02300962 L17.9902362,2.704581 L17.8802227,2.704581 C16.7757378,1.68190454 15.228713,1.22709777 13.6823098,1.22709777 C12.1359066,1.22709777 10.5885227,1.68314978 9.48403775,2.59212455 C9.44975923,2.64212604 9.43617712,2.6614484 9.41386362,2.69652888 L9.3488754,2.80145987 L9.3488754,2.80145987 L8.49179002,2.13607254 C8.51902616,2.02300962 8.51902616,2.00014457 8.60180344,1.90930792 C9.92693674,0.77292977 11.6946099,0.204421306 13.6829314,0.204421306 Z" id="形状结合" fill="#000000" fill-rule="nonzero"></path>
                </g>
            </g>
        </g>
    </g>
</svg>