<!-- Generated by IcoMoon.io -->
<svg version="1.1" xmlns="http://www.w3.org/2000/svg" width="32" height="32" viewBox="0 0 32 32">
<title>fs-gateway-group</title>
<path d="M24.364 21.281v-6.3h-16.172v6.3h7.338v2.302h-4.137l-1.644 1.495h12.91l-1.644-1.495h-4.062v-1.218h-0.001v-1.084h7.412zM16.087 19.786h-6.4v-3.31h13.182v3.31h-6.782z"></path>
<path d="M19.153 13.968l1.088-1.088c-1.088-1.010-2.487-1.554-3.963-1.554s-2.875 0.544-3.963 1.554l1.088 1.088c0.777-0.699 1.865-1.088 2.875-1.088 1.088 0 2.098 0.388 2.875 1.088z"></path>
<path d="M10.373 10.549c-0.078 0.078-0.156 0.156-0.156 0.311l1.010 1.010c0.078-0.078 0.156-0.078 0.232-0.156 1.321-1.321 3.030-2.020 4.895-2.020 1.787 0 3.574 0.699 4.895 2.098 0.078 0.078 0.078 0.078 0.156 0.078l1.010-1.010c0-0.078-0.078-0.156-0.156-0.233-1.632-1.632-3.729-2.487-5.905-2.487-2.254-0.078-4.352 0.855-5.984 2.409z"></path>
<path d="M11.398 17.44h1.398v1.398h-1.398v-1.398z"></path>
<path d="M22.652 2.3v5.133h5.263z"></path>
<path d="M26.202 8.728v19.19h-20.090v-23.837h15.26v-1.959h-17.217v27.754h24.005v-21.149z"></path>
</svg>
