<!-- Generated by IcoMoon.io -->
<svg version="1.1" xmlns="http://www.w3.org/2000/svg" width="28" height="32" viewBox="0 0 28 32">
<title>fs-quota-tree</title>
<path d="M24.512 28.266h-21.622v-25h15.509v1.763h-13.745v21.473h18.094v-17.287h1.764v19.051zM24.282 7.889h-4.74v-4.623l4.74 4.623zM12.49 9.761h7.568v1.371h-7.568v0.756h-2.743v-0.756h-2.475v-1.371h2.475v-0.811h2.743v0.811zM12.528 21.134h7.57v1.371h-7.57v0.669h-2.743v-0.669h-2.473v-1.371h2.473v-0.898h2.743v0.898zM17.407 15.395h2.671v1.371h-2.671v0.713h-2.743v-0.713h-7.372v-1.371h7.372v-0.854h2.743v0.854z"></path>
</svg>
