<!-- Generated by IcoMoon.io -->
<svg version="1.1" xmlns="http://www.w3.org/2000/svg" width="32" height="32" viewBox="0 0 32 32">
<title>fs-snapshot</title>
<path d="M15.88 29.667c-3.636 0-6.593-2.959-6.593-6.594 0-3.637 2.957-6.594 6.593-6.594s6.594 2.957 6.594 6.594c0 3.635-2.957 6.594-6.594 6.594zM15.88 18.107c-2.738 0-4.966 2.228-4.966 4.967s2.228 4.967 4.966 4.967c2.739 0 4.967-2.228 4.967-4.967s-2.228-4.967-4.967-4.967z"></path>
<path d="M28.884 29.731h-7.28v-1.629h5.653v-13.103h-6.968l-0.3-0.759-1.192-2.275h-5.833l-1.288 2.516-0.203 0.518h-6.729v13.103h5.292v1.629h-6.92v-16.359h7.271l1.555-3.035h7.878l1.555 3.035h7.509z"></path>
<path d="M14.023 23.284h-1.627c0-2.037 1.658-3.696 3.696-3.696v1.629c-1.141-0.001-2.069 0.926-2.069 2.067z"></path>
<path d="M23.831 16.416h2.228v1.199h-2.228v-1.199z"></path>
<path d="M21.471 2.415v4.242h4.349z"></path>
<path d="M7.801 3.887h12.612v-1.618h-14.229v9.526h1.617z"></path>
<path d="M24.404 7.727h1.617v4.068h-1.617v-4.068z"></path>
<path d="M10.025 6.428h8.438v1.691h-8.438v-1.691z"></path>
</svg>
