<!-- Generated by IcoMoon.io -->
<svg version="1.1" xmlns="http://www.w3.org/2000/svg" width="32" height="32" viewBox="0 0 32 32">
<title>fs-share</title>
<path d="M21.4 3.2v4.7h4.9z"></path>
<path d="M9.2 9.4h12.2v1.8h-12.2v-1.8z"></path>
<path d="M9.2 14.8h12.2v1.8h-12.2v-1.8z"></path>
<path d="M9.2 20.2h3.8v1.8h-3.8v-1.8z"></path>
<path d="M5.8 26.8v-22h14.3v-1.8h-16.1v25.6h13.7c0.1 0 0.1-0.1 0.1-0.1 0.1-0.5 0.1-1.1 0.1-1.7h-12.1z"></path>
<path d="M24.7 14.8c0.6 0.1 1.3 0 1.8 0.1 0 0 0 0 0 0v-5.8h-1.8v5.7z"></path>
<path d="M26.1 23.9c-0.8 0-1.4 0.4-1.8 1l-5.6-1.6c0 0 0-0.1 0-0.1 0-0.1 0-0.3 0-0.4l5.7-2.6c0.4 0.3 0.8 0.5 1.3 0.5 1.2 0 2.1-0.9 2.1-2.1 0-1.1-0.9-2.1-2.1-2.1s-2.1 0.9-2.1 2.1c0 0.2 0.1 0.5 0.1 0.7l-5.6 2.5c-0.4-0.4-0.9-0.7-1.6-0.7-1.2 0-2.1 0.9-2.1 2.1s0.9 2.1 2.1 2.1c0.7 0 1.4-0.4 1.8-0.9l5.7 1.6c0 0 0 0 0 0 0 1.1 0.9 2.1 2.1 2.1s2.1-0.9 2.1-2.1-0.9-2.1-2.1-2.1z"></path>
</svg>
