<!-- Generated by IcoMoon.io -->
<svg version="1.1" xmlns="http://www.w3.org/2000/svg" width="32" height="32" viewBox="0 0 32 32">
<title>fullscreen</title>
<path d="M14.6 16.7l-3.8 3.9v-3.3h-1.4v5.6h5.6v-1.4h-3.3l3.9-3.8z"></path>
<path d="M15 10.4v-1.4h-5.6v5.5h1.4v-3.2l3.8 3.9 1-1-3.9-3.8z"></path>
<path d="M21.9 20.6l-3.8-3.9-1 1 3.9 3.8h-3.2v1.4h5.5v-5.6h-1.4z"></path>
<path d="M17.8 10.4h3.2l-3.9 3.8 1 1 3.8-3.9v3.2h1.4v-5.5h-5.5z"></path>
<path d="M15.2 1.9v-1.6c-8.2 0.4-14.7 7-15 15.2h1.7c0.2-7.3 6-13.2 13.3-13.6z"></path>
<path d="M30.1 15.5h1.6c-0.2-8.2-6.7-14.8-14.9-15.2v1.6c7.3 0.4 13.1 6.3 13.3 13.6z"></path>
<path d="M1.9 17.1h-1.6c0.6 7.9 7 14.2 14.9 14.6v-1.6c-7-0.4-12.7-6-13.3-13z"></path>
<path d="M16.8 30.1v1.6c7.9-0.4 14.3-6.7 14.9-14.6h-1.6c-0.6 7-6.2 12.6-13.3 13z"></path>
<path d="M29 16c0-7.2-5.8-13-13-13s-13 5.8-13 13 5.8 13 13 13 13-5.8 13-13zM16 27.2c-6.2 0-11.2-5-11.2-11.2s5-11.2 11.2-11.2 11.2 5 11.2 11.2-5 11.2-11.2 11.2z"></path>
</svg>
