<!-- Generated by IcoMoon.io -->
<svg version="1.1" xmlns="http://www.w3.org/2000/svg" width="32" height="32" viewBox="0 0 32 32">
<title>host-checking</title>
<path d="M4.391 9.088c0.080-0.176 0.32-0.176 0.416 0v0l3.488 6.272c0.096 0.176-0.016 0.368-0.208 0.368v0l-2.559-0.002c-0.001 0.091-0.001 0.183-0.001 0.274 0 5.792 4.704 10.496 10.496 10.496 2.653 0 5.168-0.986 7.106-2.777 0.019-0.027 0.043-0.047 0.068-0.067 0.015-0.011 0.029-0.023 0.042-0.036 0.186-0.13 0.412-0.208 0.656-0.208 0.619 0 1.12 0.501 1.12 1.12 0 0.269-0.095 0.516-0.253 0.709l0.013 0.011c-2.384 2.256-5.488 3.488-8.768 3.488-7.024 0-12.736-5.712-12.736-12.736l0.006-0.274-2.182 0.002c-0.147 0-0.26-0.144-0.238-0.285l0.030-0.083zM16.007 3.264c6.479 0 11.891 4.799 12.65 11.213l2.246 0.003c0.192 0 0.304 0.192 0.208 0.368l-3.488 6.272c-0.080 0.16-0.32 0.16-0.416 0l-3.504-6.272c-0.096-0.16 0.032-0.368 0.208-0.368l2.475-0.002-0.008-0.065c-0.771-5.117-5.142-8.908-10.386-8.908-2.084 0-4.074 0.607-5.802 1.745-0.174 0.122-0.386 0.191-0.614 0.191-0.619 0-1.12-0.501-1.12-1.12 0-0.434 0.247-0.81 0.608-0.996l-0.176 0.116c2.096-1.424 4.56-2.176 7.12-2.176z"></path>
</svg>
