<!-- Generated by IcoMoon.io -->
<svg version="1.1" xmlns="http://www.w3.org/2000/svg" width="32" height="32" viewBox="0 0 32 32">
<title>CPU</title>
<path d="M22.822 26.286h-13.646c-1.962 0-3.412-1.457-3.412-3.429v-13.714c0-1.972 1.45-3.429 3.412-3.429h13.646c1.962 0 3.412 1.457 3.412 3.429v13.714c0 1.972-1.45 3.429-3.412 3.429zM9.176 8.029c-0.682 0-1.108 0.428-1.108 1.114v13.714c0 0.686 0.426 1.114 1.108 1.114h13.646c0.682 0 1.108-0.428 1.108-1.114v-13.714c0-0.686-0.426-1.114-1.108-1.114h-13.646z"></path>
<path d="M19.411 20.542h-6.823c-0.682 0-1.108-0.428-1.108-1.114v-6.857c0-0.686 0.426-1.114 1.108-1.114h6.823c0.682 0 1.108 0.428 1.108 1.114v6.857c0 0.686-0.426 1.114-1.108 1.114zM13.696 18.316h4.521v-4.546h-4.523v4.544l0.002 0.002zM10.285 8.030c-0.682 0-1.108-0.515-1.108-1.201v-3.43c0-0.686 0.426-1.114 1.108-1.114s1.11 0.428 1.11 1.114v3.429c0.085 0.686-0.428 1.201-1.11 1.201v0.002zM21.117 8.030c-0.682 0-1.108-0.43-1.108-1.115v-3.429c0-0.771 0.426-1.199 1.108-1.199s1.108 0.428 1.108 1.114v3.429c0 0.686-0.426 1.201-1.108 1.201v0zM10.285 29.714c-0.682 0-1.108-0.428-1.108-1.114v-3.429c0-0.686 0.426-1.115 1.108-1.115s1.11 0.43 1.11 1.115v3.429c0.085 0.686-0.428 1.114-1.11 1.114zM21.117 29.714c-0.682 0-1.108-0.428-1.108-1.114v-3.429c0-0.686 0.426-1.115 1.108-1.115s1.108 0.43 1.108 1.115v3.429c0 0.686-0.426 1.114-1.108 1.114zM28.537 11.458h-3.412c-0.682 0-1.11-0.43-1.11-1.115s0.428-1.199 1.11-1.199h3.412c0.682 0 1.108 0.428 1.108 1.114s-0.426 1.201-1.108 1.201v0zM28.537 17.114h-3.412c-0.682 0-1.11-0.428-1.11-1.114s0.428-1.114 1.11-1.114h3.412c0.682 0 1.108 0.428 1.108 1.114s-0.426 1.114-1.108 1.114zM6.872 11.459h-3.41c-0.682-0.002-1.108-0.518-1.108-1.204s0.426-1.112 1.108-1.112h3.412c0.682 0 1.11 0.428 1.11 1.114s-0.428 1.201-1.11 1.201l-0.002 0.002zM6.872 17.115h-3.41c-0.682-0.002-1.108-0.43-1.108-1.115s0.426-1.114 1.108-1.114h3.412c0.682 0 1.11 0.428 1.11 1.114s-0.428 1.114-1.11 1.114l-0.002 0.002zM28.538 22.857h-3.412c-0.682 0-1.11-0.428-1.11-1.114s0.428-1.115 1.11-1.115h3.412c0.682 0 1.108 0.43 1.108 1.115s-0.426 1.114-1.108 1.114zM6.875 22.857h-3.413c-0.682 0-1.108-0.428-1.108-1.114s0.426-1.115 1.108-1.115h3.411c0.682 0 1.11 0.43 1.11 1.115s-0.428 1.114-1.11 1.114h0.002zM15.999 8.029c-0.682 0-1.108-0.43-1.108-1.115v-3.427c0-0.771 0.426-1.201 1.108-1.201s1.108 0.428 1.108 1.114v3.429c0 0.686-0.426 1.201-1.108 1.201zM15.999 29.629c-0.682 0-1.108-0.428-1.108-1.115v-3.429c0-0.686 0.426-1.112 1.108-1.112s1.108 0.427 1.108 1.112v3.429c0 0.686-0.426 1.115-1.108 1.115z"></path>
</svg>
