<!-- Generated by IcoMoon.io -->
<svg version="1.1" xmlns="http://www.w3.org/2000/svg" width="33" height="32" viewBox="0 0 33 32">
<title>host-validator-hostSwap</title>
<path d="M20.589 7.56h5.424v8.321h-1.837v-6.484h-3.686l1.201 1.218-0.93 0.943-2.985-3.029 2.985-3.029 0.93 0.943-1.101 1.117z"></path>
<path d="M12.66 24.44h-5.424v-8.321h1.837v6.484h3.686l-1.201-1.218 0.93-0.943 2.985 3.029-2.985 3.029-0.93-0.943 1.101-1.117z"></path>
<path d="M17.981 17.334h8.015v8.015h-8.015v-8.015zM20.142 19.495v3.693h3.693v-3.693h-3.693z"></path>
<path d="M7.175 6.528h8.015v8.015h-8.015v-8.015zM9.336 8.689v3.693h3.693v-3.693h-3.693z"></path>
</svg>
