<!-- Generated by IcoMoon.io -->
<svg version="1.1" xmlns="http://www.w3.org/2000/svg" width="32" height="32" viewBox="0 0 32 32">
<title>host-validator-hostname-resolve</title>
<path d="M9.7 15.7l-0.6-1.9h-1.1l-0.6 1.9-0.7-1.9h-1.3l1.5 4.3h0.9l0.8-2.4 0.8 2.4h0.9l1.5-4.3h-1.3l-0.8 1.9z"></path>
<path d="M17.2 15.8l-0.6-1.9h-1.2l-0.6 1.9-0.7-1.9h-1.3l1.5 4.3h0.9l0.8-2.4 0.8 2.4h0.9l1.5-4.3h-1.3l-0.7 1.9z"></path>
<path d="M25.3 13.9l-0.7 1.9-0.6-1.9h-1.2l-0.6 1.9-0.7-1.9h-1.3l1.5 4.3h0.9l0.8-2.4 0.8 2.4h0.9l1.5-4.3h-1.3z"></path>
<path d="M7.1 12.3c0.1-0.3 0.3-0.7 0.5-1 0.5 0.1 1.1 0.2 1.9 0.3-0.1 0.2-0.1 0.4-0.2 0.6h1.8c0-0.2 0.1-0.3 0.1-0.5 1 0.1 2.2 0.1 3.5 0.1 1.6 0 3.5-0.1 5.5-0.4 0.1 0.2 0.2 0.4 0.3 0.7h1.8c-0.1-0.3-0.2-0.6-0.3-0.9 0.7-0.1 1.5-0.3 2.3-0.4 0.3 0.4 0.5 0.9 0.7 1.4h1.8c-1.6-4.3-5.8-7.5-10.8-7.5s-9.2 3.2-10.7 7.7h1.8zM23.1 9.5c-0.6 0.1-1.3 0.2-1.9 0.3-0.5-1-1.1-1.9-1.9-2.9 1.5 0.6 2.8 1.5 3.8 2.6v0zM16.7 6.5c1.1 1.2 2 2.4 2.7 3.5-0.9 0.1-1.8 0.2-2.7 0.2v-3.7zM14.8 6.5c0.1 0 0.1 0 0.2 0v3.9c-1.1 0-2.1 0-3.1-0.1 1.1-2.1 2.4-3.4 2.9-3.8v0zM11.7 7.4c-0.5 0.7-1.1 1.6-1.6 2.7-0.6-0.1-1.1-0.2-1.5-0.3 0.9-1 1.9-1.8 3.1-2.4v0z"></path>
<path d="M25 19.4c-0.2 0.5-0.4 0.9-0.7 1.4-0.4-0.1-1.1-0.2-2-0.4 0.1-0.3 0.2-0.7 0.3-1h-1.8c-0.1 0.3-0.2 0.5-0.3 0.8-2.2-0.2-5.3-0.3-8.8 0.1-0.1-0.3-0.3-0.6-0.4-0.9h-1.7c0.1 0.4 0.3 0.8 0.4 1.1-0.7 0.1-1.5 0.3-2.2 0.4-0.3-0.5-0.6-1-0.8-1.6h-1.8c1.5 4.7 5.8 8 10.8 8s9.3-3.3 10.8-7.9h-1.8zM8.9 22.5c0.6-0.1 1.3-0.2 1.9-0.3 0.5 1 1.2 1.9 1.9 2.9-1.4-0.6-2.7-1.5-3.8-2.6v0zM15 25.1c-0.9-1-1.7-2.1-2.4-3.1 0.8-0.1 1.6-0.1 2.4-0.2v3.3zM16.9 25.6v0c-0.1 0-0.1 0-0.2 0v-3.8c1.1 0 2.2 0 3.1 0.1-1.2 2.3-2.8 3.6-2.9 3.7v0zM20 24.8c0.6-0.7 1.2-1.6 1.7-2.7 0.6 0.1 1.2 0.2 1.6 0.2-0.9 1.1-2.1 1.9-3.3 2.5v0z"></path>
</svg>
