<!-- Generated by IcoMoon.io -->
<svg version="1.1" xmlns="http://www.w3.org/2000/svg" width="32" height="32" viewBox="0 0 32 32">
<title>host-validator</title>
<path fill="#9ea4be" d="M11.16 27.71h-10.37v-23.2h10.37zM2.16 26.37h7.7v-20.52h-7.73z"></path>
<path fill="#9ea4be" d="M3.55 12.78h4.86v1.49h-4.86v-1.49z"></path>
<path fill="#9ea4be" d="M3.55 15.37h4.86v1.49h-4.86v-1.49z"></path>
<path fill="#9ea4be" d="M3.55 17.96h4.86v1.49h-4.86v-1.49z"></path>
<path fill="#9ea4be" d="M3.55 20.55h4.86v1.49h-4.86v-1.49z"></path>
<path fill="#9ea4be" d="M3.55 23.14h4.86v1.49h-4.86v-1.49z"></path>
<path fill="#9ea4be" d="M31.38 27.71h-10.38v-23.2h10.38zM22.38 26.37h7.62v-20.52h-7.7z"></path>
<path fill="#9ea4be" d="M23.76 12.78h4.86v1.49h-4.86v-1.49z"></path>
<path fill="#9ea4be" d="M3.55 10.050h4.86v1.49h-4.86v-1.49z"></path>
<path fill="#9ea4be" d="M23.76 10.050h4.86v1.49h-4.86v-1.49z"></path>
<path fill="#9ea4be" d="M3.55 7.32h4.86v1.49h-4.86v-1.49z"></path>
<path fill="#9ea4be" d="M23.76 7.32h4.86v1.49h-4.86v-1.49z"></path>
<path fill="#9ea4be" d="M23.76 15.37h4.86v1.49h-4.86v-1.49z"></path>
<path fill="#9ea4be" d="M23.76 17.96h4.86v1.49h-4.86v-1.49z"></path>
<path fill="#9ea4be" d="M23.76 20.55h4.86v1.49h-4.86v-1.49z"></path>
<path fill="#9ea4be" d="M23.76 23.14h4.86v1.49h-4.86v-1.49z"></path>
<path fill="#9ea4be" d="M11.85 4.68h0.33v1h-0.33v-1z"></path>
<path fill="#9ea4be" d="M19 5.68h-0.68v-1h0.68zM17.64 5.68h-0.64v-1h0.68zM16.27 5.68h-0.68v-1h0.68zM14.91 5.68h-0.68v-1h0.68zM13.55 5.68h-0.69v-1h0.69z"></path>
<path fill="#9ea4be" d="M19.68 4.68h0.33v1h-0.33v-1z"></path>
<path fill="#9ea4be" d="M11.85 7.76h0.33v1h-0.33v-1z"></path>
<path fill="#9ea4be" d="M19 8.76h-0.68v-1h0.68zM17.64 8.76h-0.64v-1h0.68zM16.27 8.76h-0.68v-1h0.68zM14.91 8.76h-0.68v-1h0.68zM13.55 8.76h-0.69v-1h0.69z"></path>
<path fill="#9ea4be" d="M19.68 7.76h0.33v1h-0.33v-1z"></path>
<path fill="#9ea4be" d="M11.85 26.54h0.33v1h-0.33v-1z"></path>
<path fill="#9ea4be" d="M19 27.54h-0.68v-1h0.68zM17.64 27.54h-0.64v-1h0.68zM16.27 27.54h-0.68v-1h0.68zM14.91 27.54h-0.68v-1h0.68zM13.55 27.54h-0.69v-1h0.69z"></path>
<path fill="#9ea4be" d="M19.68 26.54h0.33v1h-0.33v-1z"></path>
<path fill="#9ea4be" d="M11.85 23.8h0.33v1h-0.33v-1z"></path>
<path fill="#9ea4be" d="M19 24.8h-0.68v-1h0.68zM17.64 24.8h-0.64v-1h0.68zM16.27 24.8h-0.68v-1h0.68zM14.91 24.8h-0.68v-1h0.68zM13.55 24.8h-0.69v-1h0.69z"></path>
<path fill="#9ea4be" d="M19.68 23.8h0.33v1h-0.33v-1z"></path>
</svg>
