<!-- Generated by IcoMoon.io -->
<svg version="1.1" xmlns="http://www.w3.org/2000/svg" width="32" height="32" viewBox="0 0 32 32">
<title>SRIOV</title>
<path d="M25.565 23.743c-0.905 0-1.724 0.537-2.085 1.367h-4.338c-0.179-1.222-1.049-2.229-2.231-2.585v-3.793h5.466c1.507 0 2.733-1.226 2.733-2.733s-1.226-2.733-2.733-2.733h-12.754c-1.507 0-2.733 1.226-2.733 2.733s1.226 2.733 2.733 2.733h5.466v3.793c-1.183 0.355-2.053 1.363-2.231 2.585h-4.338c-0.43-0.99-1.496-1.541-2.552-1.321s-1.812 1.153-1.81 2.232c0.002 1.077 0.758 2.005 1.812 2.225s2.118-0.328 2.551-1.314h4.611c0.514 1.073 1.602 1.822 2.869 1.822s2.355-0.749 2.869-1.822h4.611c0.43 0.99 1.496 1.541 2.552 1.321s1.812-1.153 1.81-2.232c0-1.258-1.020-2.277-2.277-2.277zM9.623 16.911c-0.487-0.022-0.871-0.423-0.871-0.911s0.384-0.889 0.871-0.911h12.754c0.487 0.022 0.871 0.423 0.871 0.911s-0.384 0.889-0.871 0.911h-12.754zM16 26.932c-0.753 0-1.367-0.613-1.367-1.367s0.613-1.366 1.367-1.366c0.753 0 1.366 0.613 1.366 1.366s-0.613 1.367-1.366 1.367z"></path>
<path d="M9.168 22.377h2.604c0.503 0 0.911-0.408 0.911-0.911s-0.408-0.911-0.911-0.911h-2.604c-2.766-0.003-5.008-2.245-5.011-5.011-0.012-2.47 1.786-4.576 4.227-4.95l0.542-0.085 0.178-0.519c1.010-2.944 3.782-4.922 6.896-4.922s5.884 1.977 6.895 4.922l0.178 0.519 0.542 0.085c2.441 0.375 4.239 2.481 4.227 4.95 0 2.762-2.248 5.011-5.010 5.011h-2.769c-0.503 0-0.911 0.408-0.911 0.911s0.408 0.911 0.911 0.911h2.769c3.768 0 6.833-3.065 6.833-6.832 0.016-3.163-2.154-5.918-5.233-6.645-1.404-3.42-4.735-5.653-8.432-5.653s-7.028 2.233-8.432 5.653c-3.079 0.726-5.249 3.481-5.234 6.645 0 3.768 3.065 6.832 6.833 6.832z"></path>
</svg>
