<!-- Generated by IcoMoon.io -->
<svg version="1.1" xmlns="http://www.w3.org/2000/svg" width="32" height="32" viewBox="0 0 32 32">
<title>identity-platform</title>
<path d="M32 26.5h-30v-21h27.9v17.6h2v-19.7h-31.9v25.2h32z"></path>
<path d="M6 21.5h1.7c0-1.9 1.6-3.5 3.5-3.5s3.5 1.6 3.5 3.5h1.7c0-1.9-1-3.5-2.6-4.4 0.8-0.7 1.4-1.8 1.4-3 0-2.2-1.8-3.9-3.9-3.9s-4 1.8-4 3.9c0 1.2 0.5 2.2 1.4 3-1.7 0.8-2.7 2.5-2.7 4.4zM8.9 14.1c0-1.2 1-2.2 2.2-2.2s2.2 1 2.2 2.2c0 1.2-1 2.2-2.2 2.2s-2.2-1-2.2-2.2z"></path>
<path d="M19 11h6.4v1.7h-6.4v-1.7z"></path>
<path d="M19 15.4h6.4v1.7h-6.4v-1.7z"></path>
<path d="M19 19.8h6.4v1.7h-6.4v-1.7z"></path>
</svg>
