<!-- Generated by IcoMoon.io -->
<svg version="1.1" xmlns="http://www.w3.org/2000/svg" width="32" height="32" viewBox="0 0 32 32">
<title>info-status</title>
<path d="M16 4.8c-6.185 0-11.2 5.015-11.2 11.2s5.014 11.2 11.2 11.2 11.2-5.014 11.2-11.2c0-6.185-5.014-11.2-11.2-11.2zM14.582 10.438c0-0.768 0.639-1.391 1.407-1.391s1.407 0.623 1.407 1.39v6.952c0 0.768-0.639 1.39-1.407 1.39s-1.407-0.623-1.407-1.39v-6.951zM15.987 22.952c-0.768 0-1.39-0.622-1.39-1.39s0.623-1.39 1.39-1.39c0.768 0 1.39 0.622 1.39 1.39s-0.622 1.39-1.39 1.39v0z"></path>
</svg>
