<!-- Generated by IcoMoon.io -->
<svg version="1.1" xmlns="http://www.w3.org/2000/svg" width="32" height="32" viewBox="0 0 32 32">
<title>info</title>
<path d="M16 31.963c-8.818 0-15.992-7.174-15.992-15.992s7.174-15.992 15.992-15.992c8.818 0 15.992 7.174 15.992 15.992 0 3.414-1.062 6.674-3.070 9.427l-2.376-1.736c1.638-2.244 2.503-4.904 2.503-7.69 0-7.195-5.853-13.049-13.048-13.049s-13.049 5.854-13.049 13.049c0 7.195 5.854 13.048 13.048 13.048 2.82 0 5.501-0.884 7.76-2.559l1.752 2.366c-2.769 2.051-6.057 3.136-9.512 3.136z"></path>
<path d="M14.529 8.907h2.942v2.737h-2.942v-2.737z"></path>
<path d="M14.529 13.887h2.942v10.541h-2.942v-10.541z"></path>
</svg>
