<!-- Generated by IcoMoon.io -->
<svg version="1.1" xmlns="http://www.w3.org/2000/svg" width="32" height="32" viewBox="0 0 32 32">
<title>license</title>
<path d="M2.319 12.19h1.147v-3.072h-0.994v-0.799c0.581-0.11 0.958-0.255 1.336-0.487h0.951v4.358h0.973v1.046h-3.413v-1.046z"></path>
<path d="M2.058 26.613c1.351-1.229 2.259-2.209 2.259-2.994 0-0.492-0.276-0.762-0.705-0.762-0.371 0-0.661 0.246-0.915 0.522l-0.705-0.696c0.53-0.562 1.024-0.836 1.794-0.836 1.045 0 1.771 0.668 1.771 1.698 0 0.931-0.798 1.955-1.626 2.789 0.269-0.034 0.64-0.070 0.879-0.070h0.995v1.090h-3.747v-0.741z"></path>
<path d="M30.008 28.42h-22.065v-2h20.065v-6.592h-18.010v2.662h-2v-4.662h22.010z"></path>
<path d="M30.008 14.171h-22.065v-2h20.065v-6.591h-18.010v2.661h-2v-4.661h22.010z"></path>
</svg>
