<!-- Generated by IcoMoon.io -->
<svg version="1.1" xmlns="http://www.w3.org/2000/svg" width="32" height="32" viewBox="0 0 32 32">
<title>light</title>
<path d="M17.309 5.967v0z"></path>
<path d="M15.623 5.967v0 0z"></path>
<path d="M20.47 21.309h-9.015l0.010-0.51c0.012-0.627-0.764-1.494-1.035-1.748l-0.019-0.017c-0.217-0.185-0.423-0.378-0.62-0.579l-0.252-0.27c-1.407-1.576-2.195-3.616-2.195-5.759 0-4.772 3.883-8.656 8.656-8.656s8.656 3.884 8.656 8.656c0 2.142-0.787 4.182-2.195 5.758h0.002l-0.014 0.013c-0.264 0.295-0.55 0.574-0.856 0.834l-0.013 0.013c-0.675 0.653-0.612 1.719-0.611 1.729l0.035 0.533-0.534 0.003zM12.403 20.309h7.583c0.033-0.309 0.111-0.715 0.299-1.124v0l0.622-0.884c1.747-1.461 2.749-3.602 2.749-5.874 0-4.222-3.435-7.656-7.656-7.656s-7.656 3.435-7.656 7.656c0 2.272 1.002 4.413 2.75 5.874l0.764 0.884c0.227 0.325 0.443 0.714 0.545 1.124z"></path>
<path d="M11.594 22.084h9.146v0.75h-9.146v-0.75z"></path>
<path d="M11.594 23.562h9.146v0.75h-9.146v-0.75z"></path>
<path d="M11.594 25.016v1.078c0 0 1.453 2.172 3.75 2.516h1.359c0 0 2.453-0.125 3.953-2.516v-1.078z"></path>
<path d="M10.029 13.571c-0.254 0-0.459-0.205-0.459-0.459 0-3.849 3.131-6.981 6.981-6.981 0.254 0 0.459 0.205 0.459 0.459s-0.205 0.459-0.459 0.459c-3.344 0-6.062 2.721-6.062 6.063-0.001 0.254-0.207 0.459-0.46 0.459z"></path>
</svg>
