<!-- Generated by IcoMoon.io -->
<svg version="1.1" xmlns="http://www.w3.org/2000/svg" width="32" height="32" viewBox="0 0 32 32">
<title>light-disable</title>
<path d="M11.494 21.723h9.146v0.75h-9.146v-0.75z"></path>
<path d="M11.494 23.201h9.146v0.75h-9.146v-0.75z"></path>
<path d="M11.494 24.654v1.078c0 0 1.453 2.172 3.75 2.516h1.359c0 0 2.453-0.125 3.953-2.516v-1.078z"></path>
<path d="M9.050 19.706c-0.128 0-0.256-0.049-0.354-0.146-0.195-0.195-0.195-0.512 0-0.707l14.033-14.033c0.195-0.195 0.512-0.195 0.707 0s0.195 0.512 0 0.707l-14.032 14.033c-0.098 0.097-0.226 0.146-0.354 0.146z"></path>
<path d="M8.244 12.077c0-4.221 3.436-7.656 7.656-7.656 1.748 0 3.355 0.596 4.646 1.586l0.713-0.714c-1.475-1.168-3.334-1.873-5.359-1.873-4.772 0-8.656 3.884-8.656 8.656 0 1.969 0.672 3.845 1.871 5.359l0.707-0.707c-1.016-1.323-1.578-2.95-1.578-4.651z"></path>
<path d="M22.874 6.971l-0.713 0.713c0.875 1.245 1.395 2.758 1.395 4.393 0 2.272-1.002 4.414-2.748 5.875l-0.623 0.883c-0.188 0.41-0.266 0.816-0.299 1.125h-7.583c-0.103-0.41-0.318-0.799-0.546-1.125l-0.348-0.402-0.692 0.693c0.312 0.379 0.655 0.904 0.647 1.324l-0.010 0.51 9.548-0.002-0.035-0.533c0-0.012-0.062-1.076 0.611-1.73l0.014-0.012c0.307-0.26 0.592-0.539 0.855-0.834l0.014-0.014h-0.001c1.408-1.577 2.195-3.616 2.195-5.758 0.001-1.91-0.628-3.672-1.681-5.106z"></path>
</svg>
