<!-- Generated by IcoMoon.io -->
<svg version="1.1" xmlns="http://www.w3.org/2000/svg" width="28" height="32" viewBox="0 0 28 32">
<title>login-password</title>
<path d="M14.285 17.339c-1.275 0-2.312 1.033-2.312 2.312 0 0.92 0.543 1.705 1.318 2.076v2.538c0 0.549 0.446 0.99 0.99 0.99 0.549 0 0.99-0.446 0.99-0.99v-2.538c0.78-0.371 1.318-1.156 1.318-2.076 0.005-1.28-1.027-2.312-2.302-2.312zM23.852 12.72h-19.796c-1.092 0-1.979 0.887-1.979 1.979v13.197c0 1.092 0.887 1.979 1.979 1.979h19.796c1.092 0 1.979-0.887 1.979-1.979v-13.197c0-1.097-0.887-1.979-1.979-1.979zM23.852 26.573c0 1.092-0.226 1.318-1.318 1.318h-17.155c-1.092 0-1.318-0.226-1.318-1.318v-10.556c0-1.092 0.226-1.318 1.318-1.318h17.155c1.092 0 1.318 0.226 1.318 1.318v10.556zM4.6 11.725c0.549 0 0.995-0.436 1.011-0.984 0.893-3.781 4.286-6.599 8.341-6.599 3.168 0 5.926 1.726 7.41 4.281 0.156 0.35 0.505 0.592 0.909 0.592 0.549 0 0.995-0.446 0.995-0.995 0-0.215-0.070-0.414-0.183-0.575-1.823-3.151-5.222-5.286-9.131-5.286-5.109 0-9.357 3.506-10.341 8.319-0.005 0.021-0.011 0.038-0.011 0.059-0.005 0.021-0.011 0.048-0.016 0.070h0.005c-0.005 0.032-0.005 0.065-0.005 0.097 0.005 0.565 0.457 1.022 1.016 1.022z"></path>
</svg>
