<!-- Generated by IcoMoon.io -->
<svg version="1.1" xmlns="http://www.w3.org/2000/svg" width="32" height="32" viewBox="0 0 32 32">
<title>login-user</title>
<path d="M16 2c-7.732 0-14 6.268-14 14s6.268 14 14 14c7.732 0 14-6.268 14-14-0.011-7.728-6.272-13.989-14-14zM24.803 24.654l-0.358 0.381-0.095-0.503c-0.264-1.435-0.892-2.779-1.824-3.903-0.297-0.326-0.798-0.359-1.136-0.077s-0.393 0.782-0.125 1.131c1.023 1.23 1.583 2.779 1.584 4.379 0.002 0.025 0.002 0.051 0 0.076v0.145l-0.122 0.080c-4.093 2.67-9.377 2.67-13.471 0l-0.122-0.080v-0.217c0-3.785 3.068-6.853 6.853-6.853 2.884 0.008 5.351-2.070 5.834-4.914s-1.16-5.619-3.885-6.564c-2.725-0.945-5.734 0.219-7.114 2.751s-0.729 5.691 1.541 7.47l0.339 0.263-0.381 0.187c-2.439 1.178-4.173 3.445-4.672 6.107l-0.095 0.503-0.358-0.381c-2.28-2.295-3.557-5.4-3.552-8.635-0.007-5.582 3.73-10.476 9.117-11.939s11.086 0.868 13.904 5.687c2.818 4.819 2.054 10.929-1.863 14.906v0zM11.758 13.316c0.002-2.34 1.9-4.235 4.24-4.234s4.236 1.899 4.235 4.239c-0.001 2.34-1.898 4.236-4.238 4.236-2.341-0.002-4.238-1.9-4.238-4.242v0z"></path>
</svg>
