<!-- Generated by IcoMoon.io -->
<svg version="1.1" xmlns="http://www.w3.org/2000/svg" width="32" height="32" viewBox="0 0 32 32">
<title>master-object-storage-bucket</title>
<path d="M31 21.3v-7h-1.7v7.1c0 0.2-0.9 0.7-2.7 1.3 0 0.5-0.1 1.2 0 1.7 2.3-0.6 4.4-1.6 4.4-3.1z"></path>
<path d="M31.1 11v-4.2c0-3-7.8-4-12.8-4-5.2 0-12.7 1-12.8 3.9 0 0.1 0 0.1 0 0.1v0.6c-2.5 0.6-4.4 1.7-4.4 3.2v14.6c0 3 7.7 4 12.8 4h0.1c5.1 0 12.7-1.1 12.7-4v-7h-1.7v7.1c0 0.6-3.8 2.4-11 2.4h-0.1c-7.2 0-11.1-1.8-11.1-2.4v-12.5c0.2 0.1 1.5 0.5 2.2 0.7 3.4 0.8 5.7 1.1 8.9 1.1s5.7-0.2 8.9-1.1c0.3-0.1 1.8-0.6 2.2-0.8v2h1.8v-4.2c0-0.2 0-0.4-0.1-0.7 0.9-0.2 1.8-0.5 2.8-0.8v2h1.6zM20.1 12.5c-5.4 1-9.8 0.2-10.2 0.2-6-0.7-6.9-1.9-7-2.1 0.1-0.6 4-2.4 11.1-2.4s11 1.7 11.1 2.4c-0.5 0.6-2.8 1.5-5 1.9zM25.2 8.5c-2.5-1.5-7.5-2-11.2-2-2 0-4.5 0.2-6.7 0.6-0.2-0.2-0.2-0.2-0.2-0.4 0.1-1.2 4-2.4 11.4-2.6 7.2 0.2 10.8 2.1 10.9 2.7-0.4 0.7-2.3 1.4-4.2 1.7z"></path>
</svg>
