<!-- Generated by IcoMoon.io -->
<svg version="1.1" xmlns="http://www.w3.org/2000/svg" width="32" height="32" viewBox="0 0 32 32">
<title>menu-region</title>
<path d="M16 29.278l-7.266-7.266c-1.538-1.538-3.098-4.010-3.522-6.144s-0.207-4.345 0.626-6.355c0.833-2.010 2.242-3.728 4.051-4.937s3.936-1.854 6.111-1.854c2.176 0 4.302 0.645 6.111 1.854s3.219 2.927 4.051 4.937c0.833 2.010 1.050 4.222 0.626 6.355s-1.984 4.606-3.522 6.144l-7.266 7.266zM16 18.522c2.734 0 4.95-2.216 4.95-4.95s-2.216-4.95-4.95-4.95c-2.734 0-4.95 2.216-4.95 4.95s2.216 4.95 4.95 4.95z"></path>
</svg>
