<!-- Generated by IcoMoon.io -->
<svg version="1.1" xmlns="http://www.w3.org/2000/svg" width="32" height="32" viewBox="0 0 32 32">
<title>menu-object-user</title>
<path d="M14.697 17c4.142 0 7.5-3.358 7.5-7.5s-3.358-7.5-7.5-7.5c-4.142 0-7.5 3.358-7.5 7.5s3.358 7.5 7.5 7.5zM15.902 21.912c0 0.127 0.088 0.233 0.262 0.317l6.338 3.468c0.15 0.085 0.35 0.127 0.6 0.127s0.45-0.042 0.6-0.127l6.337-3.468c0.175-0.085 0.263-0.19 0.263-0.317s-0.088-0.233-0.263-0.317l-6.337-3.468c-0.15-0.085-0.35-0.127-0.6-0.127s-0.45 0.042-0.6 0.127l-6.338 3.468c-0.175 0.085-0.262 0.19-0.262 0.317zM30.302 26.238c0-0.135-0.088-0.243-0.263-0.324l-1.312-0.688c-0.1-0.054-0.213-0.054-0.338 0-0.1 0.054-1.662 0.876-4.687 2.468-0.15 0.081-0.35 0.121-0.6 0.121s-0.45-0.040-0.6-0.121l-4.613-2.427c-0.175-0.108-0.337-0.108-0.488 0-0.15 0.081-0.563 0.297-1.238 0.647-0.175 0.081-0.262 0.189-0.262 0.324s0.088 0.243 0.262 0.324l6.338 3.276c0.2 0.108 0.4 0.162 0.6 0.162s0.4-0.054 0.6-0.162l6.337-3.276c0.175-0.081 0.263-0.189 0.263-0.324zM1.697 29h13v-10h-4.875c-1.34 0-4.222 1.436-5.745 2.676s-2.38 2.923-2.38 4.678v2.646z"></path>
</svg>
