<!-- Generated by IcoMoon.io -->
<svg version="1.1" xmlns="http://www.w3.org/2000/svg" width="32" height="32" viewBox="0 0 32 32">
<title>menu-platform</title>
<path d="M14.556 3.902l-11.701 7.534c-0.342 0.22-0.322 0.726 0.037 0.918l11.848 6.357c0.787 0.422 1.734 0.422 2.522 0l11.848-6.357c0.358-0.192 0.378-0.698 0.037-0.918l-11.701-7.534c-0.879-0.566-2.008-0.566-2.887 0zM2.552 20.426l4.342-2.948 7.847 4.204c0.787 0.421 1.732 0.421 2.519 0l7.848-4.204 4.342 2.948c0.327 0.222 0.307 0.711-0.037 0.905l-12.098 6.846c-0.815 0.461-1.812 0.461-2.627 0l-12.098-6.846c-0.344-0.195-0.364-0.683-0.037-0.905z"></path>
</svg>
