<!-- Generated by IcoMoon.io -->
<svg version="1.1" xmlns="http://www.w3.org/2000/svg" width="32" height="32" viewBox="0 0 32 32">
<title>menu-user</title>
<path d="M16 27.1c-6.13 0-11.1-4.97-11.1-11.1s4.97-11.1 11.1-11.1c6.13 0 11.1 4.97 11.1 11.1s-4.97 11.1-11.1 11.1zM16 29.5c7.456 0 13.5-6.044 13.5-13.5s-6.044-13.5-13.5-13.5c-7.456 0-13.5 6.044-13.5 13.5s6.044 13.5 13.5 13.5z"></path>
<path d="M8.895 24.529c1.278-2.637 3.982-4.453 7.105-4.453s5.826 1.816 7.105 4.452c-1.927 1.607-4.402 2.572-7.106 2.572s-5.178-0.964-7.104-2.571zM25.906 25.171c-1.218-4.324-5.192-7.494-9.906-7.494s-8.689 3.17-9.907 7.496c2.466 2.662 5.991 4.328 9.906 4.328s7.441-1.667 9.907-4.329z"></path>
<path d="M16 14.259c-1.436 0-2.6-1.164-2.6-2.6s1.164-2.6 2.6-2.6c1.436 0 2.6 1.164 2.6 2.6s-1.164 2.6-2.6 2.6zM16 16.659c2.761 0 5-2.239 5-5s-2.239-5-5-5c-2.761 0-5 2.239-5 5s2.239 5 5 5z"></path>
</svg>
