<!-- Generated by IcoMoon.io -->
<svg version="1.1" xmlns="http://www.w3.org/2000/svg" width="32" height="32" viewBox="0 0 32 32">
<title>menu-user</title>
<path d="M15.999 27.1h-0.024l-0.115-0.001c-2.648-0.033-5.073-0.993-6.965-2.571 1.278-2.636 3.982-4.452 7.105-4.452s5.826 1.816 7.105 4.452c-1.512 1.262-3.363 2.128-5.397 2.441-0.557 0.086-1.127 0.13-1.708 0.13zM16 17.676c-3.761 0-7.051 2.018-8.846 5.029-1.414-1.863-2.254-4.186-2.254-6.706 0-6.13 4.97-11.1 11.1-11.1s11.1 4.97 11.1 11.1c0 2.52-0.84 4.843-2.254 6.706-1.795-3.012-5.085-5.030-8.846-5.030zM2.5 16c0 3.541 1.363 6.763 3.593 9.171l-0 0.001c2.459 2.654 5.972 4.319 9.873 4.328h0.034c7.456 0 13.5-6.044 13.5-13.5s-6.044-13.5-13.5-13.5c-7.456 0-13.5 6.044-13.5 13.5zM18.599 11.659c0 1.436-1.164 2.6-2.6 2.6s-2.6-1.164-2.6-2.6c0-1.436 1.164-2.6 2.6-2.6s2.6 1.164 2.6 2.6zM20.999 11.659c0 2.761-2.239 5-5 5s-5-2.239-5-5c0-2.761 2.239-5 5-5s5 2.239 5 5z"></path>
</svg>
