<!-- Generated by IcoMoon.io -->
<svg version="1.1" xmlns="http://www.w3.org/2000/svg" width="32" height="32" viewBox="0 0 32 32">
<title>menu-cloud-integration</title>
<path d="M7.31 12.872c0.258-4.739 4.183-8.502 8.986-8.502 4.104 0 7.567 2.747 8.649 6.503-0.691-0.16-1.41-0.244-2.15-0.244-4.381 0-8.070 2.966-9.168 7h2.094c1.030-2.913 3.808-5 7.073-5 0.875 0 1.714 0.15 2.495 0.425 0 0.001 0 0.001 0 0.002 2.916 1.028 5.005 3.807 5.005 7.075 0 3.976-3.095 7.23-7.007 7.483v0.015h-0.382c-0.037 0.001-0.074 0.001-0.111 0.001s-0.074-0-0.111-0.001h-13.376c-0.035 0-0.071 0.001-0.106 0.001-4.142 0-7.5-3.358-7.5-7.499 0-3.488 2.381-6.419 5.606-7.258z"></path>
</svg>
