<svg width="32" height="32" viewBox="0 0 32 32" xmlns="http://www.w3.org/2000/svg">
<path fill-rule="evenodd" clip-rule="evenodd" d="M13.9833 27.1323C13.8649 27.2089 13.7452 27.2836 13.6243 27.3565C8.73882 26.3397 4.98019 22.2498 4.46129 17.1997H9.44328C9.73325 21.0641 11.4126 24.5409 13.9833 27.1323ZM9.44333 14.7997C9.73348 10.9357 11.4128 7.45904 13.9834 4.86786C13.865 4.79122 13.7452 4.71642 13.6242 4.6435C8.73895 5.66029 4.98045 9.7499 4.46134 14.7997H9.44333ZM12.009 14.7997C12.3018 11.5391 13.7758 8.61877 16 6.46993C18.2241 8.61878 19.6981 11.5391 19.9908 14.7997H12.009ZM12.0089 17.1997H19.9909C19.6982 20.4607 18.2242 23.3812 15.9999 25.5302C13.7756 23.3812 12.3015 20.4607 12.0089 17.1997ZM22.5565 17.1997C22.2665 21.0641 20.5871 24.541 18.0164 27.1323C18.1348 27.2089 18.2545 27.2837 18.3754 27.3566C23.261 26.3399 27.0198 22.2499 27.5387 17.1997H22.5565ZM27.5387 14.7997C27.0195 9.7499 23.261 5.66027 18.3757 4.6435C18.2547 4.71643 18.135 4.79124 18.0165 4.86788C20.5871 7.45907 22.2664 10.9357 22.5565 14.7997H27.5387ZM16 30C23.732 30 30 23.732 30 16C30 8.26801 23.732 2 16 2C8.26801 2 2 8.26801 2 16C2 23.732 8.26801 30 16 30Z" fill="black"/>
</svg>
