<!-- Generated by IcoMoon.io -->
<svg version="1.1" xmlns="http://www.w3.org/2000/svg" width="32" height="32" viewBox="0 0 32 32">
<title>menu-user-management</title>
<path d="M15.209 16.654c4.142 0 7.5-3.358 7.5-7.5s-3.358-7.5-7.5-7.5c-4.142 0-7.5 3.358-7.5 7.5s3.358 7.5 7.5 7.5zM21.432 17.797c0 1.056-0.856 1.912-1.912 1.912-0.467 0-0.895-0.167-1.227-0.446-0.649 0.746-1.136 1.637-1.405 2.619 0.701 0.283 1.196 0.971 1.196 1.773s-0.494 1.49-1.195 1.773c0.269 0.98 0.755 1.87 1.403 2.616 0.332-0.278 0.759-0.445 1.226-0.445 1.056 0 1.912 0.856 1.912 1.912 0 0.185-0.026 0.365-0.076 0.534 0.628 0.195 1.296 0.3 1.988 0.3s1.359-0.105 1.986-0.3c-0.049-0.17-0.076-0.349-0.076-0.535 0-1.056 0.856-1.912 1.912-1.912 0.467 0 0.895 0.168 1.227 0.446 0.648-0.744 1.134-1.634 1.403-2.613-0.706-0.281-1.206-0.971-1.206-1.777s0.5-1.497 1.206-1.777c-0.269-0.979-0.755-1.869-1.403-2.614-0.332 0.278-0.759 0.445-1.226 0.445-1.056 0-1.912-0.856-1.912-1.912 0-0.185 0.026-0.365 0.076-0.534-0.628-0.195-1.296-0.3-1.988-0.3s-1.359 0.105-1.986 0.3c0.049 0.17 0.076 0.349 0.076 0.535zM23.343 26.050c1.32 0 2.39-1.070 2.39-2.39s-1.070-2.39-2.39-2.39c-1.32 0-2.39 1.070-2.39 2.39s1.070 2.39 2.39 2.39zM2.204 28.654h13v-10h-4.875c-1.34 0-4.222 1.436-5.745 2.676s-2.38 2.923-2.38 4.678v2.646z"></path>
</svg>
