<!-- Generated by IcoMoon.io -->
<svg version="1.1" xmlns="http://www.w3.org/2000/svg" width="32" height="32" viewBox="0 0 32 32">
<title>menu-zone</title>
<path d="M9.194 13.261v-7.841l6.866-3.921 6.866 3.921v7.841l-6.866 3.92-6.866-3.921zM13.788 10.683l2.35 1.342 2.35-1.342v-2.683l-2.35-1.342-2.35 1.342v2.683z"></path>
<path d="M23.634 30.5l-6.866-3.921v-7.841l6.866-3.921 6.866 3.921v7.841l-6.866 3.921zM21.285 24.001l2.35 1.342 2.35-1.342v-2.683l-2.35-1.342-2.35 1.342v2.683z"></path>
<path d="M8.366 30.5l-6.866-3.921v-7.841l6.866-3.921 6.905 3.921v7.841l-6.905 3.921zM6.036 24.001l2.35 1.342 2.35-1.342v-2.683l-2.35-1.342-2.35 1.342v2.683z"></path>
</svg>
