<svg width="32" height="32" viewBox="0 0 32 32" xmlns="http://www.w3.org/2000/svg">
<path fill-rule="evenodd" clip-rule="evenodd" d="M4.00293 2.00293C2.89836 2.00293 2.00293 2.89836 2.00293 4.00293V14.0029C2.00293 15.1075 2.89836 16.0029 4.00293 16.0029H6.21722V24.2888C6.21722 25.1172 6.88879 25.7888 7.71722 25.7888H16.0029V27.9969C16.0029 29.1015 16.8984 29.9969 18.0029 29.9969H27.9968C29.1014 29.9969 29.9968 29.1015 29.9968 27.9969V18.0031C29.9968 16.8985 29.1014 16.0031 27.9968 16.0031H25.7886V7.71734C25.7886 6.88891 25.1171 6.21734 24.2886 6.21734H16.0029V4.00293C16.0029 2.89836 15.1075 2.00293 14.0029 2.00293H4.00293ZM9.21722 22.7888V16.0029H11.8601V20.1459H16.0029V22.7888H9.21722ZM20.1458 16.0031H22.7886V9.21734H16.0029V11.8602H20.1458V16.0031Z" fill="black"/>
</svg>
