<!-- Generated by IcoMoon.io -->
<svg version="1.1" xmlns="http://www.w3.org/2000/svg" width="1024" height="1024" viewBox="0 0 1024 1024">
<title></title>
<g id="icomoon-ignore">
</g>
<path d="M268.886 767.556c-93.037-6.522-166.486-84.061-166.486-178.756 0-97.524 77.906-176.853 174.879-179.149 39.492-90.442 129.725-153.651 234.721-153.651 123.879 0 227.21 87.99 250.896 204.883 1.695-0.054 3.396-0.083 5.104-0.083 84.831 0 153.6 68.769 153.6 153.6s-68.769 153.6-153.6 153.6l-499.114-0.444zM231.52 416.837c14.217-3.264 25.993-6.884 34.599-6.884 41.429 10.135 74.54 44.578 80.836 89.39 1.060 7.548 1.31 15.022 0.813 22.334-18.816-54.299-73.952-89.505-133.006-81.205-31.255 4.394-58.097 20.198-76.903 42.613 15.7-21.934 41.662-49.939 93.661-66.246z"></path>
</svg>
