<!-- Generated by IcoMoon.io -->
<svg version="1.1" xmlns="http://www.w3.org/2000/svg" width="32" height="32" viewBox="0 0 32 32">
<title>menu-protocol-access</title>
<path d="M5.017 3.227h16.987c1.105 0 2 0.895 2 2v10.773c-6.403 0-11.593 5.109-11.593 11.412 0 0.46 0.028 0.915 0.082 1.361h-7.475c-1.105 0-2-0.895-2-2v-21.545c0-1.105 0.895-2 2-2zM13.452 13.131h-6.569v2h6.569v-2zM16.883 8.188h-10v2h10v-2z"></path>
<path d="M22.191 28.773l6.793-5.677-6.793-5.676v3.548c-3.752 0-6.793 3.177-6.793 7.096 0 0.194 0.007 0.385 0.022 0.575 1.024-2.029 3.064-3.413 5.413-3.413h1.358v3.548z"></path>
</svg>
