<!-- Generated by IcoMoon.io -->
<svg version="1.1" xmlns="http://www.w3.org/2000/svg" width="32" height="32" viewBox="0 0 32 32">
<title>menu-hardware</title>
<path d="M4 17h24c1.105 0 2 0.895 2 2v6c0 1.105-0.895 2-2 2h-24c-1.105 0-2-0.895-2-2v-6c0-1.105 0.895-2 2-2zM16 21h-10v2h10v-2zM19.199 22.001c0 0.663 0.537 1.2 1.2 1.2s1.2-0.537 1.2-1.2-0.537-1.2-1.2-1.2c-0.663 0-1.2 0.537-1.2 1.2zM24.8 20.801c-0.663 0-1.2 0.537-1.2 1.2s0.537 1.2 1.2 1.2c0.663 0 1.2-0.537 1.2-1.2s-0.537-1.2-1.2-1.2z"></path>
<path d="M4 5h24c1.105 0 2 0.895 2 2v6c0 1.105-0.895 2-2 2h-24c-1.105 0-2-0.895-2-2v-6c0-1.105 0.895-2 2-2zM16 9h-10v2h10v-2zM19.199 10.001c0 0.663 0.537 1.2 1.2 1.2s1.2-0.537 1.2-1.2-0.537-1.2-1.2-1.2c-0.663 0-1.2 0.537-1.2 1.2zM24.8 8.801c-0.663 0-1.2 0.537-1.2 1.2s0.537 1.2 1.2 1.2c0.663 0 1.2-0.537 1.2-1.2s-0.537-1.2-1.2-1.2z"></path>
</svg>
