<!-- Generated by IcoMoon.io -->
<svg version="1.1" xmlns="http://www.w3.org/2000/svg" width="32" height="32" viewBox="0 0 32 32">
<title>menu-user-management</title>
<path d="M21.432 17.797c0-0.186-0.026-0.365-0.076-0.535 0.628-0.195 1.295-0.3 1.986-0.3s1.36 0.105 1.988 0.3c-0.049 0.169-0.076 0.349-0.076 0.534 0 1.056 0.856 1.912 1.912 1.912 0.467 0 0.894-0.167 1.226-0.445 0.648 0.745 1.134 1.634 1.403 2.613-0.707 0.281-1.206 0.971-1.206 1.777s0.499 1.496 1.206 1.777c-0.269 0.979-0.755 1.868-1.403 2.613-0.332-0.278-0.76-0.446-1.227-0.446-1.056 0-1.912 0.856-1.912 1.912 0 0.186 0.026 0.365 0.076 0.535-0.628 0.195-1.295 0.3-1.986 0.3s-1.36-0.105-1.988-0.3c0.049-0.17 0.076-0.349 0.076-0.534 0-1.056-0.856-1.912-1.912-1.912-0.467 0-0.894 0.167-1.226 0.445-0.648-0.745-1.135-1.636-1.403-2.616 0.701-0.284 1.195-0.971 1.195-1.773s-0.495-1.49-1.196-1.773c0.269-0.981 0.756-1.873 1.405-2.619 0.332 0.278 0.76 0.446 1.227 0.446 1.056 0 1.912-0.856 1.912-1.912zM23.342 26.044c1.32 0 2.39-1.070 2.39-2.39s-1.070-2.39-2.39-2.39-2.39 1.070-2.39 2.39c0 1.32 1.070 2.39 2.39 2.39z"></path>
<path d="M2.204 28.654h13v-10h-4.875c-1.34 0-4.222 1.436-5.745 2.676s-2.38 2.923-2.38 4.678v2.646z"></path>
<path d="M22.709 9.154c0 4.142-3.358 7.5-7.5 7.5s-7.5-3.358-7.5-7.5c0-4.142 3.358-7.5 7.5-7.5s7.5 3.358 7.5 7.5z"></path>
</svg>
