<!-- Generated by IcoMoon.io -->
<svg version="1.1" xmlns="http://www.w3.org/2000/svg" width="32" height="32" viewBox="0 0 32 32">
<title>menu-resources</title>
<path d="M6 4c-1.105 0-2 0.895-2 2v10c0 1.105 0.895 2 2 2h7c1.105 0 2-0.895 2-2v-10c0-1.105-0.895-2-2-2h-7zM19 14c-1.105 0-2 0.895-2 2v10c0 1.105 0.895 2 2 2h7c1.105 0 2-0.895 2-2v-10c0-1.105-0.895-2-2-2h-7zM4 22c0-1.105 0.895-2 2-2h7c1.105 0 2 0.895 2 2v4c0 1.105-0.895 2-2 2h-7c-1.105 0-2-0.895-2-2v-4zM19 4c-1.105 0-2 0.895-2 2v4c0 1.105 0.895 2 2 2h7c1.105 0 2-0.895 2-2v-4c0-1.105-0.895-2-2-2h-7z"></path>
</svg>
