<svg width="32" height="32" viewBox="0 0 32 32" xmlns="http://www.w3.org/2000/svg">
<path fill-rule="evenodd" clip-rule="evenodd" d="M28.3114 27.7857C30.0061 25.3561 31 22.4013 31 19.2143C31 10.93 24.2843 4.21429 16 4.21429C7.71573 4.21429 1 10.93 1 19.2143C1 22.4013 1.99389 25.3561 3.68863 27.7857H28.3114ZM14.7145 6.35737H17.286V10.6431H14.7145V6.35737ZM26.7141 12.4613L24.8958 10.643L21.8653 13.6735L23.6836 15.4918L26.7141 12.4613ZM7.10343 10.643L5.28516 12.4613L8.31561 15.4918L10.1339 13.6735L7.10343 10.643ZM3.14259 21.7961V19.2247H7.4283V21.7961H3.14259ZM24.5714 19.2247V21.7961H28.8572V19.2247H24.5714ZM17.0957 23.4215C18.1082 22.837 18.4678 21.5642 17.8989 20.5789C17.7208 20.3957 17.4483 20.1109 17.1168 19.7645C15.5331 18.11 12.6041 15.0499 12.1998 14.9415C12.0523 15.4919 13.3737 19.856 13.9964 21.9127C14.0958 22.2407 14.1773 22.51 14.2323 22.6958C14.8012 23.6812 16.0832 24.0061 17.0957 23.4215Z" fill="black"/>
</svg>
