<!-- Generated by IcoMoon.io -->
<svg version="1.1" xmlns="http://www.w3.org/2000/svg" width="1024" height="1024" viewBox="0 0 1024 1024">
<title></title>
<g id="icomoon-ignore">
</g>
<path d="M512 103.467l350.17 149.527v222.515c0 67.643-15.25 132.911-45.756 195.812-30.506 61.711-71.902 114.519-124.194 158.43-54.159 45.095-114.234 75.356-180.22 90.787-65.986-15.427-126.061-45.687-180.22-90.787-52.292-43.911-93.689-96.719-124.194-158.43-30.506-62.896-45.756-128.169-45.756-195.812v-222.515l350.17-149.527zM512 512v340.443c48.774-14.604 93.219-38.789 133.331-72.562s73.002-73.928 98.676-120.482c25.669-46.549 41.717-95.681 48.133-147.404h-280.135zM512 512v-340.443l-280.135 119.668v220.78h280.135z"></path>
</svg>
