<!-- Generated by IcoMoon.io -->
<svg version="1.1" xmlns="http://www.w3.org/2000/svg" width="32" height="32" viewBox="0 0 32 32">
<title>menu-platform-setting</title>
<path d="M15.153 3.802l-12.306 5.754c-0.319 0.149-0.304 0.607 0.024 0.735l12.403 4.832c0.467 0.182 0.985 0.182 1.452 0l12.403-4.832c0.328-0.128 0.343-0.586 0.024-0.735l-12.306-5.754c-0.537-0.251-1.157-0.251-1.694 0zM6.667 14.406l-3.82 1.786c-0.319 0.149-0.304 0.607 0.024 0.735l12.403 4.832c0.467 0.182 0.985 0.182 1.452 0l12.403-4.832c0.328-0.128 0.343-0.586 0.024-0.735l-3.82-1.786-8.607 3.353c-0.467 0.182-0.985 0.182-1.452 0l-8.607-3.353zM6.667 20.896l-3.82 1.786c-0.319 0.149-0.304 0.607 0.024 0.735l12.403 4.832c0.467 0.182 0.985 0.182 1.452 0l12.403-4.832c0.328-0.128 0.343-0.586 0.024-0.735l-3.82-1.786-8.607 3.353c-0.467 0.182-0.985 0.182-1.452 0l-8.607-3.353z"></path>
</svg>
