<!-- Generated by IcoMoon.io -->
<svg version="1.1" xmlns="http://www.w3.org/2000/svg" width="32" height="32" viewBox="0 0 32 32">
<title>menu-cluster</title>
<path d="M4 25.649h24v2.667h-24v-2.667z"></path>
<path d="M5.333 14.651h21.333c1.473 0 2.667 1.194 2.667 2.667v3.968c0 1.473-1.194 2.667-2.667 2.667h-21.333c-1.473 0-2.667-1.194-2.667-2.667v-3.968c0-1.473 1.194-2.667 2.667-2.667zM21.338 21.002c0.931 0 1.685-0.754 1.685-1.685s-0.754-1.685-1.685-1.685c-0.931 0-1.685 0.754-1.685 1.685s0.754 1.685 1.685 1.685z"></path>
<path d="M5.333 3.684h21.333c1.473 0 2.667 1.194 2.667 2.667v3.968c0 1.473-1.194 2.667-2.667 2.667h-21.333c-1.473 0-2.667-1.194-2.667-2.667v-3.968c0-1.473 1.194-2.667 2.667-2.667zM21.338 10.020c0.931 0 1.685-0.754 1.685-1.685s-0.754-1.685-1.685-1.685c-0.931 0-1.685 0.754-1.685 1.685s0.754 1.685 1.685 1.685z"></path>
</svg>
