<svg width="16" height="16" viewBox="0 0 16 16" xmlns="http://www.w3.org/2000/svg">
<path fill-rule="evenodd" clip-rule="evenodd" d="M2.5 2C1.94772 2 1.5 2.44771 1.5 3V5.61538C1.5 6.16767 1.94772 6.61538 2.5 6.61538H13.5C14.0523 6.61538 14.5 6.16767 14.5 5.61539V3C14.5 2.44772 14.0523 2 13.5 2H2.5ZM6.91667 3.79487H3.66667V4.82051H6.91667V3.79487ZM12.3333 4.30769C12.3333 4.59092 12.0908 4.82051 11.7917 4.82051C11.4925 4.82051 11.25 4.59092 11.25 4.30769C11.25 4.02447 11.4925 3.79487 11.7917 3.79487C12.0908 3.79487 12.3333 4.02447 12.3333 4.30769ZM9.625 4.82051C9.92415 4.82051 10.1667 4.59092 10.1667 4.30769C10.1667 4.02447 9.92415 3.79487 9.625 3.79487C9.32585 3.79487 9.08333 4.02447 9.08333 4.30769C9.08333 4.59092 9.32585 4.82051 9.625 4.82051ZM8.64958 12.7692V11.7436L13.5 11.7436C14.0523 11.7436 14.5 11.2959 14.5 10.7436V8.12821C14.5 7.57592 14.0523 7.12821 13.5 7.12821H2.5C1.94772 7.12821 1.5 7.57592 1.5 8.1282V10.7436C1.5 11.2959 1.94772 11.7436 2.5 11.7436L7.34958 11.7436V12.7692L1.5 12.7692V14H14.5V12.7692L8.64958 12.7692ZM3.66667 8.92311H6.91667V9.94875H3.66667V8.92311ZM11.7917 9.94875C12.0908 9.94875 12.3333 9.71915 12.3333 9.43593C12.3333 9.15271 12.0908 8.92311 11.7917 8.92311C11.4925 8.92311 11.25 9.15271 11.25 9.43593C11.25 9.71915 11.4925 9.94875 11.7917 9.94875ZM10.1667 9.43593C10.1667 9.71915 9.92415 9.94875 9.625 9.94875C9.32585 9.94875 9.08333 9.71915 9.08333 9.43593C9.08333 9.15271 9.32585 8.92311 9.625 8.92311C9.92415 8.92311 10.1667 9.15271 10.1667 9.43593Z" fill="black"/>
</svg>
