<!-- Generated by IcoMoon.io -->
<svg version="1.1" xmlns="http://www.w3.org/2000/svg" width="32" height="32" viewBox="0 0 32 32">
<title>menu-password</title>
<path d="M8.027 11.504h-2.027c-1.105 0-2 0.895-2 2v14c0 1.105 0.895 2 2 2h20c1.105 0 2-0.895 2-2v-14c0-1.105-0.895-2-2-2h-2.027c-0.338-5.044-3.778-9.007-7.973-9.007s-7.635 3.964-7.973 9.007zM16 4.896c2.488 0 5.23 2.493 5.566 6.578h-11.131c0.336-4.085 3.077-6.578 5.566-6.578zM6.4 27.104v-13.2h19.2v13.2h-19.2zM17.239 19.303v4.801h-2.4v-4.801h-0.839v-2.4h4v2.4h-0.761z"></path>
</svg>
