<!-- Generated by IcoMoon.io -->
<svg version="1.1" xmlns="http://www.w3.org/2000/svg" width="32" height="32" viewBox="0 0 32 32">
<title>metadata-cluster</title>
<path d="M15.999 16.866l-6.662-3.841v-7.684l6.662-3.841 6.664 3.841v7.684l-6.664 3.841zM11.167 12.002l4.834 2.82 4.833-2.82v-5.638l-4.834-2.82-4.833 2.82v5.638zM23.836 30.5l-6.662-3.842v-7.682l6.663-3.842 6.664 3.842v7.682l-6.664 3.842zM19.003 25.636l4.817 2.819 4.85-2.819v-5.639l-4.815-2.819-4.817 2.819v5.639h-0.035zM8.162 30.5l-6.662-3.842v-7.682l6.662-3.842 6.701 3.842v7.682l-6.701 3.842zM3.348 25.636l4.816 2.819 4.85-2.819v-5.639l-4.815-2.819-4.851 2.819v5.639z"></path>
</svg>
