<?xml version="1.0" encoding="UTF-8"?>
<svg width="20px" height="21px" viewBox="0 0 20 21" version="1.1" xmlns="http://www.w3.org/2000/svg" xmlns:xlink="http://www.w3.org/1999/xlink">
    <title>监控角色</title>
    <defs>
        <path d="M19.0846621,12.1451629 L19.0846621,19.0622127 C19.0846621,19.5311063 18.6247511,20 18.1648401,20 L18.1648401,20 L1.83515993,20 C1.37524891,20 0.915337895,19.5311063 0.915337895,19.0622127 L0.915337895,19.0622127 L0.915337895,12.1451629 L19.0846621,12.1451629 Z M13.9092437,15.6618654 L3.90475952,15.6618654 L3.90475952,16.7171655 L13.9092437,16.7171655 L13.9092437,15.6618654 Z M15.979411,15.5443525 C15.6341939,15.5443525 15.4042384,15.7787993 15.4042384,16.130759 C15.4042384,16.4827187 15.6341939,16.7171655 15.979411,16.7171655 C16.3246282,16.7171655 16.5545837,16.4827187 16.5545837,16.130759 C16.5545837,15.7787993 16.3246282,15.5443525 15.979411,15.5443525 Z M19.0840943,7.22120067 L19.0840943,10.8554159 L10.8045604,10.8554159 L12.7594661,7.22120067 L19.0840943,7.22120067 Z M8.7349608,5.57949399 L10.2299555,10.8554159 L0.915337895,10.8554159 L0.915337895,8.97926244 L7.01001058,8.97926244 L8.7349608,5.57949399 Z M18.0495784,3 C18.5094894,3 18.9694005,3.46889366 18.9694005,3.93778731 L18.9694005,3.93778731 L18.9694005,6.04838765 L12.0695996,6.04838765 L12.0695996,6.04780876 L10.6898665,8.39285593 L9.19487182,3 Z M8.85022245,3 L6.32014406,7.8070283 L0.915337895,7.8070283 L0.915337895,3.93778731 C0.915337895,3.46889366 1.37524891,3 1.83515993,3 L1.83515993,3 L8.85022245,3 Z" id="path-1"></path>
    </defs>
    <g id="页面-1" stroke="none" stroke-width="1" fill="none" fill-rule="evenodd">
        <g id="画板" transform="translate(-602.000000, -229.000000)">
            <g id="编组" transform="translate(574.000000, 229.327640)">
                <g id="监控角色" transform="translate(28.000000, 0.000007)">
                    <rect id="Rectangle" fill="#000000" opacity="0" x="0" y="0" width="20" height="20"></rect>
                    <mask id="mask-2" fill="white">
                        <use xlink:href="#path-1"></use>
                    </mask>
                    <use id="Mask" fill="#000000" fill-rule="nonzero" xlink:href="#path-1"></use>
                </g>
            </g>
        </g>
    </g>
</svg>