<!-- Generated by IcoMoon.io -->
<svg version="1.1" xmlns="http://www.w3.org/2000/svg" width="32" height="32" viewBox="0 0 32 32">
<title>more-outline</title>
<path d="M25.283 29.246h-18.566c-2.185 0-3.962-1.778-3.962-3.963v-18.566c0-2.185 1.777-3.963 3.962-3.963h18.566c2.185 0 3.963 1.778 3.963 3.963v18.565c0 2.186-1.778 3.964-3.963 3.964zM6.717 5.142c-0.868 0-1.575 0.707-1.575 1.575v18.565c0 0.869 0.707 1.575 1.575 1.575h18.566c0.869 0 1.575-0.707 1.575-1.575v-18.565c0-0.869-0.707-1.575-1.575-1.575h-18.566z"></path>
<path d="M11.412 16c0 0.841-0.682 1.523-1.523 1.523s-1.523-0.682-1.523-1.523c0-0.841 0.682-1.523 1.523-1.523s1.523 0.682 1.523 1.523z"></path>
<path d="M17.523 16c0 0.841-0.682 1.523-1.523 1.523s-1.523-0.682-1.523-1.523c0-0.841 0.682-1.523 1.523-1.523s1.523 0.682 1.523 1.523z"></path>
<path d="M23.634 16c0 0.841-0.682 1.523-1.523 1.523s-1.523-0.682-1.523-1.523c0-0.841 0.682-1.523 1.523-1.523s1.523 0.682 1.523 1.523z"></path>
</svg>
