<!-- Generated by IcoMoon.io -->
<svg version="1.1" xmlns="http://www.w3.org/2000/svg" width="32" height="32" viewBox="0 0 32 32">
<title>move-vip</title>
<path d="M25.601 16.867l-3.896 3.507c-0.48 0.432-1.218 0.393-1.65-0.087s-0.393-1.218 0.087-1.65l1.633-1.47h-7.085c-0.645 0-1.168-0.523-1.168-1.168s0.523-1.168 1.168-1.168h7.085l-1.633-1.47c-0.48-0.432-0.518-1.171-0.087-1.65s1.171-0.518 1.65-0.087l3.897 3.507c0.246 0.221 0.387 0.537 0.387 0.868s-0.141 0.647-0.388 0.868zM8.174 8.204v15.587h7.574c0.624 0.029 1.115 0.544 1.115 1.168s-0.491 1.011-1.115 1.040h-8.568c-0.31 0-0.607-0.123-0.827-0.342s-0.342-0.388-0.342-0.698v-17.925c0-0.646 0.523-1.035 1.168-1.035h8.568c0.624 0.029 1.115 0.411 1.115 1.035s-0.491 1.14-1.115 1.168h-7.574z"></path>
</svg>
