<!-- Generated by IcoMoon.io -->
<svg version="1.1" xmlns="http://www.w3.org/2000/svg" width="32" height="32" viewBox="0 0 32 32">
<title>move-vip</title>
<path d="M13.138 20.291h1.434v4.28c0 0.789-0.64 1.428-1.428 1.428h-1.407v-1.428h1.402v-4.281zM13.138 11.714v-4.286h-1.402v-1.428h1.407c0.789 0 1.428 0.64 1.428 1.428v4.286h-1.434zM8.879 26h-1.45c-0.789 0-1.428-0.64-1.428-1.428v-2.907h1.428v2.908h1.45v1.428zM8.879 7.428h-1.45v2.857h-1.428v-2.857c0-0.789 0.64-1.428 1.428-1.428h1.45v1.428zM7.428 18.807h-1.428v-5.664h1.428v5.664z"></path>
<path d="M17.434 20.291h1.434v4.276h5.702v-17.14h-5.702v4.287h-1.434v-4.286c0-0.789 0.64-1.428 1.428-1.428h5.709c0.789 0 1.428 0.64 1.428 1.428v17.143c0 0.789-0.64 1.428-1.428 1.428h-5.709c-0.789 0-1.428-0.64-1.428-1.428v-4.28z"></path>
<path d="M22.724 16.685l-2.902 2.767c-0.357 0.341-0.907 0.31-1.229-0.068s-0.293-0.962 0.064-1.302l1.216-1.16h-9.71c-0.481 0-0.87-0.413-0.87-0.922s0.39-0.922 0.87-0.922h9.71l-1.216-1.16c-0.357-0.341-0.386-0.924-0.064-1.302s0.872-0.409 1.229-0.068l2.902 2.767c0.183 0.175 0.288 0.424 0.288 0.685s-0.105 0.511-0.289 0.685z"></path>
</svg>
