<!-- Generated by IcoMoon.io -->
<svg version="1.1" xmlns="http://www.w3.org/2000/svg" width="32" height="32" viewBox="0 0 32 32">
<title>nfs-gateway-role</title>
<path d="M14.726 25.075v4.935h17.194v-4.935h-17.194zM19.98 28.577h-1.91v-1.274h0.318v-0.478h1.114v0.478h0.318v1.274zM23.005 28.577h-1.91v-1.274h0.318v-0.478h1.114v0.478h0.318v1.274zM27.94 28.418c-0.478 0-0.796-0.318-0.796-0.796s0.318-0.796 0.796-0.796c0.478 0 0.796 0.318 0.796 0.796-0.159 0.478-0.478 0.796-0.796 0.796z"></path>
<path d="M14.726 6.607l1.433 1.114c0.955-0.637 2.229-1.114 3.503-1.114 1.433 0 2.547 0.478 3.503 1.114l1.433-1.114c-1.433-0.955-3.025-1.592-4.935-1.592-1.751 0-3.503 0.637-4.935 1.592z"></path>
<path d="M13.771 5.493c1.592-1.274 3.821-1.91 6.050-1.91s4.458 0.637 6.050 2.070c0.159 0 0.159 0 0.159 0l1.274-0.955c0 0-0.159-0.159-0.159-0.159-2.070-1.592-4.617-2.388-7.323-2.388-2.866 0-5.413 0.796-7.323 2.388-0.159 0-0.159 0.159-0.159 0.318l1.274 0.955c0-0.318 0-0.318 0.159-0.318z"></path>
<path d="M13.134 23.642h12.418v-11.303c0-1.114-0.796-1.91-1.91-1.91h-9.234l-2.866-2.866h-9.711c-1.114 0-1.91 0.796-1.91 1.91v18.786c0 1.114 0.796 1.91 1.91 1.91h11.303v-6.527z"></path>
</svg>
