<!-- Generated by IcoMoon.io -->
<svg version="1.1" xmlns="http://www.w3.org/2000/svg" width="32" height="32" viewBox="0 0 32 32">
<title>nfs-gateway</title>
<path d="M29.1 19.2c0.1-0.7 0.1-1.3 0.1-2 0-5.1-2.8-9.7-7.3-12.1l-0.9 1.6c3.8 2.1 6.3 6.1 6.3 10.4 0 0.4 0 0.9-0.1 1.3-0.1 0-0.2 0-0.4 0-2.2 0-3.9 1.7-3.9 3.9s1.7 3.9 3.9 3.9 3.9-1.7 3.9-3.9c0.2-1.2-0.5-2.4-1.6-3.1zM27 24.4c-1.1 0-2-0.9-2-2s0.9-2 2-2 2 0.9 2 2-1 2-2 2z"></path>
<path d="M10.1 14.1v0 6.6c0 1.6 2.8 2.4 5.6 2.4 2.7 0 5.6-0.8 5.6-2.4v-6.6c-0.2-1.6-3.6-2.1-5.6-2.1-2.1 0-5.5 0.5-5.6 2.1zM15.6 21.7c-2.6 0-4-0.7-4.1-0.9v-4.8c1.2 0.5 2.9 0.7 4.1 0.7s2.9-0.2 4.1-0.7v4.9c-0.1 0.2-1.6 0.8-4.1 0.8zM15.6 15.1c-2.3 0-3.7-0.5-4-0.8 0.3-0.3 1.7-0.8 4-0.8s3.7 0.5 4 0.8c-0.3 0.2-1.7 0.8-4 0.8z"></path>
<path d="M15.6 29c-2.6 0-5.2-0.9-7.3-2.5 0.3-0.5 0.5-1.2 0.5-2 0-2.2-1.7-3.9-3.9-3.9s-3.9 1.7-3.9 3.9 1.7 3.9 3.9 3.9c0.8 0 1.4-0.2 2.1-0.5 2.4 2 5.4 3 8.6 3 2.5 0 5-0.7 7.2-2.1l-1-1.6c-1.8 1.3-4 1.8-6.2 1.8zM2.9 24.6c0-1.1 0.9-2 2-2s2 0.9 2 2-0.9 2-2 2c-1-0.1-2-1-2-2z"></path>
<path d="M10.5 6.6c0.7 1.1 2 1.9 3.3 1.9 2.2 0 3.9-1.7 3.9-3.9s-1.7-3.9-3.9-3.9-3.9 1.7-3.9 3.9c0 0.1 0 0.2 0 0.3-4.8 2.1-7.9 7-7.9 12.4h2c-0.2-4.6 2.4-8.7 6.5-10.7zM13.8 2.5c1.1 0 2 0.9 2 2s-0.9 2-2 2-2-0.9-2-2 0.9-2 2-2z"></path>
</svg>
