<!-- Generated by IcoMoon.io -->
<svg version="1.1" xmlns="http://www.w3.org/2000/svg" width="34" height="32" viewBox="0 0 34 32">
<title>notice</title>
<path d="M16.938 32c-0.825 0-1.659-0.566-2.714-1.45l-7.19-5.899h-3.257c-2.083-0.001-3.778-1.674-3.778-3.731v-9.856c0-2.056 1.695-3.729 3.778-3.729h3.257l7.186-5.896c1.059-0.898 1.878-1.439 2.71-1.439 0.903 0 1.959 0.608 1.959 2.317v27.35c0 1.723-1.052 2.333-1.951 2.333v0zM3.778 9.82c-0.693 0-1.259 0.559-1.259 1.243v9.856c0 0.686 0.566 1.243 1.259 1.243h3.778c0.334 0 0.654 0.131 0.89 0.364l7.558 6.264c0.134 0.131 0.255 0.241 0.367 0.333v-26.263c-0.109 0.091-0.234 0.201-0.369 0.334l-7.555 6.26c-0.236 0.234-0.556 0.364-0.89 0.364h-3.778zM23.28 24.475c-0.254 0-0.511-0.076-0.733-0.234-0.565-0.4-0.693-1.177-0.289-1.736l0.499-0.674c1.303-1.744 2.429-3.252 2.429-5.84 0-2.682-0.997-3.984-2.261-5.631-0.223-0.29-0.446-0.583-0.667-0.885-0.406-0.557-0.277-1.334 0.289-1.736 0.566-0.403 1.352-0.273 1.758 0.285 0.206 0.285 0.419 0.562 0.628 0.836 1.362 1.778 2.77 3.616 2.77 7.131 0 3.404-1.549 5.482-2.918 7.316l-0.481 0.65c-0.245 0.338-0.631 0.517-1.024 0.517v0zM27.564 28.696c-0.295 0-0.591-0.102-0.829-0.308-0.522-0.452-0.576-1.238-0.118-1.754 2.527-2.846 4.864-6.102 4.864-10.642s-2.337-7.797-4.864-10.64c-0.458-0.517-0.406-1.302 0.118-1.755 0.52-0.453 1.316-0.402 1.776 0.114 2.714 3.057 5.489 6.905 5.489 12.281s-2.776 9.226-5.489 12.28c-0.251 0.28-0.599 0.423-0.947 0.423v0z"></path>
</svg>
