<!-- Generated by IcoMoon.io -->
<svg version="1.1" xmlns="http://www.w3.org/2000/svg" width="32" height="32" viewBox="0 0 32 32">
<title>object-storage</title>
<path d="M28.6 9l-0.5-0.5-11.4-6-0.3-0.1c-0.3-0.1-0.6-0.1-0.9 0l-11.6 6.1-0.5 0.6v0.2c0 0.1-0.1 0.2-0.1 0.3v12.7c0 0.6 0.3 1 0.8 1.3l11.2 5.9 0.3 0.1c0.1 0 0.2 0.1 0.4 0.1 0.1 0 0.3 0 0.4-0.1l11.5-6c0.5-0.2 0.8-0.7 0.8-1.3l-0.1-13.3zM16 4.4l9.6 5.1-9.6 5.3-9.7-5.3 9.7-5.1zM5.4 11.3l9.6 5.3v10.4l-9.6-5v-10.7zM17 27v-10.4l9.6-5.4v10.8l-9.6 5z"></path>
</svg>
