<?xml version="1.0" encoding="UTF-8"?>
<svg width="14px" height="14px" viewBox="0 0 14 14" version="1.1" xmlns="http://www.w3.org/2000/svg" xmlns:xlink="http://www.w3.org/1999/xlink">
    <!-- Generator: Sketch 56 (81588) - https://sketch.com -->
    <title>重命名</title>
    <desc>Created with Sketch.</desc>
    <g id="重命名" stroke="none" stroke-width="1" fill="none" fill-rule="evenodd">
        <path d="M13.3040795,2.23727778 L11.7258808,0.553097222 C11.5488874,0.3675 11.2391258,0.189972222 10.9887947,0.189972222 C10.7384636,0.189972222 10.4388079,0.416111111 10.2618146,0.601708333 L4.85429139,6.272 C4.82082119,6.30709722 4.79245033,6.34491667 4.76649007,6.38370833 C4.70038411,6.43251389 4.64864901,6.49541667 4.62472848,6.56959722 L3.58325828,10.1110139 C3.52670199,10.2863056 3.56610596,10.4740417 3.68598675,10.6011111 C3.77006833,10.6897992 3.88455578,10.7394243 4.00381457,10.7388795 C4.05425534,10.7390018 4.10438297,10.730564 4.15225166,10.7138889 L7.43325828,9.59048611 C7.47043717,9.57706323 7.50564003,9.55824619 7.53784106,9.53458333 C7.65193024,9.49317417 7.75560818,9.42523798 7.84111258,9.33586111 L13.2482649,3.66556944 C13.6134702,3.28251389 13.6692848,2.62033333 13.3040795,2.23727778 L13.3040795,2.23727778 Z M4.81266225,9.43016667 L5.26335099,7.79304167 C5.63634437,7.82152778 6.04512583,7.94636111 6.17316556,8.01120833 C6.2458543,8.148 6.34255629,8.55536111 6.38863576,8.97798611 L4.81266225,9.43016667 Z M7.2544106,8.67504167 L7.20777483,8.74504167 C7.19003262,8.6042214 7.1678927,8.4640489 7.14139073,8.32475 C7.01798675,7.65654167 6.96384106,7.48698611 6.84961589,7.37177778 C6.73984106,7.26104167 6.44296689,7.07301389 5.83447682,6.97540278 C5.72971521,6.95882918 5.62461137,6.94472839 5.51924503,6.93311111 C5.52415894,6.91881944 5.53092715,6.90530556 5.54103311,6.89470833 L9.59584106,2.64288889 L11.2978146,4.43576389 L7.2544106,8.67504167 L7.2544106,8.67504167 Z M12.5618013,3.11072222 L11.9147417,3.78923611 L10.2087815,2.00034722 L10.8558411,1.32183333 C10.8792053,1.29723611 10.906,1.29208333 10.9242649,1.29208333 L10.9250066,1.29208333 C10.9516159,1.29208333 10.9755364,1.30345833 10.9928742,1.32183333 L12.5618013,2.96702778 C12.5792318,2.9855 12.5901722,3.010875 12.5901722,3.03897222 C12.5900707,3.06586832 12.5798794,3.09164215 12.5618013,3.11072222 L12.5618013,3.11072222 Z" id="形状" fill="#3F3F44" fill-rule="nonzero"></path>
        <path d="M1.04462252,14 C0.468675497,14 1.42108547e-14,13.5030972 1.42108547e-14,12.9134444 L1.42108547e-14,1.06944444 C1.42108547e-14,0.479791667 0.468582781,-2.84217094e-14 1.04462252,-2.84217094e-14 L5.88389404,-2.84217094e-14 C6.19112529,-2.84217094e-14 6.44018543,0.181150655 6.44018543,0.503316759 C6.44018543,0.825482863 6.19112529,1.00663352 5.88389404,1.00663352 L1.00221252,1.00663352 L1.00221252,12.9975281 L12.9987488,12.9975281 L12.9987488,6.86427778 C12.9987488,6.54211167 13.1921431,6.28094444 13.4993744,6.28094444 C13.8066056,6.28094444 14,6.54211167 14,6.86427778 L14,12.9134444 C14,13.5030972 13.5175099,14 12.9415629,14 L1.04462252,14 Z" id="路径" fill="#3F3F44" fill-rule="nonzero"></path>
    </g>
</svg>