<!-- Generated by IcoMoon.io -->
<svg version="1.1" xmlns="http://www.w3.org/2000/svg" width="32" height="32" viewBox="0 0 32 32">
<title>object-storage-gateway</title>
<path d="M30.735 22.539v-9.762h-29.471v9.762h13.262v2.579h-6.447l-2.118 1.934h18.972l-2.118-1.934h-6.355v-2.579h14.275zM3.199 14.803h25.603v5.894h-25.603v-5.894z"></path>
<path d="M10.566 9.737l1.381 1.381c1.013-0.921 2.302-1.381 3.592-1.381 1.381 0 2.671 0.46 3.592 1.381l1.381-1.381c-1.381-1.289-3.131-1.934-4.973-1.934-1.842-0.092-3.684 0.645-4.973 1.934z"></path>
<path d="M9.461 8.264c1.658-1.658 3.776-2.579 6.171-2.579 2.21 0 4.513 0.921 6.171 2.671 0.092 0.092 0.092 0.092 0.184 0.092l1.289-1.289c0-0.092-0.092-0.184-0.184-0.276-2.026-2.026-4.697-3.131-7.46-3.131-2.855-0.092-5.434 1.105-7.552 3.039-0.092 0.092-0.184 0.184-0.184 0.368l1.289 1.289c0.092-0.092 0.184-0.092 0.276-0.184z"></path>
<path d="M5.501 16.737h1.75v1.75h-1.75v-1.75z"></path>
<path d="M8.54 16.737h1.75v1.75h-1.75v-1.75z"></path>
</svg>
