<!-- Generated by IcoMoon.io -->
<svg version="1.1" xmlns="http://www.w3.org/2000/svg" width="32" height="32" viewBox="0 0 32 32">
<title>object-storage-bucket</title>
<path d="M30.297 12.536l0.004-4.648-0.017-0.002c-0.022-3.32-8.555-4.527-14.294-4.527-5.685 0-14.102 1.189-14.274 4.443h-0.003v0.030c-0.001 0.024-0.012 0.045-0.012 0.068s0.011 0.044 0.012 0.067l-0.014 16.091c-0.008 3.331 8.535 4.564 14.28 4.583 0.043 0 0.086 0 0.131 0 5.741 0 14.163-1.189 14.177-4.498l0.008-7.871-1.871-0.002-0.007 7.869c-0.004 0.683-4.227 2.629-12.274 2.629-0.053 0-0.105 0-0.158 0-8.151-0.025-12.417-2.022-12.415-2.708l0.012-13.786c2.836 1.553 8.323 2.17 12.409 2.17 4.097 0 9.605-0.62 12.437-2.182l-0.002 2.272 1.87 0.001zM15.991 5.23c7.971 0 12.222 1.893 12.409 2.619-0.392 0.858-3.105 1.787-5.495 2.119-6.076 1.030-11.33 0.341-11.404 0.331-6.678-0.751-7.777-2.202-7.914-2.439 0.145-0.716 4.397-2.629 12.404-2.629z"></path>
</svg>
