<!-- Generated by IcoMoon.io -->
<svg version="1.1" xmlns="http://www.w3.org/2000/svg" width="32" height="32" viewBox="0 0 32 32">
<title>object-storage-num</title>
<path d="M13.871 27.28h-8.196c-0.707 0-1.283-0.576-1.283-1.283v-10.147c0-0.707 0.575-1.283 1.283-1.283h8.197c0.707 0 1.282 0.575 1.282 1.283v10.148c-0.001 0.707-0.576 1.282-1.283 1.282zM6.343 25.329h6.861v-8.811h-6.861v8.811z"></path>
<path d="M13.871 12.74h-8.196c-0.707 0-1.283-0.575-1.283-1.282v-5.456c0-0.707 0.575-1.283 1.283-1.283h8.197c0.707 0 1.282 0.575 1.282 1.283v5.455c-0.001 0.708-0.576 1.283-1.283 1.283zM6.343 10.79h6.861v-4.12h-6.861v4.12z"></path>
<path d="M18.129 4.72h8.197c0.707 0 1.283 0.576 1.283 1.283v10.147c0 0.707-0.575 1.283-1.283 1.283h-8.197c-0.707 0-1.282-0.575-1.282-1.283v-10.148c0-0.707 0.575-1.282 1.282-1.282zM25.657 6.671h-6.861v8.811h6.861v-8.811z"></path>
<path d="M18.129 19.26h8.197c0.707 0 1.283 0.575 1.283 1.282v5.455c0 0.707-0.575 1.283-1.283 1.283h-8.197c-0.707 0-1.282-0.575-1.282-1.283v-5.455c0-0.707 0.575-1.282 1.282-1.282zM25.657 21.21h-6.861v4.12h6.861v-4.12z"></path>
</svg>
