<!-- Generated by IcoMoon.io -->
<svg version="1.1" xmlns="http://www.w3.org/2000/svg" width="32" height="32" viewBox="0 0 32 32">
<title>objectStorage</title>
<path d="M4.99 22.135c-1.005-1.815-1.59-3.915-1.59-6.135 0-6.96 5.64-12.6 12.6-12.6 2.22 0 4.32 0.585 6.135 1.59l1.755-1.755c-2.295-1.41-4.995-2.235-7.89-2.235-8.28 0-15 6.72-15 15 0 2.895 0.825 5.595 2.235 7.89l1.755-1.755zM28.765 8.11l-1.755 1.755c1.020 1.815 1.59 3.9 1.59 6.135 0 6.96-5.64 12.6-12.6 12.6-2.22 0-4.32-0.585-6.135-1.59l-1.755 1.755c2.295 1.41 4.995 2.235 7.89 2.235 8.28 0 15-6.72 15-15 0-2.895-0.825-5.595-2.235-7.89z"></path>
<path d="M23.265 3.847l-5.303 5.303-1.697-1.697 5.303-5.303 1.697 1.697zM15.744 24.53l-5.303 5.303-1.697-1.697 5.303-5.303 1.697 1.697z"></path>
<path d="M12.745 16.345c0 1.393 0.743 2.681 1.95 3.378s2.693 0.697 3.9 0c1.207-0.697 1.95-1.984 1.95-3.378s-0.743-2.681-1.95-3.377c-1.207-0.697-2.693-0.697-3.9 0s-1.95 1.984-1.95 3.377z"></path>
</svg>
