<!-- Generated by IcoMoon.io -->
<svg version="1.1" xmlns="http://www.w3.org/2000/svg" width="32" height="32" viewBox="0 0 32 32">
<title>object-storage-user</title>
<path d="M11.769 22.55l3.49 4.821h-6.692c-5.184 0-6.332-0.334-6.35-3.852 0.666-3.725 3.397-5.577 5.848-7.195 1.425 1.322 3.326 2.137 5.418 2.137 4.399 0 7.979-3.58 7.979-7.982s-3.579-7.983-7.979-7.983c-4.401 0-7.983 3.582-7.983 7.983 0 1.538 0.445 2.971 1.201 4.19-2.665 1.763-5.831 4-6.604 8.582l-0.015 0.178c0 6.077 3.932 6.077 8.484 6.077h10.869l-5.937-8.206-1.729 1.25zM13.483 4.629c3.223 0 5.845 2.624 5.845 5.849 0 3.226-2.622 5.849-5.845 5.849-3.225 0-5.849-2.623-5.849-5.849 0.001-3.225 2.624-5.849 5.849-5.849z"></path>
<path d="M30.725 20.343h-0.797c-0.051-0.131-0.107-0.276-0.171-0.423l0.542-0.525c0.229-0.223 0.355-0.519 0.356-0.833 0.001-0.317-0.124-0.617-0.354-0.847l-0.93-0.922c-0.45-0.451-1.224-0.462-1.696 0.012l-0.502 0.533c-0.143-0.062-0.288-0.119-0.419-0.169v-0.794c0-0.636-0.601-1.192-1.284-1.192h-1.315c-0.684 0-1.284 0.556-1.284 1.192v0.794c-0.134 0.050-0.28 0.108-0.424 0.171l-0.529-0.544c-0.452-0.45-1.226-0.449-1.674 0.001l-0.916 0.925c-0.227 0.219-0.354 0.515-0.357 0.833-0.003 0.321 0.124 0.634 0.361 0.871l0.533 0.501c-0.060 0.137-0.114 0.276-0.164 0.404-0.001 0.004-0.003 0.008-0.004 0.012h-0.795c-0.706 0-1.196 0.678-1.196 1.288v1.315c0 0.684 0.559 1.283 1.196 1.283h0.794c0.001 0.003 0.002 0.007 0.004 0.009 0.050 0.131 0.105 0.273 0.167 0.415l-0.545 0.527c-0.464 0.465-0.466 1.2 0.001 1.682l0.936 0.925c0.453 0.448 1.231 0.45 1.693-0.021l0.5-0.529c0.142 0.062 0.287 0.119 0.419 0.169v0.794c0 0.634 0.601 1.189 1.284 1.189h1.315c0.684 0 1.284-0.556 1.284-1.189v-0.796c0.133-0.053 0.28-0.11 0.424-0.173l0.534 0.548c0.448 0.443 1.219 0.443 1.67-0.004l0.922-0.93c0.228-0.226 0.353-0.525 0.352-0.847-0.001-0.32-0.127-0.619-0.361-0.848l-0.533-0.505c0.061-0.142 0.117-0.285 0.167-0.417h0.796c0.635 0 1.192-0.6 1.192-1.283v-1.315c0-0.609-0.49-1.287-1.192-1.287zM29.555 18.63l-1.119 1.082 0.208 0.362c0.121 0.211 0.222 0.478 0.305 0.694 0.049 0.129 0.094 0.243 0.133 0.329l0.142 0.312 1.498-0.002c0.042 0.011 0.129 0.123 0.129 0.223v1.315c0 0.1-0.086 0.208-0.125 0.217h-1.502l-0.142 0.312c-0.040 0.088-0.087 0.208-0.139 0.346-0.082 0.215-0.18 0.478-0.295 0.684l-0.205 0.362 1.118 1.060-0.010 0.164-0.925 0.932-0.157 0.004-1.081-1.112-0.358 0.204c-0.202 0.114-0.458 0.213-0.671 0.296-0.145 0.057-0.272 0.106-0.365 0.15l-0.306 0.146v1.486c-0.009 0.041-0.115 0.127-0.217 0.127h-1.315c-0.102 0-0.208-0.086-0.217-0.123v-1.492l-0.308-0.144c-0.093-0.044-0.221-0.094-0.366-0.15-0.211-0.081-0.466-0.177-0.667-0.292l-0.364-0.206-1.057 1.117-0.168-0.004-0.928-0.92c-0.054-0.054-0.054-0.125-0.010-0.171l1.111-1.077-0.204-0.358c-0.11-0.196-0.203-0.441-0.283-0.648-0.061-0.156-0.114-0.296-0.162-0.392l-0.146-0.3h-1.483c-0.042-0.009-0.131-0.115-0.131-0.217v-1.315c0-0.102 0.090-0.212 0.13-0.221h1.484l0.146-0.3c0.048-0.099 0.103-0.238 0.163-0.392 0.080-0.209 0.173-0.453 0.284-0.65l0.204-0.365-1.121-1.055 0.014-0.166 0.924-0.932 0.158-0.005 1.079 1.111 0.359-0.204c0.202-0.115 0.458-0.213 0.671-0.294 0.144-0.057 0.271-0.106 0.362-0.15l0.308-0.144v-1.488c0.008-0.040 0.115-0.127 0.217-0.127h1.315c0.102 0 0.209 0.087 0.217 0.125v1.49l0.306 0.144c0.093 0.044 0.223 0.096 0.369 0.152 0.211 0.081 0.466 0.177 0.667 0.292l0.364 0.208 1.060-1.125zM28.618 17.549l0.932 0.923z"></path>
<path d="M24.814 19.499c-1.536 0-2.785 1.251-2.785 2.789 0 1.535 1.249 2.786 2.785 2.786 1.535 0 2.783-1.251 2.783-2.786 0.001-1.538-1.247-2.789-2.783-2.789zM24.814 24.007c-0.947 0-1.718-0.771-1.718-1.719 0-0.951 0.771-1.722 1.718-1.722s1.716 0.771 1.716 1.722c0 0.948-0.769 1.719-1.716 1.719z"></path>
</svg>
