<?xml version="1.0" encoding="UTF-8"?>
<svg width="32px" height="33px" viewBox="0 0 32 33" version="1.1" xmlns="http://www.w3.org/2000/svg" xmlns:xlink="http://www.w3.org/1999/xlink">
    <title>对象存储服务角色</title>
    <defs>
        <path d="M32,24.9450321 L32,29.6353012 L15.5843145,29.6353012 L15.5843145,24.9450321 L32,24.9450321 Z M3.99507558,20.9670995 L13.2666661,24.973913 C13.5681827,25.1097379 13.9701989,25.1776493 14.4727266,25.1776493 L14.4727266,28.8449023 C13.9701989,28.8449023 13.5681827,28.7769909 13.2666661,28.641166 L0.527651492,23.0723744 C0.175882072,22.9365495 1.42108547e-14,22.766771 1.42108547e-14,22.5630337 C1.42108547e-14,22.3592964 0.175882072,22.1895179 0.527651492,22.053693 C1.8844764,21.4198437 2.71363474,21.0350123 3.01515138,20.8991874 C3.26641526,20.7633626 3.59305339,20.7859997 3.99507558,20.9670995 Z M28.4419002,26.5619771 C28.0376639,26.5619771 27.7139671,26.8856739 27.7139671,27.2899102 C27.7139671,27.6941464 28.0376639,28.0178432 28.4419002,28.0178432 C28.8461364,28.0178432 29.1698332,27.6941464 29.1698332,27.2899102 C29.1698332,26.8856739 28.8461364,26.5619771 28.4419002,26.5619771 Z M26.8244422,26.9672393 L17.6060088,26.9672393 L17.6060088,27.7757118 L26.8244422,27.7757118 L26.8244422,26.9672393 Z M32,19.1237643 L32,23.8140334 L15.5843145,23.8140334 L15.5843145,19.1237643 L32,19.1237643 Z M3.99507558,14.6309931 L13.2666661,18.6812605 C13.5681827,18.8162701 13.9701989,18.8837739 14.4727266,18.8837739 L14.4727266,22.5290145 C14.0707045,22.5290145 13.6686883,22.4390095 13.2666661,22.2589967 L0.527651492,16.7911357 C0.175882072,16.6561261 1.42108547e-14,16.4761161 1.42108547e-14,16.2511001 C1.42108547e-14,16.0260841 0.175882072,15.846074 0.527651492,15.7110644 C1.8844764,15.1260229 2.71363474,14.7660027 3.01515138,14.6309931 C3.31666803,14.4509804 3.64330616,14.4509804 3.99507558,14.6309931 Z M28.4419002,20.7407093 C28.0376639,20.7407093 27.7139671,21.0644061 27.7139671,21.4686424 C27.7139671,21.8728786 28.0376639,22.1965754 28.4419002,22.1965754 C28.8461364,22.1965754 29.1698332,21.8728786 29.1698332,21.4686424 C29.1698332,21.0644061 28.8461364,20.7407093 28.4419002,20.7407093 Z M26.8244422,21.0649191 L17.6060088,21.0649191 L17.6060088,21.8733916 L26.8244422,21.8733916 L26.8244422,21.0649191 Z M25.7795443,14.5634887 L28.4178018,15.7110644 C28.7695712,15.846074 28.9454533,16.0260841 28.9454533,16.2511001 C28.9454533,16.4761161 28.7695712,16.6561261 28.4178018,16.7911357 L25.624,17.9896988 L17.2622288,17.9897969 C22.3054284,15.787416 24.9183736,14.6453236 25.1011353,14.5634887 C25.3523991,14.4734823 25.5785332,14.4734823 25.7795443,14.5634887 Z M14.4727266,2.36469878 C14.9752544,2.36469878 15.3772706,2.4395544 15.6787872,2.58926788 L28.4178018,8.72749001 C28.7695712,8.87720349 28.9454533,9.06434254 28.9454533,9.28891276 C28.9454533,9.51348299 28.7695712,9.70062203 28.4178018,9.85033552 L15.6787872,15.9885576 C15.3772706,16.1382711 14.9752544,16.2131267 14.4727266,16.2131267 C13.9701989,16.2131267 13.5681827,16.1382711 13.2666661,15.9885576 L0.527651492,9.85033552 C0.175882072,9.70062203 1.42108547e-14,9.51348299 1.42108547e-14,9.28891276 C1.42108547e-14,9.06434254 0.175882072,8.87720349 0.527651492,8.72749001 L13.2666661,2.58926788 C13.5681827,2.4395544 13.9701989,2.36469878 14.4727266,2.36469878 Z" id="path-1"></path>
    </defs>
    <g id="页面-1" stroke="none" stroke-width="1" fill="none" fill-rule="evenodd">
        <g id="画板" transform="translate(-146.000000, -105.000000)">
            <g id="对象存储服务角色" transform="translate(146.000000, 105.500000)">
                <rect id="矩形" fill="#D8D8D8" opacity="0" x="0" y="0" width="32" height="32"></rect>
                <mask id="mask-2" fill="white">
                    <use xlink:href="#path-1"></use>
                </mask>
                <use id="形状结合" fill="#000000" xlink:href="#path-1"></use>
            </g>
        </g>
    </g>
</svg>