<?xml version="1.0" encoding="UTF-8"?>
<svg width="20px" height="21px" viewBox="0 0 20 21" version="1.1" xmlns="http://www.w3.org/2000/svg" xmlns:xlink="http://www.w3.org/1999/xlink">
    <title>对象查询角色</title>
    <defs>
        <path d="M15.6099986,11.2199972 C18.0206753,11.2199972 20,13.1709512 20,15.5916837 C20.001302,16.7612416 19.5392046,17.8832741 18.7156372,18.7102769 C17.8920697,19.5372798 16.7746982,20.0013047 15.6099986,19.9999972 C13.1635511,19.9999972 11.22,18.0490405 11.22,15.6283081 C11.22,13.2075756 13.1628497,11.2199972 15.6099986,11.2199972 Z M2.62239583,13.6857911 L8.70833333,16.8869367 C8.90625099,16.9954507 9.17013724,17.0497068 9.5,17.0497068 C9.71139092,17.0497068 9.89568646,17.0274248 10.0528887,16.9828603 C10.2613961,17.8566734 10.6727379,18.6514416 11.2350167,19.3151287 L10.2916667,19.8167988 C10.093749,19.9253128 9.82986276,19.979569 9.5,19.979569 C9.17013724,19.979569 8.90625099,19.9253128 8.70833333,19.8167988 L0.346354167,15.367749 C0.115450234,15.259235 0,15.1235946 0,14.9608237 C0,14.7980527 0.115450234,14.6624123 0.346354167,14.5538984 C1.23698362,14.0474999 1.78124901,13.7400483 1.97916667,13.6315344 C2.14409805,13.5230204 2.35850562,13.5411058 2.62239583,13.6857911 Z M15.0103522,13.2259287 C14.0110333,13.2259287 13.211691,14.0260346 13.211691,15.0263294 C13.2096251,15.5044615 13.3984557,15.9636128 13.7362195,16.3017065 C14.0739833,16.6398001 14.5326866,16.8288151 15.0103522,16.8267301 C15.3434585,16.8267301 15.643449,16.7266357 15.9096743,16.5602448 L17.2420996,17.8608231 C17.3420964,17.9277694 17.4420932,17.9940658 17.5752059,17.9940658 C17.8125153,17.9895663 18.003814,17.7980808 18.008309,17.5605397 C18.0055891,17.4369585 17.9583106,17.3185315 17.8751964,17.2271081 L16.5427711,15.9265298 C16.7089996,15.6600445 16.8089965,15.359761 16.8089965,15.0263294 C16.8089965,14.0260346 16.0096712,13.2259287 15.0103522,13.2259287 Z M15.0103522,14.0923309 C15.5103364,14.0923309 15.9096743,14.4927089 15.9096743,14.9925313 C15.9096743,15.4923537 15.509687,15.8927317 15.0103522,15.8927317 C14.5103681,15.8927317 14.1110301,15.4923537 14.1110301,14.9925313 C14.1110301,14.4927089 14.5110174,14.0923309 15.0103522,14.0923309 Z M2.62239583,9.3644676 L8.70833333,12.6003297 C8.90625099,12.7081923 9.17013724,12.7621228 9.5,12.7621228 C9.82986276,12.7621228 10.093749,12.7081923 10.2916667,12.6003297 C10.5391583,12.468794 10.7792304,12.3411982 11.0118829,12.2175423 C10.3062301,13.174423 9.89185723,14.3579436 9.89185723,15.6338478 L9.8918249,15.6215546 C9.76121693,15.6567841 9.63060895,15.6743986 9.5,15.6743986 C9.23610979,15.6743986 8.97222354,15.6024913 8.70833333,15.4586745 L0.346354167,11.0902607 C0.115450234,10.9823981 0,10.8385834 0,10.6588124 C0,10.4790414 0.115450234,10.3352268 0.346354167,10.2273642 C1.23698362,9.75995951 1.78124901,9.47233021 1.97916667,9.3644676 C2.17708432,9.22065079 2.3914919,9.22065079 2.62239583,9.3644676 Z M9.5,1.92956709 C9.82986276,1.92956709 10.093749,1.98059177 10.2916667,2.08264267 L18.6536458,6.26670874 C18.8845498,6.36875964 19,6.49632135 19,6.6493977 C19,6.80247406 18.8845498,6.93003577 18.6536458,7.03208667 L10.2916667,11.2161527 C10.093749,11.3182036 9.82986276,11.3692283 9.5,11.3692283 C9.17013724,11.3692283 8.90625099,11.3182036 8.70833333,11.2161527 L0.346354167,7.03208667 C0.115450234,6.93003577 0,6.80247406 0,6.6493977 C0,6.49632135 0.115450234,6.36875964 0.346354167,6.26670874 L8.70833333,2.08264267 C8.90625099,1.98059177 9.17013724,1.92956709 9.5,1.92956709 Z M16.921875,9.31053656 L18.6536458,10.2273642 C18.8845498,10.3352268 19,10.4790414 19,10.6588124 C19,10.7590534 18.964104,10.8481148 18.8923114,10.9259973 C17.96077,10.2739827 16.827628,9.89185447 15.6099982,9.89185447 C15.5318084,9.89185447 15.4540138,9.89341228 15.3766421,9.89649801 C16.0570446,9.53479176 16.4234049,9.33950675 16.4765625,9.31053656 C16.6414939,9.23862816 16.7899299,9.23862816 16.921875,9.31053656 Z" id="path-1"></path>
    </defs>
    <g id="页面-1" stroke="none" stroke-width="1" fill="none" fill-rule="evenodd">
        <g id="画板" transform="translate(-742.000000, -229.000000)">
            <g id="编组" transform="translate(574.000000, 229.327640)">
                <g id="对象查询角色" transform="translate(167.999986, 0.000000)">
                    <rect id="矩形" fill="#D8D8D8" opacity="0" x="1.37201016e-06" y="0" width="20" height="20"></rect>
                    <mask id="mask-2" fill="white">
                        <use xlink:href="#path-1"></use>
                    </mask>
                    <use id="形状结合" fill="#000000" xlink:href="#path-1"></use>
                </g>
            </g>
        </g>
    </g>
</svg>