<?xml version="1.0" encoding="UTF-8"?>
<svg width="20px" height="21px" viewBox="0 0 20 21" version="1.1" xmlns="http://www.w3.org/2000/svg" xmlns:xlink="http://www.w3.org/1999/xlink">
    <title>对象存储服务角色</title>
    <defs>
        <path d="M2.62237362,13.7055567 L8.70825958,16.9070408 C8.90617556,17.0155662 9.17005957,17.0698281 9.49991954,17.0698281 C9.68864955,17.0698281 9.85578181,17.0520651 10.0013178,17.0165387 L10.0013178,19.9467105 C9.85578181,19.9822369 9.68864955,20 9.49991954,20 C9.17005957,20 8.90617556,19.9457381 8.70825958,19.8372127 L0.346351233,15.3876924 C0.115449257,15.279167 0,15.1435122 0,14.9807241 C0,14.817936 0.115449257,14.6822812 0.346351233,14.5737558 C1.23697314,14.0673038 1.78123392,13.7598197 1.9791499,13.6512943 C2.14407989,13.5427688 2.35848565,13.5608561 2.62237362,13.7055567 Z M20,17.1064725 L20,20 L11.3484036,20 L11.3484036,17.1064725 L20,17.1064725 Z M18.3352827,18.1635007 C18.1337545,18.1635007 17.9723786,18.3248766 17.9723786,18.5264048 C17.9723786,18.7279329 18.1337545,18.8893088 18.3352827,18.8893088 C18.5368108,18.8893088 18.6981867,18.7279329 18.6981867,18.5264048 C18.6981867,18.3248766 18.5368108,18.1635007 18.3352827,18.1635007 Z M16.9977331,18.327184 L12.6502169,18.327184 L12.6502169,18.825948 L16.9977331,18.825948 L16.9977331,18.327184 Z M20,13.5152078 L20,16.4087353 L11.3484036,16.4087353 L11.3484036,13.5152078 L20,13.5152078 Z M2.62237362,9.38377634 L8.70825958,12.6199805 C8.90617556,12.7278545 9.17005957,12.7817907 9.49991954,12.7817907 C9.68864955,12.7817907 9.85578181,12.7641343 10.0013178,12.7288211 L10.000806,15.6080081 C9.83384412,15.6655859 9.66688262,15.6943745 9.49991954,15.6943745 C9.23603157,15.6943745 8.97214755,15.6224596 8.70825958,15.4786276 L0.346351233,11.1097519 C0.115449257,11.0018779 0,10.858048 0,10.678258 C0,10.498468 0.115449257,10.3546381 0.346351233,10.2467641 C1.23697314,9.77931007 1.78123392,9.49165036 1.9791499,9.38377634 C2.17706588,9.23994433 2.39147165,9.23994433 2.62237362,9.38377634 Z M18.3352827,14.572236 C18.1337545,14.572236 17.9723786,14.7336119 17.9723786,14.93514 C17.9723786,15.1366682 18.1337545,15.2980441 18.3352827,15.2980441 C18.5368108,15.2980441 18.6981867,15.1366682 18.6981867,14.93514 C18.6981867,14.7336119 18.5368108,14.572236 18.3352827,14.572236 Z M16.9977331,14.6859163 L12.6502169,14.6859163 L12.6502169,15.1846803 L16.9977331,15.1846803 L16.9977331,14.6859163 Z M16.9217317,9.32983961 L18.6534878,10.2467641 C18.8843898,10.3546381 18.9998391,10.498468 18.9998391,10.678258 C18.9998391,10.858048 18.8843898,11.0018779 18.6534878,11.1097519 L16.49,12.2390898 L11.0075339,12.2394149 C14.5296646,10.3671729 16.3526106,9.39732349 16.476423,9.32983961 C16.6413529,9.2579236 16.7897877,9.2579236 16.9217317,9.32983961 Z M9.49991954,1.94808977 C9.82977951,1.94808977 10.0936635,1.99911985 10.2915795,2.10118154 L18.6534878,6.28568997 C18.8843898,6.38775166 18.9998391,6.51532686 18.9998391,6.6684194 C18.9998391,6.82151193 18.8843898,6.94908713 18.6534878,7.05114883 L10.2915795,11.2356573 C10.0936635,11.3377189 9.82977951,11.388749 9.49991954,11.388749 C9.17005957,11.388749 8.90617556,11.3377189 8.70825958,11.2356573 L0.346351233,7.05114883 C0.115449257,6.94908713 0,6.82151193 0,6.6684194 C0,6.51532686 0.115449257,6.38775166 0.346351233,6.28568997 L8.70825958,2.10118154 C8.90617556,1.99911985 9.17005957,1.94808977 9.49991954,1.94808977 Z" id="path-1"></path>
    </defs>
    <g id="页面-1" stroke="none" stroke-width="1" fill="none" fill-rule="evenodd">
        <g id="画板" transform="translate(-770.000000, -229.000000)">
            <g id="编组" transform="translate(574.000000, 229.327640)">
                <g id="对象存储服务角色" transform="translate(195.999988, 0.000000)">
                    <rect id="矩形" fill="#D8D8D8" opacity="0" x="0" y="0" width="20" height="20"></rect>
                    <mask id="mask-2" fill="white">
                        <use xlink:href="#path-1"></use>
                    </mask>
                    <use id="形状结合" fill="#000000" xlink:href="#path-1"></use>
                </g>
            </g>
        </g>
    </g>
</svg>