<!-- Generated by IcoMoon.io -->
<svg version="1.1" xmlns="http://www.w3.org/2000/svg" width="32" height="32" viewBox="0 0 32 32">
<title>os-search</title>
<path d="M11.9 16c0-0.9 0.3-1.8 1-2.5l-1.5-1.4c-1 1.1-1.5 2.4-1.5 3.9h2z"></path>
<path d="M28.7 22.9l-5-2.9c0.6-1.2 0.9-2.6 0.9-4 0-1.3-0.3-2.5-0.7-3.6l2.3-1.3 2-1.1v-1.1l-0.5-0.5-11.7-6.3c-0.3-0.1-0.6-0.1-0.9 0l-11.5 6.1-0.7 0.7v0.2c0 0.1-0.1 0.2-0.1 0.3v13c0 0.6 0.3 1.1 0.8 1.3l11.2 6 0.3 0.1c0.1 0 0.2 0.1 0.4 0.1 0.1 0 0.3 0 0.4-0.1l0.7-0.4v-4.6c1.1-0.1 2.2-0.5 3.2-1 0.5-0.3 0.7-0.9 0.4-1.4s-0.9-0.7-1.4-0.4c-1 0.5-2.1 0.8-3.3 0.8-3.9 0-7-3.1-7-7s3.1-7 7-7c3.9 0 7 3.1 7 7 0 1.3-0.4 2.6-1 3.7l-0.7 1 6.8 4c0.5 0.3 1.1 0.1 1.4-0.4 0.3-0.3 0.1-0.9-0.3-1.2zM14.5 25v2.3l-9.6-5.2v-10.9l2.3 1.3c-0.5 1.1-0.7 2.3-0.7 3.5 0 4.6 3.5 8.5 8 9zM15.5 6.9c-3 0-5.7 1.5-7.3 3.8l-2.4-1.3 9.7-5.2 9.6 5.2-2.3 1.3c-1.6-2.3-4.3-3.8-7.3-3.8z"></path>
</svg>
