<?xml version="1.0" encoding="UTF-8"?>
<svg width="20px" height="21px" viewBox="0 0 20 21" version="1.1" xmlns="http://www.w3.org/2000/svg" xmlns:xlink="http://www.w3.org/1999/xlink">
    <title>对象存储服务角色</title>
    <defs>
        <path d="M18.8801632,14.5473 L18.8801632,17.1223051 L9.86778611,17.1223051 L9.86778611,14.5473 L18.8801632,14.5473 Z M3.35548218,12.771676 L8.44567898,14.8878655 C8.61121467,14.9596011 8.8319256,14.9954683 9.1078184,14.9954683 L9.25714535,14.99086 L9.25809079,16.9284891 C9.20996443,16.9310429 9.15987365,16.9323197 9.1078184,16.9323197 C8.8319256,16.9323197 8.61121467,16.8964525 8.44567898,16.8247169 L1.45183135,13.8835722 C1.25870638,13.8118366 1.16214535,13.7221684 1.16214535,13.614565 C1.16214535,13.5069616 1.25870638,13.4172935 1.45183135,13.3455579 C2.19674192,13.0107918 2.65195822,12.807544 2.8174939,12.7358084 C2.95544031,12.6640728 3.13476794,12.6760285 3.35548218,12.771676 Z M16.9267305,15.4350191 C16.7048007,15.4350191 16.5270879,15.6127319 16.5270879,15.8346617 C16.5270879,16.0565915 16.7048007,16.2343043 16.9267305,16.2343043 C17.1486602,16.2343043 17.3263731,16.0565915 17.3263731,15.8346617 C17.3263731,15.6127319 17.1486602,15.4350191 16.9267305,15.4350191 Z M16.0387297,15.6575122 L10.9777167,15.6575122 L10.9777167,16.1013717 L16.0387297,16.1013717 L16.0387297,15.6575122 Z M18.8801632,11.3513652 L18.8801632,13.9263703 L9.86778611,13.9263703 L9.86778611,11.3513652 L18.8801632,11.3513652 Z M3.35548218,9.42527567 L8.44567898,11.5644153 C8.61121467,11.6357203 8.8319256,11.6713722 9.1078184,11.6713722 L9.25714535,11.66686 L9.25739841,13.5893202 C9.20753853,13.594172 9.15767855,13.5965979 9.1078184,13.5965979 C8.88710416,13.5965979 8.66639323,13.5490619 8.44567898,13.4539885 L1.45183135,10.5661501 C1.25870638,10.4948451 1.16214535,10.3997732 1.16214535,10.2809315 C1.16214535,10.1620898 1.25870638,10.0670179 1.45183135,9.99571289 C2.19674192,9.68672452 2.65195822,9.49658068 2.8174939,9.42527567 C2.98302959,9.33020232 3.16235722,9.33020232 3.35548218,9.42527567 Z M16.9267305,12.2390843 C16.7048007,12.2390843 16.5270879,12.4167971 16.5270879,12.6387269 C16.5270879,12.8606567 16.7048007,13.0383695 16.9267305,13.0383695 C17.1486602,13.0383695 17.3263731,12.8606567 17.3263731,12.6387269 C17.3263731,12.4167971 17.1486602,12.2390843 16.9267305,12.2390843 Z M16.0387297,12.4170788 L10.9777167,12.4170788 L10.9777167,12.8609383 L16.0387297,12.8609383 L16.0387297,12.4170788 Z M15.3153755,9.38962334 L16.7638055,9.99571289 C16.9569304,10.0670179 17.0534915,10.1620898 17.0534915,10.2809315 C17.0534915,10.3997732 16.9569304,10.4948451 16.7638055,10.5661501 L16.3681454,10.72886 L11.7590038,10.7287826 C13.7958276,9.87296348 14.8571255,9.42658046 14.9429221,9.38962334 C15.0808685,9.34208667 15.2050184,9.34208667 15.3153755,9.38962334 Z M9.1078184,2.94685996 C9.38371121,2.94685996 9.60442214,2.98639478 9.76995783,3.06546562 L16.7638055,6.3073538 C16.9569304,6.38642464 17.0534915,6.4852617 17.0534915,6.60386796 C17.0534915,6.72247422 16.9569304,6.82131128 16.7638055,6.90038212 L9.76995783,10.1422703 C9.60442214,10.2213411 9.38371121,10.260876 9.1078184,10.260876 C8.8319256,10.260876 8.61121467,10.2213411 8.44567898,10.1422703 L1.45183135,6.90038212 C1.25870638,6.82131128 1.16214535,6.72247422 1.16214535,6.60386796 C1.16214535,6.4852617 1.25870638,6.38642464 1.45183135,6.3073538 L8.44567898,3.06546562 C8.61121467,2.98639478 8.8319256,2.94685996 9.1078184,2.94685996 Z" id="path-1"></path>
    </defs>
    <g id="页面-1" stroke="none" stroke-width="1" fill="none" fill-rule="evenodd">
        <g id="画板" transform="translate(-207.000000, -57.000000)">
            <g id="对象存储服务角色" transform="translate(207.000000, 57.011387)">
                <rect id="Rectangle" fill="#000000" opacity="0" x="0" y="0" width="20" height="20"></rect>
                <mask id="mask-2" fill="white">
                    <use xlink:href="#path-1"></use>
                </mask>
                <use id="形状结合" fill="#777777" xlink:href="#path-1"></use>
            </g>
        </g>
    </g>
</svg>