<!-- Generated by IcoMoon.io -->
<svg version="1.1" xmlns="http://www.w3.org/2000/svg" width="34" height="32" viewBox="0 0 34 32">
<title>os-search-role</title>
<path d="M27.337 15.763c-0.794-0.287-1.65-0.443-2.542-0.443-4.13 0-7.451 3.34-7.451 7.451 0 3.433 2.318 6.301 5.495 7.148h-18.9c-0.854 0-1.547-0.692-1.547-1.547v-23.907c0-0.854 0.692-1.547 1.547-1.547h21.852c0.854 0 1.547 0.692 1.547 1.547v11.297zM24.795 16.944c3.2 0 5.827 2.579 5.827 5.779 0 3.248-2.627 5.827-5.827 5.827-3.248 0-5.827-2.579-5.827-5.779s2.579-5.827 5.827-5.827zM5.61 23.679v1.701h8.12v-1.701h-8.12zM5.61 18.266v1.701h11.367v-1.701h-11.367zM5.61 12.853v1.701h14.615v-1.701h-14.615zM5.61 7.44v1.701h16.239v-1.701h-16.239zM27.613 26.162c0.334 0 0.621-0.287 0.621-0.621 0-0.191-0.096-0.382-0.191-0.478l-1.911-1.863c0.239-0.382 0.382-0.812 0.382-1.29 0-1.433-1.146-2.579-2.579-2.579s-2.579 1.146-2.579 2.579c0 1.433 1.146 2.579 2.579 2.579 0.478 0 0.907-0.143 1.29-0.382l1.911 1.863c0.143 0.096 0.287 0.191 0.478 0.191zM23.936 20.574c0.716 0 1.29 0.573 1.29 1.29s-0.573 1.29-1.29 1.29c-0.716 0-1.29-0.573-1.29-1.29s0.573-1.29 1.29-1.29z"></path>
</svg>
