<!-- Generated by IcoMoon.io -->
<svg version="1.1" xmlns="http://www.w3.org/2000/svg" width="32" height="32" viewBox="0 0 32 32">
<title>os-zone</title>
<path d="M30.893 12.854c-0.339-2.34-4.17-3.257-7.625-3.607v-2.023h-0.855v-0.001l0.844-0.006c-0.029-3.973-9.953-4.087-11.085-4.087-0.977 0-9.578 0.091-10.9 3.247l-0.181 1.201h-0.007c0-0.066 0.008-0.121 0.016-0.155l-0.025 0.109 0.009 0.248-0.011 12.852c-0.007 2.707 4.321 3.795 7.683 4.231 0.199 3.859 9.94 4.004 11.158 4.007 1.124 0 10.985-0.113 11-4.069l0.012-11.639-0.033-0.308zM29.216 24.797c-0.005 1.12-3.982 2.374-9.393 2.374-5.371-0.017-9.38-1.296-9.377-2.43l0.003-3.045h3.571v-1.699h-3.574v-6.494h0.77v-1.699h-2.469v8.235h0.003l-0.002 3.107c-4.091-0.555-5.977-1.646-5.976-2.512l0.011-12.89 0.099-0.798c0.666-1.176 4.764-2.118 9.29-2.118 5.361 0 9.377 1.268 9.386 2.399l0.005 0.771 0.005 0.002-0.001 3.804h-3.97v1.699h3.971v6.502h-0.77v1.699h2.469v-9.309h-0.001v-1.429c3.748 0.409 5.83 1.347 5.943 2.124l0.018 0.13-0.011 11.577z"></path>
<path d="M15.327 20.005h1.346v1.699h-1.346v-1.699z"></path>
<path d="M18.077 20.005h1.347v1.699h-1.347v-1.699z"></path>
<path d="M15.125 11.804h1.347v1.699h-1.347v-1.699z"></path>
<path d="M12.554 11.804h1.346v1.699h-1.346v-1.699z"></path>
</svg>
