<?xml version="1.0" encoding="UTF-8"?>
<svg width="20px" height="21px" viewBox="0 0 20 21" version="1.1" xmlns="http://www.w3.org/2000/svg" xmlns:xlink="http://www.w3.org/1999/xlink">
    <title>平台监控角色</title>
    <defs>
        <path d="M11.8936025,12.0786299 C11.0086352,13.0105589 10.4511879,14.2557589 10.3960735,15.6253362 L3.01466353,15.6252326 L3.01466353,16.6894435 L10.4555207,16.6887268 C10.6597287,18.0138952 11.3408228,19.1777923 12.3231722,19.999847 L0.927588778,19.9999974 C0.463794389,19.9999974 0,19.5271445 0,19.0542916 L0,19.0542916 L0,12.0788361 Z M15.8270227,11.6540506 C18.1185237,11.6540506 19.9999974,13.5085561 19.9999974,15.8096158 C20.001235,16.9213547 19.5619822,17.9879178 18.7791291,18.7740364 C17.996276,19.5601551 16.9341435,20.0012402 15.8270227,19.9999974 C13.5015192,19.9999974 11.6540506,18.1454893 11.6540506,15.8444296 C11.6540506,13.5433699 13.5008524,11.6540506 15.8270227,11.6540506 Z M17.0788772,17.6385191 L14.5751708,17.6385191 C14.4370997,17.6385191 14.3251708,17.7504479 14.3251708,17.8885191 L14.3251708,17.8885191 L14.3251708,17.9085758 C14.3251708,18.046647 14.4370997,18.1585758 14.5751708,18.1585758 L14.5751708,18.1585758 L17.0788772,18.1585758 C17.2169484,18.1585758 17.3288772,18.046647 17.3288772,17.9085758 L17.3288772,17.9085758 L17.3288772,17.8885191 C17.3288772,17.7504479 17.2169484,17.6385191 17.0788772,17.6385191 L17.0788772,17.6385191 Z M17.7795625,13.8478026 L13.8744855,13.8478026 C13.5983431,13.8478026 13.3744855,14.0716602 13.3744855,14.3478026 L13.3744855,14.3478026 L13.3744855,16.063639 C13.3744855,16.3397814 13.5983431,16.563639 13.8744855,16.563639 L13.8744855,16.563639 L17.7795625,16.563639 C18.0557049,16.563639 18.2795625,16.3397814 18.2795625,16.063639 L18.2795625,16.063639 L18.2795625,14.3478026 C18.2795625,14.0716602 18.0557049,13.8478026 17.7795625,13.8478026 L17.7795625,13.8478026 Z M18.3221687,7.11329716 L18.3221687,10.7781988 L17.842015,10.7775099 C17.2178564,10.5284617 16.5375729,10.3915667 15.8270223,10.3915667 C15.112139,10.3915667 14.4320147,10.5285609 13.8100434,10.7772708 L9.97272454,10.7781988 L11.944137,7.11329716 L18.3221687,7.11329716 Z M7.88564979,5.45772833 L9.39326785,10.7781988 L0,10.7781988 L0,8.88620355 L6.14613454,8.88620355 L7.88564979,5.45772833 Z M17.2789176,2.85645376 C17.7095839,2.85645376 18.1402501,3.26416874 18.1995765,3.70100621 L18.2065064,3.80215951 L18.2065064,5.93058121 L11.2484454,5.93058121 L11.2484454,5.92999744 L9.85706224,8.29484557 L8.34944418,2.85645376 L17.2789176,2.85645376 Z M8.00188468,2.85645376 L5.45044295,7.70407137 L0,7.70407137 L0,3.80215951 C0,3.36308184 0.399904346,2.92400417 0.828373288,2.86351898 L0.927588778,2.85645376 L8.00188468,2.85645376 Z" id="path-1"></path>
    </defs>
    <g id="页面-1" stroke="none" stroke-width="1" fill="none" fill-rule="evenodd">
        <g id="画板" transform="translate(-826.000000, -229.000000)">
            <g id="编组" transform="translate(574.000000, 229.327640)">
                <g id="平台监控角色" transform="translate(251.999988, 0.000014)">
                    <rect id="Rectangle" fill="#000000" opacity="0" x="0" y="0" width="20" height="20"></rect>
                    <mask id="mask-2" fill="white">
                        <use xlink:href="#path-1"></use>
                    </mask>
                    <use id="Mask" fill="#000000" fill-rule="nonzero" xlink:href="#path-1"></use>
                </g>
            </g>
        </g>
    </g>
</svg>