<!-- Generated by IcoMoon.io -->
<svg version="1.1" xmlns="http://www.w3.org/2000/svg" width="32" height="32" viewBox="0 0 32 32">
<title>osStorageClass</title>
<path d="M2.745 14.793h21.309c-0.809 0.469-1.771 1.166-2.408 2.053h-18.902v6h17.123c0.253 0.932 0.707 1.8 1.331 2.545h-21.051v-19.861h27.176v8.788c-0.245-0.025-0.481-0.072-0.73-0.072-0.652 0-1.268 0.117-1.867 0.279v-6.453h-21.982v6.72zM5.424 10.351h2.52v2.067h-2.52v-2.067zM5.424 18.458h2.52v2.064h-2.52v-2.064zM31.141 18.477c0.282 0.161 0.454 0.458 0.451 0.777v4.274c-0.006 0.309-0.178 0.593-0.452 0.747l-3.799 2.091c-0.282 0.15-0.622 0.15-0.904 0l-3.828-2.151c-0.274-0.154-0.445-0.438-0.452-0.747v-4.273c0.006-0.309 0.178-0.593 0.452-0.747l3.799-2.122c0.282-0.15 0.622-0.15 0.904 0l3.829 2.151zM29.426 19.89c0.123-0.155 0.092-0.376-0.155-0.531-0.155-0.125-0.372-0.064-0.496 0.093l-1.979 2.913-1.887-2.884c-0.093-0.156-0.341-0.187-0.496-0.092-0.155 0.092-0.216 0.344-0.092 0.501l2.196 3.351c0.072 0.098 0.187 0.155 0.309 0.155s0.238-0.058 0.309-0.155l2.29-3.351z"></path>
</svg>
