<!-- Generated by IcoMoon.io -->
<svg version="1.1" xmlns="http://www.w3.org/2000/svg" width="32" height="32" viewBox="0 0 32 32">
<title>overview</title>
<path d="M4.205 17.785h3.428v2.023h-3.428v-2.023z"></path>
<path d="M24.297 17.785h3.428v2.023h-3.428v-2.023z"></path>
<path d="M14.961 6.762h2.023v3.426h-2.023v-3.426z"></path>
<path d="M21.904 12.021l2.423-2.422 1.43 1.431-2.423 2.422-1.43-1.431z"></path>
<path d="M9.010 13.553l-2.422-2.423 1.431-1.431 2.422 2.423-1.431 1.431z"></path>
<path d="M26.812 29.523h-21.624c-0.562 0-1.11-0.273-1.504-0.75-2.389-2.867-3.706-6.513-3.706-10.263 0.001-8.84 7.187-16.033 16.022-16.033 3.6 0 7.001 1.17 9.839 3.383l-1.229 1.578c-2.484-1.938-5.462-2.961-8.61-2.961-7.731 0-14.021 6.296-14.021 14.034 0 3.283 1.152 6.474 3.245 8.986l21.588 0.026c2.059-2.535 3.209-5.733 3.209-9.029 0-2.941-0.904-5.759-2.615-8.146l1.625-1.166c1.957 2.73 2.99 5.95 2.99 9.312 0 3.763-1.315 7.416-3.707 10.285-0.389 0.472-0.938 0.744-1.502 0.744z"></path>
<path d="M21.326 14.014l-6.909 4.341c-0.509 0.354-0.84 0.943-0.832 1.611 0.012 1.071 0.891 1.93 1.96 1.918 0.54-0.006 1.025-0.232 1.372-0.592v0l0.017-0.020c0.090-0.094 0.168-0.198 0.237-0.311l4.231-6.949z"></path>
</svg>
