<!-- Generated by IcoMoon.io -->
<svg version="1.1" xmlns="http://www.w3.org/2000/svg" width="32" height="32" viewBox="0 0 32 32">
<title>path-detail</title>
<path d="M24.929 3.5c1.972 0 3.572 1.599 3.572 3.572v17.857c0 1.972-1.599 3.572-3.572 3.572h-17.857c-1.972 0-3.572-1.599-3.572-3.572v-17.857c0-1.972 1.599-3.572 3.572-3.572h17.857zM24.929 5.286h-17.857c-0.916 0-1.671 0.689-1.774 1.577l-0.012 0.208v17.857c0 0.916 0.689 1.671 1.577 1.774l0.208 0.012h17.857c0.916 0 1.671-0.689 1.774-1.578l0.012-0.208v-17.857c0-0.916-0.689-1.671-1.578-1.774l-0.208-0.012zM23.498 19.872c0.493 0 0.893 0.4 0.893 0.893 0 0.438-0.316 0.803-0.732 0.878l-0.16 0.014h-14.995c-0.493 0-0.893-0.4-0.893-0.893 0-0.438 0.316-0.803 0.732-0.878l0.161-0.014h14.995zM23.498 15.107c0.493 0 0.893 0.4 0.893 0.893 0 0.438-0.316 0.803-0.732 0.878l-0.16 0.014h-14.995c-0.493 0-0.893-0.4-0.893-0.893 0-0.438 0.316-0.803 0.732-0.878l0.161-0.014h14.995zM14.892 10.342c0.493 0 0.893 0.4 0.893 0.893 0 0.438-0.316 0.803-0.732 0.878l-0.161 0.014h-6.39c-0.493 0-0.893-0.4-0.893-0.893 0-0.438 0.316-0.803 0.732-0.878l0.161-0.014h6.39z"></path>
</svg>
