<!-- Generated by IcoMoon.io -->
<svg version="1.1" xmlns="http://www.w3.org/2000/svg" width="32" height="32" viewBox="0 0 32 32">
<title>play</title>
<path d="M25.359 16.229c0.006-0.008 0.009-0.017 0.008-0.027s-0.006-0.019-0.013-0.025l-15.415-12.705c-0.011-0.009-0.026-0.011-0.039-0.005s-0.021 0.019-0.021 0.033v25.41c0 0.014 0.008 0.027 0.021 0.033s0.028 0.004 0.039-0.005l15.415-12.705c0.002-0.002 0.004-0.003 0.005-0.005v0zM11.587 30.939c-1.12 0.923-2.777 0.764-3.7-0.357-0.388-0.471-0.6-1.062-0.6-1.672v-25.41c0-1.452 1.177-2.628 2.628-2.628 0.61 0 1.201 0.212 1.672 0.6l15.415 12.705c1.12 0.923 1.28 2.58 0.357 3.7-0.107 0.13-0.227 0.25-0.357 0.357l-15.415 12.705z"></path>
</svg>
