<?xml version="1.0" encoding="UTF-8"?>
<svg width="16px" height="16px" viewBox="0 0 16 16" version="1.1" xmlns="http://www.w3.org/2000/svg" xmlns:xlink="http://www.w3.org/1999/xlink">
    <!-- Generator: Sketch 56.2 (81672) - https://sketch.com -->
    <title>SVG/端口管理</title>
    <desc>Created with Sketch.</desc>
    <g id="Page-1" stroke="none" stroke-width="1" fill="none" fill-rule="evenodd">
        <g id="0_0端口、FC端口icon" transform="translate(-152.000000, -104.000000)" fill="#9EA4BE" fill-rule="nonzero">
            <path d="M153.025641,105.032258 L153.025641,118.967742 L166.974359,118.967742 L166.974359,105.032258 L153.025641,105.032258 Z M152.205128,104 L167.794872,104 C167.908161,104 168,104.092432 168,104.206452 L168,119.793548 C168,119.907568 167.908161,120 167.794872,120 L152.205128,120 C152.091839,120 152,119.907568 152,119.793548 L152,104.206452 C152,104.092432 152.091839,104 152.205128,104 Z M156.716003,113.936134 L157.606578,113.936134 L157.606578,116.235294 L162.2821,116.235294 L162.2821,113.936134 L163.172676,113.936134 L163.172676,111.878992 L165.176471,111.878992 L165.176471,107.764706 L154.823529,107.764706 L154.823529,111.878992 L156.716003,111.878992 L156.716003,113.936134 Z M156.589276,117.176471 L156.589276,114.99085 L155.723061,114.99085 L155.723061,113.035294 L153.882353,113.035294 L153.882353,106.823529 L166.117647,106.823529 L166.117647,113.035294 L164.168662,113.035294 L164.168662,114.99085 L163.302447,114.99085 L163.302447,117.176471 L156.589276,117.176471 Z M156.705882,108.705882 L157.772549,108.705882 L157.772549,111.529412 L156.705882,111.529412 L156.705882,108.705882 Z M158.588235,108.705882 L159.654902,108.705882 L159.654902,111.529412 L158.588235,111.529412 L158.588235,108.705882 Z M160.470588,108.705882 L161.537255,108.705882 L161.537255,111.529412 L160.470588,111.529412 L160.470588,108.705882 Z M162.352941,108.705882 L163.419608,108.705882 L163.419608,111.529412 L162.352941,111.529412 L162.352941,108.705882 Z" id="端口管理"></path>
        </g>
    </g>
</svg>