<!-- Generated by IcoMoon.io -->
<svg version="1.1" xmlns="http://www.w3.org/2000/svg" width="32" height="32" viewBox="0 0 32 32">
<title>port</title>
<path d="M2.051 2.065v27.871h27.897v-27.871h-27.897zM0.41 0h31.18c0.227 0 0.41 0.185 0.41 0.413v31.174c0 0.228-0.184 0.413-0.41 0.413h-31.18c-0.227 0-0.41-0.185-0.41-0.413v-31.174c0-0.228 0.184-0.413 0.41-0.413zM9.432 19.872h1.781v4.598h9.351v-4.598h1.781v-4.114h4.008v-8.229h-20.706v8.229h3.785v4.114zM9.179 26.353v-4.371h-1.732v-3.911h-3.681v-12.424h24.471v12.424h-3.898v3.911h-1.732v4.371h-13.426zM9.412 9.412h2.133v5.647h-2.133v-5.647zM13.176 9.412h2.133v5.647h-2.133v-5.647zM16.941 9.412h2.133v5.647h-2.133v-5.647zM20.706 9.412h2.133v5.647h-2.133v-5.647z"></path>
</svg>
