<?xml version="1.0" encoding="UTF-8"?>
<svg version="1.1" xmlns="http://www.w3.org/2000/svg" width="32" height="32" viewBox="0 0 32 32">
<title>rbdc</title>
<path d="M8.25 24.799h16v2.4h-16v-2.4z"></path>
<path d="M14.25 22.799v2h-2.4v-2h2.4z"></path>
<path d="M20.25 22.799v2h-2.4v-2h2.4z"></path>
<path d="M5.25 4.8c-1.105 0-2 0.895-2 2v14c0 1.105 0.895 2 2 2h22c1.105 0 2-0.895 2-2v-14c0-1.105-0.895-2-2-2h-22zM6.441 15.8v-7.14h3.080c0.71 0 1.27 0.16 1.68 0.49 0.42 0.34 0.64 0.84 0.64 1.5 0 0.4-0.11 0.75-0.33 1.060-0.24 0.32-0.56 0.52-0.97 0.62v0.020c0.68 0.15 1.060 0.58 1.14 1.3l0.11 1.1c0.040 0.44 0.17 0.79 0.38 1.050h-0.89c-0.16-0.24-0.26-0.55-0.29-0.95l-0.090-0.95c-0.040-0.42-0.19-0.73-0.45-0.91-0.24-0.18-0.58-0.26-1.030-0.26h-2.16v3.070h-0.82zM9.421 9.37h-2.16v2.65h2.16c0.52 0 0.93-0.13 1.21-0.37 0.25-0.23 0.38-0.55 0.38-0.97 0-0.44-0.13-0.77-0.37-0.98-0.26-0.22-0.67-0.33-1.22-0.33zM13.198 15.8v-7.14h3.19c0.66 0 1.19 0.16 1.58 0.48 0.38 0.32 0.57 0.76 0.57 1.32 0 0.4-0.11 0.75-0.32 1.040-0.22 0.26-0.51 0.45-0.87 0.57 0.47 0.080 0.83 0.28 1.090 0.58s0.4 0.68 0.4 1.16c0 0.7-0.25 1.22-0.74 1.56-0.42 0.28-1 0.43-1.73 0.43h-3.17zM16.198 9.35h-2.18v2.43h2.17c0.5 0 0.88-0.11 1.14-0.31 0.26-0.21 0.4-0.52 0.4-0.93 0-0.4-0.13-0.7-0.39-0.9s-0.64-0.29-1.14-0.29zM16.299 12.46h-2.28v2.65h2.28c0.5 0 0.89-0.1 1.19-0.28 0.35-0.22 0.53-0.57 0.53-1.030s-0.16-0.8-0.46-1.020c-0.29-0.22-0.71-0.32-1.26-0.32zM19.966 15.8v-7.14h2.56c1.13 0 1.98 0.32 2.56 0.98 0.53 0.6 0.8 1.47 0.8 2.59 0 1.1-0.29 1.97-0.86 2.59-0.6 0.65-1.46 0.98-2.58 0.98h-2.48zM22.396 9.37h-1.61v5.72h1.52c0.93 0 1.63-0.25 2.1-0.74 0.44-0.48 0.67-1.19 0.67-2.12 0-0.96-0.21-1.67-0.62-2.13-0.44-0.49-1.12-0.73-2.060-0.73z"></path>
</svg>