<!-- Generated by IcoMoon.io -->
<svg version="1.1" xmlns="http://www.w3.org/2000/svg" width="32" height="32" viewBox="0 0 32 32">
<title>RDMA</title>
<path d="M0.921 25.749h30.158v2.069h-30.158v-2.069zM28.994 20.914v-16.343h-25.954v18.354h25.954v-2.011zM26.932 20.914h-21.83v-14.286h21.83v14.286zM11.698 13.779c-0.171 0-0.255 0.085-0.255 0.258-0 0.252 0 0.032 0 0.301-0.023-0.028-0.034-0.041-0.045-0.055-0.63-0.808-0.769-0.993-1.4-1.801-0.030-0.039-0.021-0.060 0.005-0.092 0.591-0.758 0.692-0.933 1.282-1.691 0.049-0.063 0.098-0.125 0.158-0.201 0 0.24 0.008 0.634-0.002 0.856-0.011 0.239 0.093 0.321 0.315 0.32 1.565-0.005 3.187-0.002 4.753-0.004 0.070-0 0.095 0.011 0.093 0.089-0.006 0.228-0.003-0.059-0.002 0.168 0.001 0.135 0.092 0.226 0.225 0.228 0.085 0.002 0.689 0.001 0.774 0 0.166-0.001 0.251-0.086 0.251-0.255 0-0.407-0.006-1.052 0.003-1.458 0.003-0.165-0.111-0.263-0.259-0.263-1.59 0.004-3.253 0.002-4.843 0.004-0.061 0-0.076-0.015-0.076-0.076 0.003-0.429 0.002-0.857 0.001-1.286-0-0.152-0.089-0.24-0.242-0.242-0.078-0.001-0.962 0.003-1.040-0.001-0.105-0.005-0.18 0.040-0.244 0.121-0.933 1.198-1.867 2.396-2.801 3.593-0.075 0.096-0.076 0.191-0.001 0.287 0.378 0.484 0.755 0.968 1.133 1.452 0.555 0.712 1.11 1.423 1.664 2.136 0.052 0.067 0.115 0.102 0.2 0.099s0.475-0.001 0.561-0.001c0.188-0 0.269-0.080 0.269-0.266 0-0.421 0.001-0.316-0.001-0.738-0-0.055 0.010-0.076 0.070-0.074 0.146 0.005 0.51 0.003 0.656 0.001 0.13-0.002 0.221-0.093 0.223-0.222 0.002-0.086 0.001-0.85 0-0.936-0-0.168-0.085-0.255-0.251-0.255-0.32-0-0.857-0-1.177 0zM22.994 14.061c-0.677-0.868-1.353-1.735-2.028-2.604-0.054-0.069-0.117-0.106-0.206-0.103-0.105 0.004-1.005 0-1.11 0.001-0.167 0-0.252 0.086-0.252 0.254-0 0.402-0.002 0.803 0.002 1.205 0.001 0.072-0.019 0.086-0.088 0.086-1.504-0.002-3.035 0-4.538-0.004-0.158-0-0.255 0.115-0.255 0.252 0.004 1.359 0.003 2.718 0.003 4.078 0 0.16 0.084 0.244 0.242 0.244h2.256c0.759 0 1.546 0.001 2.305-0.001 0.061-0 0.076 0.015 0.076 0.076-0.003 0.411-0.002 0.823-0.001 1.234 0 0.143 0.091 0.233 0.234 0.234 0.093 0.001 0.981-0.007 1.073 0.002 0.132 0.013 0.216-0.045 0.295-0.147 0.918-1.182 1.839-2.361 2.759-3.541 0.072-0.092 0.073-0.191 0.002-0.282-0.256-0.327-0.512-0.655-0.768-0.982zM20.685 17.165c-0.012 0.015-0.025 0.029-0.049 0.057v-0.18c0-0.196 0-0.577-0-0.773-0-0.172-0.084-0.257-0.256-0.257-1.501-0-2.775-0.001-4.276 0.002-0.072 0-0.092-0.014-0.092-0.090 0.003-0.977 0.003-0.581 0-1.558-0-0.067 0.017-0.083 0.083-0.083 1.499 0.002 2.77 0.002 4.269 0.001 0.192 0 0.271-0.155 0.271-0.348v-0.799c0.131 0.142 0.248 0.291 0.364 0.441 0.537 0.689 0.673 0.868 1.211 1.556 0.029 0.038 0.031 0.060 0.001 0.098-0.643 0.822-0.885 1.109-1.527 1.933z"></path>
</svg>
