<!-- Generated by IcoMoon.io -->
<svg version="1.1" xmlns="http://www.w3.org/2000/svg" width="32" height="32" viewBox="0 0 32 32">
<title>realm</title>
<path d="M24.7 6.5c-2.5-0.4-4.8-1.5-6.8-3l-1.9-1.5-2 1.5c-2 1.6-4.3 2.6-6.8 3l-3.2 0.5v2.4c0 12.3 1.6 17.2 11.2 20.4l0.8 0.2 0.8-0.2c9.6-3.1 11.2-8.1 11.2-20.4v-2.4l-3.3-0.5zM26.1 9.4c0 11.7-1.4 15.8-9.9 18.6l-0.2 0.1-0.2-0.1c-8.5-2.8-9.9-6.9-9.9-18.6v-0.8l1.6-0.2c2.9-0.4 5.6-1.6 7.9-3.4l0.6-0.5 0.6 0.5c2.3 1.8 5 3 7.8 3.4l1.7 0.2v0.8z"></path>
<path d="M20.4 15.5h-1.1v-3.2c0-1.1-0.5-2.1-1.4-2.7-1.2-0.9-2.8-0.9-4 0-0.8 0.6-1.2 1.6-1.3 2.7v3.2h-0.8c-0.8 0-1.5 0.7-1.5 1.5v3c0 2 1.6 3.6 3.6 3.6h4.6c1.8-0.1 3.4-1.7 3.4-3.6v-3c0-0.8-0.7-1.5-1.5-1.5zM14.3 12.3c0-0.3 0.1-0.7 0.3-1 0.5-0.7 1.6-0.9 2.3-0.4 0.1 0.1 0.3 0.2 0.4 0.4 0.2 0.3 0.3 0.6 0.3 1v3.2h-3.3v-3.2zM20.2 19.8c0 1.1-1 2.1-2.1 2.1h-4.2c-1.1 0-2-0.9-2-2.1v-2.5h8.3v2.5z"></path>
</svg>
