<!-- Generated by IcoMoon.io -->
<svg version="1.1" xmlns="http://www.w3.org/2000/svg" width="32" height="32" viewBox="0 0 32 32">
<title>region</title>
<path d="M26.2 7c-0.6-1.4-1.4-2.6-2.4-3.6s-2.2-1.8-3.6-2.4c-1.4-0.8-2.8-1-4.2-1s-2.8 0.2-4.2 0.8c-1.4 0.6-2.6 1.4-3.6 2.4-1 1.2-1.8 2.4-2.4 3.8s-0.8 2.8-0.8 4.2c0 1.4 0.2 2.8 0.8 4.2s1.4 2.6 2.4 3.6l6.6 6.6c0.2 0.4 0.8 0.6 1.2 0.6s1-0.2 1.2-0.6l6.6-6.6c1-1 1.8-2.4 2.4-3.6 0.6-1.4 0.8-2.8 0.8-4.2s-0.2-2.8-0.8-4.2zM22.4 17.8l-6 6.2c-0.2 0.2-0.4 0.2-0.6 0l-6.2-6.2c-1.8-1.8-2.8-4.2-2.8-6.6s1-4.8 2.6-6.6c1.8-1.8 4-2.8 6.4-2.8s4.8 1 6.4 2.8c1.8 1.8 2.6 4 2.6 6.6 0.4 2.4-0.6 4.8-2.4 6.6z"></path>
<path d="M16 6.4c-2.8 0-5 2.2-5 5s2.2 5 5 5c2.8 0 5-2.2 5-5s-2.2-5-5-5zM16 14.6c-1.8 0-3.2-1.4-3.2-3.2s1.4-3 3.2-3c1.8 0 3.2 1.4 3.2 3.2s-1.4 3-3.2 3zM28.6 24.6c0.6 0.4 1.4 1.2 1.4 2.4s-0.8 1.8-1.4 2.4c-0.8 0.6-1.8 1-3 1.4-2.6 0.8-6 1.2-9.6 1.2s-7-0.4-9.6-1.2c-1.2-0.4-2.4-0.8-3-1.4s-1.4-1.4-1.4-2.4c0-1 0.8-1.8 1.4-2.4 0.8-0.6 1.8-1 3-1.4l2.4-0.6c0.6 0 1.2 0.4 1.2 1 0 0.4-0.4 0.8-0.8 1-0.8 0.2-1.6 0.4-2.2 0.6-2.6 0.8-3.2 1.6-3.2 2s0.6 1.2 3.2 2c2.4 0.8 5.6 1.2 9 1.2s6.6-0.4 9-1.2c2.6-0.8 3.2-1.6 3.2-2s-0.6-1.2-3.2-2c-0.6-0.2-1.4-0.4-2.2-0.6-0.4 0-0.8-0.4-0.8-1s0.6-1 1.2-1l2.4 0.6c1.2 0.4 2.2 1 3 1.4z"></path>
</svg>
