<!-- Generated by IcoMoon.io -->
<svg version="1.1" xmlns="http://www.w3.org/2000/svg" width="32" height="32" viewBox="0 0 32 32">
<title>resource-planning</title>
<path d="M2 15.96c0-7.225 5.473-13.172 12.5-13.921v5.654c-3.923 0.707-6.9 4.139-6.9 8.266 0 1.099 0.211 2.148 0.595 3.11l-4.881 2.818c-0.843-1.8-1.313-3.809-1.313-5.928zM4.87 24.454c2.558 3.347 6.592 5.506 11.13 5.506 4.545 0 8.584-2.166 11.142-5.522l-4.917-2.838c-1.537 1.695-3.757 2.76-6.225 2.76-2.461 0-4.676-1.059-6.212-2.746l-4.918 2.839zM30 15.96c0 2.112-0.468 4.115-1.305 5.911l-4.882-2.819c0.379-0.957 0.587-2 0.587-3.092 0-4.127-2.976-7.559-6.9-8.266v-5.654c7.027 0.748 12.5 6.695 12.5 13.921zM16.020 21c2.761 0 5-2.239 5-5s-2.239-5-5-5c-2.761 0-5 2.239-5 5s2.239 5 5 5z"></path>
</svg>
