<!-- Generated by IcoMoon.io -->
<svg version="1.1" xmlns="http://www.w3.org/2000/svg" width="32" height="32" viewBox="0 0 32 32">
<title>rocket</title>
<path d="M31.192 10.691c-0.017 0.058-0.036 0.116-0.058 0.17-0.675 1.911-1.742 3.69-3.102 5.179l-0.183 0.207-0.301 0.291-1.931 1.685c-0.115 3.361-1.498 6.607-3.845 8.988-0.811 0.822-1.721 1.535-2.704 2.114-0.298 0.174-0.627 0.263-0.96 0.263-0.255 0-0.502-0.052-0.739-0.152-0.556-0.239-0.972-0.731-1.116-1.316l-0.593-2.366-0.655 0.244c-1.405 0.523-3.056 0.149-4.104-0.916l-3.611-3.665c-1.072-1.090-1.426-2.725-0.901-4.168l0.241-0.661-2.336-0.604c-0.58-0.153-1.061-0.575-1.291-1.129-0.231-0.561-0.189-1.205 0.108-1.727 0.57-0.999 1.27-1.923 2.082-2.747 2.341-2.378 5.546-3.785 8.853-3.903l1.774-2.085c1.551-1.568 3.458-2.789 5.517-3.53 0.006-0.004 0.060-0.025 0.127-0.045 0.366-0.129 0.737-0.244 1.114-0.342 2.462-0.646 5.102-0.636 7.564 0.032 0.659 0.179 1.177 0.706 1.353 1.373 0.661 2.509 0.672 5.165 0.032 7.681-0.097 0.381-0.211 0.757-0.337 1.127zM20.003 25.416c1.319-1.339 2.252-3.017 2.736-4.826l-4.623 3.992c-0.128 0.093-0.112 0.069-0.147 0.093l0.127 1.759c0.060 0 1.436-0.54 1.907-1.017zM5.695 13.726l2.664 0.184 2.782-4.175c-1.774 0.494-2.868 1.112-4.179 2.442-0.47 0.477-0.894 0.996-1.267 1.549zM29.165 2.877c-1.952-0.472-4.023-0.451-5.962 0.058-0.323 0.083-0.638 0.182-0.95 0.292l-0.083 0.026c-1.683 0.61-3.248 1.606-4.529 2.883l-0.072 0.078-1.982 2.343-6.201 7.78-0.648 1.79c-0.188 0.516-0.061 1.102 0.323 1.493l3.612 3.665c0.374 0.381 0.971 0.515 1.472 0.328l2.209-0.827c0.035-0.039 0.068-0.078 0.107-0.113l6.421-5.54c0.124-0.106 0.263-0.182 0.408-0.231l2.665-2.332c1.256-1.296 2.237-2.885 2.836-4.601l0.028-0.078c0.108-0.317 0.206-0.64 0.289-0.966 0.504-1.982 0.523-4.066 0.058-6.052v0zM22.224 13.992c-2.299 0-4.17-1.899-4.17-4.235s1.871-4.235 4.17-4.235c2.301 0 4.172 1.899 4.172 4.235s-1.871 4.235-4.172 4.235v0zM22.224 8.062c-0.919 0-1.669 0.76-1.669 1.695s0.75 1.695 1.669 1.695c0.921 0 1.671-0.76 1.671-1.695s-0.75-1.695-1.671-1.695v0zM4.58 21.954c0.488 0.495 0.488 1.3 0 1.795l-2.445 2.481c-0.243 0.249-0.563 0.373-0.883 0.373s-0.64-0.124-0.885-0.373c-0.488-0.495-0.488-1.298 0-1.795l2.445-2.481c0.488-0.497 1.28-0.497 1.768 0v0zM5.795 24.435c0.488-0.495 1.28-0.495 1.768 0 0.488 0.497 0.488 1.3 0 1.795l-5.318 5.398c-0.243 0.248-0.563 0.372-0.883 0.372-0.321 0-0.641-0.124-0.885-0.372-0.488-0.497-0.488-1.3 0-1.795l5.318-5.398zM8.651 27.497c0.488-0.497 1.281-0.495 1.768 0 0.488 0.495 0.488 1.3 0 1.795l-2 2.029c-0.243 0.248-0.563 0.372-0.883 0.372s-0.64-0.124-0.885-0.372c-0.488-0.495-0.488-1.3 0-1.795l2-2.029z"></path>
</svg>
