<!-- Generated by IcoMoon.io -->
<svg version="1.1" xmlns="http://www.w3.org/2000/svg" width="32" height="32" viewBox="0 0 32 32">
<title>room</title>
<path d="M23.019 28.5h-14.153v-25h14.153v25zM10.707 26.438h10.471v-20.876h-10.471v20.876z"></path>
<path d="M20.602 7.237v-1.031h-9.32v1.031h-0.575v0.387h0.575v1.031h9.32v-1.031h0.575v-0.387h-0.575zM12.548 7.624h-0.345v-0.387h0.345v0.387zM13.354 7.624h-0.345v-0.387h0.345v0.387zM14.619 8.268h-0.345v-1.546h0.345v1.546zM15.195 8.268h-0.345v-1.546h0.345v1.546zM15.77 8.268h-0.345v-1.546h0.345v1.546zM16.345 8.268h-0.345v-1.546h0.345v1.546zM16.921 8.268h-0.345v-1.546h0.345v1.546zM17.496 8.268h-0.345v-1.546h0.345v1.546zM18.071 8.268h-0.345v-1.546h0.345v1.546zM18.647 8.268h-0.345v-1.546h0.345v1.546zM19.222 8.268h-0.345v-1.546h0.345v1.546zM19.797 8.268h-0.345v-1.546h0.345v1.546zM20.602 12.907v-1.031h-9.32v1.031h-0.575v0.387h0.575v1.031h9.32v-1.031h0.575v-0.387h-0.575zM12.548 13.294h-0.345v-0.387h0.345v0.387zM13.354 13.294h-0.345v-0.387h0.345v0.387zM14.619 13.938h-0.345v-1.546h0.345v1.546zM15.195 13.938h-0.345v-1.546h0.345v1.546zM15.77 13.938h-0.345v-1.546h0.345v1.546zM16.345 13.938h-0.345v-1.546h0.345v1.546zM16.921 13.938h-0.345v-1.546h0.345v1.546zM17.496 13.938h-0.345v-1.546h0.345v1.546zM18.071 13.938h-0.345v-1.546h0.345v1.546zM18.647 13.938h-0.345v-1.546h0.345v1.546zM19.222 13.938h-0.345v-1.546h0.345v1.546zM19.797 13.938h-0.345v-1.546h0.345v1.546zM20.602 18.577v-1.031h-9.32v1.031h-0.575v0.387h0.575v1.031h9.32v-1.031h0.575v-0.387h-0.575zM12.548 18.964h-0.345v-0.387h0.345v0.387zM13.354 18.964h-0.345v-0.387h0.345v0.387zM14.619 19.608h-0.345v-1.547h0.345v1.547zM15.195 19.608h-0.345v-1.547h0.345v1.547zM15.77 19.608h-0.345v-1.547h0.345v1.547zM16.345 19.608h-0.345v-1.547h0.345v1.547zM16.921 19.608h-0.345v-1.547h0.345v1.547zM17.496 19.608h-0.345v-1.547h0.345v1.547zM18.071 19.608h-0.345v-1.547h0.345v1.547zM18.647 19.608h-0.345v-1.547h0.345v1.547zM19.222 19.608h-0.345v-1.547h0.345v1.547zM19.797 19.608h-0.345v-1.547h0.345v1.547zM20.602 24.247v-1.031h-9.32v1.031h-0.575v0.387h0.575v1.031h9.32v-1.031h0.575v-0.387h-0.575zM12.548 24.634h-0.345v-0.387h0.345v0.387zM13.354 24.634h-0.345v-0.387h0.345v0.387zM14.619 25.278h-0.345v-1.546h0.345v1.546zM15.195 25.278h-0.345v-1.546h0.345v1.546zM15.77 25.278h-0.345v-1.546h0.345v1.546zM16.345 25.278h-0.345v-1.546h0.345v1.546zM16.921 25.278h-0.345v-1.546h0.345v1.546zM17.496 25.278h-0.345v-1.546h0.345v1.546zM18.071 25.278h-0.345v-1.546h0.345v1.546zM18.647 25.278h-0.345v-1.546h0.345v1.546zM19.222 25.278h-0.345v-1.546h0.345v1.546zM19.797 25.278h-0.345v-1.546h0.345v1.546zM0.237 27.856h7.939v-1.804l-6.443 0.129-0.115-17.268h6.443v-1.675h-7.939l0.115 20.618z"></path>
<path d="M2.308 11.876v1.031h-0.69v0.387h0.575v1.031h5.753v-2.448h-5.638zM3.573 13.294h-0.345v-0.387h0.345v0.387zM4.264 13.294h-0.345v-0.387h0.345v0.387zM5.529 13.938h-0.345v-1.546h0.345v1.546zM6.105 13.938h-0.345v-1.546h0.345v1.546zM6.68 13.938h-0.23v-1.546h0.345v1.546h-0.115zM7.255 13.938h-0.23v-1.546h0.345v1.546h-0.115zM7.601 13.938v-1.546h0.345v1.546h-0.345zM2.308 19.866v1.031h-0.69v0.387h0.575v1.031h5.753v-2.448h-5.638zM3.573 21.412h-0.345v-0.387h0.345v0.387zM4.264 21.412h-0.345v-0.387h0.345v0.387zM5.529 21.928h-0.345v-1.546h0.345v1.546zM6.105 21.928h-0.345v-1.546h0.345v1.546zM6.68 21.928h-0.23v-1.546h0.345v1.546h-0.115zM7.255 21.928h-0.23v-1.546h0.345v1.546h-0.115zM7.601 21.928v-1.546h0.345v1.546h-0.345zM31.878 27.856h-8.054v-1.804l6.558 0.129v-17.268h-6.443v-1.675h7.939v20.618z"></path>
<path d="M23.939 11.876v2.448h5.753v-1.031h0.575v-0.387h-0.575v-1.031h-5.753zM28.542 12.907h0.345v0.387h-0.345v-0.387zM27.736 12.907h0.345v0.387h-0.345v-0.387zM26.471 12.392h0.345v1.546h-0.345v-1.546zM25.895 12.392h0.345v1.546h-0.345v-1.546zM25.32 12.392h0.345v1.546h-0.345v-1.546zM24.745 12.392h0.345v1.546h-0.345v-1.546zM24.169 13.938v-1.546h0.345v1.546h-0.345zM23.939 19.866v2.448h5.753v-1.031h0.575v-0.387h-0.575v-1.031h-5.753zM28.542 21.026h0.345v0.387h-0.345v-0.387zM27.736 21.026h0.345v0.387h-0.345v-0.387zM26.471 20.382h0.345v1.546h-0.345v-1.547zM25.895 20.382h0.345v1.546h-0.345v-1.547zM25.32 20.382h0.345v1.546h-0.345v-1.547zM24.745 20.382h0.345v1.546h-0.345v-1.547zM24.169 21.928v-1.546h0.345v1.546h-0.345z"></path>
</svg>
