<!-- Generated by IcoMoon.io -->
<svg version="1.1" xmlns="http://www.w3.org/2000/svg" width="32" height="32" viewBox="0 0 32 32">
<title>router</title>
<path d="M23.481 13.403h2.182v1.87h-2.182v-1.87z"></path>
<path d="M14.857 13.403h2.182v1.87h-2.182v-1.87z"></path>
<path d="M6.442 13.403h2.182v1.87h-2.182v-1.87z"></path>
<path d="M18.805 3.948l-1.766 1.87v-5.818h-2.078v5.818l-1.766-1.87-1.351 1.558 4.156 4.156 4.156-4.156z"></path>
<path d="M17.039 28.156v-6.961h-2.078v6.961l-1.766-1.87-1.351 1.558 4.156 4.156 4.156-4.156-1.351-1.558z"></path>
<path d="M8.623 20.571l-3.636 3.636v-2.494h-2.078v6.13h6.026v-2.182h-2.597l3.74-3.532z"></path>
<path d="M27.117 24.208l-3.74-3.636-1.247 1.558 3.532 3.532h-2.39v2.182h5.818v-6.13h-1.974z"></path>
<path d="M16 9.662h-13.299v9.351h26.494v-9.247h-13.195zM22.234 17.039h-17.351v-5.195h22.545v5.195h-5.195z"></path>
</svg>
