<?xml version="1.0" encoding="UTF-8"?>
<svg width="20px" height="21px" viewBox="0 0 20 21" version="1.1" xmlns="http://www.w3.org/2000/svg" xmlns:xlink="http://www.w3.org/1999/xlink">
    <title>对象存储网关角色</title>
    <defs>
        <path d="M2.50843975,14.4203272 L7.90323809,17.2582642 C7.97814288,17.2993376 8.06370725,17.3316427 8.15993174,17.3551796 L8.15993174,19.9526135 C8.06370725,19.9290766 7.97814288,19.8967715 7.90323809,19.8556981 L0.490872893,15.9114467 C0.286191174,15.8152449 0.183851849,15.6949946 0.183851849,15.550692 C0.183851849,15.4063894 0.286191174,15.286139 0.490872893,15.1899373 C1.28035952,14.7409958 1.76281634,14.4684283 1.93825781,14.3722266 C2.08445904,14.2760249 2.27451779,14.2920582 2.50843975,14.4203272 Z M2.50843975,10.5893101 L7.90323809,13.4580245 C8.07867956,13.5536488 8.31259801,13.6014602 8.60500047,13.6014602 C8.89740293,13.6014602 9.13132138,13.5536488 9.30676286,13.4580245 C12.8448326,11.5774134 14.6723205,10.6052477 14.7892815,10.5414982 C14.9354827,10.4777486 15.0670618,10.4777486 15.1840228,10.5414982 L16.719128,11.3543006 C16.9238098,11.4499249 17.0261491,11.577422 17.0261491,11.7367958 C17.0261491,11.8961697 16.9238098,12.0236668 16.719128,12.1192911 L10.1998518,15.5249888 L8.16060303,15.5252969 L8.16005347,16.1064201 C8.07444859,16.0768363 7.98884357,16.0387148 7.90323809,15.9920556 L0.490872893,12.1192911 C0.286191174,12.0236668 0.183851849,11.8961697 0.183851849,11.7367958 C0.183851849,11.577422 0.286191174,11.4499249 0.490872893,11.3543006 C1.28035952,10.9399286 1.76281634,10.6849344 1.93825781,10.5893101 C2.11369929,10.461811 2.30375803,10.461811 2.50843975,10.5893101 Z M15.1840228,14.3722266 L16.719128,15.1899373 C16.9116263,15.2804127 17.0136032,15.3921591 17.0250613,15.5251793 L12.603529,15.524637 C13.9882623,14.7960826 14.7168422,14.4119481 14.7892815,14.3722266 C14.9354827,14.3080921 15.0670618,14.3080921 15.1840228,14.3722266 Z M8.60500047,3.99798879 C8.89740293,3.99798879 9.13132138,4.04322411 9.30676286,4.13369611 L16.719128,7.84302935 C16.9238098,7.93350135 17.0261491,8.04658964 17.0261491,8.18229764 C17.0261491,8.31800563 16.9238098,8.43109392 16.719128,8.52156592 L9.30676286,12.2308992 C9.13132138,12.3213712 8.89740293,12.3666065 8.60500047,12.3666065 C8.31259801,12.3666065 8.07867956,12.3213712 7.90323809,12.2308992 L0.490872893,8.52156592 C0.286191174,8.43109392 0.183851849,8.31800563 0.183851849,8.18229764 C0.183851849,8.04658964 0.286191174,7.93350135 0.490872893,7.84302935 L7.90323809,4.13369611 C8.07867956,4.04322411 8.31259801,3.99798879 8.60500047,3.99798879 Z M9.29622246,16.6358785 L19.8161482,16.6358785 L19.8161482,20 L9.29622246,20 L9.29622246,16.6358785 Z M11.0223193,18.9115328 L12.3082263,18.9115328 L12.3082263,18.0211425 L12.0114296,18.0211425 L12.0114296,17.7243457 L11.319116,17.7243457 L11.319116,18.0211425 L11.0223193,18.0211425 L11.0223193,18.9115328 Z M13.0011768,18.9115328 L14.2870838,18.9115328 L14.2870838,18.0211425 L13.9902871,18.0211425 L13.9902871,17.7243457 L13.2979735,17.7243457 L13.2979735,18.0211425 L13.0011768,18.0211425 L13.0011768,18.9115328 Z M17.4531285,17.8230657 C17.7499253,17.8230657 17.9480021,18.0211425 17.9480021,18.3179393 C17.9480021,18.5160161 17.7499253,18.8128129 17.4531285,18.8128129 C17.1563317,18.8128129 16.9582549,18.6147361 16.9582549,18.3179393 C16.9582549,18.0211425 17.1563317,17.8230657 17.4531285,17.8230657 Z M8.45153715,2.15246856 C9.68188397,2.15246856 10.9122308,2.56302421 11.8349909,3.2805065 L10.9122308,3.99798879 C10.1947485,3.5880932 9.37429726,3.2805065 8.45153715,3.2805065 C7.63108592,3.2805065 6.60601692,3.48512426 5.99084351,3.99798879 L5.0680834,3.2805065 C5.99084351,2.66533309 7.22119033,2.15246856 8.45153715,2.15246856 Z M8.65615491,7.18644799e-06 C10.4796501,-0.00242373487 12.2503717,0.611932004 13.6805111,1.74323303 L13.78282,1.84554192 L12.8600599,2.56302421 L12.757751,2.56302421 C11.6297131,1.64026409 10.0917796,1.12739957 8.55384603,1.12739957 C7.02295312,1.12739957 5.67030501,1.48446417 4.57961928,2.28231093 L4.34994105,2.46071533 C4.34994105,2.48994643 4.3415893,2.5108258 4.33204445,2.52573963 L4.31985185,2.54 L3.42718093,1.84554192 C3.42718093,1.74257298 3.42718093,1.64026409 3.52948981,1.64026409 C4.96511446,0.615195097 6.7083258,7.18644799e-06 8.65615491,7.18644799e-06 Z" id="path-1"></path>
    </defs>
    <g id="页面-1" stroke="none" stroke-width="1" fill="none" fill-rule="evenodd">
        <g id="画板" transform="translate(-658.000000, -229.000000)">
            <g id="编组" transform="translate(574.000000, 229.327640)">
                <g id="对象存储网关角色" transform="translate(84.000000, 0.000014)">
                    <rect id="矩形" fill="#D8D8D8" opacity="0" x="0" y="1.13686838e-13" width="20" height="20"></rect>
                    <mask id="mask-2" fill="white">
                        <use xlink:href="#path-1"></use>
                    </mask>
                    <use id="形状结合" fill="#000000" xlink:href="#path-1"></use>
                </g>
            </g>
        </g>
    </g>
</svg>