<?xml version="1.0" encoding="UTF-8"?>
<svg width="14px" height="15px" viewBox="0 0 14 15" version="1.1" xmlns="http://www.w3.org/2000/svg" xmlns:xlink="http://www.w3.org/1999/xlink">
    <!-- Generator: Sketch 56 (81588) - https://sketch.com -->
    <title>安全密钥</title>
    <desc>Created with Sketch.</desc>
    <g id="1-登录" stroke="none" stroke-width="1" fill="none" fill-rule="evenodd">
        <g id="画板" transform="translate(-279.000000, -438.000000)">
            <g id="安全密钥" transform="translate(276.000000, 435.000000)">
                <rect id="Rectangle" fill="#000000" opacity="0" x="0" y="0" width="20" height="20"></rect>
                <g id="Rectangle" transform="translate(3.000000, 3.000000)" fill="#000" fill-rule="nonzero">
                    <g id="蒙版">
                        <g id="形状">
                            <path d="M6.91282592,15.0114161 L6.67853917,14.8764547 C6.60044359,14.8378943 4.96043636,13.7967632 3.30090524,11.810902 C1.77804139,9.96000224 -0.0572047944,6.95229016 0.00136689223,3.03840841 L0.00136689223,2.55640327 L0.489464281,2.61424388 C0.567559863,2.61424388 2.42232994,2.78776574 2.96899902,0.358459823 L3.0470946,0.0114161215 L11.0323679,0.0114161215 L11.0323679,0.454860852 C11.0323679,0.454860852 11.0323679,1.03326702 11.3642741,1.59239299 C11.7742759,2.30576059 12.5161839,2.6720845 13.5509504,2.6720845 L14,2.6720845 L14,3.11552923 C14,3.19265005 13.9414283,5.15923103 13.0823769,7.58853694 C11.9304671,10.8276115 9.88045804,13.3533184 7.14711266,14.8957349 L6.91282592,15.0114161 Z M1.02109996,3.56090198 C1.07850021,6.26283 2.09257134,8.81360121 4.04417994,11.1565318 C5.24958525,12.5925215 6.47412398,13.518357 6.95245942,13.8584598 C9.34413663,12.4224701 11.0852776,10.2306963 12.1184822,7.32092769 C12.6924847,5.69599196 12.8838189,4.27889684 12.9412191,3.59869119 C11.5444797,3.46642897 10.8365432,2.72953951 10.4921417,2.08712306 C10.2625407,1.69033643 10.1668736,1.2935498 10.1286068,1.01013077 L3.81457893,1.01013077 C3.41277716,2.38943669 2.5900402,3.03185314 1.95863742,3.29637756 C1.6142359,3.46642897 1.26983439,3.52311278 1.02109996,3.56090198 Z"></path>
                            <path d="M7.02026468,10.0396904 C6.37179487,10.0396904 5.86517783,9.5440117 5.86517783,8.95301017 L5.86517783,7.86632995 C5.39909016,7.54223234 5.11538462,7.00842451 5.11538462,6.45555212 C5.11538462,5.48325928 5.96650124,4.68254754 7,4.68254754 C8.03349876,4.68254754 8.88461538,5.48325928 8.88461538,6.45555212 C8.88461538,6.98935995 8.64143921,7.46597408 8.21588089,7.80913625 L8.21588089,8.95301017 C8.19561621,9.5440117 7.66873449,10.0396904 7.02026468,10.0396904 L7.02026468,10.0396904 Z M6.97973532,5.54045298 C6.4528536,5.54045298 6.02729529,5.94080885 6.02729529,6.43648755 C6.02729529,6.77964973 6.2299421,7.08468277 6.53391232,7.23719929 L6.7770885,7.35158669 L6.7770885,8.93394561 C6.7770885,9.06739757 6.89867659,9.16272039 7.02026468,9.16272039 C7.16211745,9.16272039 7.26344086,9.048333 7.26344086,8.93394561 L7.26344086,7.33252212 L7.48635236,7.19907016 C7.7700579,7.02748908 7.93217535,6.7415206 7.93217535,6.43648755 C7.93217535,5.95987342 7.50661704,5.54045298 6.97973532,5.54045298 Z"></path>
                        </g>
                    </g>
                </g>
            </g>
        </g>
    </g>
</svg>