<!-- Generated by IcoMoon.io -->
<svg version="1.1" xmlns="http://www.w3.org/2000/svg" width="32" height="32" viewBox="0 0 32 32">
<title>seen</title>
<path d="M9.314 21.471c0.039 0.009 0.079 0.018 0.119 0.028 1.483 0.676 2.893 1.195 4.232 1.559 0.771 0.135 1.554 0.203 2.336 0.203 2.676 0 5.283-0.793 7.541-2.291 1.781-1.183 3.324-2.799 4.464-4.674l0.049-0.081-0.049-0.082c-1.084-1.783-2.475-3.279-4.14-4.451l0.011-0.012c-0.306-0.251-0.691-0.501-1.155-0.75 0.509 1.011 0.795 2.152 0.795 3.361 0 3.551-2.472 6.524-5.79 7.292-0.554 0.138-1.133 0.211-1.727 0.211-0.237 0-0.473-0.012-0.707-0.035-0.036-0.010-0.073-0.021-0.111-0.031-3.734-0.422-6.635-3.591-6.635-7.438 0-0.372 0.027-0.737 0.079-1.094 0.065-0.605 0.199-1.198 0.4-1.77l0.142-0.405-0.356 0.222c-0.13 0.081-0.246 0.155-0.353 0.227-1.781 1.181-3.324 2.797-4.464 4.672l-0.050 0.082 0.050 0.081c0.864 1.422 1.927 2.663 3.167 3.703 0.002 0.002 0.005 0.005 0.007 0.007 0.577 0.559 1.292 1.047 2.145 1.466zM7.628 23.496c-0.414-0.236-0.808-0.483-1.184-0.74l0.004-0.004-0.141-0.104c-2.215-1.66-4.038-3.882-5.277-6.433 1.392-2.863 3.486-5.278 6.060-6.987 2.668-1.772 5.75-2.708 8.91-2.708 1.029 0 2.050 0.098 3.052 0.293l-0 0.004c0.289 0.057 0.573 0.119 0.851 0.186 0.256 0.065 0.511 0.136 0.765 0.214 0.031-0.008 0.062-0.017 0.094-0.025 1.849 0.506 3.597 1.449 5.242 2.828 0.707 0.556 1.372 1.17 1.988 1.834 0.017 0.012 0.033 0.024 0.050 0.037l-0.029-0.014c1.182 1.279 2.184 2.745 2.958 4.339-1.392 2.861-3.486 5.277-6.060 6.987-2.668 1.77-5.75 2.707-8.91 2.707-1.714 0-3.403-0.272-5.023-0.809l0.023-0.024c-1.14-0.359-2.264-0.886-3.372-1.579zM12.955 15.144c1.476 0 2.673-1.197 2.673-2.673s-1.197-2.673-2.673-2.673c-1.476 0-2.673 1.197-2.673 2.673s1.197 2.673 2.673 2.673z"></path>
</svg>
