<!-- Generated by IcoMoon.io -->
<svg version="1.1" xmlns="http://www.w3.org/2000/svg" width="32" height="32" viewBox="0 0 32 32">
<title>service-mon</title>
<path d="M31.688 23.169h-3.429c0-0.104 0-0.104 0-0.208v-15.792c0-0.416-0.312-0.727-0.727-0.727h-22.857c-0.416 0-0.727 0.312-0.727 0.727v15.792c0 0.104 0 0.104 0 0.208h-3.636c-0.208 0-0.312 0.104-0.312 0.312v0.935c0 0.208 0.104 0.312 0.312 0.312h31.376c0.208 0 0.312-0.104 0.312-0.312v-0.935c0-0.208-0.104-0.312-0.312-0.312zM5.403 8.312c0-0.208 0.104-0.312 0.312-0.312h20.675c0.208 0 0.312 0.104 0.312 0.312v13.299c0 0.208-0.104 0.312-0.312 0.312h-20.675c-0.208 0-0.312-0.104-0.312-0.312v-13.299z"></path>
<path d="M14.13 13.922l2.805 3.013 3.429-4.364 0.831 0.727-0.208-2.078-2.078 0.208 0.935 0.727-3.013 3.74-2.805-3.117-2.078 3.429 0.519 0.416z"></path>
<path d="M11.429 17.039h10.805v0.623h-10.805v-0.623z"></path>
</svg>
