<!-- Generated by IcoMoon.io -->
<svg version="1.1" xmlns="http://www.w3.org/2000/svg" width="32" height="32" viewBox="0 0 32 32">
<title>service-xms</title>
<path d="M28.947 20.631c0 0.581-0.471 1.053-1.053 1.053s-1.053-0.471-1.053-1.053c0-0.581 0.471-1.053 1.053-1.053s1.053 0.471 1.053 1.053z"></path>
<path d="M4.948 9.579l-4.947 12.21h1.789l1.368-3.474h5.579l1.368 3.474h1.789l-5.052-12.21h-1.895zM3.58 17.053l2.316-6 2.421 6h-4.737z"></path>
<path d="M18.421 9.579h-5.263v12.21h1.684v-4.737h3.368c2.947 0 4.421-1.368 4.421-3.895-0.105-2.21-1.579-3.474-4.21-3.579zM18 15.789h-3.158v-4.842h3.158c1.895 0.105 2.842 0.842 3.052 2.316-0.105 1.684-1.053 2.526-3.052 2.526z"></path>
<path d="M26.526 15.684v-6.105h-1.579v6.947c0.737 0 1.263-0.421 1.579-0.842z"></path>
<path d="M31.999 19.052c-0.632-1.158-0.632-1.158-0.632-1.158s-2.316 0.632-2.737-1.579h-1.368c0 0-0.105 0.526-0.421 0.947-0.211 0.316-0.632 0.737-1.368 0.737-0.316 0-0.632 0-1.053-0.105-0.737 1.158-0.737 1.158-0.737 1.158s1.895 1.263 0 3.052l0.737 1.263c0 0 2.105-0.842 2.737 1.579h1.368c0 0 0.421-2.21 2.737-1.579 0.632-1.158 0.632-1.158 0.632-1.158s-1.684-1.579 0.105-3.158zM27.894 22.21c-0.421 0-0.737-0.211-1.053-0.421-0.316-0.316-0.526-0.737-0.526-1.158s0.211-0.842 0.526-1.158c0.316-0.211 0.632-0.421 1.053-0.421 0.842 0 1.579 0.737 1.579 1.579s-0.737 1.579-1.579 1.579z"></path>
</svg>
