<!-- Generated by IcoMoon.io -->
<svg version="1.1" xmlns="http://www.w3.org/2000/svg" width="32" height="32" viewBox="0 0 32 32">
<title>setting</title>
<path d="M12.18 4.469c0-0.365-0.053-0.718-0.151-1.052 1.255-0.384 2.589-0.59 3.973-0.59 1.384 0 2.72 0.207 3.976 0.591-0.098 0.334-0.151 0.686-0.151 1.051 0 2.079 1.712 3.764 3.824 3.764 0.933 0 1.788-0.329 2.452-0.876 1.296 1.466 2.268 3.218 2.806 5.146-1.413 0.553-2.412 1.911-2.412 3.499s0.999 2.945 2.411 3.499c-0.538 1.927-1.511 3.678-2.807 5.144-0.664-0.548-1.52-0.878-2.454-0.878-2.112 0-3.824 1.685-3.824 3.764 0 0.365 0.053 0.719 0.152 1.053-1.255 0.383-2.589 0.59-3.972 0.59-1.385 0-2.72-0.207-3.976-0.591 0.098-0.334 0.151-0.686 0.151-1.051 0-2.079-1.712-3.764-3.824-3.764-0.933 0-1.788 0.329-2.452 0.875-1.297-1.467-2.269-3.22-2.807-5.149 1.402-0.558 2.391-1.911 2.391-3.49s-0.99-2.933-2.392-3.491c0.538-1.932 1.511-3.687 2.81-5.155 0.664 0.548 1.52 0.877 2.454 0.877 2.112 0 3.824-1.685 3.824-3.764zM16.002 20.716c2.64 0 4.78-2.106 4.78-4.705s-2.14-4.705-4.78-4.705c-2.64 0-4.78 2.106-4.78 4.705s2.14 4.705 4.78 4.705z"></path>
</svg>
