<!-- Generated by IcoMoon.io -->
<svg version="1.1" xmlns="http://www.w3.org/2000/svg" width="32" height="32" viewBox="0 0 32 32">
<title>shear</title>
<path d="M20.224 19.944l-14.215-16.429c-0.265-0.307-0.397-0.707-0.365-1.111s0.225-0.779 0.536-1.040c0.654-0.548 1.626-0.47 2.184 0.175l14.355 16.589c2.644-1.114 5.799-0.449 7.726 1.848 2.373 2.826 1.987 7.054-0.859 9.443-2.846 2.389-7.077 2.034-9.448-0.793-2.137-2.546-2.035-6.23 0.087-8.681v0zM22.376 20.915c-0.996 0.842-1.571 2.081-1.57 3.385 0 2.46 2.008 4.454 4.486 4.454 2.477 0 4.485-1.994 4.485-4.454s-2.008-4.454-4.485-4.454c-0.813 0-1.575 0.215-2.232 0.59-0.060 0.074-0.127 0.142-0.2 0.203-0.149 0.123-0.312 0.215-0.483 0.277v-0.001zM14.302 18.098l-2.048 2.367c-0.013 0.015-0.026 0.029-0.040 0.043 1.687 2.426 1.627 5.76-0.351 8.117-2.371 2.826-6.603 3.182-9.448 0.793-2.847-2.389-3.232-6.617-0.861-9.443 2.089-2.49 5.622-3.063 8.379-1.529l2.064-2.385c0.511 0.924 1.325 1.643 2.305 2.037zM19.96 11.561c-0.53-0.913-1.359-1.616-2.348-1.989l6.952-8.035c0.558-0.645 1.531-0.722 2.184-0.174 0.311 0.261 0.504 0.635 0.536 1.040s-0.099 0.805-0.365 1.111l-6.96 8.046zM3.845 27.712c1.897 1.592 4.718 1.355 6.299-0.528 1.582-1.885 1.326-4.703-0.573-6.295-1.897-1.592-4.718-1.355-6.3 0.528-1.581 1.885-1.323 4.703 0.574 6.295z"></path>
</svg>
