<?xml version="1.0" encoding="UTF-8"?>
<svg width="20px" height="20px" viewBox="0 0 20 20" version="1.1" xmlns="http://www.w3.org/2000/svg" xmlns:xlink="http://www.w3.org/1999/xlink">
    <!-- Generator: Sketch 56 (81588) - https://sketch.com -->
    <title>目标卷</title>
    <desc>Created with Sketch.</desc>
    <g id="目标卷" stroke="none" stroke-width="1" fill="none" fill-rule="evenodd">
        <g>
            <rect id="Rectangle" fill="#FFB6B6" fill-rule="nonzero" opacity="0" x="0" y="0" width="20" height="20"></rect>
            <path d="M9.4996121,6 C7.87975175,6 6,6.42513576 6,7.65166796 L6,12.1055081 C6,13.3072149 7.87975175,13.7579519 9.4996121,13.7579519 C11.1202483,13.7579519 13,13.3312645 13,12.1055081 L13,7.65244375 C13,6.42591156 11.1202483,6 9.49883631,6 L9.4996121,6 Z M9.49418154,6.65166796 C11.0085337,6.65166796 12.3731575,7.02637704 12.3731575,7.65244375 C12.3731575,8.27773468 10.8603569,8.61132661 9.4996121,8.61132661 C8.13886734,8.61132661 6.61598138,8.27773468 6.61598138,7.65166796 C6.61598138,7.02637704 7.98138092,6.65089216 9.49418154,6.65089216 L9.49418154,6.65166796 Z M9.4996121,12.9519007 C7.79286268,12.9519007 6.60667184,12.4515128 6.60667184,11.8254461 L6.60667184,11.5399535 L6.60667184,10.973623 C7.25523662,11.5244375 8.37703646,11.7245927 9.5003879,11.7245927 C10.6229635,11.7245927 11.7114042,11.5236618 12.3591932,10.973623 L12.3591932,11.8254461 C12.3591932,12.4515128 11.2063615,12.9519007 9.4996121,12.9519007 Z M9.48719938,10.9169899 C7.78044996,10.9169899 6.59891389,10.3211792 6.59891389,9.87897595 L6.59891389,8.72924748 C7.24670287,9.28006206 8.85802948,9.37858805 9.48719938,9.37858805 C10.1155935,9.37858805 11.7276959,9.27928627 12.3754849,8.72924748 L12.3754849,9.87897595 C12.3754849,10.3211792 11.1939488,10.9169899 9.48719938,10.9169899 Z" id="Mask" fill="#777777" fill-rule="nonzero"></path>
            <path d="M6.86724854,4.66564941 C5.95388794,4.66564941 4.85879849,4.66564941 3.9810791,4.66564941 C4.23904419,4.16461182 5.00167847,2.7963562 5.42056274,2 C5.62637329,2.38467407 5.62012412,2.33648239 6,2.99127197 C7.96067999,1.97498327 9.85298047,1.77594769 11.9387432,2.487276 C13.524108,3.02791504 14.7868733,4.00892572 15.722814,5.39838345 C17.6044202,8.19185279 17.387722,11.8937647 15.2000822,14.46289 C13.0310205,17.0101509 9.41006022,17.8118875 6.35831017,16.4139121 C3.1042145,14.923181 1.88497657,11.6886022 2.00844965,9.60149813 L2.78295898,9.60149813 C2.85244193,11.580622 3.43923138,13.3428593 4.95947266,14.6262817 C5.99735741,15.5025315 7.60681952,16.3253146 8.96166992,16.4139121 C11.9300539,16.6080083 14.893226,14.6834943 15.9030762,11.98211 C16.8954885,9.32727119 15.7949219,5.84194763 13.6027832,4.16461182 C11.4106445,2.487276 8.24628793,2.40811743 6.35831017,3.55096436 C6.61598138,4.11364746 6.65274048,4.16903687 6.86724854,4.66564941 Z" id="Fill-1" fill="#777777"></path>
        </g>
    </g>
</svg>