<!-- Generated by IcoMoon.io -->
<svg version="1.1" xmlns="http://www.w3.org/2000/svg" width="768" height="768" viewBox="0 0 768 768">
<title></title>
<g id="icomoon-ignore">
</g>
<path d="M260.579 155.129c-42.819 0-94.156 0-135.303 0 12.093-23.488 47.846-87.63 67.484-124.963 9.649 18.032 9.355 15.774 27.164 46.471 91.916-47.641 180.625-56.974 278.403-23.629 74.321 25.345 133.518 71.334 177.393 136.471 88.207 130.958 78.050 304.5-24.504 424.937-101.685 119.415-271.432 157-414.497 91.461-152.548-69.883-209.708-221.52-203.92-319.362h36.308c3.257 92.78 30.766 175.393 102.034 235.558 48.657 41.079 124.107 79.649 187.62 83.804 139.156 9.101 278.067-81.121 325.407-207.759 46.524-124.458-5.072-287.847-107.837-366.48s-251.11-82.345-339.616-28.766c12.079 26.377 13.802 28.975 23.857 52.257z"></path>
<path d="M272.044 217.681h-0.028c55.988 0 120.895 14.413 120.895 55.916v150.688c0 41.48-64.907 55.916-120.867 55.916-55.933 0-120.842-15.253-120.842-55.916v-150.716c0-41.504 64.907-55.892 120.842-55.892zM272.044 452.93c58.933 0 98.74-16.933 98.74-38.118v-28.825c-22.37 18.612-59.953 25.411-98.716 25.411-38.79 0-77.524-6.772-99.919-25.411v28.825c0 21.184 40.957 38.118 99.894 38.118zM271.615 384.069c58.933 0 99.732-20.163 99.732-35.126v-38.907c-22.37 18.612-78.035 21.974-99.732 21.974-21.726 0-77.363-3.334-99.732-21.974v38.907c0 14.963 40.799 35.126 99.732 35.126zM271.858 239.734v-0.028c-52.235 0-99.384 12.706-99.384 33.866 0 21.184 52.584 32.474 99.571 32.474s99.222-11.29 99.222-32.447c0-21.185-47.12-33.866-99.412-33.866z"></path>
<path d="M495.928 283.312v0.028c55.961 0 120.867 14.413 120.867 55.892v150.688c0 41.504-64.907 55.916-120.867 55.916-55.933 0-120.842-15.254-120.842-55.892v-150.74c0-41.504 64.906-55.892 120.842-55.892zM495.741 305.365v-0.028c-52.235 0-99.384 12.706-99.384 33.866 0 21.185 52.584 32.474 99.571 32.474s99.222-11.29 99.222-32.447c0-21.212-47.12-33.866-99.412-33.866zM495.928 518.561c58.933 0 98.74-16.933 98.74-38.118v-28.826c-22.37 18.612-59.953 25.411-98.716 25.411-38.79 0-77.524-6.772-99.919-25.411v28.826c0 21.184 40.958 38.118 99.894 38.118zM495.502 449.7c58.933 0 99.732-20.163 99.732-35.126v-38.907c-22.37 18.64-75.41 22.577-99.732 22.577-24.35 0-77.363-3.937-99.732-22.577v38.907c0 14.991 40.799 35.126 99.732 35.126z"></path>
</svg>
