<?xml version="1.0" encoding="UTF-8"?>
<svg width="20px" height="20px" viewBox="0 0 20 20" version="1.1" xmlns="http://www.w3.org/2000/svg" xmlns:xlink="http://www.w3.org/1999/xlink">
    <!-- Generator: Sketch 56 (81588) - https://sketch.com -->
    <title>目标组</title>
    <desc>Created with Sketch.</desc>
    <g id="目标组" stroke="none" stroke-width="1" fill="none" fill-rule="evenodd">
        <g>
            <g>
                <rect id="Rectangle" fill="#FFB6B6" fill-rule="nonzero" opacity="0" x="0" y="0" width="20" height="20"></rect>
                <path d="M6.86724854,4.66564941 C5.95388794,4.66564941 4.85879849,4.66564941 3.9810791,4.66564941 C4.23904419,4.16461182 5.00167847,2.7963562 5.42056274,2 C5.62637329,2.38467407 5.62012412,2.33648239 6,2.99127197 C7.96067999,1.97498327 9.85298047,1.77594769 11.9387432,2.487276 C13.524108,3.02791504 14.7868733,4.00892572 15.722814,5.39838345 C17.6044202,8.19185279 17.387722,11.8937647 15.2000822,14.46289 C13.0310205,17.0101509 9.41006022,17.8118875 6.35831017,16.4139121 C3.1042145,14.923181 1.88497657,11.6886022 2.00844965,9.60149813 L2.78295898,9.60149813 C2.85244193,11.580622 3.43923138,13.3428593 4.95947266,14.6262817 C5.99735741,15.5025315 7.60681952,16.3253146 8.96166992,16.4139121 C11.9300539,16.6080083 14.893226,14.6834943 15.9030762,11.98211 C16.8954885,9.32727119 15.7949219,5.84194763 13.6027832,4.16461182 C11.4106445,2.487276 8.24628793,2.40811743 6.35831017,3.55096436 C6.61598138,4.11364746 6.65274048,4.16903687 6.86724854,4.66564941 Z" id="Fill-1" fill="#777777"></path>
                <path d="M7.1118263,6 L7.11125488,6 C8.30554059,6 9.69011202,6.30744 9.69011202,7.1928 L9.69011202,10.4072 C9.69011202,11.292 8.30554059,11.6 7.1118263,11.6 C5.91868345,11.6 4.53411202,11.27464 4.53411202,10.4072 L4.53411202,7.19224 C4.53411202,6.30688 5.91868345,6 7.1118263,6 Z M7.1118263,11.01816 C8.36896916,11.01816 9.21811202,10.65696 9.21811202,10.20504 L9.21811202,9.59016 C8.74096916,9.9872 7.93925488,10.13224 7.11239773,10.13224 C6.28496916,10.13224 5.45868345,9.98776 4.98096916,9.59016 L4.98096916,9.99896 L4.98096916,10.20504 C4.98096916,10.65696 5.85468345,11.01816 7.1118263,11.01816 Z M7.10268345,9.54928 C8.3598263,9.54928 9.23011202,9.1192 9.23011202,8.8 L9.23011202,7.97008 C8.75296916,8.36712 7.56554059,8.4388 7.10268345,8.4388 C6.63925488,8.4388 5.45239773,8.36768 4.97525488,7.97008 L4.97525488,8.8 C4.97525488,9.1192 5.84554059,9.54928 7.10268345,9.54928 Z M7.1078263,6.4704 L7.1078263,6.46984 C5.99354059,6.46984 4.9878263,6.74088 4.9878263,7.19224 C4.9878263,7.64416 6.10954059,7.88496 7.1118263,7.88496 C8.11411202,7.88496 9.22839773,7.64416 9.22839773,7.1928 C9.22839773,6.74088 8.22325488,6.4704 7.1078263,6.4704 Z" id="形状结合" fill="#777777" fill-rule="nonzero"></path>
                <path d="M11.8876023,7.4 L11.8876023,7.40056 C13.0813166,7.40056 14.465888,7.708 14.465888,8.5928 L14.465888,11.8072 C14.465888,12.69256 13.0813166,13 11.8876023,13 C10.6944594,13 9.30988798,12.67464 9.30988798,11.80776 L9.30988798,8.59224 C9.30988798,7.70688 10.6944594,7.4 11.8876023,7.4 Z M11.8836023,7.8704 L11.8836023,7.86984 C10.7693166,7.86984 9.76360227,8.14088 9.76360227,8.59224 C9.76360227,9.04416 10.8853166,9.28496 11.8876023,9.28496 C12.889888,9.28496 14.0041737,9.04416 14.0041737,8.5928 C14.0041737,8.14032 12.9990308,7.8704 11.8836023,7.8704 Z M11.8876023,12.41816 C13.1447451,12.41816 13.993888,12.05696 13.993888,11.60504 L13.993888,10.99016 C13.5167451,11.3872 12.7150308,11.53224 11.8881737,11.53224 C11.0607451,11.53224 10.2344594,11.38776 9.75674512,10.99016 L9.75674512,11.39896 L9.75674512,11.60504 C9.75674512,12.05696 10.6304594,12.41816 11.8876023,12.41816 Z M11.8784594,10.94928 C13.1356023,10.94928 14.005888,10.5192 14.005888,10.2 L14.005888,9.37008 C13.5287451,9.76768 12.3973166,9.85168 11.8784594,9.85168 C11.3590308,9.85168 10.2281737,9.76768 9.75103084,9.37008 L9.75103084,10.2 C9.75103084,10.51976 10.6213166,10.94928 11.8784594,10.94928 Z" id="形状结合" fill="#777777" fill-rule="nonzero"></path>
            </g>
        </g>
    </g>
</svg>