<!-- Generated by IcoMoon.io -->
<svg version="1.1" xmlns="http://www.w3.org/2000/svg" width="32" height="32" viewBox="0 0 32 32">
<title>ssl-certificate</title>
<path d="M28.221 17.239v-2.545c0-1.999-1.626-3.625-3.624-3.625-1.999 0-3.625 1.626-3.625 3.625v2.545h-2.134v7.513l-15.061 0.011v-17.528h22.177v2.712c0.641 0.206 1.22 0.54 1.699 0.991v-5.401h-25.576v20.927l27.845-0.001v-9.224h-1.701zM22.482 14.694c0-1.166 0.949-2.115 2.115-2.115s2.114 0.949 2.114 2.115v2.545h-4.229v-2.545zM28.223 24.763h-7.685v-5.825h7.685v5.825z"></path>
<path d="M24.284 22.347v1.168c0 0.201 0.204 0.365 0.457 0.365 0.252 0 0.457-0.163 0.457-0.365v-1.168c0.375-0.174 0.639-0.548 0.639-0.989 0-0.605-0.49-1.095-1.095-1.095s-1.095 0.49-1.095 1.095c-0.001 0.441 0.262 0.815 0.637 0.989z"></path>
<path d="M6.973 11.805h12.142v1.699h-12.142v-1.699z"></path>
<path d="M6.973 18.052h6.411v1.699h-6.411v-1.699z"></path>
</svg>
