<?xml version="1.0" encoding="iso-8859-1"?>
<!-- Generator: Adobe Illustrator 19.0.0, SVG Export Plug-In . SVG Version: 6.00 Build 0)  -->
<svg version="1.1" id="Capa_1" xmlns="http://www.w3.org/2000/svg" xmlns:xlink="http://www.w3.org/1999/xlink" x="0px" y="0px"
	 viewBox="0 0 512 512" style="enable-background:new 0 0 512 512;" xml:space="preserve">
<path style="fill:#FD6F71;" d="M467.688,353.466l-7.675-15.387c-5.632-11.291-4.622-24.76,2.629-35.086l9.883-14.07l-11.869-12.44
	c-8.709-9.129-11.715-22.297-7.829-34.302l5.296-16.358l-15.009-8.39c-11.014-6.156-17.768-17.854-17.592-30.471l0.239-17.193
	l-16.815-3.593c-12.338-2.636-22.241-11.823-25.792-23.931l-4.84-16.499l-17.127,1.523c-12.568,1.118-24.738-4.743-31.7-15.265
	L320,97.664l-15.917,6.504c-11.68,4.772-25.036,2.759-34.791-5.244L256,88.017l-13.292,10.905
	c-9.755,8.003-23.111,10.016-34.791,5.244l-15.917-6.504l-9.488,14.339c-6.962,10.522-19.132,16.383-31.7,15.265l-17.127-1.523
	l-4.84,16.499c-3.551,12.108-13.453,21.295-25.792,23.931l-16.815,3.593l0.239,17.193c0.175,12.617-6.579,24.313-17.592,30.471
	l-15.009,8.39l5.296,16.358c3.886,12.004,0.881,25.173-7.829,34.302l-11.869,12.44l9.883,14.07
	c7.251,10.326,8.261,23.795,2.629,35.086l-7.675,15.387h423.377V353.466z"/>
<path style="fill:#FADC60;" d="M378.902,411.581c25.386-28.837,40.791-66.672,40.791-108.11
	c0-90.406-73.288-163.694-163.693-163.694S92.306,213.065,92.306,303.47c0,41.439,15.405,79.274,40.792,108.11L378.902,411.581
	L378.902,411.581z"/>
<path style="fill:#F2C42C;" d="M271.453,140.508c-5.088-0.476-10.24-0.731-15.453-0.731c-90.406,0-163.694,73.288-163.694,163.694
	c0,41.439,15.405,79.274,40.792,108.11h30.905c-25.387-28.837-40.792-66.672-40.792-108.11
	C123.212,218.277,188.295,148.296,271.453,140.508z"/>
<g>
	<path style="fill:#3A484A;" d="M179.179,201.861c-4.268,0-7.726,3.459-7.726,7.726v13.903c0,4.267,3.458,7.726,7.726,7.726
		s7.726-3.459,7.726-7.726v-13.903C186.906,205.321,183.447,201.861,179.179,201.861z"/>
	<path style="fill:#3A484A;" d="M332.82,201.861c-4.268,0-7.726,3.459-7.726,7.726v13.903c0,4.267,3.458,7.726,7.726,7.726
		c4.268,0,7.726-3.459,7.726-7.726v-13.903C340.546,205.321,337.088,201.861,332.82,201.861z"/>
	<path style="fill:#3A484A;" d="M280.046,216.706c-3.214-2.809-8.094-2.482-10.902,0.731c-3.194,3.652-7.984,5.747-13.144,5.747
		s-9.949-2.095-13.142-5.747c-2.808-3.213-7.689-3.541-10.902-0.732c-3.213,2.808-3.542,7.689-0.733,10.902
		c6.126,7.01,15.158,11.031,24.778,11.031c9.619,0,18.65-4.02,24.778-11.03C283.586,224.397,283.259,219.515,280.046,216.706z"/>
	<path style="fill:#3A484A;" d="M377.469,56.158c-5.317,0.837-13.015,2.644-22.039,6.544c-3.754-9.086-8.014-15.748-11.243-20.052
		c-2.561-3.413-7.406-4.104-10.817-1.543c-3.413,2.561-4.104,7.405-1.543,10.817c3.43,4.572,8.282,12.41,11.916,23.789
		c0.698,2.184,2.33,3.946,4.455,4.808c2.112,0.858,4.535,0.729,6.545-0.344c10.535-5.625,19.478-7.864,25.126-8.753
		c4.216-0.663,7.096-4.617,6.432-8.833C385.638,58.375,381.688,55.495,377.469,56.158z"/>
	<path style="fill:#3A484A;" d="M122.426,78.823c-3.413-2.56-8.256-1.87-10.817,1.543c-3.23,4.304-7.49,10.966-11.243,20.052
		c-9.023-3.898-16.721-5.707-22.039-6.544c-4.226-0.666-8.17,2.218-8.833,6.432c-0.663,4.216,2.217,8.17,6.432,8.833
		c5.647,0.888,14.591,3.128,25.126,8.753c1.93,1.03,4.426,1.204,6.546,0.344c2.125-0.862,3.756-2.624,4.454-4.808
		c3.634-11.379,8.486-19.217,11.916-23.789C126.53,86.228,125.839,81.384,122.426,78.823z"/>
	<path style="fill:#3A484A;" d="M492.96,115.47c-1.491-3.998-5.941-6.03-9.939-4.538c-5.043,1.882-12.223,5.191-20.286,10.816
		c-5.493-8.154-10.998-13.828-15.022-17.402c-3.194-2.833-8.077-2.542-10.908,0.648c-2.833,3.192-2.543,8.075,0.648,10.908
		c4.275,3.795,10.595,10.507,16.43,20.928c1.12,2.001,3.07,3.401,5.325,3.821c2.236,0.418,4.593-0.194,6.344-1.644
		c9.199-7.618,17.515-11.599,22.871-13.597C492.421,123.919,494.453,119.469,492.96,115.47z"/>
</g>
<path style="fill:#B3F0FF;" d="M512,366.152v-49.365c-23.34-10.078-49.803-10.078-73.143,0l0,0
	c-23.34,10.078-49.803,10.078-73.143,0l0,0c-23.34-10.078-49.803-10.078-73.143,0l0,0c-23.34,10.078-49.803,10.078-73.143,0l0,0
	c-23.34-10.078-49.803-10.078-73.143,0l0,0c-23.34,10.078-49.803,10.078-73.143,0l0,0c-23.34-10.078-49.803-10.078-73.143,0v49.365
	l19.215,19.215h461.365L512,366.152z"/>
<path style="fill:#57D0E6;" d="M512,415.517v49.365c-23.34-10.078-49.803-10.078-73.143,0l0,0c-23.34,10.078-49.803,10.078-73.143,0
	l0,0c-23.34-10.078-49.803-10.078-73.143,0l0,0c-23.34,10.078-49.803,10.078-73.143,0l0,0c-23.34-10.078-49.803-10.078-73.143,0l0,0
	c-23.34,10.078-49.803,10.078-73.143,0l0,0c-23.34-10.078-49.803-10.078-73.143,0v-49.365l19.215-30.15h461.365L512,415.517z"/>
<path style="fill:#85E7FF;" d="M0,415.517c23.34-10.078,49.803-10.078,73.143,0l0,0c23.34,10.078,49.803,10.078,73.143,0l0,0
	c23.34-10.078,49.803-10.078,73.143,0l0,0c23.34,10.078,49.803,10.078,73.143,0l0,0c23.34-10.078,49.803-10.078,73.143,0l0,0
	c23.34,10.078,49.803,10.078,73.143,0l0,0c23.34-10.078,49.803-10.078,73.143,0v-49.365c-23.34-10.078-49.803-10.078-73.143,0l0,0
	c-23.34,10.078-49.803,10.078-73.143,0l0,0c-23.34-10.078-49.803-10.078-73.143,0l0,0c-23.34,10.078-49.803,10.078-73.143,0l0,0
	c-23.34-10.078-49.803-10.078-73.143,0l0,0c-23.34,10.078-49.803,10.078-73.143,0l0,0c-23.34-10.078-49.803-10.078-73.143,0V415.517
	z"/>
<g>
</g>
<g>
</g>
<g>
</g>
<g>
</g>
<g>
</g>
<g>
</g>
<g>
</g>
<g>
</g>
<g>
</g>
<g>
</g>
<g>
</g>
<g>
</g>
<g>
</g>
<g>
</g>
<g>
</g>
</svg>
