<!-- Generated by IcoMoon.io -->
<svg version="1.1" xmlns="http://www.w3.org/2000/svg" width="32" height="32" viewBox="0 0 32 32">
<title>task-download</title>
<path d="M30.83 16.221c-0.334-0.734-0.906-1.102-1.727-1.102h-7.486v-12.358c0-0.476-0.182-0.895-0.553-1.239s-0.809-0.522-1.314-0.522h-7.492c-0.505 0-0.949 0.172-1.314 0.522s-0.553 0.757-0.553 1.239v12.352h-7.486c-0.815 0-1.399 0.367-1.727 1.102-0.334 0.717-0.195 1.354 0.414 1.905l13.099 12.358c0.353 0.35 0.784 0.522 1.314 0.522s0.967-0.172 1.314-0.522l13.099-12.358c0.602-0.551 0.736-1.182 0.414-1.899z"></path>
</svg>
