<!-- Generated by IcoMoon.io -->
<svg version="1.1" xmlns="http://www.w3.org/2000/svg" width="32" height="32" viewBox="0 0 32 32">
<title>task-process</title>
<path d="M16 0.5c8.56 0 15.5 6.94 15.5 15.5s-6.94 15.5-15.5 15.5c-8.56 0-15.5-6.94-15.5-15.5s6.94-15.5 15.5-15.5zM16 2.714c-7.338 0-13.286 5.948-13.286 13.286s5.948 13.286 13.286 13.286c7.338 0 13.286-5.948 13.286-13.286s-5.948-13.286-13.286-13.286z"></path>
<path d="M24.599 10.212l-0.886 4.761c-0.059 0.317-0.364 0.526-0.681 0.467l-4.766-0.887c-0.317-0.059-0.526-0.364-0.467-0.681l0.131-0.706c0.059-0.317 0.364-0.526 0.681-0.467l2.022 0.376c-1.504-2.614-4.798-3.682-7.573-2.374-2.921 1.377-4.177 4.874-2.8 7.796s4.874 4.177 7.796 2.8c0.577-0.272 1.266-0.025 1.538 0.552s0.025 1.265-0.552 1.538c-1.607 0.758-3.34 0.944-4.966 0.641-2.495-0.464-4.742-2.079-5.904-4.545-1.921-4.073-0.169-8.95 3.904-10.871 3.761-1.774 8.207-0.416 10.379 3.009l0.325-1.749c0.059-0.317 0.364-0.526 0.681-0.467l0.671 0.125c0.318 0.059 0.527 0.364 0.468 0.681v0z"></path>
</svg>
