<!-- Generated by IcoMoon.io -->
<svg version="1.1" xmlns="http://www.w3.org/2000/svg" width="32" height="32" viewBox="0 0 32 32">
<title>task-wait</title>
<path d="M16 0.5c8.56 0 15.5 6.94 15.5 15.5s-6.94 15.5-15.5 15.5c-8.56 0-15.5-6.94-15.5-15.5s6.94-15.5 15.5-15.5zM16 2.714c-7.338 0-13.286 5.948-13.286 13.286s5.948 13.286 13.286 13.286c7.338 0 13.286-5.948 13.286-13.286s-5.948-13.286-13.286-13.286z"></path>
<path d="M8.251 18.456c-1.361 0-2.475-1.114-2.475-2.475s1.114-2.475 2.475-2.475c1.361 0 2.475 1.114 2.475 2.475s-1.114 2.475-2.475 2.475z"></path>
<path d="M15.986 18.456c-1.361 0-2.475-1.114-2.475-2.475s1.114-2.475 2.475-2.475c1.361 0 2.475 1.114 2.475 2.475s-1.114 2.475-2.475 2.475z"></path>
<path d="M23.782 18.456c-1.361 0-2.475-1.114-2.475-2.475s1.114-2.475 2.475-2.475c1.361 0 2.475 1.114 2.475 2.475s-1.114 2.475-2.475 2.475z"></path>
</svg>
