<!-- Generated by IcoMoon.io -->
<svg version="1.1" xmlns="http://www.w3.org/2000/svg" width="32" height="32" viewBox="0 0 32 32">
<title>task-pause</title>
<path d="M16 0.5c8.56 0 15.5 6.94 15.5 15.5s-6.94 15.5-15.5 15.5c-8.56 0-15.5-6.94-15.5-15.5s6.94-15.5 15.5-15.5zM16 2.714c-7.338 0-13.286 5.948-13.286 13.286s5.948 13.286 13.286 13.286c7.338 0 13.286-5.948 13.286-13.286s-5.948-13.286-13.286-13.286z"></path>
<path d="M9.357 14.007c-1.223 0-2.214 0.892-2.214 1.993s0.991 1.993 2.214 1.993h13.287c1.223 0 2.214-0.892 2.214-1.993s-0.991-1.993-2.214-1.993h-13.287z"></path>
</svg>
