<!-- Generated by IcoMoon.io -->
<svg version="1.1" xmlns="http://www.w3.org/2000/svg" width="32" height="32" viewBox="0 0 32 32">
<title>task-setting</title>
<path d="M14.768 11.642c-0.006-0.329 0.124-0.647 0.357-0.88s0.55-0.363 0.88-0.357h1.701l-6.574-6.816-6.574 6.812h1.702c0.321 0 0.628 0.133 0.849 0.366 0.221 0.236 0.332 0.55 0.308 0.871v8.825c0 0.641-0.52 1.158-1.157 1.158s-1.158-0.52-1.158-1.158v-7.587h-3.406c-0.647-0.055-1.149-0.589-1.158-1.239 0.021-0.308 0.127-0.602 0.308-0.852l9.512-9.911c0.471-0.465 1.23-0.465 1.701 0l9.357 9.832c0.462 0.505 0.462 1.278 0 1.78-0.224 0.236-0.529 0.372-0.852 0.387h-3.476v7.587c0.018 0.659-0.499 1.212-1.157 1.239h-1.702l6.571 6.813 6.574-6.813h-1.701c-0.659-0.027-1.176-0.581-1.158-1.239v-8.825c-0.018-0.659 0.499-1.212 1.158-1.239 0.329-0.003 0.647 0.124 0.88 0.36 0.233 0.233 0.363 0.55 0.357 0.88v7.589h3.325c0.329-0.024 0.65 0.121 0.852 0.387 0.462 0.502 0.462 1.278 0 1.78l-9.358 9.678c-0.472 0.465-1.23 0.465-1.701 0l-9.509-9.753c-0.215-0.23-0.326-0.538-0.311-0.852-0.018-0.659 0.499-1.212 1.157-1.239h3.403v-7.584z"></path>
</svg>
