<!-- Generated by IcoMoon.io -->
<svg version="1.1" xmlns="http://www.w3.org/2000/svg" width="32" height="32" viewBox="0 0 32 32">
<title>task-fail</title>
<path d="M16 0.5c8.56 0 15.5 6.94 15.5 15.5s-6.94 15.5-15.5 15.5c-8.56 0-15.5-6.94-15.5-15.5s6.94-15.5 15.5-15.5zM16 2.714c-7.338 0-13.286 5.948-13.286 13.286s5.948 13.286 13.286 13.286c7.338 0 13.286-5.948 13.286-13.286s-5.948-13.286-13.286-13.286z"></path>
<path d="M14.037 8.303c0-1.063 0.884-1.925 1.947-1.925s1.947 0.862 1.947 1.924v9.621c0 1.063-0.884 1.924-1.947 1.924s-1.947-0.862-1.947-1.924v-9.62z"></path>
<path d="M15.982 25.621c-1.063 0-1.924-0.862-1.924-1.924s0.861-1.924 1.924-1.924c1.063 0 1.924 0.862 1.924 1.924s-0.861 1.924-1.924 1.924v0z"></path>
</svg>
