<!-- Generated by IcoMoon.io -->
<svg version="1.1" xmlns="http://www.w3.org/2000/svg" width="32" height="32" viewBox="0 0 32 32">
<title>time</title>
<path d="M16 29.267c-7.391 0-13.404-6.014-13.404-13.404 0-6.069 4.096-11.396 9.961-12.955l0.586 2.204c-4.867 1.293-8.267 5.714-8.267 10.751 0 6.133 4.99 11.124 11.124 11.124s11.124-4.99 11.124-11.124c0-5.257-3.737-9.84-8.885-10.897l0.458-2.233c6.204 1.273 10.706 6.795 10.706 13.13-0.001 7.391-6.015 13.404-13.405 13.404z"></path>
<path d="M17.013 7.317h-2.28v10.323l8.188-0.001v-2.281h-5.908z"></path>
</svg>
