<!-- Generated by IcoMoon.io -->
<svg version="1.1" xmlns="http://www.w3.org/2000/svg" width="32" height="32" viewBox="0 0 32 32">
<title>topology</title>
<path d="M30.6 21.1h-1.9v-5.1c0-0.8-0.6-1.4-1.4-1.4h-10.4v-4.5h1.9c0.8 0 1.4-0.6 1.4-1.4v-5.7c0-0.8-0.6-1.4-1.4-1.4h-5.7c-0.8 0-1.4 0.6-1.4 1.4v5.7c0 0.8 0.6 1.4 1.4 1.4h1.9v4.5h-10.4c-0.8 0-1.4 0.6-1.4 1.4v5.1h-1.9c-0.8 0-1.4 0.6-1.4 1.4v5.7c0 0.8 0.6 1.4 1.4 1.4h5.7c0.8 0 1.4-0.6 1.4-1.4v-5.7c0-0.8-0.6-1.4-1.4-1.4h-1.9v-4.7h10v4.7h-1.9c-0.8 0-1.4 0.6-1.4 1.4v5.7c0 0.8 0.6 1.4 1.4 1.4h5.7c0.8 0 1.4-0.6 1.4-1.4v-5.7c0-0.8-0.6-1.4-1.4-1.4h-1.9v-4.7h10v4.7h-1.9c-0.8 0-1.4 0.6-1.4 1.4v5.7c0 0.8 0.6 1.4 1.4 1.4h5.7c0.8 0 1.4-0.6 1.4-1.4v-5.7c-0.2-0.8-0.8-1.4-1.6-1.4zM13.6 3.5h4.9v4.9h-4.9v-4.9zM6.6 27.8h-4.9v-4.9h4.9v4.9zM18.4 27.8h-4.9v-4.9h4.9v4.9zM30.2 27.8h-4.8v-4.9h4.8v4.9z"></path>
</svg>
