<!-- Generated by IcoMoon.io -->
<svg version="1.1" xmlns="http://www.w3.org/2000/svg" width="32" height="32" viewBox="0 0 32 32">
<title>unified-key</title>
<path d="M9.4 19.2l-1.5 1.3 0.8 0.9c0.3 0.4 0.6 0.4 0.9 0.1l0.5-0.4c0.2-0.2 0.3-0.3 0.3-0.5s-0.1-0.3-0.2-0.4l-0.8-1z"></path>
<path d="M17.5 16.3c0.2 0 0.4 0 0.6 0 1.5 0 3-0.5 4.2-1.5 1.3-1.1 2.2-2.7 2.3-4.5 0.2-1.8-0.4-3.5-1.5-4.8s-2.7-2.2-4.5-2.3c-1.8-0.2-3.5 0.4-4.8 1.5s-2.2 2.7-2.3 4.5c-0.1 1.4 0.2 2.8 0.9 4l-7.6 6.4c-0.4 0.4-0.5 1-0.1 1.4 0.2 0.2 0.4 0.3 0.7 0.4 0.3 0 0.5-0.1 0.7-0.2l7.6-6.4c1.1 0.8 2.4 1.4 3.8 1.5zM15.2 6.3c0.9-0.8 2.1-1.2 3.3-1 1.2 0.1 2.3 0.7 3.1 1.6s1.2 2.1 1 3.3c-0.1 1.2-0.7 2.3-1.6 3.1s-2.1 1.2-3.3 1c-1.2-0.1-2.3-0.7-3.1-1.6s-1.2-2.1-1-3.3c0-1.2 0.6-2.3 1.6-3.1z"></path>
<path d="M18.8 25.8l-1.1-0.5-0.9 1.8 1.1 0.5c0.4 0.2 0.7 0.1 0.9-0.3l0.3-0.6c0.1-0.2 0.1-0.4 0.1-0.6s-0.3-0.2-0.4-0.3z"></path>
<path d="M19.4 9.8c0 0.718-0.582 1.3-1.3 1.3s-1.3-0.582-1.3-1.3c0-0.718 0.582-1.3 1.3-1.3s1.3 0.582 1.3 1.3z"></path>
<path d="M26 8.4c-0.3-0.4-0.7-0.7-1.1-1 0.5 1.1 0.7 2.3 0.6 3.5 0 0.2-0.1 0.5-0.1 0.7 0.1 0.5 0.2 1 0.1 1.5-0.1 1.2-0.7 2.3-1.6 3.1s-2.1 1.2-3.3 1v0l-1.2-0.2c-0.4 0-0.8 0.2-1 0.6l-4.5 9.8c-0.2 0.5 0 1.1 0.5 1.4 0.3 0.1 0.5 0.1 0.8 0 0.2-0.1 0.5-0.3 0.6-0.5l4.2-9.1c0.2 0 0.3 0.1 0.5 0.1s0.4 0 0.6 0c1.5 0 3-0.5 4.2-1.5 1.3-1.1 2.2-2.7 2.3-4.5 0-1.9-0.5-3.6-1.6-4.9zM20.2 18.4c0.1-0.1 0.1-0.2 0.1-0.4-0.1 0.2-0.1 0.3-0.1 0.4zM20.2 17.7c0 0 0 0.1 0 0.1s0 0 0-0.1z"></path>
</svg>
