<!-- Generated by IcoMoon.io -->
<svg version="1.1" xmlns="http://www.w3.org/2000/svg" width="32" height="32" viewBox="0 0 32 32">
<title>vip-unbalanced</title>
<path d="M16.291 4.078c0.442 0 0.8 0.358 0.8 0.8l-0.001 15.694 2.723 0c0.442 0 0.8 0.358 0.8 0.8l-0.001 4.053 3.364 0.001c0.442 0 0.8 0.358 0.8 0.8v1.559c0 0.442-0.358 0.8-0.8 0.8h-15.945c-0.442 0-0.8-0.358-0.8-0.8v-1.559c0-0.442 0.358-0.8 0.8-0.8l3.361-0.001 0.002-4.053c0-0.442 0.358-0.8 0.8-0.8l2.72-0 0.002-15.694c0-0.442 0.358-0.8 0.8-0.8h0.577zM13.839 7.284v2.419l-5.752 2.208c-0.582 0.224-1.236-0.067-1.459-0.65s0.067-1.236 0.65-1.459l6.561-2.519zM25.18 4.14c0.224 0.582-0.067 1.236-0.65 1.459l-6.365 2.443v-2.419l5.556-2.133c0.582-0.224 1.236 0.067 1.459 0.65z"></path>
<path d="M7.503 10.514l0.141 0.023c0.039 0.011 0.076 0.028 0.109 0.052 0.094 0.068 0.142 0.177 0.137 0.285l3.528 4.864c0.044 0.061 0.065 0.132 0.063 0.202l0.041 0v3.415c0 1.661-1.694 3.007-3.783 3.007h-0.753c-2.089 0-3.783-1.346-3.783-3.007v-3.415l0.046-0c-0.001-0.070 0.019-0.141 0.063-0.202v0l3.528-4.864c-0.005-0.108 0.043-0.216 0.137-0.285 0.033-0.024 0.070-0.041 0.109-0.052 0.093-0.025 0.187-0.030 0.279-0.018l0.137-0.005zM7.365 11.69l-3.083 4.248h6.166l-3.083-4.248z"></path>
<path d="M24.776 4.367l0.141 0.023c0.039 0.011 0.076 0.028 0.109 0.052 0.094 0.068 0.142 0.177 0.137 0.285l3.528 4.864c0.044 0.061 0.065 0.132 0.063 0.202l0.041 0v3.415c0 1.661-1.694 3.007-3.783 3.007h-0.753c-2.089 0-3.783-1.346-3.783-3.007v-3.415l0.046-0c-0.001-0.070 0.019-0.141 0.063-0.202v0l3.528-4.864c-0.005-0.108 0.043-0.216 0.137-0.285 0.033-0.024 0.070-0.042 0.109-0.052 0.093-0.025 0.187-0.030 0.279-0.018l0.137-0.005zM24.638 5.543l-3.083 4.248h6.166l-3.083-4.248z"></path>
</svg>
