<!-- Generated by IcoMoon.io -->
<svg version="1.1" xmlns="http://www.w3.org/2000/svg" width="32" height="32" viewBox="0 0 32 32">
<title>vip-balanced</title>
<path d="M16.291 3.744c0.442 0 0.8 0.358 0.8 0.8l-0 15.698 2.723 0c0.442 0 0.8 0.358 0.8 0.8l-0.001 4.053 3.365 0.001c0.442 0 0.8 0.358 0.8 0.8v1.56c0 0.442-0.358 0.8-0.8 0.8h-15.95c-0.442 0-0.8-0.358-0.8-0.8v-1.56c0-0.442 0.358-0.8 0.8-0.8l3.363-0.001 0.001-4.053c0-0.442 0.358-0.8 0.8-0.8l2.722-0 0-15.698c0-0.442 0.358-0.8 0.8-0.8h0.578zM14.040 5.812v2.258h-6.354c-0.624 0-1.129-0.505-1.129-1.129s0.505-1.129 1.129-1.129h6.354zM24.319 5.812c0.624 0 1.129 0.505 1.129 1.129s-0.505 1.129-1.129 1.129h-6.354v-2.258h6.354z"></path>
<path d="M7.501 7.106l0.141 0.023c0.039 0.011 0.076 0.028 0.109 0.052 0.094 0.068 0.141 0.175 0.137 0.283l3.528 4.867c0.044 0.061 0.065 0.132 0.063 0.202l0.041 0v3.416c0 1.661-1.694 3.008-3.784 3.008h-0.753c-2.090 0-3.784-1.347-3.784-3.008v-3.416l0.046-0c-0.001-0.070 0.019-0.141 0.063-0.202v0l3.528-4.867c-0.004-0.107 0.044-0.215 0.137-0.283 0.033-0.024 0.070-0.042 0.109-0.052 0.093-0.025 0.187-0.030 0.279-0.018l0.137-0.005zM7.363 8.283l-3.085 4.25h6.168l-3.083-4.25z"></path>
<path d="M24.779 7.106l0.141 0.023c0.039 0.011 0.076 0.028 0.109 0.052 0.094 0.068 0.141 0.175 0.137 0.283l3.528 4.867c0.044 0.061 0.065 0.132 0.063 0.202l0.041 0v3.416c0 1.661-1.694 3.008-3.784 3.008h-0.753c-2.090 0-3.784-1.347-3.784-3.008v-3.416l0.046-0c-0.001-0.070 0.019-0.141 0.063-0.202v0l3.528-4.867c-0.004-0.107 0.044-0.215 0.137-0.283 0.033-0.024 0.070-0.042 0.109-0.052 0.093-0.025 0.187-0.030 0.279-0.018l0.137-0.005zM24.641 8.283l-3.085 4.25h6.168l-3.083-4.25z"></path>
</svg>
