<!-- Generated by IcoMoon.io -->
<svg version="1.1" xmlns="http://www.w3.org/2000/svg" width="32" height="32" viewBox="0 0 32 32">
<title>visualization</title>
<path d="M2.286 6.667c0 3.682 6.139 6.667 13.714 6.667s13.714-2.985 13.714-6.667c0-3.682-6.14-6.667-13.714-6.667s-13.714 2.985-13.714 6.667z"></path>
<path d="M2.286 8.556c0 3.682 6.139 6.444 13.714 6.444s13.714-2.762 13.714-6.442v16.776c0 3.682-6.139 6.666-13.714 6.666s-13.714-2.984-13.714-6.666v-16.778zM22.132 21.307l-5.086-4.413v11.943h1.716v-8.132l2.081 1.894 1.29-1.291zM9.868 24.488l5.086 4.413v-11.943h-1.716v8.132l-2.081-1.894-1.29 1.291z"></path>
</svg>
