<!-- Generated by IcoMoon.io -->
<svg version="1.1" xmlns="http://www.w3.org/2000/svg" width="32" height="32" viewBox="0 0 32 32">
<title>warning-status</title>
<path d="M17.103 6.373l10.563 17.956c0.233 0.396 0.236 0.886 0.008 1.285s-0.652 0.644-1.111 0.644h-21.125c-0.459 0-0.883-0.246-1.111-0.644s-0.225-0.889 0.008-1.285l10.563-17.956c0.23-0.391 0.65-0.631 1.103-0.631s0.873 0.24 1.103 0.631zM16 10.898c-0.707 0-1.28 0.573-1.28 1.28v6.4c0 0.707 0.573 1.28 1.28 1.28s1.28-0.573 1.28-1.28v-6.4c0-0.707-0.573-1.28-1.28-1.28zM16 23.698c0.457 0 0.88-0.244 1.108-0.64s0.229-0.884 0-1.28c-0.229-0.396-0.651-0.64-1.108-0.64-0.707 0-1.28 0.573-1.28 1.28s0.573 1.28 1.28 1.28z"></path>
</svg>
