<?xml version="1.0" encoding="iso-8859-1"?>
<!-- Generator: Adobe Illustrator 19.0.0, SVG Export Plug-In . SVG Version: 6.00 Build 0)  -->
<svg version="1.1" id="Capa_1" xmlns="http://www.w3.org/2000/svg" xmlns:xlink="http://www.w3.org/1999/xlink" x="0px" y="0px"
	 viewBox="0 0 512 512" style="enable-background:new 0 0 512 512;" xml:space="preserve">
<path style="fill:#EFEDEE;" d="M384.346,30.568l-19.227,19.227l-0.67,78.595l-73.728,149.106l-185.399,84.925l-55.528,2.697
	l-19.227,19.227l2.051,31.276l75.886,61.274l128.41-1.005l113.079-28.992c0,0,53.218-48.091,57.116-53.014
	c3.898-4.923,54.145-98.239,54.145-98.239l25.852-136.168L438.804,56.825L384.346,30.568z"/>
<path style="fill:#7CB777;" d="M435.906,6.05c49.329,55.789,76.216,126.807,76.093,201.946
	c-0.138,81.954-33.532,160.693-92.283,217.843C362.566,481.436,287.365,512,207.457,512c-74.939,0-145.734-26.879-201.392-76.078
	c-7.798-6.891-8.106-18.966-0.746-26.325l25.249-25.249c47.252,47.252,110.063,73.271,176.889,73.263
	c66.826,0.007,129.637-26.01,176.889-73.263s73.271-110.064,73.263-176.889c0.007-66.826-26.01-129.637-73.263-176.889
	l25.249-25.249C416.948-2.033,429.023-1.74,435.906,6.05z"/>
<path style="fill:#35925D;" d="M229.311,490.147c-74.939,0-145.734-26.879-201.392-76.078c-7.798-6.891-8.105-18.966-0.746-26.325
	L5.319,409.597c-7.361,7.361-7.053,19.434,0.746,26.325C61.723,485.12,132.517,512,207.457,512
	c79.908,0,155.109-30.563,212.26-86.16c4.693-4.567,9.208-9.285,13.574-14.118C377.25,462.4,305.422,490.147,229.311,490.147z"/>
<path style="fill:#FD6F71;" d="M365.12,49.796c87.076,87.076,87.076,228.249,0,315.324s-228.249,87.076-315.324,0L365.12,49.796z"/>
<g>
	<path style="fill:#3A484A;" d="M184.795,315.772c-1.977,0-3.955-0.754-5.464-2.263l-11.153-11.153
		c-3.017-3.017-3.017-7.91,0-10.926c3.018-3.017,7.91-3.017,10.927,0l11.153,11.153c3.017,3.017,3.017,7.91,0,10.926
		C188.75,315.017,186.772,315.772,184.795,315.772z"/>
	<path style="fill:#3A484A;" d="M308.045,192.522c-1.977,0-3.955-0.754-5.464-2.263l-11.153-11.153
		c-3.017-3.017-3.017-7.91,0-10.926c3.018-3.017,7.91-3.017,10.927,0l11.153,11.153c3.017,3.017,3.017,7.91,0,10.926
		C312,191.768,310.022,192.522,308.045,192.522z"/>
	<path style="fill:#3A484A;" d="M232.232,268.641c-0.772,0-1.543-0.026-2.316-0.078c-4.258-0.285-7.477-3.969-7.191-8.227
		c0.286-4.259,4.008-7.476,8.227-7.191c5.802,0.388,11.608-1.884,15.958-6.235c4.351-4.351,6.624-10.168,6.235-15.958
		c-0.285-4.258,2.934-7.941,7.191-8.227c4.258-0.289,7.941,2.933,8.227,7.191c0.688,10.239-3.221,20.416-10.725,27.921
		C250.899,264.775,241.675,268.64,232.232,268.641z"/>
	<path style="fill:#3A484A;" d="M320.488,333.715c-7.181-7.181-10.042-15.964-6.39-19.616c3.652-3.652,12.434-0.791,19.616,6.39
		S327.67,340.896,320.488,333.715z"/>
	<path style="fill:#3A484A;" d="M220.912,379.212c-1.617-10.026,1.205-18.82,6.305-19.643c5.099-0.822,10.543,6.638,12.16,16.665
		C240.994,386.261,222.528,389.239,220.912,379.212z"/>
	<path style="fill:#3A484A;" d="M109.986,359.884c4.759-8.972,12.316-14.282,16.878-11.862c4.563,2.42,4.403,11.655-0.356,20.627
		S105.227,368.855,109.986,359.884z"/>
	<path style="fill:#3A484A;" d="M379.213,220.913c-10.026-1.617-18.82,1.205-19.643,6.305c-0.822,5.099,6.638,10.544,16.665,12.16
		C386.261,240.994,389.239,222.529,379.213,220.913z"/>
	<path style="fill:#3A484A;" d="M359.884,109.987c-8.972,4.759-14.282,12.316-11.862,16.878c2.421,4.563,11.655,4.403,20.627-0.356
		C377.62,121.751,368.854,105.228,359.884,109.987z"/>
</g>
<g>
</g>
<g>
</g>
<g>
</g>
<g>
</g>
<g>
</g>
<g>
</g>
<g>
</g>
<g>
</g>
<g>
</g>
<g>
</g>
<g>
</g>
<g>
</g>
<g>
</g>
<g>
</g>
<g>
</g>
</svg>
