<!-- Generated by IcoMoon.io -->
<svg version="1.1" xmlns="http://www.w3.org/2000/svg" width="32" height="32" viewBox="0 0 32 32">
<title>workgroup</title>
<path d="M27.6 18.9c0.1-0.6 0.1-1.1 0.1-1.7 0-4.4-2.5-8.3-6.4-10.3l-0.8 1.4c3.3 1.8 5.5 5.2 5.5 8.9 0 0.4 0 0.7-0.1 1.1h-0.4c-1.9 0-3.4 1.5-3.4 3.4s1.5 3.4 3.4 3.4c1.9 0 3.4-1.5 3.4-3.4 0.2-1.2-0.4-2.2-1.3-2.8zM25.7 23.4c-1 0-1.7-0.7-1.7-1.7 0-0.9 0.8-1.7 1.7-1.7s1.7 0.7 1.7 1.7c0 1-0.8 1.7-1.7 1.7z"></path>
<path d="M11.3 8.1c0.6 0.9 1.7 1.6 2.9 1.6 1.9 0 3.4-1.5 3.4-3.4 0-1.8-1.6-3.3-3.5-3.3s-3.4 1.5-3.4 3.4v0.3c-4.2 1.8-6.9 6-6.9 10.6h1.7c-0.1-4 2.2-7.5 5.8-9.2zM14.1 4.6c1 0 1.7 0.7 1.7 1.7 0 0.9-0.8 1.7-1.7 1.7s-1.7-0.7-1.7-1.7c0-1 0.8-1.7 1.7-1.7z"></path>
<path d="M15.8 27.3c-2.3 0-4.6-0.7-6.4-2.1 0.3-0.5 0.5-1 0.5-1.7 0-1.9-1.5-3.4-3.4-3.4s-3.4 1.5-3.4 3.4 1.5 3.4 3.4 3.4c0.7 0 1.2-0.2 1.8-0.5 2.1 1.7 4.8 2.6 7.5 2.6 2.2 0 4.4-0.6 6.3-1.8l-0.9-1.4c-1.6 1.1-3.5 1.5-5.4 1.5zM6.3 25.2c-0.9 0-1.7-0.7-1.7-1.7s0.8-1.7 1.7-1.7c1 0 1.7 0.7 1.7 1.7s-0.7 1.7-1.7 1.7z"></path>
<path d="M12.5 15.4c0 1 0.5 2 1.2 2.6-1.4 0.8-2.3 2.2-2.3 3.9h1.6c0-1.7 1.4-3 3-3 1.7 0 3 1.4 3 3h1.5c0-1.7-0.9-3.1-2.3-3.9 0.7-0.6 1.2-1.6 1.2-2.6 0-1.9-1.6-3.5-3.5-3.5s-3.4 1.6-3.4 3.5zM18 15.4c0 1.1-0.9 2-2 2s-2-0.9-2-2c0-1.1 0.9-2 2-2s2 0.9 2 2z"></path>
</svg>
