<!-- Generated by IcoMoon.io -->
<svg version="1.1" xmlns="http://www.w3.org/2000/svg" width="1024" height="1024" viewBox="0 0 1024 1024">
<title></title>
<g id="icomoon-ignore">
</g>
<path d="M243.994 307.353c74.165-72.635 163.5-108.953 268.006-108.953s193.558 36.042 267.163 108.128c73.603 72.085 110.405 159.302 110.405 261.652 0 55.026-12.361 107.852-37.083 158.475-37.274 52.991-69.348 85.972-96.225 98.946-11.813-5.685-93.232-38.667-244.258-98.946-176.199 65.965-268.238 98.946-276.119 98.946-22.622-23.287-44.078-56.27-64.367-98.946-24.721-50.625-37.083-103.449-37.083-158.475 0-102.35 36.52-189.291 109.562-260.824zM648.868 462.527l-148.667 113.196h-7.079c-16.519 0-30.087 5.307-40.707 15.918s-15.929 24.172-15.929 40.681c0 16.508 5.31 30.068 15.929 40.681s24.188 15.918 40.707 15.918c16.519 0 30.087-5.307 40.707-15.918s15.929-24.172 15.929-40.681v-7.075l113.27-148.571-14.158-14.15zM209.946 594.591v37.732h75.514v-37.732h-75.514zM285.852 373.329l-28.268 26.68 56.538 53.363 28.268-26.68-56.538-53.363zM530.878 273.864h-37.756v75.464h37.756v-75.464zM766.416 400.009l-28.268-26.68-56.538 53.363 28.268 26.68 56.538-53.363zM814.054 632.323v-37.732h-75.514v37.732h75.514z"></path>
</svg>
