<!-- Generated by IcoMoon.io -->
<svg version="1.1" xmlns="http://www.w3.org/2000/svg" width="1024" height="1024" viewBox="0 0 1024 1024">
<title></title>
<g id="icomoon-ignore">
</g>
<path d="M627.059 662.557c95.621-37.836 150.381-125.181 150.381-233.567 0-142.018-116.013-257.146-259.12-257.146s-259.12 115.129-259.12 257.146c0 137.928 95.626 251.917 233.022 258.288 27.991 60.806 67.478 132.913 76.12 147.763 18.007 30.948 71.023 36.375 102.005 18.621s40.737-65.010 22.729-95.961c-6.978-11.995-30.011-54.855-66.017-95.145zM244.503 96h534.997c33.769 0 61.144 27.32 61.144 61.021v709.958c0 33.7-27.375 61.021-61.144 61.021h-534.997c-33.769 0-61.144-27.32-61.144-61.021v-709.958c0-33.7 27.375-61.021 61.144-61.021zM518.32 513.12c-45.375 0-82.16-36.785-82.16-82.16s36.785-82.16 82.16-82.16c45.375 0 82.16 36.785 82.16 82.16s-36.785 82.16-82.16 82.16zM316.081 835.441c24.434 0 44.242-19.808 44.242-44.242s-19.808-44.242-44.242-44.242c-24.434 0-44.242 19.808-44.242 44.242s19.808 44.242 44.242 44.242zM476.779 551.597c22.207-12.741 179.892 197.494 193.026 220.098s5.777 51.263-16.43 64.004c-22.207 12.741-50.858 4.742-63.992-17.862s-134.812-253.499-112.605-266.24z"></path>
</svg>
