<!-- Generated by IcoMoon.io -->
<svg version="1.1" xmlns="http://www.w3.org/2000/svg" width="1024" height="1024" viewBox="0 0 1024 1024">
<title></title>
<g id="icomoon-ignore">
</g>
<path d="M118.4 262.971c0-26.835 10.235-47.179 30.704-61.033 30.704-20.784 110.166-83.538 381.918-83.538 181.163 0 302.336 34.359 363.511 103.071 7.378 9.568 11.067 23.399 11.067 41.499s0 38.402 0 60.91c-1.409 14.853-5.098 25.149-11.067 30.901-8.95 8.627-82.074 100.989-363.511 100.989s-377.282-70.088-400.284-100.989c-7.348-10.749-12.345-22-12.345-30.901 0-5.931 0-26.232 0-60.91zM118.4 457.020c86.619 63 224.177 94.497 412.666 94.497s313.334-31.914 374.534-95.748v69.97c-0.708 15.022-4.794 26.808-12.258 35.358-11.199 12.835-88.714 119.58-362.276 119.58s-376.964-75.623-400.238-113.673c-12.428-20.643-12.428-32.48-12.428-51.266 0-12.521 0-32.099 0-58.726zM118.4 681.936c86.619 63 224.177 94.497 412.666 94.497s313.334-31.914 374.534-95.748v69.97c-0.708 15.022-4.794 26.808-12.258 35.358-11.199 12.835-88.714 119.58-362.276 119.58s-376.964-75.623-400.238-113.673c-12.428-20.643-12.428-32.48-12.428-51.266 0-12.521 0-32.099 0-58.726z"></path>
</svg>
