<!-- Generated by IcoMoon.io -->
<svg version="1.1" xmlns="http://www.w3.org/2000/svg" width="1024" height="1024" viewBox="0 0 1024 1024">
<title></title>
<g id="icomoon-ignore">
</g>
<path d="M903.625 453.815h-256.068c-7.931 0-15.052 4.864-17.94 12.252l-19.046 48.712-18.345-48.511c-2.832-7.493-10.009-12.449-18.019-12.449h-87.43l-51.936-146c-5.86-16.47-28.86-17.25-35.823-1.214l-63.898 147.21h-214.745v-203.258c0-37.839 30.96-68.799 68.799-68.799h645.651c37.839 0 68.799 30.96 68.799 68.799v203.258zM903.625 514.779v148.582c0 37.839-30.96 68.799-68.799 68.799h-297.027v55.041h151.359c7.74 0 13.761 6.021 13.761 13.761v27.519c0 7.74-6.021 13.761-13.761 13.761h-357.759c-7.74 0-13.761-6.021-13.761-13.761v-27.519c0-7.74 6.021-13.761 13.761-13.761h151.359v-55.041h-293.584c-37.839 0-68.799-30.96-68.799-68.799v-148.582h227.387c7.675 0 14.615-4.556 17.671-11.595l49.479-113.997 40.122 112.782c2.73 7.678 9.998 12.805 18.148 12.805h87.714l31.355 82.918c6.239 16.504 29.536 16.632 35.959 0.202l32.495-83.12h242.916z"></path>
</svg>
