<!-- Generated by IcoMoon.io -->
<svg version="1.1" xmlns="http://www.w3.org/2000/svg" width="1024" height="1024" viewBox="0 0 1024 1024">
<title></title>
<g id="icomoon-ignore">
</g>
<path d="M145.040 154.020h733.934c15.817 0 28.638 12.821 28.638 28.638 0 1.625-0.137 3.243-0.41 4.84l-113.008 658.685c-2.356 13.745-14.277 23.798-28.228 23.798h-507.923c-13.946 0-25.867-10.048-28.228-23.798l-113.008-658.685c-2.677-15.59 7.793-30.392 23.383-33.069 1.597-0.273 3.22-0.41 4.84-0.41zM440.748 444.566l80.57-111.919 42.404 86.987-35.312 19.063 106.986 40.809 26.067-105.466-33.586 16.173-74.972-121.639h-73.946l-94.69 143.066 56.479 32.92zM659.537 535.739l60.17 123.284-99.277-8.058 0.545-39.040-90.122 68.993 81.626 74.512 2.278-36.152 146.663-1.829 36.97-61.79-81.067-150.659-57.791 30.736zM468.309 672.972l-140.745-11.364 56.874-78.928 34.768 19.977-16.864-109.802-107.693 30.949 31.307 19.979-71.69 123.463 36.97 61.79 175.762 7.587 1.312-63.656z"></path>
</svg>
