<!-- Generated by IcoMoon.io -->
<svg version="1.1" xmlns="http://www.w3.org/2000/svg" width="1024" height="1024" viewBox="0 0 1024 1024">
<title></title>
<g id="icomoon-ignore">
</g>
<path d="M459.87 271.768c10.937-10.937 24.302-16.405 40.1-16.405s29.163 5.468 40.1 16.405c10.937 10.937 16.405 24.91 16.405 41.924s-5.468 30.987-16.405 41.924l-89.312 91.136h395.527c15.797 0 29.163 5.772 40.1 17.318s16.405 25.214 16.405 41.012c0 15.797-5.468 29.467-16.405 41.012s-24.302 17.318-40.1 17.318h-395.527l87.492 91.136c10.937 10.937 16.405 24.91 16.405 41.924s-5.468 30.987-16.405 41.924c-10.937 10.937-23.998 16.405-39.187 16.405s-28.25-5.468-39.187-16.405l-182.272-193.205c-10.937-10.937-16.405-24.302-16.405-40.1 0-17.014 5.468-30.987 16.405-41.924l182.272-191.385zM167.871 255.363c25.772 0 46.661 20.889 46.661 46.661v419.952c0 25.772-20.889 46.661-46.661 46.661s-46.661-20.889-46.661-46.661v-419.952c0-25.772 20.889-46.661 46.661-46.661z"></path>
</svg>
