<!-- Generated by IcoMoon.io -->
<svg version="1.1" xmlns="http://www.w3.org/2000/svg" width="1024" height="1024" viewBox="0 0 1024 1024">
<title></title>
<g id="icomoon-ignore">
</g>
<path d="M133.52 367.621c-9.547-3.397-14.32-7.643-14.32-12.741s4.773-9.343 14.32-12.741l345.745-139.285c8.184-3.397 19.094-5.094 32.734-5.094s24.55 1.697 32.734 5.094l345.745 139.285c9.547 3.397 14.32 7.643 14.32 12.741s-4.773 9.343-14.32 12.741l-345.745 139.285c-8.184 3.397-19.094 5.094-32.734 5.094s-24.55-1.697-32.734-5.094l-345.745-139.285zM890.48 535.766c9.547 2.639 14.32 6.162 14.32 10.563s-4.773 7.921-14.32 10.563l-345.745 106.946c-10.912 3.52-21.822 5.282-32.734 5.282s-21.822-1.762-32.734-5.282l-345.745-106.946c-9.547-2.639-14.32-6.162-14.32-10.563s4.773-7.921 14.32-10.563c36.825-11.444 59.33-18.484 67.511-21.126 8.184-3.52 17.048-3.52 26.595 0l251.636 79.221c8.184 2.639 19.094 3.962 32.734 3.962s24.55-1.32 32.734-3.962c165.032-51.933 250.273-78.779 255.73-80.541 6.819-1.762 12.958-1.762 18.411 0l71.605 22.446zM890.48 693.41c9.547 2.656 14.32 5.976 14.32 9.962s-4.773 7.306-14.32 9.962l-345.745 108.922c-8.184 2.656-19.094 3.985-32.734 3.985s-24.55-1.329-32.734-3.985l-345.745-108.922c-9.547-2.656-14.32-5.976-14.32-9.962s4.773-7.306 14.32-9.962c36.825-12.397 59.33-19.923 67.511-22.582 6.819-2.656 15.686-2.215 26.595 1.329l251.636 78.369c8.184 2.656 19.094 3.985 32.734 3.985s24.55-1.329 32.734-3.985c165.032-51.361 250.273-77.928 255.73-79.699 6.819-1.771 12.958-1.771 18.411 0l71.605 22.582z"></path>
</svg>
