<!-- Generated by IcoMoon.io -->
<svg version="1.1" xmlns="http://www.w3.org/2000/svg" width="32" height="32" viewBox="0 0 32 32">
<title>cloud-platform</title>
<path d="M24 26.7c4.4 0 8-3.6 8-8-0.1-4.1-3.4-7.6-7.5-7.9v0c-1.9-3.4-5.4-5.5-9.3-5.5-2.6 0-5.1 0.9-7 2.6-1.8 1.5-3 3.6-3.5 5.9-2.8 0.8-4.7 3.4-4.7 6.3 0 3.3 2.4 6 5.6 6.5zM23.9 25h-17.5c-2.6 0-4.7-2.2-4.7-4.7 0-2.3 1.6-4.2 3.9-4.7l0.6-0.1 0.1-0.7c0.3-2.1 1.3-4 3-5.4 1.6-1.4 3.7-2.2 5.8-2.2 2.9 0 5.6 1.4 7.2 3.7-2 0.4-3.7 1.5-4.9 3.1-0.3 0.4-0.2 1 0.2 1.3s1 0.2 1.3-0.2c1.2-1.6 3-2.5 5-2.5 3.4 0 6.2 2.8 6.2 6.2s-2.8 6.2-6.2 6.2v0z"></path>
<path d="M20.8 18.6c-0.2 0-0.3 0-0.5-0.2-0.4-0.3-0.5-0.8-0.2-1.2 0.7-1.1 1.6-1.8 2.6-2.2 0.4-0.2 1 0 1.1 0.5 0.2 0.4 0 1-0.5 1.1-0.7 0.3-1.3 0.8-1.8 1.6-0.2 0.2-0.5 0.4-0.7 0.4z"></path>
<path d="M25.9 16.7c-0.1 0-0.2 0-0.4-0.1h-0.1c-0.5-0.2-0.7-0.7-0.5-1.1 0.2-0.5 0.7-0.7 1.1-0.5 0.2 0.1 0.3 0.1 0.3 0.1 0.4 0.2 0.6 0.7 0.4 1.2-0.1 0.2-0.4 0.4-0.8 0.4z"></path>
</svg>
