<!-- Generated by IcoMoon.io -->
<svg version="1.1" xmlns="http://www.w3.org/2000/svg" width="32" height="32" viewBox="0 0 32 32">
<title>cluster</title>
<path d="M25.3 19.2c-0.5 0-1.1 0.1-1.6 0.2l-4.5-7.9c1.2-0.9 1.9-2.4 1.9-4 0-2.9-2.3-5.2-5.2-5.2s-5.2 2.3-5.2 5.2c0 1.4 0.6 2.7 1.5 3.6l-4.6 8.1c-0.3-0.1-0.7-0.1-1.1-0.1-2.9 0-5.2 2.3-5.2 5.2s2.3 5.2 5.2 5.2c2.5 0 4.6-1.8 5.1-4.1h8.6c0.5 2.3 2.6 4.1 5.1 4.1 2.9 0 5.2-2.3 5.2-5.2s-2.3-5.1-5.2-5.1zM16 4.3c1.8 0 3.3 1.5 3.3 3.3s-1.5 3.3-3.3 3.3-3.3-1.5-3.3-3.3 1.5-3.3 3.3-3.3zM13.5 12.1c0.7 0.4 1.6 0.7 2.5 0.7 0.7 0 1.4-0.2 2.1-0.4l4.4 7.8c-1.3 0.9-2.2 2.3-2.3 4h-8.4c-0.1-1.8-1.2-3.4-2.7-4.2l4.4-7.9zM6.7 27.7c-1.8 0-3.3-1.5-3.3-3.3s1.5-3.3 3.3-3.3 3.3 1.5 3.3 3.3-1.5 3.3-3.3 3.3zM25.3 27.7c-1.8 0-3.3-1.5-3.3-3.3s1.5-3.3 3.3-3.3 3.3 1.5 3.3 3.3-1.4 3.3-3.3 3.3z"></path>
</svg>
