<!-- Generated by IcoMoon.io -->
<svg version="1.1" xmlns="http://www.w3.org/2000/svg" width="32" height="32" viewBox="0 0 32 32">
<title>domain</title>
<path d="M16 2c-7.7 0-14 6.3-14 14s6.3 14 14 14 14-6.3 14-14-6.3-14-14-14zM11.1 5c-0.5 0.7-1 1.6-1.4 2.5-0.5-0.2-1-0.5-1.4-0.8 0.8-0.7 1.8-1.2 2.8-1.7zM6.9 8c0.6 0.6 1.3 1 2.1 1.4-0.5 1.7-0.8 3.6-0.8 5.6h-4.4c0.2-2.7 1.3-5.1 3.1-7zM3.8 17h4.4c0.1 2 0.4 3.9 0.9 5.6-0.9 0.4-1.6 0.8-2.2 1.4-1.8-1.9-2.9-4.3-3.1-7zM8.3 25.3c0.4-0.3 0.9-0.6 1.4-0.9 0.4 0.9 0.9 1.8 1.4 2.5-1-0.4-2-0.9-2.8-1.6zM15.1 27.9c-1.5-0.4-2.8-1.9-3.8-4.1 1.2-0.4 2.4-0.6 3.8-0.7v4.8zM15.1 21c-1.6 0.1-3.1 0.4-4.4 0.8-0.4-1.5-0.7-3.1-0.8-4.9h5.2v4.1zM15.1 15h-5.2c0.1-1.8 0.4-3.4 0.8-4.9 1.4 0.5 2.8 0.8 4.4 0.8v4.1zM15.1 9c-1.3-0.1-2.6-0.3-3.8-0.7 0.9-2.2 2.3-3.7 3.8-4.1v4.8zM28.2 15h-4.4c-0.1-2-0.4-3.9-0.9-5.6 0.9-0.4 1.6-0.8 2.2-1.4 1.8 1.9 2.9 4.3 3.1 7zM23.7 6.7c-0.4 0.3-0.9 0.6-1.4 0.9-0.4-0.9-0.9-1.8-1.4-2.5 1 0.4 2 0.9 2.8 1.6zM16.9 4.1c1.5 0.4 2.8 1.9 3.7 4.1-1.2 0.4-2.4 0.6-3.7 0.7v-4.8zM16.9 11c1.6-0.1 3.1-0.4 4.4-0.8 0.4 1.5 0.7 3.1 0.8 4.9h-5.2v-4.1zM16.9 17h5.2c-0.1 1.8-0.4 3.4-0.8 4.9-1.4-0.5-2.8-0.8-4.4-0.8v-4.1zM16.9 27.9v-4.9c1.3 0.1 2.6 0.3 3.8 0.7-1 2.2-2.3 3.7-3.8 4.2zM20.9 27c0.5-0.7 1-1.6 1.4-2.5 0.5 0.3 1 0.5 1.4 0.9-0.8 0.6-1.8 1.1-2.8 1.6zM25.1 24c-0.6-0.5-1.4-1-2.2-1.4 0.5-1.7 0.8-3.6 0.9-5.6h4.4c-0.2 2.7-1.3 5.1-3.1 7z"></path>
</svg>
