<!-- Generated by IcoMoon.io -->
<svg version="1.1" xmlns="http://www.w3.org/2000/svg" width="32" height="32" viewBox="0 0 32 32">
<title>gear</title>
<path d="M15.894 23.043c-3.898 0-7.070-3.16-7.070-7.044 0-3.883 3.171-7.042 7.070-7.042s7.070 3.159 7.070 7.042c0 1.116-0.268 2.226-0.777 3.213l-1.75-0.902c0.37-0.719 0.557-1.497 0.557-2.311 0-2.797-2.288-5.073-5.1-5.073s-5.1 2.276-5.1 5.073c0 2.798 2.288 5.075 5.1 5.075 0.764 0 1.5-0.163 2.184-0.486l0.841 1.781c-0.95 0.448-1.967 0.674-3.025 0.674z"></path>
<path d="M18.909 32.001h-6.026l-0.838-4.082c-0.653-0.209-1.286-0.471-1.891-0.781l-3.524 2.326-0.567-0.63-3.237-3.262-0.321-0.534 2.206-3.324c-0.31-0.604-0.572-1.232-0.78-1.877l-4.102-0.828v-6.011l4.101-0.834c0.209-0.645 0.47-1.272 0.781-1.877l-2.192-3.296 0.458-0.754 3.085-3.069 0.531-0.649 3.562 2.344c0.605-0.31 1.238-0.572 1.891-0.782l0.832-4.082h6.028l0.837 4.082c0.655 0.21 1.288 0.471 1.892 0.781l3.602-2.378 0.512 0.702 3.235 3.276 0.285 0.522-2.191 3.302c0.311 0.603 0.572 1.231 0.782 1.877l4.101 0.828v6.012l-4.101 0.834c-0.21 0.646-0.472 1.274-0.782 1.877l2.209 3.319-0.473 0.73-3.082 3.066-0.527 0.658-3.57-2.349c-0.606 0.31-1.239 0.572-1.892 0.781l-0.833 4.083zM14.486 30.032h2.815l0.751-3.683 0.589-0.158c0.899-0.241 1.758-0.595 2.55-1.053l0.527-0.304 3.149 2.078 1.988-1.978-2.086-3.135 0.308-0.531c0.462-0.794 0.816-1.647 1.055-2.535l0.159-0.589 3.7-0.747v-2.794l-3.7-0.747-0.159-0.589c-0.238-0.888-0.595-1.742-1.055-2.534l-0.308-0.531 2.087-3.135-1.989-1.978-3.149 2.078-0.528-0.302c-0.792-0.457-1.649-0.811-2.55-1.053l-0.589-0.158-0.751-3.683h-2.815l-0.749 3.682-0.588 0.158c-0.901 0.242-1.759 0.596-2.549 1.054l-0.528 0.305-3.149-2.080-1.989 1.978 2.085 3.135-0.307 0.53c-0.462 0.797-0.817 1.649-1.055 2.535l-0.159 0.589-3.7 0.747v2.794l3.7 0.747 0.159 0.589c0.238 0.887 0.594 1.742 1.056 2.536l0.307 0.53-2.086 3.133 1.989 1.979 3.149-2.078 0.527 0.304c0.794 0.458 1.651 0.812 2.549 1.053l0.589 0.158 0.75 3.683z"></path>
</svg>
