<!-- Generated by IcoMoon.io -->
<svg version="1.1" xmlns="http://www.w3.org/2000/svg" width="32" height="32" viewBox="0 0 32 32">
<title>help</title>
<path d="M17 22.061h-2v-1.98c0-2.035 2.449-3.811 2.941-4.146 0.963-0.696 1.553-1.844 1.553-3.054 0-2.099-1.684-3.625-3.75-3.625-2.105 0-3.756 1.804-3.756 3.804h-2c0-4 2.529-5.804 5.756-5.804 3.17 0 5.75 2.514 5.75 5.715 0 1.852-0.898 3.559-2.404 4.646-0.856 0.587-2.090 1.729-2.090 2.462v1.982z"></path>
<path d="M14.116 30.941c-7.477-0.935-13.116-7.334-13.116-14.881 0-8.272 6.729-15.001 15-15.001s15 6.729 15 15.001c0 7.375-5.271 13.599-12.536 14.797l-0.325-1.975c6.293-1.038 10.861-6.431 10.861-12.822 0-7.169-5.831-13.001-13-13.001-7.168 0-13 5.832-13 13.001 0 6.542 4.886 12.086 11.364 12.897l-0.248 1.984z"></path>
<path d="M14.957 24.061h2.043v1.937h-2.043v-1.937z"></path>
</svg>
