<!-- Generated by IcoMoon.io -->
<svg version="1.1" xmlns="http://www.w3.org/2000/svg" width="32" height="32" viewBox="0 0 32 32">
<title>search</title>
<path d="M10.791 14.082c0-1.749 1.422-3.171 3.17-3.171v-2.243c-2.986 0-5.414 2.429-5.414 5.414h2.244z"></path>
<path d="M22.061 20.445c1.416-1.803 2.209-4.031 2.209-6.363 0-5.685-4.625-10.309-10.308-10.309-5.684 0-10.309 4.624-10.309 10.309s4.625 10.307 10.309 10.307c1.147 0 2.265-0.195 3.337-0.563l-0.768-2.106c-0.825 0.278-1.686 0.428-2.57 0.428-4.447 0-8.064-3.617-8.064-8.062 0-4.447 3.617-8.065 8.064-8.065s8.064 3.618 8.064 8.065c0 1.883-0.664 3.68-1.84 5.109l-1.279 1.296 7.865 7.739 1.576-1.599-6.286-6.186z"></path>
</svg>
