<!-- Generated by IcoMoon.io -->
<svg version="1.1" xmlns="http://www.w3.org/2000/svg" width="32" height="32" viewBox="0 0 32 32">
<title>block-storage-gateway</title>
<path d="M13.67 26.718v5.282h18.019v-5.282h-18.019zM19.262 30.291h-1.864v-1.398h0.466v-0.466h1.087v0.466h0.466v1.398zM22.369 30.291h-1.864v-1.398h0.466v-0.466h1.087v0.466h0.466v1.398zM27.495 30.136c-0.466 0-0.777-0.311-0.777-0.777s0.311-0.777 0.777-0.777c0.466 0 0.777 0.311 0.777 0.777 0 0.311-0.311 0.777-0.777 0.777z"></path>
<path d="M26.563 10.874c0 2.145-5.912 3.883-13.204 3.883s-13.204-1.739-13.204-3.883c0-2.145 5.912-3.883 13.204-3.883s13.204 1.739 13.204 3.883z"></path>
<path d="M13.359 16.466c-7.301 0-13.204-1.709-13.204-3.883v6.214c0 2.175 5.903 3.884 13.204 3.884s13.204-1.709 13.204-3.884v-6.214c0 2.019-5.903 3.884-13.204 3.884z"></path>
<path d="M8.544 4.971l1.398 1.087c0.932-0.777 2.485-1.087 3.728-1.087 1.398 0 2.641 0.466 3.728 1.087l1.398-1.087c-1.398-1.087-3.262-1.709-5.126-1.709s-3.728 0.777-5.126 1.709z"></path>
<path d="M7.456 3.728c1.709-1.398 3.884-2.019 6.369-2.019 2.33 0 4.66 0.777 6.369 2.175 0.155 0 0.155 0 0.155 0l1.398-1.087c0 0-0.155-0.155-0.155-0.155-2.175-1.709-4.816-2.641-7.612-2.641-2.951 0-5.592 0.932-7.767 2.485-0.155 0-0.155 0.155-0.155 0.311l1.398 1.087c-0.155 0 0 0 0-0.155z"></path>
<path d="M13.359 24.388c-1.398 0-2.641 0-3.883-0.155 1.243 0 2.641 0.155 3.883 0.155v0z"></path>
<path d="M17.398 24.233c-1.243 0.155-2.485 0.155-3.883 0.155v0c1.243 0 2.641-0.155 3.883-0.155z"></path>
<path d="M21.748 23.456c0.621-0.155 1.243-0.311 1.709-0.466-0.466 0.155-1.087 0.311-1.709 0.466z"></path>
<path d="M23.612 22.99c-0.466 0.155-1.087 0.311-1.709 0.466-1.243 0.311-2.796 0.621-4.505 0.777-1.243 0.155-2.485 0.155-3.883 0.155v0c-1.398 0-2.641 0-3.883-0.155-5.282-0.466-9.32-2.019-9.32-3.728v7.612c0 2.019 5.437 3.728 12.272 3.884v-6.369h14.136v-5.126c-0.155 0.932-1.243 1.709-3.107 2.485z"></path>
</svg>
