<!-- Generated by IcoMoon.io -->
<svg version="1.1" xmlns="http://www.w3.org/2000/svg" width="32" height="32" viewBox="0 0 32 32">
<title>dc</title>
<path d="M22.4 29.4h-12.3v-19.4h12.3v19.4zM11.7 27.8h9.1v-16.2h-9.1v16.2z"></path>
<path d="M5.6 11.8l10.4-7.6 10.8 7.6h3.5l-14.3-10-13.8 10z"></path>
<path d="M20.3 12.9v-0.8h-8.1v0.8h-0.5v0.3h0.5v0.8h8.1v-0.8h0.5v-0.3h-0.5zM13.3 13.2h-0.3v-0.3h0.3v0.3zM14 13.2h-0.3v-0.3h0.3v0.3zM15.1 13.7h-0.3v-1.2h0.3v1.2zM15.6 13.7h-0.3v-1.2h0.3v1.2zM16.1 13.7h-0.3v-1.2h0.3v1.2zM16.6 13.7h-0.3v-1.2h0.3v1.2zM17.1 13.7h-0.3v-1.2h0.3v1.2zM17.6 13.7h-0.3v-1.2h0.3v1.2zM18.1 13.7h-0.3v-1.2h0.3v1.2zM18.6 13.7h-0.3v-1.2h0.3v1.2zM19.1 13.7h-0.3v-1.2h0.3v1.2zM19.6 13.7h-0.3v-1.2h0.3v1.2z"></path>
<path d="M20.3 17.3v-0.8h-8.1v0.8h-0.5v0.3h0.5v0.8h8.1v-0.8h0.5v-0.3h-0.5zM13.3 17.6h-0.3v-0.3h0.3v0.3zM14 17.6h-0.3v-0.3h0.3v0.3zM15.1 18.1h-0.3v-1.2h0.3v1.2zM15.6 18.1h-0.3v-1.2h0.3v1.2zM16.1 18.1h-0.3v-1.2h0.3v1.2zM16.6 18.1h-0.3v-1.2h0.3v1.2zM17.1 18.1h-0.3v-1.2h0.3v1.2zM17.6 18.1h-0.3v-1.2h0.3v1.2zM18.1 18.1h-0.3v-1.2h0.3v1.2zM18.6 18.1h-0.3v-1.2h0.3v1.2zM19.1 18.1h-0.3v-1.2h0.3v1.2zM19.6 18.1h-0.3v-1.2h0.3v1.2z"></path>
<path d="M20.3 21.7v-0.8h-8.1v0.8h-0.5v0.3h0.5v0.8h8.1v-0.8h0.5v-0.3h-0.5zM13.3 22h-0.3v-0.3h0.3v0.3zM14 22h-0.3v-0.3h0.3v0.3zM15.1 22.5h-0.3v-1.2h0.3v1.2zM15.6 22.5h-0.3v-1.2h0.3v1.2zM16.1 22.5h-0.3v-1.2h0.3v1.2zM16.6 22.5h-0.3v-1.2h0.3v1.2zM17.1 22.5h-0.3v-1.2h0.3v1.2zM17.6 22.5h-0.3v-1.2h0.3v1.2zM18.1 22.5h-0.3v-1.2h0.3v1.2zM18.6 22.5h-0.3v-1.2h0.3v1.2zM19.1 22.5h-0.3v-1.2h0.3v1.2zM19.6 22.5h-0.3v-1.2h0.3v1.2z"></path>
<path d="M20.3 26.1v-0.8h-8.1v0.8h-0.5v0.3h0.5v0.8h8.1v-0.8h0.5v-0.3h-0.5zM13.3 26.4h-0.3v-0.3h0.3v0.3zM14 26.4h-0.3v-0.3h0.3v0.3zM15.1 26.9h-0.3v-1.2h0.3v1.2zM15.6 26.9h-0.3v-1.2h0.3v1.2zM16.1 26.9h-0.3v-1.2h0.3v1.2zM16.6 26.9h-0.3v-1.2h0.3v1.2zM17.1 26.9h-0.3v-1.2h0.3v1.2zM17.6 26.9h-0.3v-1.2h0.3v1.2zM18.1 26.9h-0.3v-1.2h0.3v1.2zM18.6 26.9h-0.3v-1.2h0.3v1.2zM19.1 26.9h-0.3v-1.2h0.3v1.2zM19.6 26.9h-0.3v-1.2h0.3v1.2z"></path>
<path d="M2.6 28.9h6.9v-1.4l-5.6 0.1-0.1-13.4h5.6v-1.3h-6.9z"></path>
<path d="M4.4 16.5v0.8h-0.6v0.3h0.5v0.8h5v-1.9h-4.9zM5.5 17.6h-0.3v-0.3h0.3v0.3zM6.1 17.6h-0.3v-0.3h0.3v0.3zM7.2 18.1h-0.3v-1.2h0.3v1.2zM7.7 18.1h-0.3v-1.2h0.3v1.2zM8.2 18.1h-0.2v-1.2h0.3v1.2zM8.7 18.1h-0.2v-1.2h0.3v1.2zM9 18.1v-1.2h0.3v1.2h-0.3z"></path>
<path d="M4.4 22.7v0.8h-0.6v0.3h0.5v0.8h5v-1.9h-4.9zM5.5 23.9h-0.3v-0.3h0.3v0.3zM6.1 23.9h-0.3v-0.3h0.3v0.3zM7.2 24.3h-0.3v-1.2h0.3v1.2zM7.7 24.3h-0.3v-1.2h0.3v1.2zM8.2 24.3h-0.2v-1.2h0.3v1.2zM8.7 24.3h-0.2v-1.2h0.3v1.2zM9 24.3v-1.2h0.3v1.2h-0.3z"></path>
<path d="M30.1 28.9h-7v-1.4l5.7 0.1v-13.4h-5.6v-1.3h6.9z"></path>
<path d="M23.2 16.5v1.9h5v-0.8h0.5v-0.3h-0.5v-0.8h-5zM27.2 17.3h0.3v0.3h-0.3v-0.3zM26.5 17.3h0.3v0.3h-0.3v-0.3zM25.4 16.9h0.3v1.2h-0.3v-1.2zM24.9 16.9h0.3v1.2h-0.3v-1.2zM24.4 16.9h0.3v1.2h-0.3v-1.2zM23.9 16.9h0.3v1.2h-0.3v-1.2zM23.4 18.1v-1.2h0.3v1.2h-0.3z"></path>
<path d="M23.2 22.7v1.9h5v-0.8h0.5v-0.3h-0.5v-0.8h-5zM27.2 23.6h0.3v0.3h-0.3v-0.3zM26.5 23.6h0.3v0.3h-0.3v-0.3zM25.4 23.1h0.3v1.2h-0.3v-1.2zM24.9 23.1h0.3v1.2h-0.3v-1.2zM24.4 23.1h0.3v1.2h-0.3v-1.2zM23.9 23.1h0.3v1.2h-0.3v-1.2zM23.4 24.3v-1.2h0.3v1.2h-0.3z"></path>
</svg>
