<!-- Generated by IcoMoon.io -->
<svg version="1.1" xmlns="http://www.w3.org/2000/svg" width="32" height="32" viewBox="0 0 32 32">
<title>host</title>
<path d="M26.147 8.067c0 0.509-0.413 0.922-0.922 0.922s-0.922-0.413-0.922-0.922c0-0.509 0.413-0.923 0.922-0.923s0.922 0.413 0.922 0.923z"></path>
<path d="M1.24 4.1v8.21h29.427v-8.21h-29.427zM28.73 10.281h-25.461v-4.243h25.461v4.243z"></path>
<path d="M26.147 18.675c0 0.509-0.413 0.922-0.922 0.922s-0.922-0.413-0.922-0.922c0-0.509 0.413-0.922 0.922-0.922s0.922 0.413 0.922 0.922z"></path>
<path d="M1.24 22.826h13.837v3.044h-5.535l-2.029 2.029h16.974l-2.029-2.029h-5.443v-4.981h-13.745v-4.243h25.461v4.243h-7.657v1.937h9.594v-8.21h-29.427z"></path>
</svg>
