<!-- Generated by IcoMoon.io -->
<svg version="1.1" xmlns="http://www.w3.org/2000/svg" width="32" height="32" viewBox="0 0 32 32">
<title>monitor-role</title>
<path d="M0.608 17.418v11.949c0 0.81 0.81 1.62 1.62 1.62h28.76c0.81 0 1.62-0.81 1.62-1.62v-11.949h-32zM23.696 25.316h-17.823v-1.823h17.62v1.823zM27.139 25.316c-0.608 0-1.013-0.405-1.013-1.013s0.405-1.013 1.013-1.013 1.013 0.405 1.013 1.013c0 0.608-0.405 1.013-1.013 1.013z"></path>
<path d="M18.025 15.19h14.582v-6.278h-11.139z"></path>
<path d="M11.342 11.949h-10.734v3.241h16.405l-2.633-9.114z"></path>
<path d="M14.582 1.62h-12.354c-0.81 0-1.62 0.81-1.62 1.62v6.684h9.519l4.456-8.304z"></path>
<path d="M20.253 6.886h12.152v-3.646c0-0.81-0.81-1.62-1.62-1.62h-15.595l2.633 9.316 2.43-4.051z"></path>
</svg>
