<!-- Generated by IcoMoon.io -->
<svg version="1.1" xmlns="http://www.w3.org/2000/svg" width="32" height="32" viewBox="0 0 32 32">
<title>pool</title>
<path d="M3.948 25.475c-2.313-0.93-3.91-3.252-3.91-5.901 0-3.383 2.591-6.506 5.914-6.734-0.002-0.060-0.002-0.121-0.002-0.181 0-4.946 4.051-8.628 8.979-8.628 3.648 0 6.949 2.277 8.295 5.628 4.688-0.298 8.659 3.476 8.659 8.15 0 3.123-1.754 5.84-4.323 7.215l-0.767-1.784c1.847-1.080 3.090-3.109 3.090-5.431 0-3.45-2.756-6.258-6.143-6.258-0.341 0-0.687 0.030-1.029 0.090l-0.894 0.154-0.248-0.834c-0.875-2.955-3.606-5.021-6.642-5.021-3.391 0-6.218 2.219-6.848 5.437-0.027 0.135-0.192 1.080-0.229 1.594-0.027 0.369 0.066 1.781 0.066 1.781s-0.766-0.070-1.453-0.070c-2.425 0-4.428 2.412-4.428 4.891 0 1.858 1.109 3.459 2.688 4.143 0 0 0.756 0.412 1.549 0.537l-0.547 1.771c0.003-0.001-0.603-0.077-1.777-0.549z"></path>
<path d="M14.106 18.455c-2.455 0-5.099-0.59-5.099-1.887 0-1.296 2.644-1.886 5.099-1.886 2.457 0 5.099 0.59 5.099 1.886 0 1.297-2.643 1.887-5.099 1.887zM14.106 15.621c-2.725 0-4.097 0.689-4.159 0.953 0.062 0.253 1.435 0.941 4.159 0.941s4.098-0.688 4.16-0.951c-0.062-0.253-1.436-0.943-4.16-0.943z"></path>
<path d="M14.106 21.193c-2.455 0-5.099-0.592-5.099-1.887 0-0.261 0.21-0.47 0.47-0.47s0.47 0.209 0.47 0.47c0.059 0.258 1.428 0.946 4.159 0.946 0.211 0 0.418-0.004 0.619-0.014 0.282-0.011 0.479 0.188 0.49 0.448 0.011 0.258-0.188 0.478-0.448 0.49-0.215 0.012-0.435 0.017-0.661 0.017z"></path>
<path d="M14.101 26.838c-2.453 0-5.093-0.59-5.093-1.885v-8.385c0-0.259 0.211-0.468 0.47-0.468s0.47 0.209 0.47 0.468v8.385c0.059 0.256 1.425 0.945 4.153 0.945 0.326 0 0.642-0.010 0.952-0.029 0.278-0.031 0.48 0.18 0.497 0.438 0.017 0.26-0.18 0.482-0.439 0.5-0.328 0.019-0.665 0.031-1.010 0.031z"></path>
<path d="M18.734 19.775c-0.26 0-0.469-0.209-0.469-0.469v-2.738c0-0.258 0.209-0.468 0.469-0.468s0.471 0.21 0.471 0.468v2.738c0 0.26-0.21 0.469-0.471 0.469z"></path>
<path d="M14.101 24.020c-2.453 0-5.093-0.592-5.093-1.889 0-0.26 0.211-0.469 0.47-0.469s0.469 0.209 0.47 0.467c0.062 0.262 1.429 0.951 4.153 0.951 0.305 0 0.606-0.008 0.892-0.027 0.25-0.023 0.482 0.18 0.501 0.438 0.017 0.26-0.179 0.483-0.437 0.502-0.307 0.019-0.63 0.027-0.956 0.027z"></path>
<path d="M19.636 22.801c-2.454 0-5.099-0.59-5.099-1.885 0-1.299 2.645-1.889 5.099-1.889 2.455 0 5.101 0.59 5.101 1.889-0.003 1.295-2.646 1.885-5.101 1.885zM19.636 19.965c-2.717 0-4.094 0.693-4.159 0.957 0.059 0.252 1.427 0.941 4.159 0.941 2.734 0 4.103-0.689 4.16-0.951-0.066-0.254-1.442-0.947-4.16-0.947z"></path>
<path d="M19.636 25.436c-2.454 0-5.099-0.59-5.099-1.887 0-0.26 0.211-0.469 0.47-0.469s0.47 0.209 0.47 0.469c0.062 0.258 1.435 0.947 4.159 0.947s4.099-0.689 4.16-0.951c0-0.26 0.21-0.467 0.47-0.467s0.471 0.211 0.471 0.471c-0.003 1.297-2.646 1.887-5.101 1.887z"></path>
<path d="M19.636 27.971c-2.454 0-5.099-0.59-5.099-1.887v-5.168c0-0.26 0.211-0.469 0.47-0.469s0.47 0.209 0.47 0.469v5.168c0.062 0.26 1.436 0.947 4.159 0.947 2.726 0 4.099-0.688 4.16-0.951v-5.164c0-0.26 0.21-0.469 0.47-0.469s0.471 0.209 0.471 0.469v5.168c-0.003 1.297-2.646 1.887-5.101 1.887z"></path>
</svg>
