<!-- Generated by IcoMoon.io -->
<svg version="1.1" xmlns="http://www.w3.org/2000/svg" width="32" height="32" viewBox="0 0 32 32">
<title>s3-gateway-role</title>
<path d="M13.283 26.717v5.283h18.113v-5.283h-18.113zM18.868 30.189h-1.962v-1.358h0.453v-0.453h1.057v0.453h0.453v1.358zM22.038 30.189h-1.962v-1.358h0.453v-0.453h1.057v0.453h0.453v1.358zM27.17 30.038c-0.453 0-0.755-0.302-0.755-0.755s0.302-0.755 0.755-0.755c0.453 0 0.755 0.302 0.755 0.755s-0.302 0.755-0.755 0.755z"></path>
<path d="M9.208 4.981l1.358 1.208c1.057-0.755 2.566-1.208 3.925-1.208s2.717 0.453 3.774 1.208l1.358-1.208c-1.358-1.057-3.17-1.66-5.132-1.66s-3.774 0.755-5.283 1.66z"></path>
<path d="M8.151 3.774c1.66-1.359 3.925-2.113 6.34-2.113 2.264 0 4.679 0.755 6.34 2.113 0.151 0 0.151 0 0.151 0l1.358-1.057c0 0-0.151-0.151-0.151-0.151-2.113-1.66-4.83-2.566-7.698-2.566-3.019 0-5.585 0.906-7.849 2.566-0.151 0-0.151 0.151-0.151 0.302l1.359 1.057c0.151 0 0.302 0 0.302-0.151z"></path>
<path d="M29.283 11.17c0 2.334-6.42 4.226-14.34 4.226s-14.34-1.892-14.34-4.226c0-2.334 6.42-4.226 14.34-4.226s14.34 1.892 14.34 4.226z"></path>
<path d="M14.943 17.208c-7.849 0-14.038-2.415-14.34-4.226l4.83 14.792c0.604 1.358 1.359 3.472 6.491 4.075v-6.189h12.83l1.208-2.868 1.811-5.585 1.208-3.623c-0.755 1.811-6.642 3.623-14.038 3.623z"></path>
</svg>
