<!-- Generated by IcoMoon.io -->
<svg version="1.1" xmlns="http://www.w3.org/2000/svg" width="32" height="32" viewBox="0 0 32 32">
<title>storage-client</title>
<path d="M7.645 13.793l2.049 2.207c1.576-1.419 3.626-2.207 5.675-2.207 2.207 0 4.099 0.788 5.675 2.207l2.207-2.207c-2.207-2.049-4.887-3.153-7.882-3.153-2.837 0-5.675 1.103-7.724 3.153z"></path>
<path d="M5.911 11.429c2.522-2.522 5.99-3.941 9.773-3.941 3.626 0 7.094 1.419 9.773 4.099 0.158 0.158 0.158 0.158 0.315 0.158l2.049-2.049c0-0.158-0.158-0.315-0.315-0.473-3.31-3.31-7.409-4.887-11.823-4.887-4.571-0.158-8.67 1.576-11.823 4.729-0.158 0.158-0.315 0.315-0.315 0.631l2.049 2.049c0 0 0.158 0 0.315-0.315z"></path>
<path d="M-0.236 18.522v9.143h32v-9.143c0 0-32 0-32 0zM9.537 24.67h-3.468v-2.365h0.788v-0.946h2.049v0.946h0.788v2.365h-0.158zM15.054 24.67h-3.468v-2.365h0.788v-0.946h2.049v0.946h0.788v2.365h-0.158zM24.197 24.512c-0.788 0-1.419-0.631-1.419-1.419s0.631-1.419 1.419-1.419 1.419 0.631 1.419 1.419-0.631 1.419-1.419 1.419z"></path>
</svg>
