<!-- Generated by IcoMoon.io -->
<svg version="1.1" xmlns="http://www.w3.org/2000/svg" width="32" height="32" viewBox="0 0 32 32">
<title>storage-witness</title>
<path d="M23.716 25.849c0 0.74 0.619 1.338 1.376 1.336 0.759 0 1.374-0.604 1.372-1.342-0.002-0.742-0.62-1.342-1.38-1.338-0.757 0.002-1.371 0.604-1.369 1.344zM21.918 26.607l-0.004-1.507-17.956 0.042 0.005 1.507 17.954-0.042zM0 21.41l31.977-0.076 0.023 8.99-31.977 0.076-0.023-8.99zM11.493 17.027l-4.084-4.463c-0.409-0.448-0.409-1.19 0.062-1.607l0.64-0.595c0.215-0.208 0.504-0.319 0.8-0.307s0.576 0.145 0.775 0.369l4.082 4.463c0.409 0.448 0.409 1.19-0.059 1.607l-0.642 0.595c-0.456 0.414-1.151 0.387-1.575-0.062v0zM16.946 3.554l4.082 4.463c0.409 0.448 0.409 1.19-0.059 1.607l-0.642 0.595c-0.439 0.417-1.166 0.417-1.575-0.062l-4.080-4.461c-0.409-0.448-0.409-1.19 0.057-1.607l0.642-0.595c0.437-0.417 1.138-0.384 1.575 0.060v0zM22.411 17.843l0.027 1.306-1.31-0.238c0 0-0.524-0.089-0.933-0.504l-3.716-4-0.757 0.714-0.96-1.101-0.556 0.506-4.139-4.521 4.169-3.953 4.171 4.517-0.612 0.568 0.96 1.099-0.64 0.595 3.888 4.085c0.409 0.421 0.409 0.925 0.409 0.925v0.002z"></path>
</svg>
