<!-- Generated by IcoMoon.io -->
<svg version="1.1" xmlns="http://www.w3.org/2000/svg" width="32" height="32" viewBox="0 0 32 32">
<title>storage-server</title>
<path d="M-0.236 4.65v9.143h32v-9.143h-32zM21.675 10.010h-17.97v-1.576h17.97c0 0 0 1.576 0 1.576zM24.828 10.64c-0.788 0-1.419-0.631-1.419-1.419s0.631-1.419 1.419-1.419 1.419 0.631 1.419 1.419c0 0.788-0.631 1.419-1.419 1.419z"></path>
<path d="M-0.236 18.049v9.143h32v-9.143h-32zM21.675 23.567h-17.97v-1.576h17.97c0 0 0 1.576 0 1.576zM24.828 24.039c-0.788 0-1.419-0.631-1.419-1.419s0.631-1.419 1.419-1.419 1.419 0.631 1.419 1.419-0.631 1.419-1.419 1.419z"></path>
</svg>
