<!-- Generated by IcoMoon.io -->
<svg version="1.1" xmlns="http://www.w3.org/2000/svg" width="32" height="32" viewBox="0 0 32 32">
<title>stretched-cluster</title>
<path d="M14.91 15.573c-1.396-0.236-2.607-1.017-3.405-2.117l-4.868 2.167c0.047 0.226 0.072 0.46 0.072 0.699 0 1.871-1.516 3.387-3.387 3.387s-3.387-1.517-3.387-3.387c0-1.871 1.516-3.387 3.387-3.387 0.988 0 1.878 0.423 2.497 1.098l4.895-2.18c-0.142-0.479-0.219-0.987-0.219-1.513 0-2.931 2.376-5.307 5.307-5.307s5.307 2.376 5.307 5.307c0 0.508-0.072 1-0.205 1.465l5.199 2.315c0.621-0.726 1.544-1.186 2.574-1.186 1.871 0 3.387 1.517 3.387 3.387s-1.517 3.387-3.387 3.387c-1.871 0-3.387-1.517-3.387-3.387 0-0.2 0.017-0.396 0.051-0.587l-5.213-2.321c-0.798 1.121-2.021 1.919-3.433 2.158v2.79c1.972 0.412 3.454 2.161 3.454 4.255 0 2.401-1.946 4.347-4.347 4.347s-4.347-1.946-4.347-4.347c0-2.095 1.482-3.844 3.455-4.256v-2.79zM15.802 12.995c1.466 0 2.653-1.188 2.653-2.653s-1.188-2.653-2.653-2.653c-1.466 0-2.653 1.188-2.653 2.653s1.188 2.653 2.653 2.653zM15.802 24.792c1.2 0 2.174-0.973 2.174-2.174s-0.973-2.174-2.174-2.174c-1.2 0-2.174 0.973-2.174 2.174s0.973 2.174 2.174 2.174zM3.322 18.016c0.935 0 1.694-0.758 1.694-1.694s-0.758-1.694-1.694-1.694c-0.935 0-1.694 0.758-1.694 1.694s0.758 1.694 1.694 1.694zM28.678 18.016c0.935 0 1.694-0.758 1.694-1.694s-0.758-1.694-1.694-1.694c-0.935 0-1.694 0.758-1.694 1.694s0.758 1.694 1.694 1.694z"></path>
</svg>
