<!-- Generated by IcoMoon.io -->
<svg version="1.1" xmlns="http://www.w3.org/2000/svg" width="32" height="32" viewBox="0 0 32 32">
<title>object-search</title>
<path d="M13 15.7c0 0.4 0.1 0.9 0.3 1.3l1.3-0.6c-0.1-0.2-0.1-0.4-0.1-0.7 0-0.9 0.7-1.6 1.6-1.6v-1.5c-1.7 0.1-3.1 1.4-3.1 3.1z"></path>
<path d="M21.1 19c0.6-0.9 1-2.1 1-3.3 0-3.3-2.7-6-6-6s-6 2.7-6 6c0 3.3 2.7 6 6 6 1.3 0 2.4-0.4 3.4-1.1l2.1 2.1 1.2-1.2-2.1-2.1c0.3-0.2 0.4-0.4 0.4-0.4zM16.1 20.1c-2.4 0-4.3-1.9-4.3-4.3s1.9-4.3 4.3-4.3c2.4 0 4.3 1.9 4.3 4.3 0 2.3-1.9 4.3-4.3 4.3z"></path>
<path d="M28.9 9c0-3.9-6.9-5.3-12.9-5.3-5.9 0-12.9 1.4-12.9 5.3 0 0.3 0 0.6 0.1 0.8l2 13.2c0 3.4 3.8 5.3 10.8 5.3s10.8-1.9 10.8-5.3l2-13.2c0-0.3 0.1-0.5 0.1-0.8zM24.9 22.8v0.3c0 2.1-3.3 3.4-8.9 3.4s-8.9-1.3-8.9-3.5l-1.6-10.7c1 0.6 2.4 1 3.8 1.3 0.2-0.6 0.5-1.2 0.8-1.8-2.9-0.6-4.9-1.6-5.1-2.7v-0.2c0.1-1.9 5-3.4 11-3.4s10.9 1.5 11 3.4v0.2c-0.2 1.1-2.1 2.1-4.9 2.7 0.4 0.5 0.6 1.1 0.8 1.7 1.4-0.3 2.6-0.7 3.6-1.3l-1.6 10.6z"></path>
</svg>
