<!-- Generated by IcoMoon.io -->
<svg version="1.1" xmlns="http://www.w3.org/2000/svg" width="32" height="32" viewBox="0 0 32 32">
<title>object-storage-policy</title>
<path d="M12.3 30.2v-2.1h14.1c0.1 0 0.2-0.1 0.2-0.2v-18.5h2.1v18.5c0 1.3-1 2.3-2.3 2.3h-14.1z"></path>
<path d="M29.1 8.9h-5.7c-1 0-1.8-0.8-1.8-1.8v-5.8z"></path>
<path d="M10.7 9.3h2.1v2.1h-2.1v-2.1z"></path>
<path d="M14.1 9.3h9.8v2.1h-9.8v-2.1z"></path>
<path d="M14.1 20.1h9.8v2.1h-9.8v-2.1z"></path>
<path d="M10.7 20.1h2.1v2.1h-2.1v-2.1z"></path>
<path d="M4.2 27v3.9l2-1.6 2 1.6v-3.9c-0.6 0.4-1.2 0.7-2 0.7s-1.4-0.3-2-0.7z"></path>
<path d="M6.2 20.5c-1.8 0-3.3 1.5-3.3 3.3 0 1.1 0.5 2 1.3 2.6 0.6 0.4 1.2 0.7 2 0.7 0.7 0 1.4-0.3 2-0.7 0.8-0.6 1.3-1.6 1.3-2.6 0-1.8-1.5-3.3-3.3-3.3z"></path>
<path d="M8.2 1.1c-1.7 0-3.1 1.4-3.1 3.1v16h0.1c0.3-0.1 0.6-0.1 0.9-0.1s0.6 0 0.9 0.1h0.1v-16c0-0.5 0.4-1 1-1h12.8v-2.1h-12.7z"></path>
</svg>
